<svg width="135" height="103" viewBox="0 0 135 103" fill="none" xmlns="http://www.w3.org/2000/svg">
<rect width="135" height="103" fill="white" fill-opacity="0.6"/>
<path d="M6 14C6 9.58172 9.58172 6 14 6C18.4183 6 22 9.58172 22 14C22 18.4183 18.4183 22 14 22C9.58172 22 6 18.4183 6 14Z" fill="#0054F9"/>
<path d="M15.4371 12.6831C16.2304 13.4765 16.2304 14.7641 15.4371 15.5574C14.6437 16.3508 13.3561 16.3508 12.5628 15.5574C11.7694 14.7641 11.7694 13.4765 12.5628 12.6831C13.3561 11.8898 14.6437 11.8898 15.4371 12.6831Z" fill="white"/>
<path d="M12.7809 17.3782C12.7516 17.3782 12.7191 17.3717 12.6898 17.3619C11.9583 17.0693 11.3665 16.5523 10.9698 15.8695C10.5862 15.203 10.4333 14.4486 10.5341 13.6813C10.5504 13.548 10.6772 13.4537 10.8073 13.47C10.9406 13.4862 11.0349 13.6098 11.0186 13.7431C10.9341 14.4031 11.0641 15.0534 11.3925 15.6257C11.7307 16.2109 12.2411 16.6564 12.8687 16.9067C12.9922 16.9588 13.054 17.0986 13.0052 17.2254C12.9695 17.3197 12.8752 17.3782 12.7809 17.3782Z" fill="white"/>
<path d="M12.0004 11.7987C11.9288 11.7987 11.8573 11.7662 11.8085 11.7044C11.724 11.6004 11.7435 11.4476 11.8508 11.363C12.4686 10.8786 13.2131 10.6217 14 10.6217C14.7673 10.6217 15.4989 10.8688 16.1134 11.337C16.2207 11.4183 16.2402 11.5711 16.159 11.6784C16.0777 11.7857 15.9248 11.8052 15.8176 11.7239C15.2876 11.3208 14.66 11.1094 14 11.1094C13.3237 11.1094 12.6832 11.3305 12.1499 11.7467C12.1044 11.7825 12.0524 11.7987 12.0004 11.7987Z" fill="white"/>
<path d="M15.2193 17.3782C15.1218 17.3782 15.0307 17.3197 14.9917 17.2254C14.943 17.1019 15.0015 16.9588 15.1283 16.9068C15.7558 16.6532 16.2663 16.211 16.6044 15.6257C16.9361 15.0535 17.0661 14.4032 16.9784 13.7464C16.9621 13.6131 17.0564 13.4895 17.1897 13.4733C17.3198 13.457 17.4466 13.5513 17.4628 13.6846C17.5604 14.4487 17.4108 15.2063 17.0271 15.8728C16.6337 16.5556 16.0387 17.0694 15.3071 17.3652C15.2811 17.3717 15.2518 17.3782 15.2193 17.3782Z" fill="white"/>
<path d="M32.3197 11.4428V16H31.7141V13.9711H29.3294V16H28.7301V11.4428H29.3294V13.4342H31.7141V11.4428H32.3197ZM33.7959 12.7475V16H33.2091V12.7475H33.7959ZM33.1467 11.7861C33.1467 11.5864 33.3027 11.4303 33.4963 11.4303C33.696 11.4303 33.8521 11.5864 33.8521 11.7861C33.8521 11.9797 33.696 12.1357 33.4963 12.1357C33.3027 12.1357 33.1467 11.9797 33.1467 11.7861ZM35.7107 12.6601C36.5473 12.6601 36.9655 12.9972 37.003 13.7027H36.4224C36.3725 13.2906 36.104 13.1595 35.6983 13.1595C35.3487 13.1595 35.0615 13.3031 35.0615 13.584C35.0615 13.8775 35.2925 14.021 35.8481 14.1022C36.7033 14.2271 37.0842 14.5142 37.0842 15.1198C37.0842 15.744 36.5348 16.0874 35.7919 16.0874C34.9242 16.0874 34.4559 15.7815 34.3685 15.0324H34.9491C35.0303 15.4506 35.2737 15.588 35.8106 15.588C36.2226 15.588 36.4911 15.4382 36.4911 15.1635C36.4911 14.8638 36.2601 14.7015 35.6233 14.6079C34.8555 14.4892 34.4684 14.2395 34.4684 13.6153C34.4684 13.0534 34.9616 12.6601 35.7107 12.6601ZM38.4769 15.0324C38.4769 15.538 38.583 15.588 39.201 15.5443V16.0312C39.045 16.0499 38.8889 16.0624 38.6829 16.0624C38.1335 16.0624 37.9338 15.8314 37.9088 15.4631C37.8963 15.2946 37.8963 15.1697 37.8963 14.9824V13.2532H37.4531V12.7662H37.8963V11.7736H38.4769V12.7662H39.2135V13.2532H38.4769V15.0324ZM40.2004 14.3706C40.2004 15.2446 40.5562 15.5817 41.1555 15.5817C41.7548 15.5817 42.1107 15.2446 42.1107 14.3706C42.1107 13.5029 41.7548 13.172 41.1555 13.172C40.5562 13.172 40.2004 13.5029 40.2004 14.3706ZM39.5886 14.3706C39.5886 13.2095 40.1692 12.6601 41.1555 12.6601C42.1419 12.6601 42.7287 13.2095 42.7287 14.3706C42.7287 15.538 42.1419 16.0874 41.1555 16.0874C40.1692 16.0874 39.5886 15.538 39.5886 14.3706ZM44.7841 12.6601C44.8715 12.6601 44.9401 12.6601 45.0026 12.6788V13.172C44.2847 13.1034 43.9038 13.4904 43.9038 14.4768V16H43.317V12.7475H43.8601L43.8789 13.378C43.9475 12.8849 44.3221 12.6601 44.7841 12.6601ZM47.225 16C46.7818 17.1237 46.4696 17.311 45.8266 17.311C45.708 17.311 45.6206 17.3047 45.5207 17.2798V16.7866C45.6269 16.7991 45.7392 16.8053 45.8516 16.8053C46.12 16.8053 46.3448 16.7054 46.5196 16.2684L46.582 16.0999L45.2773 12.7475H45.964L46.9066 15.5006L47.9055 12.7475H48.5297L47.225 16Z" fill="#060B13"/>
<rect x="6.19509" y="28.1951" width="122.61" height="16.6098" rx="8.30491" fill="white" fill-opacity="0.6"/>
<rect x="6.19509" y="28.1951" width="122.61" height="16.6098" rx="8.30491" stroke="white" stroke-width="0.390173"/>
<path d="M22.4632 38H21.4123V34.5949H22.5097C22.84 34.5949 23.1227 34.663 23.3577 34.7994C23.5927 34.9346 23.7728 35.1291 23.898 35.383C24.0233 35.6357 24.0859 35.9383 24.0859 36.2908C24.0859 36.6455 24.0227 36.9509 23.8964 37.2069C23.77 37.4618 23.586 37.658 23.3444 37.7955C23.1027 37.9318 22.809 38 22.4632 38ZM21.8247 37.6342H22.4365C22.7181 37.6342 22.9514 37.5799 23.1365 37.4713C23.3216 37.3626 23.4596 37.208 23.5505 37.0074C23.6414 36.8068 23.6869 36.5679 23.6869 36.2908C23.6869 36.0159 23.642 35.7792 23.5522 35.5808C23.4624 35.3813 23.3283 35.2283 23.1498 35.1219C22.9714 35.0144 22.7491 34.9606 22.4831 34.9606H21.8247V37.6342ZM25.4385 38.0599C25.2766 38.0599 25.1298 38.0294 24.9978 37.9684C24.8659 37.9063 24.7612 37.8171 24.6836 37.7007C24.606 37.5832 24.5672 37.4413 24.5672 37.2751C24.5672 37.1288 24.596 37.0102 24.6537 36.9193C24.7113 36.8273 24.7883 36.7552 24.8848 36.7031C24.9812 36.651 25.0876 36.6122 25.204 36.5867C25.3215 36.5601 25.4396 36.5391 25.5582 36.5235C25.7133 36.5036 25.8392 36.4886 25.9356 36.4787C26.0331 36.4676 26.1041 36.4493 26.1484 36.4238C26.1939 36.3983 26.2166 36.354 26.2166 36.2908V36.2775C26.2166 36.1134 26.1717 35.986 26.0819 35.8951C25.9932 35.8042 25.8586 35.7587 25.6779 35.7587C25.4905 35.7587 25.3437 35.7997 25.2373 35.8818C25.1309 35.9638 25.056 36.0513 25.0128 36.1445L24.6404 36.0114C24.7069 35.8563 24.7956 35.7354 24.9064 35.649C25.0184 35.5614 25.1403 35.5005 25.2722 35.4661C25.4052 35.4306 25.536 35.4129 25.6646 35.4129C25.7466 35.4129 25.8408 35.4229 25.9472 35.4428C26.0547 35.4617 26.1584 35.501 26.2581 35.5609C26.359 35.6207 26.4427 35.7111 26.5092 35.8319C26.5757 35.9527 26.609 36.1145 26.609 36.3174V38H26.2166V37.6542H26.1966C26.17 37.7096 26.1257 37.7689 26.0636 37.8321C26.0015 37.8953 25.919 37.949 25.8159 37.9933C25.7128 38.0377 25.587 38.0599 25.4385 38.0599ZM25.4983 37.7074C25.6535 37.7074 25.7843 37.6769 25.8907 37.6159C25.9982 37.555 26.0791 37.4763 26.1334 37.3798C26.1889 37.2834 26.2166 37.182 26.2166 37.0756V36.7164C26.2 36.7364 26.1634 36.7547 26.1068 36.7713C26.0514 36.7868 25.9871 36.8007 25.914 36.8129C25.8419 36.8239 25.7715 36.8339 25.7028 36.8428C25.6352 36.8505 25.5803 36.8572 25.5382 36.8627C25.4362 36.876 25.3409 36.8976 25.2522 36.9276C25.1647 36.9564 25.0937 37.0002 25.0394 37.0589C24.9862 37.1166 24.9596 37.1953 24.9596 37.295C24.9596 37.4314 25.01 37.5345 25.1109 37.6043C25.2129 37.673 25.342 37.7074 25.4983 37.7074ZM27.2877 38V35.4461H27.6801V38H27.2877ZM27.4872 35.0205C27.4107 35.0205 27.3448 34.9944 27.2894 34.9423C27.2351 34.8903 27.2079 34.8276 27.2079 34.7545C27.2079 34.6813 27.2351 34.6187 27.2894 34.5666C27.3448 34.5145 27.4107 34.4884 27.4872 34.4884C27.5637 34.4884 27.6291 34.5145 27.6834 34.5666C27.7388 34.6187 27.7666 34.6813 27.7666 34.7545C27.7666 34.8276 27.7388 34.8903 27.6834 34.9423C27.6291 34.9944 27.5637 35.0205 27.4872 35.0205ZM28.7537 34.5949V38H28.3613V34.5949H28.7537ZM29.6877 38.9577C29.6212 38.9577 29.5619 38.9522 29.5098 38.9411C29.4577 38.9311 29.4217 38.9211 29.4017 38.9111L29.5015 38.5653C29.5968 38.5897 29.681 38.5986 29.7542 38.5919C29.8273 38.5853 29.8922 38.5526 29.9487 38.4938C30.0064 38.4362 30.059 38.3425 30.1067 38.2128L30.1798 38.0133L29.2354 35.4461H29.6611L30.3661 37.4812H30.3927L31.0976 35.4461H31.5233L30.4392 38.3724C30.3904 38.5043 30.33 38.6135 30.258 38.7C30.1859 38.7876 30.1022 38.8524 30.0069 38.8945C29.9127 38.9366 29.8063 38.9577 29.6877 38.9577Z" fill="#060B13"/>
<rect x="49.1951" y="30.1951" width="36.6098" height="12.6098" rx="6.30491" fill="white" fill-opacity="0.6"/>
<rect x="49.1951" y="30.1951" width="36.6098" height="12.6098" rx="6.30491" stroke="white" stroke-width="0.390173"/>
<path d="M60.5309 38L59.5998 34.5949H60.0188L60.7304 37.3682H60.7636L61.4886 34.5949H61.9541L62.679 37.3682H62.7123L63.4239 34.5949H63.8429L62.9118 38H62.4862L61.7346 35.2865H61.708L60.9565 38H60.5309ZM65.099 38.0532C64.8529 38.0532 64.6407 37.9989 64.4622 37.8903C64.2848 37.7805 64.1479 37.6276 64.0515 37.4314C63.9562 37.2341 63.9085 37.0046 63.9085 36.743C63.9085 36.4814 63.9562 36.2509 64.0515 36.0513C64.1479 35.8507 64.2821 35.6944 64.4539 35.5825C64.6268 35.4694 64.8285 35.4129 65.0591 35.4129C65.1921 35.4129 65.3235 35.4351 65.4531 35.4794C65.5828 35.5237 65.7009 35.5958 65.8073 35.6955C65.9137 35.7942 65.9985 35.925 66.0617 36.0879C66.1249 36.2509 66.1565 36.4515 66.1565 36.6898V36.8561H64.1879V36.5169H65.7574C65.7574 36.3728 65.7286 36.2442 65.671 36.1312C65.6144 36.0181 65.5335 35.9289 65.4282 35.8635C65.324 35.7981 65.201 35.7654 65.0591 35.7654C64.9028 35.7654 64.7676 35.8042 64.6534 35.8818C64.5403 35.9582 64.4533 36.058 64.3924 36.181C64.3314 36.3041 64.3009 36.436 64.3009 36.5768V36.8029C64.3009 36.9957 64.3342 37.1592 64.4007 37.2934C64.4683 37.4264 64.562 37.5278 64.6817 37.5976C64.8014 37.6664 64.9405 37.7007 65.099 37.7007C65.2021 37.7007 65.2952 37.6863 65.3783 37.6575C65.4626 37.6276 65.5352 37.5832 65.5961 37.5245C65.6571 37.4646 65.7042 37.3904 65.7375 37.3017L66.1166 37.4081C66.0766 37.5367 66.0096 37.6497 65.9154 37.7473C65.8212 37.8437 65.7048 37.9191 65.5662 37.9734C65.4277 38.0266 65.2719 38.0532 65.099 38.0532ZM67.7867 38.0532C67.5406 38.0532 67.3283 37.9989 67.1499 37.8903C66.9725 37.7805 66.8356 37.6276 66.7392 37.4314C66.6438 37.2341 66.5962 37.0046 66.5962 36.743C66.5962 36.4814 66.6438 36.2509 66.7392 36.0513C66.8356 35.8507 66.9697 35.6944 67.1415 35.5825C67.3145 35.4694 67.5162 35.4129 67.7468 35.4129C67.8798 35.4129 68.0111 35.4351 68.1408 35.4794C68.2705 35.5237 68.3885 35.5958 68.495 35.6955C68.6014 35.7942 68.6862 35.925 68.7493 36.0879C68.8125 36.2509 68.8441 36.4515 68.8441 36.6898V36.8561H66.8755V36.5169H68.4451C68.4451 36.3728 68.4163 36.2442 68.3586 36.1312C68.3021 36.0181 68.2212 35.9289 68.1159 35.8635C68.0117 35.7981 67.8886 35.7654 67.7468 35.7654C67.5905 35.7654 67.4552 35.8042 67.3411 35.8818C67.228 35.9582 67.141 36.058 67.08 36.181C67.0191 36.3041 66.9886 36.436 66.9886 36.5768V36.8029C66.9886 36.9957 67.0218 37.1592 67.0883 37.2934C67.156 37.4264 67.2496 37.5278 67.3693 37.5976C67.489 37.6664 67.6281 37.7007 67.7867 37.7007C67.8897 37.7007 67.9829 37.6863 68.066 37.6575C68.1502 37.6276 68.2228 37.5832 68.2838 37.5245C68.3448 37.4646 68.3919 37.3904 68.4251 37.3017L68.8042 37.4081C68.7643 37.5367 68.6972 37.6497 68.603 37.7473C68.5088 37.8437 68.3924 37.9191 68.2539 37.9734C68.1153 38.0266 67.9596 38.0532 67.7867 38.0532ZM69.7693 37.0689L69.7627 36.5834H69.8425L70.9598 35.4461H71.4453L70.2548 36.6499H70.2216L69.7693 37.0689ZM69.4036 38V34.5949H69.7959V38H69.4036ZM71.0263 38L70.0287 36.7364L70.3081 36.4637L71.5251 38H71.0263ZM72.3053 34.5949V38H71.9129V34.5949H72.3053ZM73.2392 38.9577C73.1727 38.9577 73.1134 38.9522 73.0613 38.9411C73.0092 38.9311 72.9732 38.9211 72.9533 38.9111L73.053 38.5653C73.1484 38.5897 73.2326 38.5986 73.3058 38.5919C73.3789 38.5853 73.4438 38.5526 73.5003 38.4938C73.5579 38.4362 73.6106 38.3425 73.6582 38.2128L73.7314 38.0133L72.787 35.4461H73.2126L73.9176 37.4812H73.9442L74.6492 35.4461H75.0748L73.9908 38.3724C73.942 38.5043 73.8816 38.6135 73.8095 38.7C73.7375 38.7876 73.6538 38.8524 73.5585 38.8945C73.4643 38.9366 73.3578 38.9577 73.2392 38.9577Z" fill="#060B13"/>
<path d="M101.62 34.5949H102.092L103.036 36.1844H103.076L104.021 34.5949H104.493L103.262 36.5967V38H102.85V36.5967L101.62 34.5949ZM105.645 38.0532C105.399 38.0532 105.187 37.9989 105.008 37.8903C104.831 37.7805 104.694 37.6276 104.598 37.4314C104.502 37.2341 104.455 37.0046 104.455 36.743C104.455 36.4814 104.502 36.2509 104.598 36.0513C104.694 35.8507 104.828 35.6944 105 35.5825C105.173 35.4694 105.375 35.4129 105.605 35.4129C105.738 35.4129 105.869 35.4351 105.999 35.4794C106.129 35.5237 106.247 35.5958 106.353 35.6955C106.46 35.7942 106.544 35.925 106.608 36.0879C106.671 36.2509 106.702 36.4515 106.702 36.6898V36.8561H104.734V36.5169H106.303C106.303 36.3728 106.275 36.2442 106.217 36.1312C106.16 36.0181 106.08 35.9289 105.974 35.8635C105.87 35.7981 105.747 35.7654 105.605 35.7654C105.449 35.7654 105.314 35.8042 105.199 35.8818C105.086 35.9582 104.999 36.058 104.938 36.181C104.877 36.3041 104.847 36.436 104.847 36.5768V36.8029C104.847 36.9957 104.88 37.1592 104.947 37.2934C105.014 37.4264 105.108 37.5278 105.228 37.5976C105.347 37.6664 105.486 37.7007 105.645 37.7007C105.748 37.7007 105.841 37.6863 105.924 37.6575C106.009 37.6276 106.081 37.5832 106.142 37.5245C106.203 37.4646 106.25 37.3904 106.283 37.3017L106.663 37.4081C106.623 37.5367 106.556 37.6497 106.461 37.7473C106.367 37.8437 106.251 37.9191 106.112 37.9734C105.974 38.0266 105.818 38.0532 105.645 38.0532ZM108.013 38.0599C107.852 38.0599 107.705 38.0294 107.573 37.9684C107.441 37.9063 107.336 37.8171 107.259 37.7007C107.181 37.5832 107.142 37.4413 107.142 37.2751C107.142 37.1288 107.171 37.0102 107.229 36.9193C107.286 36.8273 107.363 36.7552 107.46 36.7031C107.556 36.651 107.663 36.6122 107.779 36.5867C107.896 36.5601 108.015 36.5391 108.133 36.5235C108.288 36.5036 108.414 36.4886 108.511 36.4787C108.608 36.4676 108.679 36.4493 108.723 36.4238C108.769 36.3983 108.792 36.354 108.792 36.2908V36.2775C108.792 36.1134 108.747 35.986 108.657 35.8951C108.568 35.8042 108.434 35.7587 108.253 35.7587C108.066 35.7587 107.919 35.7997 107.812 35.8818C107.706 35.9638 107.631 36.0513 107.588 36.1445L107.215 36.0114C107.282 35.8563 107.371 35.7354 107.481 35.649C107.593 35.5614 107.715 35.5005 107.847 35.4661C107.98 35.4306 108.111 35.4129 108.24 35.4129C108.322 35.4129 108.416 35.4229 108.522 35.4428C108.63 35.4617 108.733 35.501 108.833 35.5609C108.934 35.6207 109.018 35.7111 109.084 35.8319C109.151 35.9527 109.184 36.1145 109.184 36.3174V38H108.792V37.6542H108.772C108.745 37.7096 108.701 37.7689 108.639 37.8321C108.577 37.8953 108.494 37.949 108.391 37.9933C108.288 38.0377 108.162 38.0599 108.013 38.0599ZM108.073 37.7074C108.228 37.7074 108.359 37.6769 108.466 37.6159C108.573 37.555 108.654 37.4763 108.708 37.3798C108.764 37.2834 108.792 37.182 108.792 37.0756V36.7164C108.775 36.7364 108.738 36.7547 108.682 36.7713C108.626 36.7868 108.562 36.8007 108.489 36.8129C108.417 36.8239 108.347 36.8339 108.278 36.8428C108.21 36.8505 108.155 36.8572 108.113 36.8627C108.011 36.876 107.916 36.8976 107.827 36.9276C107.74 36.9564 107.669 37.0002 107.614 37.0589C107.561 37.1166 107.535 37.1953 107.535 37.295C107.535 37.4314 107.585 37.5345 107.686 37.6043C107.788 37.673 107.917 37.7074 108.073 37.7074ZM109.863 38V35.4461H110.242V35.8319H110.268C110.315 35.7055 110.399 35.603 110.521 35.5243C110.643 35.4456 110.78 35.4062 110.933 35.4062C110.962 35.4062 110.998 35.4068 111.042 35.4079C111.085 35.409 111.117 35.4107 111.14 35.4129V35.8119C111.126 35.8086 111.096 35.8036 111.048 35.797C111.002 35.7892 110.952 35.7853 110.9 35.7853C110.776 35.7853 110.665 35.8114 110.568 35.8635C110.471 35.9145 110.395 35.9854 110.338 36.0763C110.283 36.1661 110.255 36.2686 110.255 36.3839V38H109.863ZM111.96 34.5949V38H111.567V34.5949H111.96ZM112.894 38.9577C112.827 38.9577 112.768 38.9522 112.716 38.9411C112.664 38.9311 112.628 38.9211 112.608 38.9111L112.707 38.5653C112.803 38.5897 112.887 38.5986 112.96 38.5919C113.033 38.5853 113.098 38.5526 113.155 38.4938C113.212 38.4362 113.265 38.3425 113.313 38.2128L113.386 38.0133L112.441 35.4461H112.867L113.572 37.4812H113.599L114.304 35.4461H114.729L113.645 38.3724C113.596 38.5043 113.536 38.6135 113.464 38.7C113.392 38.7876 113.308 38.8524 113.213 38.8945C113.119 38.9366 113.012 38.9577 112.894 38.9577Z" fill="#060B13"/>
<rect x="6" y="51" width="20" height="20" rx="10" fill="#F4F8FC"/>
<g clip-path="url(#clip0_2196_33978)">
<path d="M13.9588 56.798H19.0206L15.2991 62.3139H10.2373L13.9588 56.798Z" fill="#007AFF"/>
<path d="M14.1807 62.8253L12.7393 64.9617H18.0412L21.7627 59.4458H17.8495L15.5694 62.8253H14.1807Z" fill="#312ECB"/>
</g>
<path d="M35.7446 56.0124V60H35.1055L33.8054 57.8096C33.576 57.4053 33.352 56.9902 33.1335 56.5805C33.1609 57.0995 33.1718 57.6075 33.1718 58.0608V60H32.6692V56.0124H33.3029L34.5647 58.1209C34.8105 58.547 35.0454 58.9785 35.2748 59.4101C35.253 58.9021 35.242 58.3613 35.242 57.9134V56.0124H35.7446ZM36.8475 58.5743C36.8475 59.339 37.1589 59.634 37.6833 59.634C38.2077 59.634 38.519 59.339 38.519 58.5743C38.519 57.815 38.2077 57.5255 37.6833 57.5255C37.1589 57.5255 36.8475 57.815 36.8475 58.5743ZM36.3122 58.5743C36.3122 57.5583 36.8202 57.0776 37.6833 57.0776C38.5463 57.0776 39.0598 57.5583 39.0598 58.5743C39.0598 59.5958 38.5463 60.0765 37.6833 60.0765C36.8202 60.0765 36.3122 59.5958 36.3122 58.5743ZM40.8146 57.0776C40.891 57.0776 40.9511 57.0776 41.0058 57.094V57.5255C40.3776 57.4654 40.0444 57.8041 40.0444 58.6672V60H39.5309V57.1541H40.0061L40.0225 57.7058C40.0826 57.2742 40.4103 57.0776 40.8146 57.0776ZM42.1655 59.1533C42.1655 59.5958 42.2583 59.6395 42.7991 59.6012V60.0273C42.6625 60.0437 42.526 60.0546 42.3457 60.0546C41.865 60.0546 41.6902 59.8525 41.6684 59.5302C41.6574 59.3827 41.6574 59.2735 41.6574 59.1096V57.5965H41.2696V57.1705H41.6574V56.3019H42.1655V57.1705H42.81V57.5965H42.1655V59.1533ZM43.7711 56.0124V57.6238C43.8748 57.2251 44.219 57.0776 44.6669 57.0776C45.2514 57.0776 45.6064 57.307 45.672 57.8478C45.6884 57.9953 45.6938 58.1155 45.6938 58.3503V60H45.1804V58.3285C45.1804 57.8478 45.0766 57.531 44.5085 57.531C44.0879 57.5201 43.7711 57.815 43.7711 58.4541V60H43.2576V56.0124H43.7711ZM50.206 56.0124V56.4822H48.0811V57.815H50.0913V58.2793H48.0811V60H47.5567V56.0124H50.206ZM51.6986 57.0776C52.4469 57.0776 52.7528 57.4163 52.7911 57.9134C52.802 58.0608 52.8075 58.1701 52.8075 58.334V60H52.3377L52.3104 59.5794C52.152 59.9618 51.7805 60.0765 51.3654 60.0765C50.8246 60.0765 50.4313 59.7815 50.4313 59.2407C50.4313 58.5088 51.0486 58.2848 52.1465 58.2848H52.294V58.1428C52.294 57.7823 52.2011 57.5255 51.6767 57.5255C51.2561 57.5255 51.0486 57.6675 50.9994 58.0226H50.5296C50.5569 57.46 50.8847 57.0776 51.6986 57.0776ZM50.9502 59.1806C50.9502 59.4647 51.1469 59.634 51.5183 59.634C51.9225 59.634 52.294 59.3773 52.294 58.9895V58.6999C51.5019 58.6781 50.9502 58.7327 50.9502 59.1806ZM55.868 57.1541L54.8356 58.5798L55.8626 60H55.2726L54.5079 58.9021L53.6885 60H53.1368L54.1801 58.5798L53.1751 57.1541H53.7595L54.5134 58.2575L55.2836 57.1541H55.868ZM57.3525 57.0776C58.2265 57.0776 58.6034 57.6785 58.6034 58.5251C58.6034 58.5852 58.6034 58.6672 58.598 58.7491H56.5605C56.6042 59.3937 56.8773 59.634 57.3525 59.634C57.7294 59.634 57.9753 59.4701 58.0572 59.1588H58.5652C58.4559 59.7433 58.019 60.0765 57.3361 60.0765C56.4731 60.0765 56.0306 59.563 56.0306 58.5852C56.0306 57.6129 56.4731 57.0776 57.3525 57.0776ZM56.5659 58.3394H58.079C58.0408 57.744 57.7458 57.5255 57.3307 57.5255C56.8882 57.5255 56.6096 57.7331 56.5659 58.3394Z" fill="#060B13"/>
<path d="M33.839 63.1517L34.8963 66H34.4984L34.1901 65.1611H33.0313L32.7231 66H32.329L33.402 63.1517H33.839ZM33.1406 64.8256H34.0887L33.6166 63.5068L33.1406 64.8256ZM35.861 66.0546C35.463 66.0546 35.2094 65.8868 35.1665 65.5006C35.1509 65.3952 35.147 65.3133 35.147 65.1455V63.9672H35.5138V65.1689C35.5138 65.5084 35.5957 65.7386 35.982 65.7386C36.2863 65.7386 36.5126 65.5279 36.5126 65.0792V63.9672H36.8794V66H36.5438L36.5282 65.6527C36.4424 65.9376 36.2005 66.0546 35.861 66.0546ZM39.1185 65.446C39.1185 65.6996 39.1185 65.8322 39.1146 65.9571C39.0951 66.5033 38.7673 66.796 38.1782 66.796C37.706 66.796 37.312 66.675 37.2691 66.1132H37.6319C37.6826 66.4097 37.8933 66.4799 38.1782 66.4799C38.5878 66.4799 38.7517 66.2419 38.7517 65.922V65.5357C38.6971 65.8556 38.4708 65.9844 38.0923 65.9844C37.4876 65.9844 37.2144 65.5669 37.2144 64.9504C37.2144 64.291 37.5422 63.9126 38.1157 63.9126C38.4591 63.9126 38.6893 64.014 38.7673 64.291L38.779 63.9672H39.1185V65.446ZM37.6124 64.9504C37.6124 65.3484 37.7685 65.6645 38.1704 65.6645C38.502 65.6645 38.7517 65.485 38.7517 64.9855V64.8763C38.7517 64.3847 38.4552 64.2325 38.1821 64.2325C37.8036 64.2325 37.6124 64.5134 37.6124 64.9504ZM40.2757 66.0546C39.8777 66.0546 39.6241 65.8868 39.5812 65.5006C39.5656 65.3952 39.5617 65.3133 39.5617 65.1455V63.9672H39.9284V65.1689C39.9284 65.5084 40.0104 65.7386 40.3966 65.7386C40.701 65.7386 40.9273 65.5279 40.9273 65.0792V63.9672H41.294V66H40.9585L40.9429 65.6527C40.857 65.9376 40.6151 66.0546 40.2757 66.0546ZM42.4667 63.9126C42.9895 63.9126 43.2509 64.1233 43.2743 64.5642H42.9115C42.8803 64.3066 42.7125 64.2247 42.4589 64.2247C42.2404 64.2247 42.0609 64.3145 42.0609 64.49C42.0609 64.6734 42.2053 64.7632 42.5525 64.8139C43.0871 64.8919 43.3251 65.0714 43.3251 65.4499C43.3251 65.84 42.9817 66.0546 42.5174 66.0546C41.9751 66.0546 41.6824 65.8634 41.6278 65.3952H41.9907C42.0414 65.6566 42.1936 65.7425 42.5291 65.7425C42.7866 65.7425 42.9544 65.6488 42.9544 65.4772C42.9544 65.2899 42.81 65.1884 42.4121 65.1299C41.9321 65.0558 41.6902 64.8997 41.6902 64.5095C41.6902 64.1584 41.9985 63.9126 42.4667 63.9126ZM44.1643 65.3952C44.1643 65.7113 44.2306 65.7425 44.6169 65.7152V66.0195C44.5194 66.0312 44.4218 66.039 44.2931 66.039C43.9497 66.039 43.8249 65.8947 43.8092 65.6645C43.8014 65.5591 43.8014 65.4811 43.8014 65.364V64.2832H43.5244V63.9789H43.8014V63.3585H44.1643V63.9789H44.6247V64.2832H44.1643V65.3952ZM46.6836 63.0971C47.2259 63.0971 47.5849 63.3624 47.5849 63.854C47.5849 64.213 47.3391 64.451 47.0153 64.5408C47.3976 64.6266 47.6278 64.8685 47.6278 65.2665C47.6278 65.7815 47.2103 66.0546 46.6797 66.0546C46.071 66.0546 45.7355 65.8244 45.6887 65.2158H46.071C46.1061 65.5357 46.2778 65.7113 46.668 65.7113C46.9918 65.7113 47.2416 65.5474 47.2416 65.2236C47.2416 64.8841 46.9684 64.7202 46.5041 64.7202H46.3363V64.3847H46.5041C46.8241 64.3847 47.1986 64.291 47.1986 63.9009C47.1986 63.6043 46.9957 63.4405 46.6758 63.4405C46.3481 63.4405 46.1491 63.616 46.114 63.936H45.7316C45.7667 63.421 46.071 63.0971 46.6836 63.0971ZM48.8997 63.4405C48.4471 63.4405 48.3067 63.8072 48.3067 64.5759C48.3067 65.3406 48.4471 65.7113 48.8997 65.7113C49.3484 65.7113 49.4928 65.3406 49.4928 64.5759C49.4928 63.8072 49.3484 63.4405 48.8997 63.4405ZM47.9204 64.5759C47.9204 63.6121 48.174 63.0971 48.8997 63.0971C49.6255 63.0971 49.8791 63.6121 49.8791 64.5759C49.8791 65.5357 49.6255 66.0546 48.8997 66.0546C48.174 66.0546 47.9204 65.5357 47.9204 64.5759ZM50.6008 65.485V65.5942L50.3862 66.6165H50.0546L50.2497 65.485H50.6008ZM52.8118 63.0971C53.3775 63.0971 53.7131 63.4444 53.7131 63.9048C53.7131 64.3457 53.4712 64.6422 52.8274 65.1845L52.2617 65.6645H53.7326V66H51.7856V65.6293L52.4958 65.0246C53.1356 64.4822 53.3307 64.2598 53.3307 63.9399C53.3307 63.6355 53.1239 63.4405 52.7884 63.4405C52.3943 63.4405 52.2226 63.6473 52.1953 63.9906H51.813C51.852 63.4288 52.1446 63.0971 52.8118 63.0971ZM55.0123 63.4405C54.5597 63.4405 54.4192 63.8072 54.4192 64.5759C54.4192 65.3406 54.5597 65.7113 55.0123 65.7113C55.461 65.7113 55.6054 65.3406 55.6054 64.5759C55.6054 63.8072 55.461 63.4405 55.0123 63.4405ZM54.033 64.5759C54.033 63.6121 54.2866 63.0971 55.0123 63.0971C55.738 63.0971 55.9916 63.6121 55.9916 64.5759C55.9916 65.5357 55.738 66.0546 55.0123 66.0546C54.2866 66.0546 54.033 65.5357 54.033 64.5759ZM57.3065 63.0971C57.8722 63.0971 58.2078 63.4444 58.2078 63.9048C58.2078 64.3457 57.9659 64.6422 57.3221 65.1845L56.7563 65.6645H58.2273V66H56.2803V65.6293L56.9904 65.0246C57.6303 64.4822 57.8254 64.2598 57.8254 63.9399C57.8254 63.6355 57.6186 63.4405 57.2831 63.4405C56.889 63.4405 56.7173 63.6473 56.69 63.9906H56.3076C56.3466 63.4288 56.6393 63.0971 57.3065 63.0971ZM59.7465 63.1517H60.1328V64.8841H60.4606V65.2197H60.1328V66H59.7583V65.2197H58.4317V64.8724L59.7465 63.1517ZM58.7945 64.8841H59.7583V63.6238L58.7945 64.8841Z" fill="#909090"/>
<path d="M113.96 60.1102V61.3213H115.096V61.7208H113.96V62.9257H113.529V61.7208H112.393V61.3213H113.529V60.1102H113.96ZM116.464 58.5432H117.008V59.0551C117.757 59.1363 118.219 59.5733 118.244 60.3224H117.669C117.638 59.8729 117.388 59.6357 117.008 59.5608V60.9217C117.913 61.1153 118.369 61.4961 118.369 62.1828C118.369 62.9382 117.732 63.319 117.008 63.3814V63.8933H116.464V63.3751C115.715 63.294 115.185 62.882 115.122 62.0891H115.697C115.74 62.5324 116.009 62.7946 116.464 62.8757V61.3962C115.647 61.2151 115.235 60.8843 115.235 60.2288C115.235 59.5671 115.753 59.1425 116.464 59.0614V58.5432ZM115.828 60.1913C115.828 60.5597 116.046 60.7469 116.464 60.8593V59.5546C116.071 59.6232 115.828 59.8417 115.828 60.1913ZM117.008 62.8882C117.451 62.8383 117.775 62.626 117.775 62.2327C117.775 61.8332 117.513 61.596 117.008 61.4711V62.8882ZM120.293 58.8554C121.199 58.8554 121.736 59.411 121.736 60.1476C121.736 60.8531 121.349 61.3275 120.318 62.1953L119.413 62.9631H121.767V63.5H118.652V62.9069L119.788 61.9393C120.812 61.0716 121.124 60.7157 121.124 60.2038C121.124 59.7169 120.793 59.4047 120.256 59.4047C119.626 59.4047 119.351 59.7356 119.307 60.285H118.695C118.758 59.386 119.226 58.8554 120.293 58.8554ZM123.615 59.4047C122.89 59.4047 122.666 59.9916 122.666 61.2214C122.666 62.445 122.89 63.038 123.615 63.038C124.332 63.038 124.563 62.445 124.563 61.2214C124.563 59.9916 124.332 59.4047 123.615 59.4047ZM122.048 61.2214C122.048 59.6794 122.453 58.8554 123.615 58.8554C124.776 58.8554 125.181 59.6794 125.181 61.2214C125.181 62.7571 124.776 63.5874 123.615 63.5874C122.453 63.5874 122.048 62.7571 122.048 61.2214ZM127.011 59.4047C126.286 59.4047 126.062 59.9916 126.062 61.2214C126.062 62.445 126.286 63.038 127.011 63.038C127.728 63.038 127.959 62.445 127.959 61.2214C127.959 59.9916 127.728 59.4047 127.011 59.4047ZM125.444 61.2214C125.444 59.6794 125.849 58.8554 127.011 58.8554C128.172 58.8554 128.577 59.6794 128.577 61.2214C128.577 62.7571 128.172 63.5874 127.011 63.5874C125.849 63.5874 125.444 62.7571 125.444 61.2214Z" fill="#004CD3"/>
<path d="M113.96 60.1102V61.3213H115.096V61.7208H113.96V62.9257H113.529V61.7208H112.393V61.3213H113.529V60.1102H113.96ZM116.464 58.5432H117.008V59.0551C117.757 59.1363 118.219 59.5733 118.244 60.3224H117.669C117.638 59.8729 117.388 59.6357 117.008 59.5608V60.9217C117.913 61.1153 118.369 61.4961 118.369 62.1828C118.369 62.9382 117.732 63.319 117.008 63.3814V63.8933H116.464V63.3751C115.715 63.294 115.185 62.882 115.122 62.0891H115.697C115.74 62.5324 116.009 62.7946 116.464 62.8757V61.3962C115.647 61.2151 115.235 60.8843 115.235 60.2288C115.235 59.5671 115.753 59.1425 116.464 59.0614V58.5432ZM115.828 60.1913C115.828 60.5597 116.046 60.7469 116.464 60.8593V59.5546C116.071 59.6232 115.828 59.8417 115.828 60.1913ZM117.008 62.8882C117.451 62.8383 117.775 62.626 117.775 62.2327C117.775 61.8332 117.513 61.596 117.008 61.4711V62.8882ZM120.293 58.8554C121.199 58.8554 121.736 59.411 121.736 60.1476C121.736 60.8531 121.349 61.3275 120.318 62.1953L119.413 62.9631H121.767V63.5H118.652V62.9069L119.788 61.9393C120.812 61.0716 121.124 60.7157 121.124 60.2038C121.124 59.7169 120.793 59.4047 120.256 59.4047C119.626 59.4047 119.351 59.7356 119.307 60.285H118.695C118.758 59.386 119.226 58.8554 120.293 58.8554ZM123.615 59.4047C122.89 59.4047 122.666 59.9916 122.666 61.2214C122.666 62.445 122.89 63.038 123.615 63.038C124.332 63.038 124.563 62.445 124.563 61.2214C124.563 59.9916 124.332 59.4047 123.615 59.4047ZM122.048 61.2214C122.048 59.6794 122.453 58.8554 123.615 58.8554C124.776 58.8554 125.181 59.6794 125.181 61.2214C125.181 62.7571 124.776 63.5874 123.615 63.5874C122.453 63.5874 122.048 62.7571 122.048 61.2214ZM127.011 59.4047C126.286 59.4047 126.062 59.9916 126.062 61.2214C126.062 62.445 126.286 63.038 127.011 63.038C127.728 63.038 127.959 62.445 127.959 61.2214C127.959 59.9916 127.728 59.4047 127.011 59.4047ZM125.444 61.2214C125.444 59.6794 125.849 58.8554 127.011 58.8554C128.172 58.8554 128.577 59.6794 128.577 61.2214C128.577 62.7571 128.172 63.5874 127.011 63.5874C125.849 63.5874 125.444 62.7571 125.444 61.2214Z" fill="#0E910E"/>
<rect x="6" y="77" width="20" height="20" rx="10" fill="#F4F8FC"/>
<g clip-path="url(#clip1_2196_33978)">
<path d="M13.9588 82.7981H19.0206L15.2991 88.314H10.2373L13.9588 82.7981Z" fill="#007AFF"/>
<path d="M14.1807 88.8253L12.7393 90.9617H18.0412L21.7627 85.4458H17.8495L15.5694 88.8253H14.1807Z" fill="#312ECB"/>
</g>
<path d="M35.7446 82.0124V86H35.1055L33.8054 83.8096C33.576 83.4053 33.352 82.9902 33.1335 82.5805C33.1609 83.0995 33.1718 83.6075 33.1718 84.0608V86H32.6692V82.0124H33.3029L34.5647 84.1209C34.8105 84.547 35.0454 84.9785 35.2748 85.4101C35.253 84.9021 35.242 84.3613 35.242 83.9134V82.0124H35.7446ZM36.8475 84.5743C36.8475 85.339 37.1589 85.634 37.6833 85.634C38.2077 85.634 38.519 85.339 38.519 84.5743C38.519 83.815 38.2077 83.5255 37.6833 83.5255C37.1589 83.5255 36.8475 83.815 36.8475 84.5743ZM36.3122 84.5743C36.3122 83.5583 36.8202 83.0776 37.6833 83.0776C38.5463 83.0776 39.0598 83.5583 39.0598 84.5743C39.0598 85.5958 38.5463 86.0765 37.6833 86.0765C36.8202 86.0765 36.3122 85.5958 36.3122 84.5743ZM40.8146 83.0776C40.891 83.0776 40.9511 83.0776 41.0058 83.094V83.5255C40.3776 83.4654 40.0444 83.8041 40.0444 84.6672V86H39.5309V83.1541H40.0061L40.0225 83.7058C40.0826 83.2742 40.4103 83.0776 40.8146 83.0776ZM42.1655 85.1533C42.1655 85.5958 42.2583 85.6395 42.7991 85.6012V86.0273C42.6625 86.0437 42.526 86.0546 42.3457 86.0546C41.865 86.0546 41.6902 85.8525 41.6684 85.5302C41.6574 85.3827 41.6574 85.2735 41.6574 85.1096V83.5965H41.2696V83.1705H41.6574V82.3019H42.1655V83.1705H42.81V83.5965H42.1655V85.1533ZM43.7711 82.0124V83.6238C43.8748 83.2251 44.219 83.0776 44.6669 83.0776C45.2514 83.0776 45.6064 83.307 45.672 83.8478C45.6884 83.9953 45.6938 84.1155 45.6938 84.3503V86H45.1804V84.3285C45.1804 83.8478 45.0766 83.531 44.5085 83.531C44.0879 83.5201 43.7711 83.815 43.7711 84.4541V86H43.2576V82.0124H43.7711ZM50.206 82.0124V82.4822H48.0811V83.815H50.0913V84.2793H48.0811V86H47.5567V82.0124H50.206ZM51.6986 83.0776C52.4469 83.0776 52.7528 83.4163 52.7911 83.9134C52.802 84.0608 52.8075 84.1701 52.8075 84.334V86H52.3377L52.3104 85.5794C52.152 85.9618 51.7805 86.0765 51.3654 86.0765C50.8246 86.0765 50.4313 85.7815 50.4313 85.2407C50.4313 84.5088 51.0486 84.2848 52.1465 84.2848H52.294V84.1428C52.294 83.7823 52.2011 83.5255 51.6767 83.5255C51.2561 83.5255 51.0486 83.6675 50.9994 84.0226H50.5296C50.5569 83.46 50.8847 83.0776 51.6986 83.0776ZM50.9502 85.1806C50.9502 85.4647 51.1469 85.634 51.5183 85.634C51.9225 85.634 52.294 85.3773 52.294 84.9895V84.6999C51.5019 84.6781 50.9502 84.7327 50.9502 85.1806ZM55.868 83.1541L54.8356 84.5798L55.8626 86H55.2726L54.5079 84.9021L53.6885 86H53.1368L54.1801 84.5798L53.1751 83.1541H53.7595L54.5134 84.2575L55.2836 83.1541H55.868ZM57.3525 83.0776C58.2265 83.0776 58.6034 83.6785 58.6034 84.5251C58.6034 84.5852 58.6034 84.6672 58.598 84.7491H56.5605C56.6042 85.3937 56.8773 85.634 57.3525 85.634C57.7294 85.634 57.9753 85.4701 58.0572 85.1588H58.5652C58.4559 85.7433 58.019 86.0765 57.3361 86.0765C56.4731 86.0765 56.0306 85.563 56.0306 84.5852C56.0306 83.6129 56.4731 83.0776 57.3525 83.0776ZM56.5659 84.3394H58.079C58.0408 83.744 57.7458 83.5255 57.3307 83.5255C56.8882 83.5255 56.6096 83.7331 56.5659 84.3394Z" fill="#060B13"/>
<path d="M33.839 89.1517L34.8963 92H34.4984L34.1901 91.1611H33.0313L32.7231 92H32.329L33.402 89.1517H33.839ZM33.1406 90.8256H34.0887L33.6166 89.5068L33.1406 90.8256ZM35.861 92.0546C35.463 92.0546 35.2094 91.8868 35.1665 91.5006C35.1509 91.3952 35.147 91.3133 35.147 91.1455V89.9672H35.5138V91.1689C35.5138 91.5084 35.5957 91.7386 35.982 91.7386C36.2863 91.7386 36.5126 91.5279 36.5126 91.0792V89.9672H36.8794V92H36.5438L36.5282 91.6527C36.4424 91.9376 36.2005 92.0546 35.861 92.0546ZM39.1185 91.446C39.1185 91.6996 39.1185 91.8322 39.1146 91.9571C39.0951 92.5033 38.7673 92.796 38.1782 92.796C37.706 92.796 37.312 92.675 37.2691 92.1132H37.6319C37.6826 92.4097 37.8933 92.4799 38.1782 92.4799C38.5878 92.4799 38.7517 92.2419 38.7517 91.922V91.5357C38.6971 91.8556 38.4708 91.9844 38.0923 91.9844C37.4876 91.9844 37.2144 91.5669 37.2144 90.9504C37.2144 90.291 37.5422 89.9126 38.1157 89.9126C38.4591 89.9126 38.6893 90.014 38.7673 90.291L38.779 89.9672H39.1185V91.446ZM37.6124 90.9504C37.6124 91.3484 37.7685 91.6645 38.1704 91.6645C38.502 91.6645 38.7517 91.485 38.7517 90.9855V90.8763C38.7517 90.3847 38.4552 90.2325 38.1821 90.2325C37.8036 90.2325 37.6124 90.5134 37.6124 90.9504ZM40.2757 92.0546C39.8777 92.0546 39.6241 91.8868 39.5812 91.5006C39.5656 91.3952 39.5617 91.3133 39.5617 91.1455V89.9672H39.9284V91.1689C39.9284 91.5084 40.0104 91.7386 40.3966 91.7386C40.701 91.7386 40.9273 91.5279 40.9273 91.0792V89.9672H41.294V92H40.9585L40.9429 91.6527C40.857 91.9376 40.6151 92.0546 40.2757 92.0546ZM42.4667 89.9126C42.9895 89.9126 43.2509 90.1233 43.2743 90.5642H42.9115C42.8803 90.3066 42.7125 90.2247 42.4589 90.2247C42.2404 90.2247 42.0609 90.3145 42.0609 90.49C42.0609 90.6734 42.2053 90.7632 42.5525 90.8139C43.0871 90.8919 43.3251 91.0714 43.3251 91.4499C43.3251 91.84 42.9817 92.0546 42.5174 92.0546C41.9751 92.0546 41.6824 91.8634 41.6278 91.3952H41.9907C42.0414 91.6566 42.1936 91.7425 42.5291 91.7425C42.7866 91.7425 42.9544 91.6488 42.9544 91.4772C42.9544 91.2899 42.81 91.1884 42.4121 91.1299C41.9321 91.0558 41.6902 90.8997 41.6902 90.5095C41.6902 90.1584 41.9985 89.9126 42.4667 89.9126ZM44.1643 91.3952C44.1643 91.7113 44.2306 91.7425 44.6169 91.7152V92.0195C44.5194 92.0312 44.4218 92.039 44.2931 92.039C43.9497 92.039 43.8249 91.8947 43.8092 91.6645C43.8014 91.5591 43.8014 91.4811 43.8014 91.364V90.2832H43.5244V89.9789H43.8014V89.3585H44.1643V89.9789H44.6247V90.2832H44.1643V91.3952ZM46.6992 89.0971C47.265 89.0971 47.6005 89.4444 47.6005 89.9048C47.6005 90.3457 47.3586 90.6422 46.7148 91.1845L46.1491 91.6645H47.62V92H45.6731V91.6293L46.3832 91.0246C47.0231 90.4822 47.2181 90.2598 47.2181 89.9399C47.2181 89.6355 47.0113 89.4405 46.6758 89.4405C46.2817 89.4405 46.11 89.6473 46.0827 89.9906H45.7004C45.7394 89.4288 46.032 89.0971 46.6992 89.0971ZM49.9103 89.4327C49.3601 90.1272 48.9387 90.9973 48.6539 92H48.2559C48.5447 91.0519 48.9348 90.2052 49.4343 89.4873H47.9399V89.1517H49.9103V89.4327ZM50.6008 91.485V91.5942L50.3862 92.6165H50.0546L50.2497 91.485H50.6008ZM52.8118 89.0971C53.3775 89.0971 53.7131 89.4444 53.7131 89.9048C53.7131 90.3457 53.4712 90.6422 52.8274 91.1845L52.2617 91.6645H53.7326V92H51.7856V91.6293L52.4958 91.0246C53.1356 90.4822 53.3307 90.2598 53.3307 89.9399C53.3307 89.6355 53.1239 89.4405 52.7884 89.4405C52.3943 89.4405 52.2226 89.6473 52.1953 89.9906H51.813C51.852 89.4288 52.1446 89.0971 52.8118 89.0971ZM55.0123 89.4405C54.5597 89.4405 54.4192 89.8072 54.4192 90.5759C54.4192 91.3406 54.5597 91.7113 55.0123 91.7113C55.461 91.7113 55.6054 91.3406 55.6054 90.5759C55.6054 89.8072 55.461 89.4405 55.0123 89.4405ZM54.033 90.5759C54.033 89.6121 54.2866 89.0971 55.0123 89.0971C55.738 89.0971 55.9916 89.6121 55.9916 90.5759C55.9916 91.5357 55.738 92.0546 55.0123 92.0546C54.2866 92.0546 54.033 91.5357 54.033 90.5759ZM57.3065 89.0971C57.8722 89.0971 58.2078 89.4444 58.2078 89.9048C58.2078 90.3457 57.9659 90.6422 57.3221 91.1845L56.7563 91.6645H58.2273V92H56.2803V91.6293L56.9904 91.0246C57.6303 90.4822 57.8254 90.2598 57.8254 89.9399C57.8254 89.6355 57.6186 89.4405 57.2831 89.4405C56.889 89.4405 56.7173 89.6473 56.69 89.9906H56.3076C56.3466 89.4288 56.6393 89.0971 57.3065 89.0971ZM59.7465 89.1517H60.1328V90.8841H60.4606V91.2197H60.1328V92H59.7583V91.2197H58.4317V90.8724L59.7465 89.1517ZM58.7945 90.8841H59.7583V89.6238L58.7945 90.8841Z" fill="#909090"/>
<path d="M114.717 87.4711V87.9393H113.2V87.4711H114.717ZM116.294 84.5432H116.837V85.0551C117.586 85.1363 118.048 85.5733 118.073 86.3224H117.499C117.468 85.8729 117.218 85.6357 116.837 85.5608V86.9217C117.742 87.1153 118.198 87.4961 118.198 88.1828C118.198 88.9382 117.561 89.319 116.837 89.3814V89.8933H116.294V89.3751C115.545 89.294 115.014 88.882 114.952 88.0891H115.526C115.57 88.5324 115.838 88.7946 116.294 88.8757V87.3962C115.476 87.2151 115.064 86.8843 115.064 86.2288C115.064 85.5671 115.582 85.1425 116.294 85.0614V84.5432ZM115.657 86.1913C115.657 86.5597 115.876 86.7469 116.294 86.8593V85.5546C115.901 85.6232 115.657 85.8417 115.657 86.1913ZM116.837 88.8882C117.28 88.8383 117.605 88.626 117.605 88.2327C117.605 87.8332 117.343 87.596 116.837 87.4711V88.8882ZM120.535 84.9428H121.153V87.7146H121.677V88.2514H121.153V89.5H120.554V88.2514H118.431V87.6958L120.535 84.9428ZM119.012 87.7146H120.554V85.6982L119.012 87.7146ZM123.444 85.4047C122.72 85.4047 122.495 85.9916 122.495 87.2214C122.495 88.445 122.72 89.038 123.444 89.038C124.162 89.038 124.393 88.445 124.393 87.2214C124.393 85.9916 124.162 85.4047 123.444 85.4047ZM121.877 87.2214C121.877 85.6794 122.283 84.8554 123.444 84.8554C124.605 84.8554 125.011 85.6794 125.011 87.2214C125.011 88.7571 124.605 89.5874 123.444 89.5874C122.283 89.5874 121.877 88.7571 121.877 87.2214ZM126.84 85.4047C126.116 85.4047 125.891 85.9916 125.891 87.2214C125.891 88.445 126.116 89.038 126.84 89.038C127.558 89.038 127.789 88.445 127.789 87.2214C127.789 85.9916 127.558 85.4047 126.84 85.4047ZM125.273 87.2214C125.273 85.6794 125.679 84.8554 126.84 84.8554C128.001 84.8554 128.407 85.6794 128.407 87.2214C128.407 88.7571 128.001 89.5874 126.84 89.5874C125.679 89.5874 125.273 88.7571 125.273 87.2214Z" fill="#F54848"/>
<defs>
<clipPath id="clip0_2196_33978">
<rect width="12.0053" height="9.36416" fill="white" transform="translate(9.99707 56.3179)"/>
</clipPath>
<clipPath id="clip1_2196_33978">
<rect width="12.0053" height="9.36416" fill="white" transform="translate(9.99707 82.3179)"/>
</clipPath>
</defs>
</svg>
