<svg width="120" height="89" viewBox="0 0 120 89" fill="none" xmlns="http://www.w3.org/2000/svg">
<rect width="120" height="89" fill="white" fill-opacity="0.6"/>
<path d="M5.49293 12.5V7.73079H8.63612V8.40296H6.24832V9.77291H8.50809V10.4451H6.24832V11.8278H8.63612V12.5H5.49293ZM8.7295 12.5L9.9394 10.7652L8.7295 9.03672H9.58091L10.5732 10.4835H10.1635L11.1557 9.03672H12.0071L10.7908 10.7652L12.0007 12.5H11.1493L10.1699 11.0468H10.5668L9.58091 12.5H8.7295ZM12.309 13.7803V9.03672H13.0004V9.7537L12.9172 9.58726C13.0452 9.39094 13.2159 9.23731 13.4293 9.12634C13.6427 9.01538 13.8859 8.9599 14.1591 8.9599C14.4877 8.9599 14.7822 9.03885 15.0425 9.19676C15.3071 9.35467 15.5141 9.57019 15.6635 9.84333C15.8171 10.1165 15.8939 10.4237 15.8939 10.7652C15.8939 11.1066 15.8171 11.4139 15.6635 11.687C15.5141 11.9601 15.3092 12.1778 15.0489 12.34C14.7886 12.4979 14.492 12.5768 14.1591 12.5768C13.8902 12.5768 13.6448 12.5213 13.4229 12.4104C13.2052 12.2994 13.0367 12.1394 12.9172 11.9303L13.0324 11.7958V13.7803H12.309ZM14.0887 11.9046C14.2935 11.9046 14.4749 11.8556 14.6328 11.7574C14.7907 11.6593 14.9145 11.5248 15.0041 11.3541C15.098 11.1791 15.1449 10.9828 15.1449 10.7652C15.1449 10.5475 15.098 10.3533 15.0041 10.1826C14.9145 10.0119 14.7907 9.87747 14.6328 9.77931C14.4749 9.68115 14.2935 9.63207 14.0887 9.63207C13.8881 9.63207 13.7067 9.68115 13.5445 9.77931C13.3866 9.87747 13.2607 10.0119 13.1668 10.1826C13.0772 10.3533 13.0324 10.5475 13.0324 10.7652C13.0324 10.9828 13.0772 11.1791 13.1668 11.3541C13.2607 11.5248 13.3866 11.6593 13.5445 11.7574C13.7067 11.8556 13.8881 11.9046 14.0887 11.9046ZM18.0316 12.5768C17.6859 12.5768 17.3786 12.4979 17.1097 12.34C16.8451 12.1778 16.6381 11.9601 16.4888 11.687C16.3394 11.4096 16.2647 11.1002 16.2647 10.7588C16.2647 10.4088 16.3394 10.0994 16.4888 9.83052C16.6424 9.56165 16.8473 9.3504 17.1033 9.19676C17.3594 9.03885 17.6496 8.9599 17.9739 8.9599C18.2343 8.9599 18.4669 9.00471 18.6717 9.09434C18.8766 9.18396 19.0494 9.30772 19.1903 9.46563C19.3311 9.61927 19.4378 9.79638 19.5103 9.99696C19.5872 10.1975 19.6256 10.4109 19.6256 10.6371C19.6256 10.6926 19.6234 10.7502 19.6192 10.81C19.6149 10.8697 19.6064 10.9252 19.5936 10.9764H16.8345V10.4003H19.1838L18.8382 10.6627C18.8808 10.4536 18.8659 10.268 18.7933 10.1058C18.7251 9.93935 18.6184 9.80918 18.4733 9.71529C18.3324 9.61714 18.166 9.56806 17.9739 9.56806C17.7819 9.56806 17.6112 9.61714 17.4618 9.71529C17.3124 9.80918 17.1972 9.94575 17.1161 10.125C17.035 10.3 17.003 10.5134 17.0201 10.7652C16.9988 10.9999 17.0308 11.2047 17.1161 11.3797C17.2057 11.5547 17.3295 11.6913 17.4874 11.7894C17.6496 11.8876 17.8331 11.9367 18.038 11.9367C18.2471 11.9367 18.4242 11.8897 18.5693 11.7958C18.7187 11.7019 18.836 11.5803 18.9214 11.4309L19.5103 11.719C19.442 11.8812 19.3354 12.0284 19.1903 12.1607C19.0494 12.2887 18.8787 12.3912 18.6781 12.468C18.4818 12.5405 18.2663 12.5768 18.0316 12.5768ZM20.1395 12.5V9.03672H20.8309V9.71529L20.7476 9.62567C20.833 9.40802 20.9696 9.24371 21.1573 9.13275C21.3451 9.01752 21.5628 8.9599 21.8103 8.9599C22.0664 8.9599 22.2926 9.01538 22.4889 9.12634C22.6852 9.23731 22.8388 9.39094 22.9498 9.58726C23.0608 9.78358 23.1162 10.0098 23.1162 10.2658V12.5H22.3993V10.4579C22.3993 10.2829 22.3673 10.1357 22.3032 10.0162C22.2392 9.8924 22.1475 9.79851 22.028 9.7345C21.9127 9.66621 21.7804 9.63207 21.6311 9.63207C21.4817 9.63207 21.3473 9.66621 21.2278 9.7345C21.1125 9.79851 21.0229 9.8924 20.9589 10.0162C20.8949 10.1399 20.8629 10.2872 20.8629 10.4579V12.5H20.1395ZM24.9787 12.5768C24.6245 12.5768 24.3129 12.4893 24.0441 12.3144C23.7795 12.1394 23.5938 11.9046 23.4871 11.6102L24.0441 11.3477C24.138 11.544 24.266 11.6998 24.4282 11.815C24.5946 11.9303 24.7781 11.9879 24.9787 11.9879C25.1494 11.9879 25.2881 11.9495 25.3948 11.8726C25.5015 11.7958 25.5549 11.6913 25.5549 11.559C25.5549 11.4736 25.5314 11.4053 25.4844 11.3541C25.4375 11.2986 25.3778 11.2538 25.3052 11.2197C25.2369 11.1855 25.1665 11.1599 25.0939 11.1429L24.5498 10.9892C24.2511 10.9039 24.027 10.7758 23.8776 10.6051C23.7325 10.4301 23.66 10.2274 23.66 9.99696C23.66 9.78785 23.7133 9.60647 23.82 9.45283C23.9267 9.29492 24.074 9.17329 24.2617 9.08793C24.4495 9.00258 24.6608 8.9599 24.8955 8.9599C25.2113 8.9599 25.493 9.03885 25.7405 9.19676C25.988 9.3504 26.163 9.56592 26.2654 9.84333L25.7085 10.1058C25.6402 9.93935 25.5314 9.80705 25.382 9.70889C25.2369 9.61073 25.0726 9.56165 24.8891 9.56165C24.7312 9.56165 24.6053 9.60006 24.5114 9.67688C24.4175 9.74944 24.3706 9.84546 24.3706 9.96496C24.3706 10.046 24.3919 10.1143 24.4346 10.1698C24.4773 10.221 24.5327 10.2637 24.601 10.2978C24.6693 10.3277 24.7397 10.3533 24.8123 10.3747L25.3756 10.5411C25.6616 10.6222 25.8813 10.7502 26.035 10.9252C26.1886 11.0959 26.2654 11.3008 26.2654 11.5398C26.2654 11.7446 26.21 11.926 26.099 12.0839C25.9923 12.2375 25.8429 12.3592 25.6509 12.4488C25.4588 12.5341 25.2348 12.5768 24.9787 12.5768ZM28.4082 12.5768C28.0625 12.5768 27.7552 12.4979 27.4864 12.34C27.2218 12.1778 27.0148 11.9601 26.8654 11.687C26.716 11.4096 26.6413 11.1002 26.6413 10.7588C26.6413 10.4088 26.716 10.0994 26.8654 9.83052C27.019 9.56165 27.2239 9.3504 27.48 9.19676C27.736 9.03885 28.0262 8.9599 28.3506 8.9599C28.6109 8.9599 28.8435 9.00471 29.0484 9.09434C29.2532 9.18396 29.426 9.30772 29.5669 9.46563C29.7077 9.61927 29.8144 9.79638 29.887 9.99696C29.9638 10.1975 30.0022 10.4109 30.0022 10.6371C30.0022 10.6926 30.0001 10.7502 29.9958 10.81C29.9915 10.8697 29.983 10.9252 29.9702 10.9764H27.2111V10.4003H29.5605L29.2148 10.6627C29.2575 10.4536 29.2425 10.268 29.17 10.1058C29.1017 9.93935 28.995 9.80918 28.8499 9.71529C28.7091 9.61714 28.5426 9.56806 28.3506 9.56806C28.1585 9.56806 27.9878 9.61714 27.8384 9.71529C27.6891 9.80918 27.5738 9.94575 27.4928 10.125C27.4117 10.3 27.3797 10.5134 27.3967 10.7652C27.3754 10.9999 27.4074 11.2047 27.4928 11.3797C27.5824 11.5547 27.7061 11.6913 27.8641 11.7894C28.0262 11.8876 28.2097 11.9367 28.4146 11.9367C28.6237 11.9367 28.8008 11.8897 28.9459 11.7958C29.0953 11.7019 29.2127 11.5803 29.298 11.4309L29.887 11.719C29.8187 11.8812 29.712 12.0284 29.5669 12.1607C29.426 12.2887 29.2553 12.3912 29.0548 12.468C28.8584 12.5405 28.6429 12.5768 28.4082 12.5768ZM31.7964 12.5768C31.4422 12.5768 31.1307 12.4893 30.8618 12.3144C30.5972 12.1394 30.4116 11.9046 30.3049 11.6102L30.8618 11.3477C30.9557 11.544 31.0837 11.6998 31.2459 11.815C31.4124 11.9303 31.5959 11.9879 31.7964 11.9879C31.9672 11.9879 32.1059 11.9495 32.2126 11.8726C32.3192 11.7958 32.3726 11.6913 32.3726 11.559C32.3726 11.4736 32.3491 11.4053 32.3022 11.3541C32.2552 11.2986 32.1955 11.2538 32.1229 11.2197C32.0546 11.1855 31.9842 11.1599 31.9117 11.1429L31.3675 10.9892C31.0688 10.9039 30.8447 10.7758 30.6954 10.6051C30.5503 10.4301 30.4777 10.2274 30.4777 9.99696C30.4777 9.78785 30.5311 9.60647 30.6378 9.45283C30.7444 9.29492 30.8917 9.17329 31.0795 9.08793C31.2672 9.00258 31.4785 8.9599 31.7132 8.9599C32.029 8.9599 32.3107 9.03885 32.5582 9.19676C32.8058 9.3504 32.9807 9.56592 33.0832 9.84333L32.5262 10.1058C32.4579 9.93935 32.3491 9.80705 32.1998 9.70889C32.0546 9.61073 31.8903 9.56165 31.7068 9.56165C31.5489 9.56165 31.423 9.60006 31.3291 9.67688C31.2352 9.74944 31.1883 9.84546 31.1883 9.96496C31.1883 10.046 31.2096 10.1143 31.2523 10.1698C31.295 10.221 31.3505 10.2637 31.4188 10.2978C31.487 10.3277 31.5575 10.3533 31.63 10.3747L32.1933 10.5411C32.4793 10.6222 32.6991 10.7502 32.8527 10.9252C33.0064 11.0959 33.0832 11.3008 33.0832 11.5398C33.0832 11.7446 33.0277 11.926 32.9167 12.0839C32.81 12.2375 32.6607 12.3592 32.4686 12.4488C32.2766 12.5341 32.0525 12.5768 31.7964 12.5768Z" fill="black"/>
<rect x="90" y="5" width="25" height="9" rx="4.5" fill="#F3F4F7"/>
<path d="M95.5094 8.78504V11H95.2182V9.34838L94.482 11H94.2771L93.5377 9.34518V11H93.2465V8.78504H93.5601L94.3796 10.6159L95.199 8.78504H95.5094ZM96.7684 11.0288C96.6041 11.0288 96.4547 10.9915 96.3203 10.9168C96.188 10.8421 96.0834 10.7365 96.0066 10.5999C95.9319 10.4612 95.8946 10.3012 95.8946 10.1198C95.8946 9.94053 95.933 9.78262 96.0098 9.64606C96.0888 9.50735 96.1955 9.40173 96.3299 9.32918C96.4643 9.25449 96.6148 9.21715 96.7812 9.21715C96.9477 9.21715 97.0981 9.25449 97.2325 9.32918C97.367 9.40173 97.4726 9.50629 97.5494 9.64286C97.6284 9.77942 97.6678 9.9384 97.6678 10.1198C97.6678 10.3012 97.6273 10.4612 97.5462 10.5999C97.4673 10.7365 97.3595 10.8421 97.2229 10.9168C97.0864 10.9915 96.9348 11.0288 96.7684 11.0288ZM96.7684 10.7727C96.873 10.7727 96.9711 10.7482 97.0629 10.6991C97.1546 10.65 97.2283 10.5764 97.2837 10.4783C97.3414 10.3801 97.3702 10.2606 97.3702 10.1198C97.3702 9.97894 97.3424 9.85944 97.2869 9.76129C97.2315 9.66313 97.1589 9.59058 97.0693 9.54363C96.9797 9.49455 96.8826 9.47001 96.778 9.47001C96.6713 9.47001 96.5732 9.49455 96.4835 9.54363C96.396 9.59058 96.3256 9.66313 96.2723 9.76129C96.2189 9.85944 96.1923 9.97894 96.1923 10.1198C96.1923 10.2627 96.2179 10.3833 96.2691 10.4815C96.3224 10.5796 96.3928 10.6532 96.4803 10.7023C96.5678 10.7493 96.6638 10.7727 96.7684 10.7727ZM98.9054 9.21395C99.1188 9.21395 99.2917 9.27903 99.424 9.4092C99.5563 9.53723 99.6224 9.72288 99.6224 9.96614V11H99.3343V10.0077C99.3343 9.83277 99.2906 9.6994 99.2031 9.60765C99.1156 9.51376 98.9961 9.46681 98.8446 9.46681C98.691 9.46681 98.5683 9.51482 98.4765 9.61085C98.3869 9.70687 98.3421 9.84664 98.3421 10.0302V11H98.0508V9.24595H98.3421V9.49562C98.3997 9.406 98.4776 9.33664 98.5757 9.28757C98.676 9.23849 98.7859 9.21395 98.9054 9.21395ZM100.453 9.48602V10.5199C100.453 10.6052 100.472 10.666 100.508 10.7023C100.544 10.7365 100.607 10.7535 100.697 10.7535H100.911V11H100.649C100.487 11 100.365 10.9627 100.284 10.888C100.203 10.8133 100.162 10.6906 100.162 10.5199V9.48602H99.935V9.24595H100.162V8.80424H100.453V9.24595H100.911V9.48602H100.453ZM102.135 9.21395C102.267 9.21395 102.387 9.24275 102.493 9.30037C102.6 9.35585 102.683 9.44014 102.743 9.55323C102.805 9.66633 102.836 9.80396 102.836 9.96614V11H102.548V10.0077C102.548 9.83277 102.504 9.6994 102.416 9.60765C102.329 9.51376 102.209 9.46681 102.058 9.46681C101.904 9.46681 101.782 9.51482 101.69 9.61085C101.6 9.70687 101.555 9.84664 101.555 10.0302V11H101.264V8.6314H101.555V9.49562C101.613 9.406 101.692 9.33664 101.792 9.28757C101.895 9.23849 102.009 9.21395 102.135 9.21395ZM103.603 8.6314V11H103.312V8.6314H103.603ZM105.61 9.24595L104.554 11.8258H104.253L104.599 10.9808L103.891 9.24595H104.214L104.765 10.6671L105.309 9.24595H105.61Z" fill="#787878"/>
<path d="M108.68 8.99164L109.767 10.0783C109.895 10.2066 110.105 10.2066 110.234 10.0783L111.32 8.99164" stroke="#787878" stroke-width="0.290983" stroke-miterlimit="10" stroke-linecap="round" stroke-linejoin="round"/>
<path d="M9.88439 34.1861C9.10909 34.1861 8.42165 34.031 7.82209 33.7209C7.23286 33.4108 6.76768 32.9921 6.42655 32.4649C6.09576 31.9274 5.93036 31.3278 5.93036 30.6662C5.93036 29.9219 6.13711 29.2707 6.5506 28.7125C6.96409 28.1542 7.53264 27.7563 8.25626 27.5185L8.22524 27.9061C7.67737 27.6891 7.24837 27.3428 6.93825 26.8672C6.63847 26.3814 6.48857 25.8594 6.48857 25.3011C6.48857 24.7119 6.6333 24.1899 6.92274 23.735C7.22252 23.2802 7.62568 22.9236 8.13221 22.6651C8.64907 22.3964 9.23313 22.262 9.88439 22.262C10.5356 22.262 11.1145 22.3912 11.6211 22.6496C12.1276 22.9081 12.5256 23.2699 12.815 23.735C13.1148 24.1899 13.2647 24.7119 13.2647 25.3011C13.2647 25.8904 13.1045 26.4176 12.784 26.8828C12.4739 27.3479 12.0604 27.6942 11.5435 27.9217L11.497 27.5185C12.231 27.7563 12.8047 28.1594 13.2182 28.728C13.6317 29.2862 13.8384 29.9323 13.8384 30.6662C13.8384 31.3278 13.6678 31.9274 13.3267 32.4649C12.9959 32.9921 12.5307 33.4108 11.9312 33.7209C11.3419 34.031 10.6597 34.1861 9.88439 34.1861ZM9.88439 32.8681C10.3702 32.8681 10.7941 32.775 11.1559 32.589C11.5177 32.4029 11.7968 32.1445 11.9932 31.8137C12.1999 31.4725 12.3033 31.0849 12.3033 30.6507C12.3033 30.2062 12.1999 29.8186 11.9932 29.4878C11.7968 29.1466 11.5177 28.8882 11.1559 28.7125C10.7941 28.5264 10.3702 28.4334 9.88439 28.4334C9.39853 28.4334 8.96953 28.5264 8.59739 28.7125C8.23558 28.8882 7.95647 29.1466 7.76007 29.4878C7.56366 29.8186 7.46545 30.2062 7.46545 30.6507C7.46545 31.0849 7.56366 31.4725 7.76007 31.8137C7.95647 32.1445 8.23558 32.4029 8.59739 32.589C8.96953 32.775 9.39853 32.8681 9.88439 32.8681ZM9.88439 27.1153C10.2359 27.1153 10.546 27.0378 10.8147 26.8828C11.0939 26.7277 11.3161 26.5209 11.4815 26.2625C11.6469 25.9937 11.7296 25.6836 11.7296 25.3322C11.7296 24.9807 11.6469 24.6757 11.4815 24.4173C11.3161 24.1589 11.0939 23.9573 10.8147 23.8126C10.546 23.6575 10.2359 23.58 9.88439 23.58C9.52258 23.58 9.20212 23.6575 8.92301 23.8126C8.64391 23.9573 8.42165 24.1589 8.25626 24.4173C8.09086 24.6757 8.00816 24.9807 8.00816 25.3322C8.00816 25.6836 8.09086 25.9937 8.25626 26.2625C8.42165 26.5209 8.64391 26.7277 8.92301 26.8828C9.20212 27.0378 9.52258 27.1153 9.88439 27.1153ZM19.4036 34.1861C18.804 34.1861 18.2407 34.0827 17.7135 33.876C17.1862 33.6589 16.7262 33.3539 16.3334 32.9611C15.9509 32.5579 15.6718 32.0876 15.4961 31.5501L16.7366 31.0229C16.9537 31.5914 17.3051 32.0359 17.791 32.3564C18.2872 32.6665 18.8247 32.8215 19.4036 32.8215C19.8791 32.8215 20.2978 32.7182 20.6596 32.5114C21.0317 32.2943 21.3212 31.9997 21.5279 31.6276C21.7347 31.2451 21.838 30.8213 21.838 30.3561C21.838 29.8702 21.7295 29.4412 21.5124 29.0691C21.3057 28.697 21.0214 28.4075 20.6596 28.2008C20.2978 27.9837 19.8843 27.8751 19.4191 27.8751C18.9436 27.8751 18.5094 27.9837 18.1166 28.2008C17.7238 28.4178 17.4395 28.6918 17.2638 29.0226L16.0388 28.759L16.9226 22.448H22.908V23.7661H17.4964L18.0856 23.1768L17.4033 28.0767L16.8761 27.7666C17.2173 27.3324 17.6152 27.0223 18.0701 26.8362C18.5353 26.6398 19.0366 26.5416 19.5742 26.5416C20.3288 26.5416 20.9904 26.7122 21.5589 27.0533C22.1275 27.3945 22.572 27.8493 22.8925 28.4178C23.2129 28.9864 23.3731 29.6325 23.3731 30.3561C23.3731 31.0797 23.1974 31.731 22.8459 32.3098C22.5048 32.8887 22.0345 33.3487 21.4349 33.6899C20.8457 34.0207 20.1686 34.1861 19.4036 34.1861ZM26.5241 34L35.9518 22.448H37.6729L28.2453 34H26.5241ZM28.2608 28.3093C27.6922 28.3093 27.1805 28.1749 26.7257 27.9061C26.2709 27.627 25.9039 27.2601 25.6248 26.8052C25.356 26.3504 25.2216 25.8439 25.2216 25.2856C25.2216 24.7274 25.356 24.2209 25.6248 23.7661C25.9039 23.3009 26.2709 22.9339 26.7257 22.6651C27.1805 22.3964 27.6922 22.262 28.2608 22.262C28.819 22.262 29.3255 22.3964 29.7804 22.6651C30.2352 22.9339 30.597 23.3009 30.8658 23.7661C31.1346 24.2209 31.269 24.7274 31.269 25.2856C31.269 25.8439 31.1346 26.3504 30.8658 26.8052C30.597 27.2601 30.2352 27.627 29.7804 27.9061C29.3255 28.1749 28.819 28.3093 28.2608 28.3093ZM28.2453 27.0378C28.5968 27.0378 28.8965 26.9551 29.1446 26.7897C29.3927 26.6243 29.5891 26.4072 29.7339 26.1385C29.8786 25.8697 29.9509 25.5854 29.9509 25.2856C29.9509 24.9755 29.8786 24.6912 29.7339 24.4328C29.5891 24.164 29.3927 23.947 29.1446 23.7816C28.8965 23.6058 28.5968 23.518 28.2453 23.518C27.9145 23.518 27.6199 23.6058 27.3614 23.7816C27.103 23.947 26.9014 24.164 26.7567 24.4328C26.612 24.7016 26.5396 24.9859 26.5396 25.2856C26.5396 25.5751 26.612 25.8594 26.7567 26.1385C26.9014 26.4072 27.103 26.6243 27.3614 26.7897C27.6199 26.9551 27.9145 27.0378 28.2453 27.0378ZM35.8432 34.1861C35.2747 34.1861 34.763 34.0517 34.3081 33.7829C33.8533 33.5038 33.4863 33.1368 33.2072 32.682C32.9384 32.2271 32.804 31.7206 32.804 31.1624C32.804 30.6042 32.9384 30.0977 33.2072 29.6428C33.4863 29.1776 33.8533 28.8107 34.3081 28.5419C34.763 28.2731 35.2747 28.1387 35.8432 28.1387C36.4014 28.1387 36.908 28.2731 37.3628 28.5419C37.8176 28.8107 38.1795 29.1776 38.4482 29.6428C38.717 30.0977 38.8514 30.6042 38.8514 31.1624C38.8514 31.7206 38.717 32.2271 38.4482 32.682C38.1795 33.1368 37.8176 33.5038 37.3628 33.7829C36.908 34.0517 36.4014 34.1861 35.8432 34.1861ZM35.8432 32.9146C36.1843 32.9146 36.479 32.8319 36.7271 32.6665C36.9855 32.5011 37.1819 32.284 37.3163 32.0152C37.461 31.7465 37.5334 31.4622 37.5334 31.1624C37.5334 30.8523 37.461 30.568 37.3163 30.3096C37.1819 30.0408 36.9855 29.8237 36.7271 29.6583C36.479 29.4826 36.1843 29.3947 35.8432 29.3947C35.5124 29.3947 35.2126 29.4826 34.9439 29.6583C34.6854 29.8237 34.4839 30.0408 34.3391 30.3096C34.1944 30.5783 34.1221 30.8626 34.1221 31.1624C34.1221 31.4518 34.1944 31.7361 34.3391 32.0152C34.4839 32.284 34.6854 32.5011 34.9439 32.6665C35.2126 32.8319 35.5124 32.9146 35.8432 32.9146Z" fill="#0054F9"/>
<rect opacity="0.12" x="5" y="60.5466" width="12.9776" height="22.579" rx="6.48879" fill="#0054F9"/>
<rect x="5" y="66.9974" width="12.9776" height="16.1278" rx="6.48879" fill="#0054F9"/>
<rect opacity="0.12" x="24.4053" y="52.2302" width="12.9776" height="30.7895" rx="6.48879" fill="#0054F9"/>
<rect x="24.4053" y="60.9142" width="12.9776" height="22.1053" rx="6.48879" fill="#0054F9"/>
<rect opacity="0.12" x="43.8105" y="59.5895" width="12.9776" height="23.6053" rx="6.48879" fill="#0054F9"/>
<rect x="43.8105" y="67.9907" width="12.9776" height="15.2034" rx="6.48879" fill="#0054F9"/>
<rect opacity="0.12" x="63.2158" y="63.7128" width="12.9776" height="19.4999" rx="6.48879" fill="#0054F9"/>
<rect x="63.2158" y="68.3929" width="12.9776" height="14.82" rx="6.48879" fill="#0054F9"/>
<rect opacity="0.12" x="82.6221" y="49.1685" width="12.9776" height="33.8684" rx="6.48879" fill="#0054F9"/>
<rect x="82.6221" y="58.6198" width="12.9776" height="24.4168" rx="6.48879" fill="#0054F9"/>
<rect opacity="0.12" x="102.026" y="45" width="12.9733" height="39" rx="6.48666" fill="#0054F9"/>
<rect x="102.026" y="54.0599" width="12.9733" height="29.9394" rx="6.48666" fill="#0054F9"/>
</svg>
