<svg width="56" height="56" viewBox="0 0 56 56" fill="none" xmlns="http://www.w3.org/2000/svg">
<rect width="56" height="56" rx="28" fill="#F4F4F4"/>
<path fill-rule="evenodd" clip-rule="evenodd" d="M28.67 18.217L37.17 22.967C37.4195 23.0916 37.6294 23.2833 37.776 23.5205C37.9226 23.7577 38.0002 24.0312 38 24.31V25.75C38 26.44 37.44 27 36.75 27H36V35H37C37.2652 35 37.5196 35.1054 37.7071 35.2929C37.8946 35.4805 38 35.7348 38 36C38 36.2653 37.8946 36.5196 37.7071 36.7071C37.5196 36.8947 37.2652 37 37 37H19C18.7348 37 18.4804 36.8947 18.2929 36.7071C18.1054 36.5196 18 36.2653 18 36C18 35.7348 18.1054 35.4805 18.2929 35.2929C18.4804 35.1054 18.7348 35 19 35H20V27H19.25C18.56 27 18 26.44 18 25.75V24.31C18 23.788 18.27 23.308 18.706 23.036L27.329 18.217C27.5373 18.1128 27.7671 18.0586 28 18.0586C28.2329 18.0586 28.4617 18.1128 28.67 18.217ZM33 27H23V35H25V29H27V35H29V29H31V35H33V27ZM28 22C27.7348 22 27.4804 22.1054 27.2929 22.2929C27.1054 22.4805 27 22.7348 27 23C27 23.2653 27.1054 23.5196 27.2929 23.7071C27.4804 23.8947 27.7348 24 28 24C28.2652 24 28.5196 23.8947 28.7071 23.7071C28.8946 23.5196 29 23.2653 29 23C29 22.7348 28.8946 22.4805 28.7071 22.2929C28.5196 22.1054 28.2652 22 28 22Z" fill="#0054F9"/>
</svg>
