<svg width="56" height="56" viewBox="0 0 56 56" fill="none" xmlns="http://www.w3.org/2000/svg">
<rect width="56" height="56" rx="28" fill="#F4F4F4"/>
<path fill-rule="evenodd" clip-rule="evenodd" d="M29.78 17.1776C31.099 16.8526 32.5265 17.3351 33.253 18.5766C33.4395 18.8956 33.644 19.2676 33.8605 19.6956C32.3415 19.5951 30.088 19.5001 27 19.5001C25.258 19.5001 23.782 19.5301 22.553 19.5751C24.864 18.6101 27.3785 17.7686 29.78 17.1776ZM20.0285 39.0446C21.517 39.1476 23.8025 39.2501 27 39.2501C30.1975 39.2501 32.483 39.1476 33.9715 39.0446C35.6105 38.9311 36.9035 37.6861 37.038 36.0336C37.064 35.7179 37.089 35.3661 37.113 34.9781C36.6485 34.9916 36.1125 35.0001 35.5 35.0001C34.663 35.0001 33.968 34.9841 33.405 34.9616C31.5855 34.8886 30.1165 33.4951 30.0335 31.6281C30.0135 31.1716 30 30.6311 30 30.0001C30 29.3691 30.0135 28.8286 30.0335 28.3721C30.1165 26.5051 31.5855 25.1121 33.405 25.0386C34.103 25.0118 34.8015 24.999 35.5 25.0001C36.1125 25.0001 36.6485 25.0086 37.113 25.0221C37.089 24.6338 37.064 24.2821 37.038 23.9671C36.9035 22.3141 35.6105 21.0691 33.9715 20.9556C32.483 20.8526 30.1975 20.7501 27 20.7501C23.8025 20.7501 21.517 20.8526 20.0285 20.9556C18.3895 21.0691 17.0965 22.3141 16.962 23.9666C16.853 25.3056 16.75 27.2876 16.75 30.0001C16.75 32.7126 16.853 34.6951 16.962 36.0336C17.0965 37.6861 18.3895 38.9311 20.0285 39.0446ZM31.532 31.5616C31.5795 32.6266 32.4005 33.4201 33.465 33.4626C34.0075 33.4846 34.682 33.5001 35.5 33.5001C36.318 33.5001 36.9925 33.4846 37.535 33.4626C38.6 33.4201 39.4205 32.6266 39.468 31.5616C39.487 31.1281 39.5 30.6096 39.5 30.0001C39.5 29.3906 39.487 28.8721 39.468 28.4386C39.4205 27.3736 38.5995 26.5801 37.535 26.5376C36.857 26.5116 36.1785 26.4991 35.5 26.5001C34.682 26.5001 34.0075 26.5156 33.465 26.5376C32.4 26.5801 31.5795 27.3736 31.532 28.4386C31.513 28.8721 31.5 29.3901 31.5 30.0001C31.5 30.6101 31.513 31.1281 31.532 31.5616ZM35 28.7501C35.1989 28.7501 35.3897 28.8291 35.5303 28.9698C35.671 29.1104 35.75 29.3012 35.75 29.5001V30.5001C35.75 30.699 35.671 30.8898 35.5303 31.0304C35.3897 31.1711 35.1989 31.2501 35 31.2501C34.8011 31.2501 34.6103 31.1711 34.4697 31.0304C34.329 30.8898 34.25 30.699 34.25 30.5001V29.5001C34.25 29.3012 34.329 29.1104 34.4697 28.9698C34.6103 28.8291 34.8011 28.7501 35 28.7501Z" fill="#0054F9"/>
</svg>
