<svg width="56" height="56" viewBox="0 0 56 56" fill="none" xmlns="http://www.w3.org/2000/svg">
<rect width="56" height="56" rx="28" fill="#F4F4F4"/>
<path d="M36 29.75C36 29.5511 35.921 29.3603 35.7803 29.2197C35.6397 29.079 35.4489 29 35.25 29H32.25C32.0511 29 31.8603 29.079 31.7197 29.2197C31.579 29.3603 31.5 29.5511 31.5 29.75V36.5H30V20.25C30 19.522 29.998 19.05 29.952 18.704C29.908 18.379 29.837 18.277 29.78 18.22C29.723 18.163 29.621 18.092 29.296 18.048C28.949 18.002 28.478 18 27.75 18C27.022 18 26.55 18.002 26.204 18.048C25.879 18.092 25.777 18.163 25.72 18.22C25.663 18.277 25.592 18.379 25.548 18.704C25.502 19.051 25.5 19.522 25.5 20.25V36.5H24V24.75C24 24.5511 23.921 24.3603 23.7803 24.2197C23.6397 24.079 23.4489 24 23.25 24H20.25C20.0511 24 19.8603 24.079 19.7197 24.2197C19.579 24.3603 19.5 24.5511 19.5 24.75V36.5H17.75C17.5511 36.5 17.3603 36.579 17.2197 36.7197C17.079 36.8603 17 37.0511 17 37.25C17 37.4489 17.079 37.6397 17.2197 37.7803C17.3603 37.921 17.5511 38 17.75 38H37.75C37.9489 38 38.1397 37.921 38.2803 37.7803C38.421 37.6397 38.5 37.4489 38.5 37.25C38.5 37.0511 38.421 36.8603 38.2803 36.7197C38.1397 36.579 37.9489 36.5 37.75 36.5H36V29.75Z" fill="#0054F9"/>
</svg>
