<svg width="56" height="56" viewBox="0 0 56 56" fill="none" xmlns="http://www.w3.org/2000/svg">
<rect width="56" height="56" rx="28" fill="#F4F4F4"/>
<path fill-rule="evenodd" clip-rule="evenodd" d="M28.052 17.25H27.948C27.049 17.25 26.3 17.25 25.706 17.33C25.078 17.414 24.511 17.6 24.056 18.055C23.6 18.511 23.414 19.078 23.33 19.705C23.273 20.132 23.256 21.151 23.252 22.025C21.23 22.092 20.015 22.328 19.172 23.172C18 24.343 18 26.229 18 30C18 33.771 18 35.657 19.172 36.828C20.344 37.999 22.229 38 26 38H30C33.771 38 35.657 38 36.828 36.828C37.999 35.656 38 33.771 38 30C38 26.229 38 24.343 36.828 23.172C35.985 22.328 34.77 22.092 32.748 22.026C32.744 21.151 32.728 20.132 32.67 19.706C32.586 19.078 32.4 18.511 31.944 18.056C31.489 17.6 30.922 17.414 30.294 17.33C29.7 17.25 28.95 17.25 28.052 17.25ZM31.248 22.002C31.243 21.155 31.229 20.244 31.184 19.905C31.121 19.444 31.014 19.246 30.884 19.116C30.754 18.986 30.556 18.879 30.094 18.816C29.612 18.752 28.964 18.75 28 18.75C27.036 18.75 26.388 18.752 25.905 18.817C25.444 18.879 25.246 18.986 25.116 19.117C24.986 19.248 24.879 19.444 24.816 19.905C24.771 20.245 24.756 21.155 24.752 22.002C25.144 22 25.56 21.9993 26 22H30C30.4413 22 30.8573 22.0007 31.248 22.002ZM28 25.25C28.1989 25.25 28.3897 25.329 28.5303 25.4697C28.671 25.6103 28.75 25.8011 28.75 26V26.01C29.839 26.284 30.75 27.143 30.75 28.333C30.75 28.5319 30.671 28.7227 30.5303 28.8633C30.3897 29.004 30.1989 29.083 30 29.083C29.8011 29.083 29.6103 29.004 29.4697 28.8633C29.329 28.7227 29.25 28.5319 29.25 28.333C29.25 27.949 28.824 27.417 28 27.417C27.176 27.417 26.75 27.949 26.75 28.333C26.75 28.717 27.176 29.25 28 29.25C29.385 29.25 30.75 30.21 30.75 31.667C30.75 32.857 29.839 33.715 28.75 33.99V34C28.75 34.1989 28.671 34.3897 28.5303 34.5303C28.3897 34.671 28.1989 34.75 28 34.75C27.8011 34.75 27.6103 34.671 27.4697 34.5303C27.329 34.3897 27.25 34.1989 27.25 34V33.99C26.161 33.716 25.25 32.857 25.25 31.667C25.25 31.4681 25.329 31.2773 25.4697 31.1367C25.6103 30.996 25.8011 30.917 26 30.917C26.1989 30.917 26.3897 30.996 26.5303 31.1367C26.671 31.2773 26.75 31.4681 26.75 31.667C26.75 32.051 27.176 32.583 28 32.583C28.824 32.583 29.25 32.051 29.25 31.667C29.25 31.283 28.824 30.75 28 30.75C26.615 30.75 25.25 29.79 25.25 28.333C25.25 27.143 26.161 26.284 27.25 26.01V26C27.25 25.8011 27.329 25.6103 27.4697 25.4697C27.6103 25.329 27.8011 25.25 28 25.25Z" fill="#0054F9"/>
</svg>
