<svg width="1026" height="304" viewBox="0 0 1026 304" fill="none" xmlns="http://www.w3.org/2000/svg">
<path d="M84.8039 356.349C27.979 356.349 0.000300106 324.032 0.000300106 260.484C0.000300106 138.809 102.806 16.9175 205.177 16.9175C228.167 16.9175 248.772 23.8579 261.785 35.353L274.799 21.4721H282.823L247.904 119.94H237.277C240.964 104.107 242.699 90.8766 242.699 79.5984C242.699 49.0171 229.686 35.7868 201.49 35.7868C120.591 35.7868 39.4741 147.051 39.4741 257.881C39.4741 309.934 58.1265 335.961 94.5639 335.961C140.761 335.961 183.705 294.318 208.431 225.998H218.841L178.934 351.794H169.174L171.993 318.61H170.475C141.846 345.504 117.12 356.349 84.8039 356.349ZM261.65 356.349C236.924 356.349 221.959 335.093 221.959 299.307C221.959 221.661 296.135 119.94 355.779 119.94C369.01 119.94 377.035 125.579 385.71 140.11L391.566 124.277H428.003L366.407 304.946C359.683 324.032 361.419 330.756 368.359 330.756C375.516 330.756 388.096 319.044 408.483 292.583L415.424 298.656C390.482 336.395 367.058 356.349 347.104 356.349C333.657 356.349 325.849 347.89 325.849 331.406C325.849 318.61 328.235 306.03 337.995 287.812L335.826 286.293C307.847 335.527 285.941 356.349 261.65 356.349ZM268.59 340.95C293.099 340.95 339.296 273.28 368.359 191.947C375.516 172.21 376.167 163.317 376.167 155.293C376.167 141.845 369.01 133.821 359.683 133.821C323.463 133.821 254.926 253.977 254.926 316.007C254.926 333.358 258.83 340.95 268.59 340.95ZM436.689 356.349C422.158 356.349 414.566 347.239 414.566 330.973C414.566 316.875 417.386 302.56 439.292 242.482L477.03 138.158H447.317L451.004 124.277H482.019L504.575 61.1628L543.398 56.8251L519.107 124.277H550.556L546.652 138.158H514.118L483.971 221.01C452.305 307.115 450.353 314.489 450.353 320.562C450.353 326.852 452.956 330.756 458.378 330.756C465.752 330.756 476.38 320.562 495.683 296.27L503.057 301.693C479.85 336.395 454.474 356.349 436.689 356.349ZM548.062 356.349C523.336 356.349 508.371 335.093 508.371 299.307C508.371 221.661 582.547 119.94 642.191 119.94C655.422 119.94 663.446 125.579 672.122 140.11L677.978 124.277H714.415L652.819 304.946C646.095 324.032 647.83 330.756 654.771 330.756C661.928 330.756 674.508 319.044 694.895 292.583L701.836 298.656C676.894 336.395 653.47 356.349 633.516 356.349C620.069 356.349 612.261 347.89 612.261 331.406C612.261 318.61 614.646 306.03 624.406 287.812L622.238 286.293C594.259 335.527 572.353 356.349 548.062 356.349ZM555.002 340.95C579.51 340.95 625.708 273.28 654.771 191.947C661.928 172.21 662.579 163.317 662.579 155.293C662.579 141.845 655.422 133.821 646.095 133.821C609.875 133.821 541.338 253.977 541.338 316.007C541.338 333.358 545.242 340.95 555.002 340.95ZM712.257 356.349C700.761 356.349 693.821 345.721 693.821 329.238C693.821 314.055 700.328 295.186 750.646 151.822L800.097 11.4953L772.552 6.07304L771.684 0.00015173H843.258L763.442 221.01C736.331 296.27 729.825 313.405 729.825 323.165C729.825 327.502 733.945 330.756 737.416 330.756C743.272 330.756 752.164 325.767 775.371 296.27L783.396 301.693C759.105 336.612 731.777 356.349 712.257 356.349ZM887.94 70.489C874.059 70.489 865.384 60.9459 865.384 46.1975C865.384 30.3646 877.963 16.9175 891.627 16.9175C903.99 16.9175 915.051 27.1113 915.051 40.5584C915.051 55.7406 901.604 70.489 887.94 70.489ZM808.559 356.349C794.678 356.349 785.135 348.324 785.135 332.057C785.135 324.9 786.436 315.357 790.557 304.295L849.117 151.172C850.418 147.485 850.852 145.099 850.852 143.147C850.852 140.544 849.334 139.243 846.297 139.243C837.839 139.243 825.476 149.437 814.415 165.92L806.173 158.329C822.656 134.471 845.864 119.94 865.167 119.94C878.614 119.94 888.591 127.531 888.591 140.978C888.591 149.003 886.856 159.197 882.952 169.39L825.042 316.875C824.175 319.044 823.958 320.779 823.958 322.514C823.958 327.286 826.56 330.756 831.115 330.756C837.839 330.756 845.213 324.032 868.637 296.27L876.228 301.693C853.672 335.527 826.56 356.349 808.559 356.349ZM914.834 356.349C879.481 356.349 856.491 337.479 856.491 314.055C856.491 303.861 863.215 295.403 872.758 295.403C885.337 295.403 888.157 305.597 890.976 316.658C894.23 329.238 897.7 342.902 917.003 342.902C937.174 342.902 950.404 325.767 950.404 301.693C950.404 289.33 945.199 277.184 929.583 252.242C910.496 221.444 903.339 203.225 903.339 184.356C903.339 148.786 933.27 119.94 970.141 119.94C1000.29 119.94 1025.66 138.592 1025.66 159.413C1025.66 169.824 1018.72 177.198 1009.18 177.198C999.638 177.198 994.649 170.475 993.131 158.329C990.745 137.291 987.275 132.519 972.31 132.519C951.055 132.519 939.776 147.485 939.776 170.909C939.776 185.657 945.416 199.755 961.465 227.083C979.25 256.797 985.323 272.846 985.323 290.414C985.323 328.587 954.525 356.349 914.834 356.349Z" fill="#1D1D1D"/>
</svg>
