<svg width="56" height="56" viewBox="0 0 56 56" fill="none" xmlns="http://www.w3.org/2000/svg">
<rect width="56" height="56" rx="28" fill="white"/>
<path d="M23.5455 18C22.1415 18 21 19.1211 21 20.5V35.5C21 36.8789 22.1415 38 23.5455 38H32.4545C33.8585 38 35 36.8789 35 35.5V20.5C35 19.1211 33.8585 18 32.4545 18H23.5455ZM26.7273 34.875H29.2727C29.6227 34.875 29.9091 35.1562 29.9091 35.5C29.9091 35.8438 29.6227 36.125 29.2727 36.125H26.7273C26.3773 36.125 26.0909 35.8438 26.0909 35.5C26.0909 35.1562 26.3773 34.875 26.7273 34.875Z" fill="#0054F9"/>
</svg>
