<svg width="56" height="56" viewBox="0 0 56 56" fill="none" xmlns="http://www.w3.org/2000/svg">
<rect width="56" height="56" rx="28" fill="white"/>
<path d="M35 18H21C19.3 18 18 19.3 18 21V35C18 36.7 19.3 38 21 38H35C36.7 38 38 36.7 38 35V21C38 19.3 36.7 18 35 18ZM24 33C24 33.6 23.6 34 23 34C22.4 34 22 33.6 22 33V29C22 28.4 22.4 28 23 28C23.6 28 24 28.4 24 29V33ZM29 33C29 33.6 28.6 34 28 34C27.4 34 27 33.6 27 33V23C27 22.4 27.4 22 28 22C28.6 22 29 22.4 29 23V33ZM34 33C34 33.6 33.6 34 33 34C32.4 34 32 33.6 32 33V27C32 26.4 32.4 26 33 26C33.6 26 34 26.4 34 27V33Z" fill="#0054F9"/>
</svg>
