<svg width="56" height="56" viewBox="0 0 56 56" fill="none" xmlns="http://www.w3.org/2000/svg">
<rect width="56" height="56" rx="28" fill="white"/>
<path d="M20 24.5V21.616C20 21.1713 20.1583 20.791 20.475 20.475C20.7917 20.159 21.1717 20.0007 21.615 20H34.385C34.829 20 35.209 20.1583 35.525 20.475C35.841 20.7917 35.9993 21.1717 36 21.615V24.5H20ZM21.616 36C21.1713 36 20.791 35.8417 20.475 35.525C20.159 35.2083 20.0007 34.8287 20 34.386V25.5H23.885V36H21.616ZM32.116 36V25.5H36V34.385C36 34.829 35.8417 35.209 35.525 35.525C35.2083 35.841 34.8283 35.9993 34.385 36H32.116ZM24.885 36V25.5H31.115V36H24.885Z" fill="#0054F9"/>
</svg>
