<svg width="414" height="220" viewBox="0 0 414 220" fill="none" xmlns="http://www.w3.org/2000/svg">
<g clip-path="url(#clip0_2166_34263)">
<g filter="url(#filter0_d_2166_34263)">
<rect x="75.0107" y="32" width="263" height="248.315" rx="20.0109" fill="white" shape-rendering="crispEdges"/>
<rect x="75.5107" y="32.5" width="262" height="247.315" rx="19.5109" stroke="black" stroke-opacity="0.08" shape-rendering="crispEdges"/>
<path d="M96.5772 63.7874C95.6739 63.7874 94.8334 63.6216 94.0558 63.29C93.2897 62.9583 92.6208 62.501 92.049 61.9178C91.4887 61.3232 91.0485 60.6257 90.7283 59.8252C90.4081 59.0248 90.2481 58.1443 90.2481 57.1838C90.2481 56.2347 90.4024 55.3599 90.7112 54.5595C91.0313 53.7476 91.4773 53.0501 92.049 52.4669C92.6208 51.8723 93.2897 51.4149 94.0558 51.0948C94.822 50.7632 95.6624 50.5973 96.5772 50.5973C97.4806 50.5973 98.2867 50.7517 98.9957 51.0605C99.7161 51.3692 100.322 51.7751 100.814 52.2783C101.305 52.77 101.66 53.3074 101.877 53.8906L100.059 54.7482C99.7847 54.0621 99.3444 53.5075 98.7384 53.0844C98.1438 52.6499 97.4234 52.4326 96.5772 52.4326C95.731 52.4326 94.9821 52.6327 94.3303 53.033C93.6785 53.4332 93.1696 53.9878 92.8037 54.6967C92.4493 55.4057 92.272 56.2347 92.272 57.1838C92.272 58.1329 92.4493 58.9676 92.8037 59.688C93.1696 60.397 93.6785 60.9515 94.3303 61.3518C94.9821 61.7405 95.731 61.9349 96.5772 61.9349C97.4234 61.9349 98.1438 61.7234 98.7384 61.3003C99.3444 60.8772 99.7847 60.3226 100.059 59.6365L101.877 60.4942C101.66 61.0659 101.305 61.6033 100.814 62.1065C100.322 62.6096 99.7161 63.0155 98.9957 63.3243C98.2867 63.633 97.4806 63.7874 96.5772 63.7874ZM105.866 63.7874C105.238 63.7874 104.683 63.6787 104.203 63.4615C103.734 63.2328 103.368 62.924 103.105 62.5353C102.842 62.135 102.71 61.6662 102.71 61.1288C102.71 60.6257 102.819 60.174 103.036 59.7738C103.265 59.3735 103.614 59.0362 104.083 58.7618C104.551 58.4873 105.14 58.293 105.849 58.1786L109.074 57.6469V59.1734L106.227 59.6708C105.712 59.7623 105.335 59.9281 105.095 60.1683C104.854 60.397 104.734 60.6943 104.734 61.0602C104.734 61.4147 104.866 61.7062 105.129 61.9349C105.403 62.1522 105.752 62.2608 106.175 62.2608C106.701 62.2608 107.159 62.1465 107.547 61.9178C107.948 61.6891 108.256 61.3861 108.474 61.0087C108.691 60.6199 108.799 60.1911 108.799 59.7223V57.3382C108.799 56.8808 108.628 56.5091 108.285 56.2233C107.953 55.926 107.507 55.7773 106.947 55.7773C106.432 55.7773 105.981 55.9145 105.592 56.189C105.215 56.452 104.935 56.795 104.752 57.2181L103.139 56.4119C103.311 55.9545 103.591 55.5543 103.98 55.2113C104.368 54.8568 104.82 54.5824 105.335 54.388C105.861 54.1936 106.415 54.0964 106.998 54.0964C107.73 54.0964 108.376 54.2336 108.937 54.508C109.508 54.7825 109.949 55.1655 110.257 55.6572C110.578 56.1375 110.738 56.6978 110.738 57.3382V63.5815H108.885V61.9006L109.28 61.9521C109.062 62.3294 108.782 62.6553 108.439 62.9298C108.108 63.2042 107.725 63.4157 107.29 63.5644C106.867 63.713 106.392 63.7874 105.866 63.7874ZM112.489 63.5815V54.3022H114.342V56.1718L114.17 55.8974C114.376 55.2913 114.708 54.8568 115.165 54.5938C115.622 54.3194 116.171 54.1822 116.812 54.1822H117.378V55.9488H116.572C115.931 55.9488 115.411 56.1489 115.011 56.5492C114.622 56.9379 114.428 57.4982 114.428 58.2301V63.5815H112.489ZM122.477 63.7874C121.585 63.7874 120.785 63.5758 120.076 63.1527C119.378 62.7182 118.824 62.135 118.412 61.4032C118.012 60.6714 117.812 59.8481 117.812 58.9333C117.812 58.0185 118.018 57.1952 118.429 56.4634C118.841 55.7316 119.395 55.1541 120.093 54.731C120.79 54.3079 121.579 54.0964 122.46 54.0964C123.203 54.0964 123.861 54.245 124.432 54.5423C125.004 54.8397 125.456 55.2513 125.787 55.7773L125.496 56.2233V50.5973H127.417V63.5815H125.582V61.6948L125.805 62.055C125.484 62.6153 125.027 63.0441 124.432 63.3414C123.838 63.6387 123.186 63.7874 122.477 63.7874ZM122.666 61.9864C123.203 61.9864 123.683 61.8549 124.107 61.5919C124.541 61.3289 124.878 60.9687 125.119 60.5113C125.37 60.0425 125.496 59.5165 125.496 58.9333C125.496 58.3501 125.37 57.8298 125.119 57.3725C124.878 56.9151 124.541 56.5549 124.107 56.2919C123.683 56.0289 123.203 55.8974 122.666 55.8974C122.128 55.8974 121.642 56.0289 121.208 56.2919C120.773 56.5549 120.436 56.9151 120.196 57.3725C119.956 57.8298 119.836 58.3501 119.836 58.9333C119.836 59.5165 119.956 60.0425 120.196 60.5113C120.436 60.9687 120.768 61.3289 121.191 61.5919C121.625 61.8549 122.117 61.9864 122.666 61.9864ZM134.959 63.7874C134.262 63.7874 133.65 63.633 133.124 63.3243C132.598 63.0041 132.186 62.5638 131.889 62.0035C131.603 61.4318 131.46 60.7743 131.46 60.031V54.3022H133.398V59.8595C133.398 60.2826 133.484 60.6542 133.656 60.9744C133.827 61.2946 134.067 61.5462 134.376 61.7291C134.685 61.9006 135.039 61.9864 135.439 61.9864C135.851 61.9864 136.211 61.8949 136.52 61.712C136.829 61.529 137.069 61.2717 137.24 60.9401C137.423 60.6085 137.515 60.2197 137.515 59.7738V54.3022H139.436V63.5815H137.601V61.7634L137.806 62.0035C137.589 62.5753 137.229 63.0155 136.726 63.3243C136.223 63.633 135.634 63.7874 134.959 63.7874ZM144.615 63.7874C143.666 63.7874 142.831 63.553 142.111 63.0841C141.402 62.6153 140.904 61.9864 140.618 61.1974L142.111 60.4942C142.362 61.0202 142.705 61.4375 143.14 61.7463C143.586 62.055 144.077 62.2094 144.615 62.2094C145.072 62.2094 145.444 62.1065 145.73 61.9006C146.016 61.6948 146.159 61.4147 146.159 61.0602C146.159 60.8315 146.096 60.6485 145.97 60.5113C145.844 60.3627 145.684 60.2426 145.49 60.1511C145.307 60.0596 145.118 59.991 144.924 59.9453L143.466 59.5336C142.665 59.3049 142.065 58.9619 141.665 58.5045C141.276 58.0357 141.081 57.4925 141.081 56.875C141.081 56.3147 141.224 55.8288 141.51 55.4171C141.796 54.994 142.191 54.6681 142.694 54.4394C143.197 54.2107 143.763 54.0964 144.392 54.0964C145.238 54.0964 145.993 54.3079 146.656 54.731C147.319 55.1427 147.788 55.7201 148.062 56.4634L146.57 57.1666C146.387 56.7207 146.096 56.3662 145.695 56.1032C145.307 55.8402 144.866 55.7087 144.375 55.7087C143.952 55.7087 143.614 55.8116 143.363 56.0174C143.111 56.2118 142.985 56.4691 142.985 56.7893C142.985 57.0065 143.043 57.1895 143.157 57.3382C143.271 57.4754 143.42 57.5897 143.603 57.6812C143.786 57.7612 143.974 57.8298 144.169 57.887L145.678 58.333C146.444 58.5502 147.033 58.8933 147.445 59.3621C147.857 59.8195 148.062 60.3684 148.062 61.0087C148.062 61.5576 147.914 62.0436 147.616 62.4667C147.331 62.8783 146.93 63.2042 146.416 63.4443C145.901 63.673 145.301 63.7874 144.615 63.7874ZM153.804 63.7874C152.877 63.7874 152.054 63.5758 151.334 63.1527C150.625 62.7182 150.07 62.135 149.67 61.4032C149.27 60.66 149.07 59.8309 149.07 58.9162C149.07 57.9785 149.27 57.1495 149.67 56.4291C150.082 55.7087 150.63 55.1427 151.316 54.731C152.003 54.3079 152.78 54.0964 153.649 54.0964C154.347 54.0964 154.97 54.2165 155.519 54.4566C156.068 54.6967 156.531 55.0283 156.908 55.4514C157.285 55.8631 157.571 56.3376 157.766 56.875C157.972 57.4125 158.074 57.9842 158.074 58.5903C158.074 58.7389 158.069 58.8933 158.057 59.0534C158.046 59.2135 158.023 59.3621 157.989 59.4993H150.596V57.9556H156.891L155.965 58.6589C156.079 58.0986 156.039 57.6012 155.845 57.1666C155.662 56.7207 155.376 56.3719 154.987 56.1203C154.61 55.8573 154.164 55.7258 153.649 55.7258C153.135 55.7258 152.677 55.8573 152.277 56.1203C151.877 56.3719 151.568 56.7378 151.351 57.2181C151.134 57.6869 151.048 58.2587 151.094 58.9333C151.036 59.5622 151.122 60.1111 151.351 60.5799C151.591 61.0487 151.923 61.4147 152.346 61.6777C152.78 61.9407 153.272 62.0722 153.821 62.0722C154.381 62.0722 154.856 61.9464 155.244 61.6948C155.645 61.4432 155.959 61.1173 156.188 60.7171L157.766 61.489C157.583 61.9235 157.297 62.318 156.908 62.6725C156.531 63.0155 156.073 63.29 155.536 63.4958C155.01 63.6902 154.432 63.7874 153.804 63.7874ZM159.451 63.5815V54.3022H161.304V56.1718L161.132 55.8974C161.338 55.2913 161.67 54.8568 162.127 54.5938C162.585 54.3194 163.133 54.1822 163.774 54.1822H164.34V55.9488H163.534C162.893 55.9488 162.373 56.1489 161.973 56.5492C161.584 56.9379 161.39 57.4982 161.39 58.2301V63.5815H159.451Z" fill="#131313"/>
<rect x="259.701" y="46.2935" width="64.0163" height="21.5761" rx="10.788" fill="#F3F4F7"/>
<path d="M273.571 54.6469V60.5815H272.791V56.1563L270.818 60.5815H270.27L268.288 56.1477V60.5815H267.508V54.6469H268.348L270.544 59.5524L272.739 54.6469H273.571ZM276.945 60.6587C276.504 60.6587 276.104 60.5587 275.744 60.3586C275.389 60.1585 275.109 59.8754 274.903 59.5095C274.703 59.1379 274.603 58.7091 274.603 58.2231C274.603 57.7429 274.706 57.3198 274.912 56.9539C275.124 56.5822 275.409 56.2992 275.77 56.1048C276.13 55.9047 276.533 55.8047 276.979 55.8047C277.425 55.8047 277.828 55.9047 278.188 56.1048C278.548 56.2992 278.831 56.5794 279.037 56.9453C279.249 57.3112 279.354 57.7371 279.354 58.2231C279.354 58.7091 279.246 59.1379 279.029 59.5095C278.817 59.8754 278.528 60.1585 278.162 60.3586C277.796 60.5587 277.39 60.6587 276.945 60.6587ZM276.945 59.9726C277.225 59.9726 277.488 59.9069 277.734 59.7754C277.979 59.6439 278.177 59.4466 278.325 59.1836C278.48 58.9206 278.557 58.6005 278.557 58.2231C278.557 57.8458 278.483 57.5256 278.334 57.2626C278.185 56.9996 277.991 56.8052 277.751 56.6794C277.511 56.5479 277.25 56.4822 276.97 56.4822C276.684 56.4822 276.421 56.5479 276.181 56.6794C275.947 56.8052 275.758 56.9996 275.615 57.2626C275.472 57.5256 275.401 57.8458 275.401 58.2231C275.401 58.6062 275.469 58.9292 275.607 59.1922C275.75 59.4552 275.938 59.6525 276.173 59.784C276.407 59.9097 276.664 59.9726 276.945 59.9726ZM282.67 55.7961C283.242 55.7961 283.705 55.9705 284.06 56.3192C284.414 56.6623 284.591 57.1597 284.591 57.8115V60.5815H283.82V57.923C283.82 57.4541 283.702 57.0968 283.468 56.8509C283.233 56.5994 282.913 56.4736 282.507 56.4736C282.096 56.4736 281.767 56.6022 281.521 56.8595C281.281 57.1168 281.161 57.4913 281.161 57.983V60.5815H280.381V55.8818H281.161V56.5508C281.315 56.3107 281.524 56.1248 281.787 55.9933C282.056 55.8618 282.35 55.7961 282.67 55.7961ZM286.818 56.5251V59.2951C286.818 59.5238 286.867 59.6868 286.964 59.784C287.061 59.8754 287.23 59.9212 287.47 59.9212H288.045V60.5815H287.341C286.907 60.5815 286.581 60.4815 286.364 60.2814C286.146 60.0813 286.038 59.7525 286.038 59.2951V56.5251H285.429V55.8818H286.038V54.6983H286.818V55.8818H288.045V56.5251H286.818ZM291.323 55.7961C291.677 55.7961 291.997 55.8733 292.283 56.0276C292.569 56.1763 292.792 56.4021 292.952 56.7052C293.118 57.0082 293.201 57.3769 293.201 57.8115V60.5815H292.429V57.923C292.429 57.4541 292.312 57.0968 292.078 56.8509C291.843 56.5994 291.523 56.4736 291.117 56.4736C290.705 56.4736 290.377 56.6022 290.131 56.8595C289.891 57.1168 289.771 57.4913 289.771 57.983V60.5815H288.99V54.2352H289.771V56.5508C289.925 56.3107 290.136 56.1248 290.405 55.9933C290.68 55.8618 290.985 55.7961 291.323 55.7961ZM295.256 54.2352V60.5815H294.476V54.2352H295.256ZM300.634 55.8818L297.804 62.7942H296.998L297.924 60.5301L296.029 55.8818H296.895L298.37 59.6896L299.828 55.8818H300.634Z" fill="#787878"/>
<path d="M307.079 55.6282L310.185 58.7346C310.552 59.1015 311.153 59.1015 311.52 58.7346L314.626 55.6282" stroke="#787878" stroke-width="0.779644" stroke-miterlimit="10" stroke-linecap="round" stroke-linejoin="round"/>
<path d="M285.328 146.539C289.402 142.906 289.785 136.626 285.838 132.855C281.891 129.085 275.635 129.754 272.192 133.989L258.1 151.32C255.741 154.22 256.202 158.463 258.905 161.046C261.607 163.628 265.868 163.894 268.657 161.407L285.328 146.539Z" fill="#0054F9"/>
<path d="M265.688 129.076C268.819 124.606 267.752 118.405 263.046 115.64C258.339 112.876 252.404 114.962 250.023 119.874L240.282 139.975C238.652 143.339 240.074 147.364 243.297 149.257C246.52 151.15 250.728 150.433 252.872 147.371L265.688 129.076Z" fill="#0054F9"/>
<path d="M242.112 116.404C244.113 111.326 241.627 105.546 236.405 103.957C231.183 102.368 225.899 105.783 224.731 111.115L219.954 132.935C219.155 136.586 221.478 140.168 225.053 141.256C228.629 142.345 232.553 140.664 233.924 137.186L242.112 116.404Z" fill="#0054F9"/>
<path d="M213.685 107.532C213.993 102.739 210.354 98.5711 205.551 98.6007C200.748 98.6304 197.16 102.842 197.527 107.632L199.387 131.896C199.638 135.176 202.502 137.609 205.791 137.588C209.081 137.568 211.914 135.1 212.125 131.817L213.685 107.532Z" fill="#0054F9"/>
<path d="M98.8226 222.289C93.3643 222.289 88.8984 217.858 89.3341 212.417C89.7698 206.976 94.8839 203.311 100.273 204.18L122.325 207.734C126.016 208.329 128.496 211.803 128.198 215.529C127.9 219.254 124.898 222.289 121.16 222.289H98.8226Z" fill="#0054F9"/>
<path d="M102.083 195.242C96.7814 193.945 93.4968 188.578 95.213 183.397C96.9293 178.216 102.768 175.871 107.796 177.996L128.372 186.689C131.815 188.144 133.399 192.108 132.224 195.656C131.049 199.204 127.411 201.439 123.781 200.55L102.083 195.242Z" fill="#0054F9"/>
<path d="M112.166 168.819C107.347 166.254 105.487 160.244 108.428 155.646C111.369 151.047 117.605 150.215 121.954 153.514L139.752 167.012C142.73 169.271 143.287 173.503 141.274 176.652C139.26 179.801 135.184 181.07 131.884 179.314L112.166 168.819Z" fill="#0054F9"/>
<path d="M127.695 146.539C123.621 142.906 123.238 136.626 127.185 132.855C131.131 129.085 137.387 129.754 140.831 133.989L154.923 151.32C157.281 154.22 156.82 158.463 154.118 161.046C151.415 163.628 147.155 163.894 144.365 161.407L127.695 146.539Z" fill="#0054F9"/>
<path d="M147.335 129.076C144.203 124.606 145.271 118.405 149.977 115.64C154.683 112.876 160.619 114.962 162.999 119.874L172.74 139.975C174.371 143.339 172.949 147.364 169.726 149.257C166.503 151.15 162.295 150.433 160.15 147.371L147.335 129.076Z" fill="#0054F9"/>
<path d="M170.911 116.404C168.91 111.326 171.396 105.546 176.618 103.957C181.84 102.368 187.124 105.783 188.291 111.115L193.068 132.935C193.868 136.586 191.545 140.168 187.969 141.256C184.393 142.345 180.469 140.664 179.099 137.186L170.911 116.404Z" fill="#0054F9"/>
<path d="M314.2 222.29C319.658 222.29 324.124 217.858 323.688 212.418C323.253 206.977 318.138 203.312 312.75 204.181L290.697 207.735C287.007 208.33 284.526 211.804 284.824 215.529C285.123 219.255 288.125 222.29 291.862 222.29H314.2Z" fill="#0054F9" fill-opacity="0.1"/>
<path d="M310.939 195.243C316.241 193.946 319.526 188.579 317.809 183.398C316.093 178.216 310.254 175.872 305.226 177.997L284.65 186.69C281.207 188.145 279.623 192.109 280.798 195.657C281.974 199.205 285.611 201.44 289.242 200.551L310.939 195.243Z" fill="#0054F9" fill-opacity="0.1"/>
<path d="M300.856 168.82C305.675 166.255 307.535 160.245 304.594 155.647C301.653 151.048 295.417 150.216 291.068 153.515L273.271 167.013C270.293 169.272 269.735 173.504 271.749 176.653C273.763 179.802 277.838 181.071 281.138 179.315L300.856 168.82Z" fill="#0054F9" fill-opacity="0.1"/>
<path d="M183.382 198.561C181.736 198.561 180.281 198.278 179.018 197.711C177.762 197.145 176.778 196.364 176.066 195.368C175.354 194.373 175.002 193.24 175.01 191.969C175.002 190.974 175.205 190.059 175.619 189.225C176.04 188.382 176.61 187.682 177.33 187.123C178.049 186.556 178.853 186.197 179.741 186.043V185.906C178.57 185.622 177.632 184.995 176.928 184.022C176.223 183.05 175.875 181.932 175.883 180.669C175.875 179.467 176.193 178.395 176.836 177.453C177.487 176.504 178.379 175.758 179.512 175.214C180.645 174.67 181.935 174.399 183.382 174.399C184.813 174.399 186.092 174.674 187.217 175.226C188.35 175.769 189.242 176.516 189.893 177.465C190.544 178.407 190.873 179.475 190.881 180.669C190.873 181.932 190.513 183.05 189.801 184.022C189.089 184.995 188.163 185.622 187.022 185.906V186.043C187.903 186.197 188.695 186.556 189.399 187.123C190.111 187.682 190.678 188.382 191.099 189.225C191.528 190.059 191.746 190.974 191.754 191.969C191.746 193.24 191.386 194.373 190.674 195.368C189.962 196.364 188.974 197.145 187.711 197.711C186.456 198.278 185.012 198.561 183.382 198.561ZM183.382 195.656C184.354 195.656 185.196 195.495 185.908 195.173C186.62 194.844 187.171 194.389 187.562 193.807C187.952 193.217 188.151 192.528 188.159 191.74C188.151 190.92 187.937 190.197 187.516 189.569C187.103 188.941 186.54 188.447 185.828 188.088C185.116 187.728 184.3 187.548 183.382 187.548C182.455 187.548 181.632 187.728 180.913 188.088C180.193 188.447 179.626 188.941 179.213 189.569C178.8 190.197 178.597 190.92 178.604 191.74C178.597 192.528 178.784 193.217 179.167 193.807C179.558 194.389 180.113 194.844 180.832 195.173C181.552 195.495 182.402 195.656 183.382 195.656ZM183.382 184.711C184.163 184.711 184.856 184.554 185.46 184.24C186.065 183.927 186.54 183.49 186.884 182.931C187.237 182.372 187.416 181.718 187.424 180.968C187.416 180.233 187.24 179.589 186.896 179.038C186.559 178.487 186.088 178.062 185.483 177.764C184.878 177.457 184.178 177.304 183.382 177.304C182.57 177.304 181.858 177.457 181.246 177.764C180.641 178.062 180.17 178.487 179.833 179.038C179.496 179.589 179.332 180.233 179.339 180.968C179.332 181.718 179.5 182.372 179.845 182.931C180.189 183.49 180.664 183.927 181.269 184.24C181.881 184.554 182.586 184.711 183.382 184.711ZM204.056 198.63C202.241 198.622 200.691 198.144 199.405 197.194C198.119 196.245 197.135 194.863 196.453 193.049C195.772 191.234 195.431 189.048 195.431 186.491C195.431 183.942 195.772 181.764 196.453 179.957C197.142 178.15 198.13 176.772 199.416 175.823C200.71 174.873 202.257 174.399 204.056 174.399C205.855 174.399 207.398 174.877 208.684 175.834C209.97 176.784 210.954 178.162 211.635 179.968C212.324 181.768 212.669 183.942 212.669 186.491C212.669 189.056 212.328 191.246 211.647 193.06C210.965 194.867 209.982 196.249 208.695 197.206C207.409 198.155 205.863 198.63 204.056 198.63ZM204.056 195.564C205.648 195.564 206.892 194.787 207.788 193.232C208.692 191.678 209.143 189.431 209.143 186.491C209.143 184.539 208.937 182.889 208.523 181.542C208.117 180.187 207.532 179.161 206.766 178.464C206.008 177.76 205.105 177.407 204.056 177.407C202.471 177.407 201.227 178.188 200.324 179.75C199.42 181.312 198.965 183.559 198.957 186.491C198.957 188.451 199.16 190.109 199.566 191.464C199.979 192.811 200.565 193.833 201.323 194.53C202.081 195.219 202.992 195.564 204.056 195.564ZM229.019 193.83V192.589C229.019 191.701 229.203 190.89 229.57 190.155C229.946 189.412 230.489 188.819 231.201 188.375C231.921 187.923 232.79 187.697 233.808 187.697C234.849 187.697 235.722 187.919 236.426 188.363C237.131 188.807 237.663 189.401 238.023 190.143C238.39 190.886 238.574 191.701 238.574 192.589V193.83C238.574 194.718 238.39 195.533 238.023 196.276C237.655 197.011 237.115 197.604 236.403 198.056C235.699 198.5 234.834 198.722 233.808 198.722C232.774 198.722 231.902 198.5 231.19 198.056C230.478 197.604 229.938 197.011 229.57 196.276C229.203 195.533 229.019 194.718 229.019 193.83ZM231.695 192.589V193.83C231.695 194.488 231.852 195.085 232.166 195.621C232.48 196.157 233.027 196.425 233.808 196.425C234.581 196.425 235.121 196.157 235.427 195.621C235.734 195.085 235.887 194.488 235.887 193.83V192.589C235.887 191.931 235.737 191.334 235.439 190.798C235.148 190.262 234.604 189.994 233.808 189.994C233.042 189.994 232.499 190.262 232.177 190.798C231.856 191.334 231.695 191.931 231.695 192.589ZM217.191 180.37V179.13C217.191 178.242 217.374 177.427 217.742 176.684C218.117 175.941 218.661 175.348 219.373 174.904C220.092 174.46 220.961 174.238 221.98 174.238C223.021 174.238 223.894 174.46 224.598 174.904C225.302 175.348 225.834 175.941 226.194 176.684C226.554 177.427 226.734 178.242 226.734 179.13V180.37C226.734 181.258 226.55 182.074 226.183 182.816C225.823 183.551 225.287 184.145 224.575 184.596C223.871 185.041 223.005 185.263 221.98 185.263C220.938 185.263 220.062 185.041 219.35 184.596C218.645 184.145 218.109 183.551 217.742 182.816C217.374 182.074 217.191 181.258 217.191 180.37ZM219.878 179.13V180.37C219.878 181.029 220.031 181.626 220.337 182.162C220.651 182.698 221.199 182.966 221.98 182.966C222.745 182.966 223.281 182.698 223.587 182.162C223.901 181.626 224.058 181.029 224.058 180.37V179.13C224.058 178.472 223.909 177.875 223.61 177.339C223.312 176.803 222.768 176.535 221.98 176.535C221.214 176.535 220.67 176.803 220.349 177.339C220.035 177.875 219.878 178.472 219.878 179.13ZM218.282 198.24L234.451 174.72H237.196L221.026 198.24H218.282Z" fill="#131313"/>
<path d="M150.866 218.596V210.728H153.525C154.139 210.728 154.644 210.833 155.038 211.043C155.433 211.25 155.725 211.536 155.914 211.9C156.104 212.263 156.199 212.677 156.199 213.141C156.199 213.604 156.104 214.015 155.914 214.374C155.725 214.732 155.434 215.014 155.042 215.219C154.65 215.421 154.15 215.523 153.54 215.523H151.389V214.662H153.509C153.929 214.662 154.267 214.601 154.524 214.478C154.782 214.355 154.969 214.18 155.085 213.955C155.202 213.727 155.261 213.456 155.261 213.141C155.261 212.826 155.202 212.55 155.085 212.315C154.967 212.079 154.778 211.897 154.52 211.769C154.261 211.638 153.919 211.573 153.494 211.573H151.819V218.596H150.866ZM154.57 215.062L156.506 218.596H155.4L153.494 215.062H154.57ZM160.074 218.719C159.506 218.719 159.015 218.594 158.603 218.343C158.193 218.089 157.877 217.736 157.654 217.282C157.434 216.826 157.323 216.296 157.323 215.692C157.323 215.087 157.434 214.554 157.654 214.093C157.877 213.63 158.187 213.269 158.584 213.01C158.983 212.749 159.449 212.618 159.982 212.618C160.289 212.618 160.593 212.669 160.893 212.772C161.192 212.874 161.465 213.041 161.711 213.271C161.957 213.499 162.153 213.801 162.299 214.178C162.445 214.554 162.518 215.018 162.518 215.569V215.953H157.969V215.169H161.596C161.596 214.836 161.529 214.539 161.396 214.278C161.265 214.017 161.078 213.81 160.835 213.659C160.594 213.508 160.31 213.433 159.982 213.433C159.621 213.433 159.308 213.522 159.045 213.701C158.783 213.878 158.582 214.109 158.441 214.393C158.301 214.677 158.23 214.982 158.23 215.307V215.83C158.23 216.276 158.307 216.653 158.461 216.963C158.617 217.271 158.833 217.505 159.11 217.666C159.387 217.825 159.708 217.905 160.074 217.905C160.313 217.905 160.528 217.871 160.72 217.805C160.914 217.736 161.082 217.633 161.223 217.497C161.364 217.359 161.473 217.187 161.55 216.983L162.426 217.228C162.333 217.526 162.178 217.787 161.961 218.012C161.743 218.235 161.474 218.409 161.154 218.535C160.834 218.658 160.474 218.719 160.074 218.719ZM168.077 214.017L167.263 214.247C167.211 214.111 167.136 213.979 167.036 213.851C166.939 213.721 166.805 213.613 166.636 213.529C166.467 213.444 166.251 213.402 165.987 213.402C165.626 213.402 165.325 213.485 165.084 213.652C164.846 213.815 164.727 214.024 164.727 214.278C164.727 214.503 164.809 214.681 164.973 214.812C165.137 214.942 165.393 215.051 165.741 215.138L166.617 215.354C167.145 215.482 167.538 215.678 167.797 215.941C168.055 216.203 168.185 216.539 168.185 216.952C168.185 217.29 168.087 217.592 167.893 217.859C167.701 218.125 167.432 218.335 167.086 218.489C166.74 218.642 166.338 218.719 165.88 218.719C165.278 218.719 164.779 218.589 164.385 218.327C163.991 218.066 163.741 217.684 163.636 217.182L164.496 216.967C164.578 217.285 164.733 217.523 164.961 217.682C165.192 217.841 165.493 217.92 165.864 217.92C166.287 217.92 166.622 217.83 166.871 217.651C167.122 217.469 167.247 217.251 167.247 216.998C167.247 216.793 167.176 216.621 167.032 216.483C166.889 216.342 166.668 216.237 166.371 216.168L165.388 215.938C164.847 215.809 164.45 215.611 164.197 215.342C163.946 215.071 163.82 214.731 163.82 214.324C163.82 213.991 163.914 213.696 164.101 213.44C164.29 213.184 164.548 212.983 164.873 212.837C165.201 212.691 165.572 212.618 165.987 212.618C166.571 212.618 167.03 212.746 167.363 213.002C167.698 213.258 167.936 213.596 168.077 214.017ZM169.55 220.809V212.695H170.426V213.632H170.533C170.6 213.53 170.692 213.399 170.81 213.24C170.93 213.079 171.102 212.936 171.325 212.81C171.55 212.682 171.855 212.618 172.239 212.618C172.736 212.618 173.174 212.742 173.553 212.991C173.932 213.239 174.228 213.591 174.44 214.047C174.653 214.503 174.759 215.041 174.759 215.661C174.759 216.286 174.653 216.828 174.44 217.286C174.228 217.742 173.933 218.095 173.557 218.346C173.18 218.595 172.746 218.719 172.254 218.719C171.875 218.719 171.572 218.656 171.344 218.531C171.116 218.403 170.94 218.258 170.817 218.097C170.695 217.933 170.6 217.797 170.533 217.689H170.456V220.809H169.55ZM170.441 215.646C170.441 216.091 170.506 216.484 170.637 216.825C170.768 217.163 170.958 217.428 171.209 217.62C171.46 217.81 171.768 217.905 172.131 217.905C172.511 217.905 172.827 217.805 173.08 217.605C173.337 217.403 173.529 217.131 173.657 216.79C173.787 216.447 173.853 216.066 173.853 215.646C173.853 215.231 173.789 214.857 173.661 214.524C173.535 214.188 173.344 213.923 173.088 213.728C172.835 213.531 172.516 213.433 172.131 213.433C171.763 213.433 171.453 213.526 171.202 213.713C170.951 213.897 170.761 214.156 170.633 214.489C170.505 214.82 170.441 215.205 170.441 215.646ZM178.54 218.719C178.007 218.719 177.54 218.592 177.138 218.339C176.738 218.085 176.426 217.73 176.2 217.275C175.977 216.819 175.866 216.286 175.866 215.676C175.866 215.062 175.977 214.525 176.2 214.066C176.426 213.608 176.738 213.252 177.138 212.998C177.54 212.745 178.007 212.618 178.54 212.618C179.073 212.618 179.539 212.745 179.938 212.998C180.341 213.252 180.653 213.608 180.876 214.066C181.101 214.525 181.214 215.062 181.214 215.676C181.214 216.286 181.101 216.819 180.876 217.275C180.653 217.73 180.341 218.085 179.938 218.339C179.539 218.592 179.073 218.719 178.54 218.719ZM178.54 217.905C178.945 217.905 179.278 217.801 179.539 217.593C179.8 217.386 179.993 217.113 180.119 216.775C180.244 216.437 180.307 216.071 180.307 215.676C180.307 215.282 180.244 214.914 180.119 214.574C179.993 214.233 179.8 213.958 179.539 213.748C179.278 213.538 178.945 213.433 178.54 213.433C178.135 213.433 177.802 213.538 177.541 213.748C177.28 213.958 177.086 214.233 176.961 214.574C176.835 214.914 176.773 215.282 176.773 215.676C176.773 216.071 176.835 216.437 176.961 216.775C177.086 217.113 177.28 217.386 177.541 217.593C177.802 217.801 178.135 217.905 178.54 217.905ZM183.505 215.046V218.596H182.598V212.695H183.474V213.617H183.551C183.689 213.317 183.899 213.077 184.181 212.895C184.463 212.71 184.826 212.618 185.272 212.618C185.672 212.618 186.021 212.7 186.321 212.864C186.621 213.025 186.854 213.271 187.02 213.602C187.187 213.929 187.27 214.344 187.27 214.846V218.596H186.363V214.908C186.363 214.444 186.243 214.083 186.002 213.824C185.761 213.563 185.431 213.433 185.011 213.433C184.721 213.433 184.463 213.495 184.235 213.621C184.009 213.746 183.831 213.929 183.701 214.17C183.57 214.411 183.505 214.703 183.505 215.046ZM193.107 214.017L192.292 214.247C192.241 214.111 192.166 213.979 192.066 213.851C191.968 213.721 191.835 213.613 191.666 213.529C191.497 213.444 191.281 213.402 191.017 213.402C190.656 213.402 190.355 213.485 190.114 213.652C189.876 213.815 189.757 214.024 189.757 214.278C189.757 214.503 189.839 214.681 190.002 214.812C190.166 214.942 190.423 215.051 190.771 215.138L191.647 215.354C192.175 215.482 192.568 215.678 192.826 215.941C193.085 216.203 193.214 216.539 193.214 216.952C193.214 217.29 193.117 217.592 192.922 217.859C192.73 218.125 192.461 218.335 192.116 218.489C191.77 218.642 191.368 218.719 190.909 218.719C190.307 218.719 189.809 218.589 189.415 218.327C189.02 218.066 188.77 217.684 188.665 217.182L189.526 216.967C189.608 217.285 189.763 217.523 189.991 217.682C190.221 217.841 190.522 217.92 190.894 217.92C191.316 217.92 191.652 217.83 191.9 217.651C192.151 217.469 192.277 217.251 192.277 216.998C192.277 216.793 192.205 216.621 192.062 216.483C191.918 216.342 191.698 216.237 191.401 216.168L190.417 215.938C189.877 215.809 189.48 215.611 189.226 215.342C188.975 215.071 188.85 214.731 188.85 214.324C188.85 213.991 188.943 213.696 189.13 213.44C189.32 213.184 189.577 212.983 189.903 212.837C190.23 212.691 190.602 212.618 191.017 212.618C191.601 212.618 192.059 212.746 192.392 213.002C192.728 213.258 192.966 213.596 193.107 214.017ZM197.054 218.719C196.485 218.719 195.994 218.594 195.582 218.343C195.172 218.089 194.856 217.736 194.633 217.282C194.413 216.826 194.303 216.296 194.303 215.692C194.303 215.087 194.413 214.554 194.633 214.093C194.856 213.63 195.166 213.269 195.563 213.01C195.962 212.749 196.429 212.618 196.961 212.618C197.269 212.618 197.572 212.669 197.872 212.772C198.172 212.874 198.444 213.041 198.69 213.271C198.936 213.499 199.132 213.801 199.278 214.178C199.424 214.554 199.497 215.018 199.497 215.569V215.953H194.948V215.169H198.575C198.575 214.836 198.508 214.539 198.375 214.278C198.245 214.017 198.058 213.81 197.814 213.659C197.573 213.508 197.289 213.433 196.961 213.433C196.6 213.433 196.288 213.522 196.024 213.701C195.763 213.878 195.562 214.109 195.421 214.393C195.28 214.677 195.209 214.982 195.209 215.307V215.83C195.209 216.276 195.286 216.653 195.44 216.963C195.596 217.271 195.813 217.505 196.089 217.666C196.366 217.825 196.687 217.905 197.054 217.905C197.292 217.905 197.507 217.871 197.699 217.805C197.894 217.736 198.061 217.633 198.202 217.497C198.343 217.359 198.452 217.187 198.529 216.983L199.405 217.228C199.313 217.526 199.158 217.787 198.94 218.012C198.722 218.235 198.453 218.409 198.133 218.535C197.813 218.658 197.453 218.719 197.054 218.719ZM205.056 214.017L204.242 214.247C204.191 214.111 204.115 213.979 204.015 213.851C203.918 213.721 203.785 213.613 203.616 213.529C203.447 213.444 203.23 213.402 202.966 213.402C202.605 213.402 202.304 213.485 202.063 213.652C201.825 213.815 201.706 214.024 201.706 214.278C201.706 214.503 201.788 214.681 201.952 214.812C202.116 214.942 202.372 215.051 202.72 215.138L203.596 215.354C204.124 215.482 204.517 215.678 204.776 215.941C205.035 216.203 205.164 216.539 205.164 216.952C205.164 217.29 205.067 217.592 204.872 217.859C204.68 218.125 204.411 218.335 204.065 218.489C203.719 218.642 203.317 218.719 202.859 218.719C202.257 218.719 201.759 218.589 201.364 218.327C200.97 218.066 200.72 217.684 200.615 217.182L201.476 216.967C201.558 217.285 201.713 217.523 201.941 217.682C202.171 217.841 202.472 217.92 202.843 217.92C203.266 217.92 203.602 217.83 203.85 217.651C204.101 217.469 204.227 217.251 204.227 216.998C204.227 216.793 204.155 216.621 204.011 216.483C203.868 216.342 203.648 216.237 203.351 216.168L202.367 215.938C201.827 215.809 201.43 215.611 201.176 215.342C200.925 215.071 200.799 214.731 200.799 214.324C200.799 213.991 200.893 213.696 201.08 213.44C201.269 213.184 201.527 212.983 201.852 212.837C202.18 212.691 202.551 212.618 202.966 212.618C203.55 212.618 204.009 212.746 204.342 213.002C204.677 213.258 204.916 213.596 205.056 214.017ZM212.138 212.695V213.463H209.08V212.695H212.138ZM209.971 211.281H210.878V216.906C210.878 217.162 210.915 217.354 210.989 217.482C211.066 217.608 211.164 217.692 211.281 217.736C211.402 217.777 211.529 217.797 211.662 217.797C211.762 217.797 211.844 217.792 211.908 217.782C211.972 217.769 212.023 217.759 212.061 217.751L212.246 218.565C212.184 218.589 212.098 218.612 211.988 218.635C211.878 218.66 211.739 218.673 211.57 218.673C211.313 218.673 211.062 218.618 210.817 218.508C210.573 218.398 210.371 218.23 210.209 218.005C210.051 217.779 209.971 217.495 209.971 217.152V211.281ZM214.536 215.046V218.596H213.629V210.728H214.536V213.617H214.612C214.751 213.312 214.958 213.07 215.235 212.891C215.514 212.709 215.885 212.618 216.349 212.618C216.751 212.618 217.103 212.699 217.406 212.86C217.708 213.019 217.942 213.263 218.109 213.594C218.278 213.922 218.362 214.339 218.362 214.846V218.596H217.455V214.908C217.455 214.439 217.334 214.077 217.09 213.821C216.85 213.562 216.515 213.433 216.088 213.433C215.791 213.433 215.524 213.495 215.289 213.621C215.056 213.746 214.871 213.929 214.735 214.17C214.602 214.411 214.536 214.703 214.536 215.046ZM220.021 218.596V212.695H220.928V218.596H220.021ZM220.482 211.711C220.305 211.711 220.153 211.651 220.025 211.531C219.899 211.41 219.837 211.266 219.837 211.097C219.837 210.928 219.899 210.783 220.025 210.662C220.153 210.542 220.305 210.482 220.482 210.482C220.659 210.482 220.81 210.542 220.935 210.662C221.063 210.783 221.127 210.928 221.127 211.097C221.127 211.266 221.063 211.41 220.935 211.531C220.81 211.651 220.659 211.711 220.482 211.711ZM226.768 214.017L225.954 214.247C225.903 214.111 225.827 213.979 225.727 213.851C225.63 213.721 225.497 213.613 225.328 213.529C225.159 213.444 224.942 213.402 224.678 213.402C224.317 213.402 224.016 213.485 223.776 213.652C223.537 213.815 223.418 214.024 223.418 214.278C223.418 214.503 223.5 214.681 223.664 214.812C223.828 214.942 224.084 215.051 224.433 215.138L225.309 215.354C225.836 215.482 226.229 215.678 226.488 215.941C226.747 216.203 226.876 216.539 226.876 216.952C226.876 217.29 226.779 217.592 226.584 217.859C226.392 218.125 226.123 218.335 225.777 218.489C225.431 218.642 225.029 218.719 224.571 218.719C223.969 218.719 223.471 218.589 223.076 218.327C222.682 218.066 222.432 217.684 222.327 217.182L223.188 216.967C223.27 217.285 223.425 217.523 223.653 217.682C223.883 217.841 224.184 217.92 224.555 217.92C224.978 217.92 225.314 217.83 225.562 217.651C225.813 217.469 225.939 217.251 225.939 216.998C225.939 216.793 225.867 216.621 225.723 216.483C225.58 216.342 225.36 216.237 225.063 216.168L224.079 215.938C223.539 215.809 223.142 215.611 222.888 215.342C222.637 215.071 222.512 214.731 222.512 214.324C222.512 213.991 222.605 213.696 222.792 213.44C222.982 213.184 223.239 212.983 223.564 212.837C223.892 212.691 224.264 212.618 224.678 212.618C225.262 212.618 225.721 212.746 226.054 213.002C226.389 213.258 226.628 213.596 226.768 214.017ZM231.284 218.596V212.695H232.16V213.617H232.237C232.36 213.302 232.558 213.057 232.832 212.883C233.106 212.706 233.435 212.618 233.82 212.618C234.209 212.618 234.533 212.706 234.792 212.883C235.053 213.057 235.256 213.302 235.402 213.617H235.464C235.615 213.312 235.842 213.07 236.144 212.891C236.446 212.709 236.809 212.618 237.231 212.618C237.759 212.618 238.19 212.783 238.526 213.114C238.861 213.442 239.029 213.952 239.029 214.647V218.596H238.123V214.647C238.123 214.211 238.003 213.9 237.765 213.713C237.527 213.526 237.247 213.433 236.924 213.433C236.509 213.433 236.187 213.558 235.96 213.809C235.732 214.058 235.618 214.373 235.618 214.754V218.596H234.695V214.554C234.695 214.219 234.587 213.949 234.369 213.744C234.151 213.536 233.871 213.433 233.528 213.433C233.292 213.433 233.072 213.495 232.867 213.621C232.664 213.746 232.5 213.92 232.375 214.143C232.252 214.364 232.191 214.618 232.191 214.908V218.596H231.284ZM243.084 218.719C242.552 218.719 242.084 218.592 241.682 218.339C241.283 218.085 240.97 217.73 240.745 217.275C240.522 216.819 240.41 216.286 240.41 215.676C240.41 215.062 240.522 214.525 240.745 214.066C240.97 213.608 241.283 213.252 241.682 212.998C242.084 212.745 242.552 212.618 243.084 212.618C243.617 212.618 244.083 212.745 244.483 212.998C244.885 213.252 245.198 213.608 245.42 214.066C245.646 214.525 245.759 215.062 245.759 215.676C245.759 216.286 245.646 216.819 245.42 217.275C245.198 217.73 244.885 218.085 244.483 218.339C244.083 218.592 243.617 218.719 243.084 218.719ZM243.084 217.905C243.489 217.905 243.822 217.801 244.083 217.593C244.345 217.386 244.538 217.113 244.664 216.775C244.789 216.437 244.852 216.071 244.852 215.676C244.852 215.282 244.789 214.914 244.664 214.574C244.538 214.233 244.345 213.958 244.083 213.748C243.822 213.538 243.489 213.433 243.084 213.433C242.68 213.433 242.347 213.538 242.086 213.748C241.824 213.958 241.631 214.233 241.505 214.574C241.38 214.914 241.317 215.282 241.317 215.676C241.317 216.071 241.38 216.437 241.505 216.775C241.631 217.113 241.824 217.386 242.086 217.593C242.347 217.801 242.68 217.905 243.084 217.905ZM248.049 215.046V218.596H247.143V212.695H248.019V213.617H248.095C248.234 213.317 248.444 213.077 248.726 212.895C249.007 212.71 249.371 212.618 249.817 212.618C250.216 212.618 250.566 212.7 250.865 212.864C251.165 213.025 251.398 213.271 251.565 213.602C251.731 213.929 251.814 214.344 251.814 214.846V218.596H250.908V214.908C250.908 214.444 250.787 214.083 250.547 213.824C250.306 213.563 249.975 213.433 249.555 213.433C249.266 213.433 249.007 213.495 248.779 213.621C248.554 213.746 248.376 213.929 248.245 214.17C248.115 214.411 248.049 214.703 248.049 215.046ZM256.038 212.695V213.463H252.98V212.695H256.038ZM253.871 211.281H254.778V216.906C254.778 217.162 254.815 217.354 254.889 217.482C254.966 217.608 255.063 217.692 255.181 217.736C255.301 217.777 255.428 217.797 255.561 217.797C255.661 217.797 255.743 217.792 255.807 217.782C255.871 217.769 255.923 217.759 255.961 217.751L256.145 218.565C256.084 218.589 255.998 218.612 255.888 218.635C255.778 218.66 255.638 218.673 255.469 218.673C255.213 218.673 254.962 218.618 254.716 218.508C254.473 218.398 254.27 218.23 254.109 218.005C253.95 217.779 253.871 217.495 253.871 217.152V211.281ZM258.435 215.046V218.596H257.528V210.728H258.435V213.617H258.512C258.65 213.312 258.858 213.07 259.134 212.891C259.414 212.709 259.785 212.618 260.249 212.618C260.651 212.618 261.003 212.699 261.305 212.86C261.607 213.019 261.842 213.263 262.008 213.594C262.177 213.922 262.262 214.339 262.262 214.846V218.596H261.355V214.908C261.355 214.439 261.233 214.077 260.99 213.821C260.749 213.562 260.415 213.433 259.987 213.433C259.69 213.433 259.424 213.495 259.188 213.621C258.955 213.746 258.771 213.929 258.635 214.17C258.502 214.411 258.435 214.703 258.435 215.046Z" fill="#ABABAB"/>
</g>
</g>
<defs>
<filter id="filter0_d_2166_34263" x="53.2336" y="10.2228" width="306.554" height="291.869" filterUnits="userSpaceOnUse" color-interpolation-filters="sRGB">
<feFlood flood-opacity="0" result="BackgroundImageFix"/>
<feColorMatrix in="SourceAlpha" type="matrix" values="0 0 0 0 0 0 0 0 0 0 0 0 0 0 0 0 0 0 127 0" result="hardAlpha"/>
<feOffset/>
<feGaussianBlur stdDeviation="10.8886"/>
<feComposite in2="hardAlpha" operator="out"/>
<feColorMatrix type="matrix" values="0 0 0 0 0 0 0 0 0 0 0 0 0 0 0 0 0 0 0.05 0"/>
<feBlend mode="normal" in2="BackgroundImageFix" result="effect1_dropShadow_2166_34263"/>
<feBlend mode="normal" in="SourceGraphic" in2="effect1_dropShadow_2166_34263" result="shape"/>
</filter>
<clipPath id="clip0_2166_34263">
<rect width="414" height="220" fill="white"/>
</clipPath>
</defs>
</svg>
