<svg width="414" height="220" viewBox="0 0 414 220" fill="none" xmlns="http://www.w3.org/2000/svg">
<g clip-path="url(#clip0_2166_34320)">
<g filter="url(#filter0_d_2166_34320)">
<rect x="44.5107" y="32" width="324" height="318.549" rx="24.673" fill="white" shape-rendering="crispEdges"/>
<rect x="45.0107" y="32.5" width="323" height="317.549" rx="24.173" stroke="black" stroke-opacity="0.08" shape-rendering="crispEdges"/>
<path d="M66.5538 71.4109V57.876H62.3664V55.6554H73.152V57.876H69.0281V71.4109H66.5538ZM72.891 71.4109V59.9697H75.175V62.2748L74.9635 61.9365C75.2173 61.1892 75.6262 60.6535 76.1901 60.3292C76.7541 59.9908 77.4308 59.8216 78.2204 59.8216H78.9183V61.9999H77.9243C77.1348 61.9999 76.4933 62.2466 75.9998 62.7401C75.5204 63.2195 75.2808 63.9103 75.2808 64.8126V71.4109H72.891ZM83.3447 71.6647C82.5693 71.6647 81.8855 71.5307 81.2933 71.2629C80.7153 70.9809 80.2641 70.6002 79.9398 70.1208C79.6155 69.6274 79.4534 69.0493 79.4534 68.3867C79.4534 67.7663 79.5874 67.2094 79.8552 66.716C80.1372 66.2225 80.5672 65.8066 81.1453 65.4682C81.7233 65.1298 82.4494 64.8902 83.3235 64.7492L87.2994 64.0936V65.9758L83.7888 66.5891C83.1544 66.7019 82.6891 66.9063 82.393 67.2024C82.0969 67.4844 81.9489 67.8509 81.9489 68.3021C81.9489 68.7392 82.111 69.0987 82.4353 69.3807C82.7737 69.6485 83.2037 69.7825 83.7254 69.7825C84.3739 69.7825 84.9379 69.6415 85.4172 69.3595C85.9107 69.0775 86.2914 68.7039 86.5592 68.2386C86.8271 67.7593 86.9611 67.2306 86.9611 66.6525V63.7129C86.9611 63.149 86.7496 62.6907 86.3266 62.3383C85.9177 61.9717 85.3679 61.7884 84.677 61.7884C84.0426 61.7884 83.4857 61.9576 83.0063 62.296C82.5411 62.6202 82.1956 63.0432 81.9701 63.5649L79.9821 62.5709C80.1936 62.0069 80.539 61.5135 81.0184 61.0905C81.4977 60.6535 82.0547 60.3151 82.6891 60.0754C83.3376 59.8357 84.0214 59.7159 84.7405 59.7159C85.6428 59.7159 86.4394 59.8851 87.1302 60.2234C87.8352 60.5618 88.378 61.0341 88.7587 61.6404C89.1534 62.2325 89.3508 62.9234 89.3508 63.7129V71.4109H87.0668V69.3384L87.5532 69.4018C87.2853 69.8671 86.9399 70.2689 86.5169 70.6073C86.1081 70.9456 85.6358 71.2065 85.1 71.3897C84.5783 71.573 83.9932 71.6647 83.3447 71.6647ZM91.5106 71.4109V59.9697H93.7946V62.2114L93.5197 61.9153C93.8016 61.1963 94.2528 60.6535 94.8732 60.2869C95.4935 59.9062 96.2125 59.7159 97.0303 59.7159C97.8762 59.7159 98.6235 59.8992 99.272 60.2657C99.9205 60.6323 100.428 61.1399 100.795 61.7884C101.161 62.437 101.345 63.1842 101.345 64.0301V71.4109H98.9759V64.6646C98.9759 64.0865 98.8702 63.6001 98.6587 63.2054C98.4472 62.7965 98.1441 62.4863 97.7493 62.2748C97.3687 62.0492 96.9316 61.9365 96.4381 61.9365C95.9447 61.9365 95.5006 62.0492 95.1058 62.2748C94.7251 62.4863 94.429 62.7965 94.2176 63.2054C94.0061 63.6142 93.9003 64.1006 93.9003 64.6646V71.4109H91.5106ZM107.497 71.6647C106.327 71.6647 105.298 71.3756 104.41 70.7976C103.536 70.2195 102.922 69.4441 102.57 68.4713L104.41 67.6042C104.72 68.2527 105.143 68.7674 105.679 69.148C106.228 69.5287 106.835 69.719 107.497 69.719C108.061 69.719 108.52 69.5921 108.872 69.3384C109.224 69.0846 109.401 68.7392 109.401 68.3021C109.401 68.0201 109.323 67.7945 109.168 67.6253C109.013 67.4421 108.816 67.294 108.576 67.1812C108.35 67.0684 108.118 66.9838 107.878 66.9275L106.08 66.4199C105.094 66.1379 104.353 65.7149 103.86 65.151C103.38 64.5729 103.141 63.9032 103.141 63.1419C103.141 62.4511 103.317 61.8519 103.67 61.3443C104.022 60.8226 104.508 60.4208 105.129 60.1388C105.749 59.8569 106.447 59.7159 107.222 59.7159C108.266 59.7159 109.196 59.9767 110.014 60.4984C110.832 61.0059 111.41 61.7179 111.748 62.6343L109.908 63.5014C109.683 62.9516 109.323 62.5145 108.83 62.1902C108.35 61.866 107.808 61.7038 107.201 61.7038C106.68 61.7038 106.264 61.8307 105.954 62.0845C105.643 62.3242 105.488 62.6414 105.488 63.0362C105.488 63.304 105.559 63.5296 105.7 63.7129C105.841 63.8821 106.024 64.0231 106.25 64.1359C106.475 64.2346 106.708 64.3192 106.948 64.3897L108.809 64.9395C109.753 65.2074 110.479 65.6304 110.987 66.2084C111.494 66.7724 111.748 67.4491 111.748 68.2386C111.748 68.9154 111.565 69.5146 111.198 70.0362C110.846 70.5438 110.352 70.9456 109.718 71.2417C109.083 71.5237 108.343 71.6647 107.497 71.6647ZM116.881 71.6647C116.106 71.6647 115.422 71.5307 114.83 71.2629C114.252 70.9809 113.801 70.6002 113.476 70.1208C113.152 69.6274 112.99 69.0493 112.99 68.3867C112.99 67.7663 113.124 67.2094 113.392 66.716C113.674 66.2225 114.104 65.8066 114.682 65.4682C115.26 65.1298 115.986 64.8902 116.86 64.7492L120.836 64.0936V65.9758L117.325 66.5891C116.691 66.7019 116.226 66.9063 115.93 67.2024C115.634 67.4844 115.485 67.8509 115.485 68.3021C115.485 68.7392 115.648 69.0987 115.972 69.3807C116.31 69.6485 116.74 69.7825 117.262 69.7825C117.91 69.7825 118.474 69.6415 118.954 69.3595C119.447 69.0775 119.828 68.7039 120.096 68.2386C120.364 67.7593 120.498 67.2306 120.498 66.6525V63.7129C120.498 63.149 120.286 62.6907 119.863 62.3383C119.454 61.9717 118.904 61.7884 118.214 61.7884C117.579 61.7884 117.022 61.9576 116.543 62.296C116.078 62.6202 115.732 63.0432 115.507 63.5649L113.519 62.5709C113.73 62.0069 114.076 61.5135 114.555 61.0905C115.034 60.6535 115.591 60.3151 116.226 60.0754C116.874 59.8357 117.558 59.7159 118.277 59.7159C119.179 59.7159 119.976 59.8851 120.667 60.2234C121.372 60.5618 121.915 61.0341 122.295 61.6404C122.69 62.2325 122.887 62.9234 122.887 63.7129V71.4109H120.603V69.3384L121.09 69.4018C120.822 69.8671 120.476 70.2689 120.054 70.6073C119.645 70.9456 119.172 71.2065 118.637 71.3897C118.115 71.573 117.53 71.6647 116.881 71.6647ZM130.482 71.6647C129.34 71.6647 128.325 71.4038 127.437 70.8822C126.563 70.3464 125.865 69.6274 125.343 68.7251C124.836 67.8227 124.582 66.8006 124.582 65.6586C124.582 64.5306 124.836 63.5155 125.343 62.6132C125.851 61.7109 126.549 61.0059 127.437 60.4984C128.325 59.9767 129.34 59.7159 130.482 59.7159C131.258 59.7159 131.984 59.8569 132.661 60.1388C133.337 60.4067 133.922 60.7803 134.416 61.2597C134.923 61.7391 135.297 62.296 135.537 62.9304L133.443 63.9032C133.203 63.3111 132.816 62.8388 132.28 62.4863C131.758 62.1197 131.159 61.9365 130.482 61.9365C129.834 61.9365 129.249 62.0986 128.727 62.4229C128.219 62.733 127.818 63.1772 127.521 63.7552C127.225 64.3192 127.077 64.9607 127.077 65.6797C127.077 66.3987 127.225 67.0473 127.521 67.6253C127.818 68.1893 128.219 68.6334 128.727 68.9577C129.249 69.282 129.834 69.4441 130.482 69.4441C131.173 69.4441 131.772 69.2679 132.28 68.9154C132.802 68.5488 133.189 68.0624 133.443 67.4562L135.537 68.4501C135.311 69.0564 134.945 69.6062 134.437 70.0997C133.944 70.5791 133.358 70.9597 132.682 71.2417C132.005 71.5237 131.272 71.6647 130.482 71.6647ZM142.187 71.5378C140.988 71.5378 140.058 71.1994 139.395 70.5227C138.732 69.8459 138.401 68.8942 138.401 67.6676V62.1268H136.392V59.9697H136.709C137.245 59.9697 137.661 59.8146 137.957 59.5044C138.253 59.1942 138.401 58.7713 138.401 58.2355V57.3473H140.791V59.9697H143.392V62.1268H140.791V67.5619C140.791 67.9567 140.854 68.295 140.981 68.577C141.108 68.8449 141.313 69.0564 141.595 69.2115C141.876 69.3525 142.243 69.4229 142.694 69.4229C142.807 69.4229 142.934 69.4159 143.075 69.4018C143.216 69.3877 143.35 69.3736 143.477 69.3595V71.4109C143.279 71.4391 143.061 71.4673 142.821 71.4955C142.581 71.5237 142.37 71.5378 142.187 71.5378ZM145.174 71.4109V59.9697H147.564V71.4109H145.174ZM145.174 58.4047V55.6554H147.564V58.4047H145.174ZM155.243 71.6647C154.144 71.6647 153.136 71.4038 152.219 70.8822C151.317 70.3605 150.598 69.6485 150.062 68.7462C149.526 67.8439 149.258 66.8217 149.258 65.6797C149.258 64.5236 149.526 63.5014 150.062 62.6132C150.598 61.7109 151.317 61.0059 152.219 60.4984C153.122 59.9767 154.13 59.7159 155.243 59.7159C156.371 59.7159 157.379 59.9767 158.268 60.4984C159.17 61.0059 159.882 61.7109 160.404 62.6132C160.939 63.5014 161.207 64.5236 161.207 65.6797C161.207 66.8358 160.939 67.865 160.404 68.7674C159.868 69.6697 159.149 70.3817 158.246 70.9033C157.344 71.4109 156.343 71.6647 155.243 71.6647ZM155.243 69.4441C155.92 69.4441 156.519 69.282 157.041 68.9577C157.563 68.6334 157.972 68.1893 158.268 67.6253C158.578 67.0473 158.733 66.3987 158.733 65.6797C158.733 64.9607 158.578 64.3192 158.268 63.7552C157.972 63.1913 157.563 62.7471 157.041 62.4229C156.519 62.0986 155.92 61.9365 155.243 61.9365C154.581 61.9365 153.982 62.0986 153.446 62.4229C152.924 62.7471 152.508 63.1913 152.198 63.7552C151.902 64.3192 151.754 64.9607 151.754 65.6797C151.754 66.3987 151.902 67.0473 152.198 67.6253C152.508 68.1893 152.924 68.6334 153.446 68.9577C153.982 69.282 154.581 69.4441 155.243 69.4441ZM162.906 71.4109V59.9697H165.19V62.2114L164.915 61.9153C165.197 61.1963 165.648 60.6535 166.268 60.2869C166.889 59.9062 167.608 59.7159 168.426 59.7159C169.272 59.7159 170.019 59.8992 170.667 60.2657C171.316 60.6323 171.823 61.1399 172.19 61.7884C172.557 62.437 172.74 63.1842 172.74 64.0301V71.4109H170.371V64.6646C170.371 64.0865 170.265 63.6001 170.054 63.2054C169.843 62.7965 169.539 62.4863 169.145 62.2748C168.764 62.0492 168.327 61.9365 167.833 61.9365C167.34 61.9365 166.896 62.0492 166.501 62.2748C166.12 62.4863 165.824 62.7965 165.613 63.2054C165.401 63.6142 165.296 64.1006 165.296 64.6646V71.4109H162.906ZM178.893 71.6647C177.722 71.6647 176.693 71.3756 175.805 70.7976C174.931 70.2195 174.318 69.4441 173.965 68.4713L175.805 67.6042C176.115 68.2527 176.538 68.7674 177.074 69.148C177.624 69.5287 178.23 69.719 178.893 69.719C179.457 69.719 179.915 69.5921 180.267 69.3384C180.62 69.0846 180.796 68.7392 180.796 68.3021C180.796 68.0201 180.718 67.7945 180.563 67.6253C180.408 67.4421 180.211 67.294 179.971 67.1812C179.746 67.0684 179.513 66.9838 179.273 66.9275L177.476 66.4199C176.489 66.1379 175.749 65.7149 175.255 65.151C174.776 64.5729 174.536 63.9032 174.536 63.1419C174.536 62.4511 174.712 61.8519 175.065 61.3443C175.417 60.8226 175.904 60.4208 176.524 60.1388C177.144 59.8569 177.842 59.7159 178.618 59.7159C179.661 59.7159 180.592 59.9767 181.409 60.4984C182.227 61.0059 182.805 61.7179 183.143 62.6343L181.304 63.5014C181.078 62.9516 180.718 62.5145 180.225 62.1902C179.746 61.866 179.203 61.7038 178.597 61.7038C178.075 61.7038 177.659 61.8307 177.349 62.0845C177.039 62.3242 176.884 62.6414 176.884 63.0362C176.884 63.304 176.954 63.5296 177.095 63.7129C177.236 63.8821 177.419 64.0231 177.645 64.1359C177.87 64.2346 178.103 64.3192 178.343 64.3897L180.204 64.9395C181.148 65.2074 181.875 65.6304 182.382 66.2084C182.89 66.7724 183.143 67.4491 183.143 68.2386C183.143 68.9154 182.96 69.5146 182.594 70.0362C182.241 70.5438 181.748 70.9456 181.113 71.2417C180.479 71.5237 179.739 71.6647 178.893 71.6647Z" fill="#131313"/>
<rect x="271.877" y="49.6238" width="79.0095" height="26.5741" rx="13.2871" fill="#F3F4F7"/>
<path d="M288.979 59.5933V66.9106H288.016V61.4544L285.584 66.9106H284.908L282.465 61.4438V66.9106H281.503V59.5933H282.539L285.246 65.6417L287.953 59.5933H288.979ZM293.138 67.0058C292.595 67.0058 292.101 66.8824 291.657 66.6357C291.22 66.389 290.875 66.04 290.621 65.5889C290.374 65.1307 290.251 64.602 290.251 64.0028C290.251 63.4106 290.378 62.8889 290.632 62.4378C290.892 61.9796 291.245 61.6306 291.689 61.3909C292.133 61.1442 292.63 61.0208 293.18 61.0208C293.73 61.0208 294.227 61.1442 294.671 61.3909C295.115 61.6306 295.464 61.976 295.718 62.4272C295.979 62.8784 296.109 63.4036 296.109 64.0028C296.109 64.602 295.975 65.1307 295.707 65.5889C295.446 66.04 295.09 66.389 294.639 66.6357C294.188 66.8824 293.688 67.0058 293.138 67.0058ZM293.138 66.1599C293.483 66.1599 293.807 66.0788 294.111 65.9167C294.414 65.7545 294.657 65.5113 294.84 65.1871C295.03 64.8628 295.126 64.468 295.126 64.0028C295.126 63.5375 295.034 63.1427 294.851 62.8185C294.667 62.4942 294.428 62.2545 294.132 62.0994C293.836 61.9373 293.515 61.8562 293.169 61.8562C292.817 61.8562 292.493 61.9373 292.197 62.0994C291.908 62.2545 291.675 62.4942 291.499 62.8185C291.322 63.1427 291.234 63.5375 291.234 64.0028C291.234 64.4751 291.319 64.8734 291.488 65.1976C291.664 65.5219 291.897 65.7651 292.186 65.9272C292.475 66.0823 292.792 66.1599 293.138 66.1599ZM300.198 61.0103C300.902 61.0103 301.473 61.2253 301.911 61.6553C302.348 62.0783 302.566 62.6916 302.566 63.4952V66.9106H301.614V63.6327C301.614 63.0546 301.47 62.614 301.181 62.3109C300.892 62.0007 300.497 61.8456 299.997 61.8456C299.489 61.8456 299.084 62.0042 298.781 62.3215C298.485 62.6387 298.336 63.1004 298.336 63.7067V66.9106H297.374V61.116H298.336V61.9408C298.527 61.6447 298.784 61.4156 299.108 61.2535C299.44 61.0913 299.803 61.0103 300.198 61.0103ZM305.312 61.9091V65.3245C305.312 65.6065 305.372 65.8074 305.491 65.9272C305.611 66.04 305.819 66.0964 306.115 66.0964H306.824V66.9106H305.957C305.421 66.9106 305.019 66.7873 304.751 66.5405C304.483 66.2938 304.349 65.8885 304.349 65.3245V61.9091H303.599V61.116H304.349V59.6568H305.312V61.116H306.824V61.9091H305.312ZM310.866 61.0103C311.303 61.0103 311.698 61.1054 312.05 61.2958C312.403 61.4791 312.678 61.7575 312.875 62.1311C313.079 62.5048 313.182 62.9594 313.182 63.4952V66.9106H312.23V63.6327C312.23 63.0546 312.085 62.614 311.796 62.3109C311.507 62.0007 311.113 61.8456 310.612 61.8456C310.105 61.8456 309.699 62.0042 309.396 62.3215C309.1 62.6387 308.952 63.1004 308.952 63.7067V66.9106H307.99V59.0858H308.952V61.9408C309.142 61.6447 309.403 61.4156 309.734 61.2535C310.073 61.0913 310.45 61.0103 310.866 61.0103ZM315.716 59.0858V66.9106H314.753V59.0858H315.716ZM322.347 61.116L318.857 69.6388H317.863L319.005 66.8472L316.668 61.116H317.736L319.555 65.8109L321.353 61.116H322.347Z" fill="#787878"/>
<path d="M330.372 61.1189L334.203 64.9491C334.655 65.4014 335.395 65.4014 335.848 64.9491L339.678 61.1189" stroke="#787878" stroke-width="0.961286" stroke-miterlimit="10" stroke-linecap="round" stroke-linejoin="round"/>
<path d="M71.6321 119.09C70.1245 119.09 68.7877 118.789 67.6217 118.186C66.4759 117.582 65.5713 116.768 64.9079 115.743C64.2646 114.698 63.943 113.532 63.943 112.245C63.943 110.798 64.345 109.531 65.1491 108.446C65.9532 107.36 67.0589 106.586 68.466 106.124L68.4057 106.878C67.3403 106.456 66.506 105.782 65.903 104.858C65.32 103.913 65.0285 102.898 65.0285 101.812C65.0285 100.666 65.31 99.6512 65.8728 98.7667C66.4558 97.8822 67.2398 97.1886 68.2248 96.6861C69.2299 96.1634 70.3657 95.9021 71.6321 95.9021C72.8986 95.9021 74.0243 96.1534 75.0093 96.6559C75.9943 97.1585 76.7683 97.8621 77.3311 98.7667C77.9141 99.6512 78.2056 100.666 78.2056 101.812C78.2056 102.958 77.894 103.983 77.2708 104.888C76.6678 105.792 75.8637 106.466 74.8586 106.908L74.7681 106.124C76.1954 106.586 77.311 107.37 78.1151 108.476C78.9192 109.562 79.3213 110.818 79.3213 112.245C79.3213 113.532 78.9896 114.698 78.3262 115.743C77.6829 116.768 76.7783 117.582 75.6124 118.186C74.4666 118.789 73.1398 119.09 71.6321 119.09ZM71.6321 116.527C72.5769 116.527 73.4011 116.346 74.1047 115.984C74.8083 115.622 75.3511 115.12 75.733 114.477C76.1351 113.813 76.3361 113.059 76.3361 112.215C76.3361 111.351 76.1351 110.597 75.733 109.954C75.3511 109.29 74.8083 108.788 74.1047 108.446C73.4011 108.084 72.5769 107.903 71.6321 107.903C70.6873 107.903 69.8531 108.084 69.1294 108.446C68.4258 108.788 67.8831 109.29 67.5011 109.954C67.1192 110.597 66.9282 111.351 66.9282 112.215C66.9282 113.059 67.1192 113.813 67.5011 114.477C67.8831 115.12 68.4258 115.622 69.1294 115.984C69.8531 116.346 70.6873 116.527 71.6321 116.527ZM71.6321 105.34C72.3156 105.34 72.9187 105.189 73.4413 104.888C73.9841 104.586 74.4163 104.184 74.7379 103.682C75.0596 103.159 75.2204 102.556 75.2204 101.872C75.2204 101.189 75.0596 100.596 74.7379 100.093C74.4163 99.5909 73.9841 99.1989 73.4413 98.9174C72.9187 98.6159 72.3156 98.4651 71.6321 98.4651C70.9286 98.4651 70.3054 98.6159 69.7626 98.9174C69.2199 99.1989 68.7877 99.5909 68.466 100.093C68.1444 100.596 67.9836 101.189 67.9836 101.872C67.9836 102.556 68.1444 103.159 68.466 103.682C68.7877 104.184 69.2199 104.586 69.7626 104.888C70.3054 105.189 70.9286 105.34 71.6321 105.34ZM90.1435 119.09C88.9776 119.09 87.882 118.889 86.8568 118.487C85.8316 118.065 84.937 117.472 84.1732 116.708C83.4294 115.924 82.8866 115.009 82.5449 113.964L84.9571 112.939C85.3793 114.044 86.0628 114.909 87.0076 115.532C87.9725 116.135 89.0178 116.437 90.1435 116.437C91.0683 116.437 91.8824 116.236 92.586 115.834C93.3097 115.411 93.8725 114.838 94.2746 114.115C94.6766 113.371 94.8776 112.547 94.8776 111.642C94.8776 110.697 94.6666 109.863 94.2444 109.139C93.8424 108.416 93.2896 107.853 92.586 107.451C91.8824 107.029 91.0783 106.818 90.1737 106.818C89.249 106.818 88.4047 107.029 87.6408 107.451C86.8769 107.873 86.3241 108.406 85.9824 109.049L83.6002 108.536L85.319 96.2639H96.9582V98.827H86.4347L87.5805 97.6811L86.2537 107.21L85.2285 106.607C85.8919 105.762 86.6658 105.159 87.5503 104.797C88.455 104.415 89.4299 104.224 90.4752 104.224C91.9427 104.224 93.2293 104.556 94.3349 105.22C95.4405 105.883 96.3049 106.767 96.9281 107.873C97.5513 108.979 97.8628 110.235 97.8628 111.642C97.8628 113.049 97.5211 114.316 96.8376 115.442C96.1742 116.567 95.2596 117.462 94.0937 118.125C92.9478 118.768 91.6311 119.09 90.1435 119.09ZM103.99 118.728L122.324 96.2639H125.671L107.337 118.728H103.99ZM107.368 107.662C106.262 107.662 105.267 107.401 104.382 106.878C103.498 106.335 102.784 105.622 102.241 104.737C101.719 103.853 101.457 102.868 101.457 101.782C101.457 100.696 101.719 99.7115 102.241 98.827C102.784 97.9224 103.498 97.2087 104.382 96.6861C105.267 96.1634 106.262 95.9021 107.368 95.9021C108.453 95.9021 109.438 96.1634 110.323 96.6861C111.207 97.2087 111.911 97.9224 112.433 98.827C112.956 99.7115 113.217 100.696 113.217 101.782C113.217 102.868 112.956 103.853 112.433 104.737C111.911 105.622 111.207 106.335 110.323 106.878C109.438 107.401 108.453 107.662 107.368 107.662ZM107.337 105.189C108.021 105.189 108.604 105.029 109.086 104.707C109.569 104.385 109.951 103.963 110.232 103.44C110.514 102.918 110.654 102.365 110.654 101.782C110.654 101.179 110.514 100.626 110.232 100.124C109.951 99.6009 109.569 99.1788 109.086 98.8571C108.604 98.5154 108.021 98.3445 107.337 98.3445C106.694 98.3445 106.121 98.5154 105.619 98.8571C105.116 99.1788 104.724 99.6009 104.443 100.124C104.161 100.646 104.021 101.199 104.021 101.782C104.021 102.345 104.161 102.898 104.443 103.44C104.724 103.963 105.116 104.385 105.619 104.707C106.121 105.029 106.694 105.189 107.337 105.189ZM122.113 119.09C121.007 119.09 120.012 118.829 119.127 118.306C118.243 117.763 117.529 117.05 116.987 116.165C116.464 115.281 116.203 114.296 116.203 113.21C116.203 112.125 116.464 111.14 116.987 110.255C117.529 109.351 118.243 108.637 119.127 108.114C120.012 107.592 121.007 107.33 122.113 107.33C123.198 107.33 124.183 107.592 125.068 108.114C125.952 108.637 126.656 109.351 127.178 110.255C127.701 111.14 127.962 112.125 127.962 113.21C127.962 114.296 127.701 115.281 127.178 116.165C126.656 117.05 125.952 117.763 125.068 118.306C124.183 118.829 123.198 119.09 122.113 119.09ZM122.113 116.618C122.776 116.618 123.349 116.457 123.831 116.135C124.334 115.813 124.716 115.391 124.977 114.869C125.259 114.346 125.399 113.793 125.399 113.21C125.399 112.607 125.259 112.054 124.977 111.552C124.716 111.029 124.334 110.607 123.831 110.285C123.349 109.944 122.776 109.773 122.113 109.773C121.469 109.773 120.886 109.944 120.364 110.285C119.861 110.607 119.469 111.029 119.188 111.552C118.906 112.074 118.766 112.627 118.766 113.21C118.766 113.773 118.906 114.326 119.188 114.869C119.469 115.391 119.861 115.813 120.364 116.135C120.886 116.457 121.469 116.618 122.113 116.618Z" fill="#131313"/>
<rect x="140.736" y="97.2136" width="46.7493" height="19.0293" rx="4.54399" fill="white" fill-opacity="0.03"/>
<rect x="141.115" y="97.5923" width="45.9919" height="18.272" rx="4.16532" stroke="white" stroke-opacity="0.2" stroke-width="0.757331"/>
<path d="M151.339 104.077V109.378" stroke="#17B26A" stroke-width="1.136" stroke-linecap="round" stroke-linejoin="round"/>
<path d="M153.611 106.349L151.339 104.077" stroke="#17B26A" stroke-width="1.136" stroke-linecap="round" stroke-linejoin="round"/>
<path d="M149.066 106.349L151.338 104.077" stroke="#17B26A" stroke-width="1.136" stroke-linecap="round" stroke-linejoin="round"/>
<path d="M162.932 102.017V109.728H161.765V103.184H161.72L159.875 104.389V103.275L161.799 102.017H162.932ZM165.018 109.728V108.885L167.627 106.182C167.906 105.888 168.136 105.631 168.316 105.41C168.5 105.186 168.636 104.974 168.727 104.773C168.817 104.573 168.862 104.359 168.862 104.133C168.862 103.877 168.802 103.656 168.682 103.471C168.561 103.282 168.397 103.138 168.188 103.038C167.98 102.935 167.745 102.883 167.484 102.883C167.208 102.883 166.967 102.94 166.761 103.053C166.556 103.166 166.397 103.325 166.287 103.531C166.177 103.737 166.121 103.978 166.121 104.254H165.011C165.011 103.784 165.119 103.374 165.334 103.023C165.55 102.671 165.847 102.399 166.223 102.206C166.6 102.01 167.028 101.912 167.507 101.912C167.991 101.912 168.418 102.008 168.787 102.202C169.159 102.393 169.449 102.654 169.657 102.985C169.865 103.314 169.969 103.685 169.969 104.099C169.969 104.386 169.915 104.665 169.807 104.939C169.702 105.213 169.518 105.518 169.254 105.854C168.99 106.188 168.624 106.593 168.155 107.07L166.622 108.674V108.731H170.094V109.728H165.018ZM175.546 108.282V107.876C175.546 107.585 175.606 107.319 175.726 107.078C175.849 106.834 176.027 106.64 176.261 106.494C176.497 106.346 176.782 106.272 177.116 106.272C177.457 106.272 177.743 106.345 177.974 106.49C178.205 106.636 178.379 106.83 178.497 107.074C178.618 107.317 178.678 107.585 178.678 107.876V108.282C178.678 108.574 178.618 108.841 178.497 109.084C178.377 109.325 178.2 109.52 177.967 109.668C177.736 109.814 177.452 109.886 177.116 109.886C176.777 109.886 176.491 109.814 176.257 109.668C176.024 109.52 175.847 109.325 175.726 109.084C175.606 108.841 175.546 108.574 175.546 108.282ZM176.423 107.876V108.282C176.423 108.498 176.474 108.694 176.577 108.87C176.68 109.046 176.86 109.133 177.116 109.133C177.369 109.133 177.546 109.046 177.646 108.87C177.747 108.694 177.797 108.498 177.797 108.282V107.876C177.797 107.66 177.748 107.464 177.65 107.288C177.555 107.113 177.377 107.025 177.116 107.025C176.865 107.025 176.686 107.113 176.581 107.288C176.476 107.464 176.423 107.66 176.423 107.876ZM171.667 103.87V103.463C171.667 103.172 171.728 102.905 171.848 102.661C171.971 102.418 172.149 102.223 172.383 102.078C172.619 101.932 172.904 101.859 173.237 101.859C173.579 101.859 173.865 101.932 174.096 102.078C174.327 102.223 174.501 102.418 174.619 102.661C174.737 102.905 174.796 103.172 174.796 103.463V103.87C174.796 104.161 174.736 104.428 174.616 104.672C174.498 104.913 174.322 105.107 174.088 105.255C173.857 105.401 173.574 105.474 173.237 105.474C172.896 105.474 172.609 105.401 172.375 105.255C172.144 105.107 171.969 104.913 171.848 104.672C171.728 104.428 171.667 104.161 171.667 103.87ZM172.548 103.463V103.87C172.548 104.086 172.599 104.281 172.699 104.457C172.802 104.633 172.981 104.721 173.237 104.721C173.489 104.721 173.664 104.633 173.765 104.457C173.868 104.281 173.919 104.086 173.919 103.87V103.463C173.919 103.247 173.87 103.051 173.772 102.876C173.674 102.7 173.496 102.612 173.237 102.612C172.986 102.612 172.808 102.7 172.703 102.876C172.6 103.051 172.548 103.247 172.548 103.463ZM172.025 109.728L177.326 102.017H178.226L172.925 109.728H172.025Z" fill="#131313"/>
<g clip-path="url(#clip1_2166_34320)">
<rect x="62.1348" y="169.567" width="52.9036" height="146.785" rx="26.4518" fill="#3995F8" fill-opacity="0.04"/>
<line x1="224.238" y1="-101.337" x2="-46.0557" y2="348.508" stroke="#0054F9" stroke-opacity="0.12" stroke-width="3.78666"/>
<line x1="225.09" y1="-89.2295" x2="-45.2042" y2="360.615" stroke="#0054F9" stroke-opacity="0.12" stroke-width="3.78666"/>
<line x1="225.941" y1="-77.122" x2="-44.3526" y2="372.722" stroke="#0054F9" stroke-opacity="0.12" stroke-width="3.78666"/>
<line x1="226.794" y1="-65.0146" x2="-43.5001" y2="384.83" stroke="#0054F9" stroke-opacity="0.12" stroke-width="3.78666"/>
<line x1="227.645" y1="-52.9074" x2="-42.6485" y2="396.937" stroke="#0054F9" stroke-opacity="0.12" stroke-width="3.78666"/>
<line x1="228.497" y1="-40.8" x2="-41.7969" y2="409.044" stroke="#0054F9" stroke-opacity="0.12" stroke-width="3.78666"/>
<line x1="229.349" y1="-28.6945" x2="-40.9444" y2="421.15" stroke="#0054F9" stroke-opacity="0.12" stroke-width="3.78666"/>
<line x1="230.201" y1="-16.5854" x2="-40.0928" y2="433.259" stroke="#0054F9" stroke-opacity="0.12" stroke-width="3.78666"/>
<line x1="231.053" y1="-4.4797" x2="-39.2413" y2="445.365" stroke="#0054F9" stroke-opacity="0.12" stroke-width="3.78666"/>
<line x1="231.905" y1="7.62943" x2="-38.3887" y2="457.474" stroke="#0054F9" stroke-opacity="0.12" stroke-width="3.78666"/>
<line x1="232.758" y1="19.7332" x2="-37.5362" y2="469.578" stroke="#0054F9" stroke-opacity="0.12" stroke-width="3.78666"/>
<line x1="233.608" y1="31.8406" x2="-36.6856" y2="481.685" stroke="#0054F9" stroke-opacity="0.12" stroke-width="3.78666"/>
<line x1="234.461" y1="43.9478" x2="-35.8331" y2="493.792" stroke="#0054F9" stroke-opacity="0.12" stroke-width="3.78666"/>
<line x1="235.313" y1="56.0569" x2="-34.9805" y2="505.901" stroke="#0054F9" stroke-opacity="0.12" stroke-width="3.78666"/>
<line x1="236.165" y1="68.1661" x2="-34.129" y2="518.011" stroke="#0054F9" stroke-opacity="0.12" stroke-width="3.78666"/>
<line x1="237.017" y1="80.2701" x2="-33.2764" y2="530.115" stroke="#0054F9" stroke-opacity="0.12" stroke-width="3.78666"/>
<line x1="237.87" y1="92.3772" x2="-32.4239" y2="542.222" stroke="#0054F9" stroke-opacity="0.12" stroke-width="3.78666"/>
<line x1="238.721" y1="104.485" x2="-31.5733" y2="554.329" stroke="#0054F9" stroke-opacity="0.12" stroke-width="3.78666"/>
<line x1="239.573" y1="116.59" x2="-30.7208" y2="566.435" stroke="#0054F9" stroke-opacity="0.12" stroke-width="3.78666"/>
<line x1="240.425" y1="128.696" x2="-29.8692" y2="578.54" stroke="#0054F9" stroke-opacity="0.12" stroke-width="3.78666"/>
<line x1="241.277" y1="140.807" x2="-29.0167" y2="590.651" stroke="#0054F9" stroke-opacity="0.12" stroke-width="3.78666"/>
<line x1="242.129" y1="152.914" x2="-28.1651" y2="602.759" stroke="#0054F9" stroke-opacity="0.12" stroke-width="3.78666"/>
<line x1="242.981" y1="165.021" x2="-27.3126" y2="614.866" stroke="#0054F9" stroke-opacity="0.12" stroke-width="3.78666"/>
<line x1="243.833" y1="177.129" x2="-26.461" y2="626.973" stroke="#0054F9" stroke-opacity="0.12" stroke-width="3.78666"/>
<line x1="244.685" y1="189.232" x2="-25.6085" y2="639.077" stroke="#0054F9" stroke-opacity="0.12" stroke-width="3.78666"/>
<line x1="245.537" y1="201.342" x2="-24.7569" y2="651.186" stroke="#0054F9" stroke-opacity="0.12" stroke-width="3.78666"/>
<line x1="246.39" y1="213.447" x2="-23.9044" y2="663.292" stroke="#0054F9" stroke-opacity="0.12" stroke-width="3.78666"/>
</g>
<g clip-path="url(#clip2_2166_34320)">
<rect x="121.097" y="198.966" width="52.9036" height="117.386" rx="26.4518" fill="#3995F8" fill-opacity="0.04"/>
<line x1="283.199" y1="-71.9397" x2="12.9052" y2="377.905" stroke="#0054F9" stroke-opacity="0.12" stroke-width="3.78666"/>
<line x1="284.051" y1="-59.8322" x2="13.7568" y2="390.012" stroke="#0054F9" stroke-opacity="0.12" stroke-width="3.78666"/>
<line x1="284.902" y1="-47.7251" x2="14.6083" y2="402.119" stroke="#0054F9" stroke-opacity="0.12" stroke-width="3.78666"/>
<line x1="285.755" y1="-35.6159" x2="15.4609" y2="414.229" stroke="#0054F9" stroke-opacity="0.12" stroke-width="3.78666"/>
<line x1="286.606" y1="-23.5102" x2="16.3124" y2="426.334" stroke="#0054F9" stroke-opacity="0.12" stroke-width="3.78666"/>
<line x1="287.458" y1="-11.4047" x2="17.164" y2="438.44" stroke="#0054F9" stroke-opacity="0.12" stroke-width="3.78666"/>
<line x1="288.31" y1="0.702675" x2="18.0165" y2="450.547" stroke="#0054F9" stroke-opacity="0.12" stroke-width="3.78666"/>
<line x1="289.163" y1="12.8101" x2="18.8691" y2="462.655" stroke="#0054F9" stroke-opacity="0.12" stroke-width="3.78666"/>
<line x1="290.014" y1="24.9173" x2="19.7197" y2="474.762" stroke="#0054F9" stroke-opacity="0.12" stroke-width="3.78666"/>
<line x1="290.866" y1="37.0264" x2="20.5722" y2="486.871" stroke="#0054F9" stroke-opacity="0.12" stroke-width="3.78666"/>
<line x1="291.719" y1="49.1304" x2="21.4247" y2="498.975" stroke="#0054F9" stroke-opacity="0.12" stroke-width="3.78666"/>
<line x1="292.57" y1="61.2393" x2="22.2763" y2="511.084" stroke="#0054F9" stroke-opacity="0.12" stroke-width="3.78666"/>
<line x1="293.422" y1="73.3467" x2="23.1279" y2="523.191" stroke="#0054F9" stroke-opacity="0.12" stroke-width="3.78666"/>
<line x1="294.274" y1="85.4505" x2="23.9804" y2="535.295" stroke="#0054F9" stroke-opacity="0.12" stroke-width="3.78666"/>
<line x1="295.127" y1="97.5613" x2="24.8329" y2="547.406" stroke="#0054F9" stroke-opacity="0.12" stroke-width="3.78666"/>
<line x1="295.977" y1="109.667" x2="25.6835" y2="559.512" stroke="#0054F9" stroke-opacity="0.12" stroke-width="3.78666"/>
<line x1="296.831" y1="121.774" x2="26.537" y2="571.619" stroke="#0054F9" stroke-opacity="0.12" stroke-width="3.78666"/>
<line x1="297.682" y1="133.883" x2="27.3886" y2="583.728" stroke="#0054F9" stroke-opacity="0.12" stroke-width="3.78666"/>
<line x1="298.534" y1="145.991" x2="28.2402" y2="595.835" stroke="#0054F9" stroke-opacity="0.12" stroke-width="3.78666"/>
<line x1="299.387" y1="158.095" x2="29.0927" y2="607.939" stroke="#0054F9" stroke-opacity="0.12" stroke-width="3.78666"/>
<line x1="300.238" y1="170.202" x2="29.9443" y2="620.046" stroke="#0054F9" stroke-opacity="0.12" stroke-width="3.78666"/>
<line x1="301.09" y1="182.311" x2="30.7958" y2="632.156" stroke="#0054F9" stroke-opacity="0.12" stroke-width="3.78666"/>
<line x1="301.943" y1="194.417" x2="31.6494" y2="644.261" stroke="#0054F9" stroke-opacity="0.12" stroke-width="3.78666"/>
<line x1="302.794" y1="206.524" x2="32.4999" y2="656.368" stroke="#0054F9" stroke-opacity="0.12" stroke-width="3.78666"/>
<line x1="303.646" y1="218.631" x2="33.3525" y2="668.476" stroke="#0054F9" stroke-opacity="0.12" stroke-width="3.78666"/>
</g>
<g clip-path="url(#clip3_2166_34320)">
<rect x="180.06" y="198.966" width="52.9036" height="117.386" rx="26.4518" fill="#3995F8" fill-opacity="0.04"/>
<line x1="342.163" y1="-71.9397" x2="71.8691" y2="377.905" stroke="#0054F9" stroke-opacity="0.12" stroke-width="3.78666"/>
<line x1="343.014" y1="-59.8322" x2="72.7197" y2="390.012" stroke="#0054F9" stroke-opacity="0.12" stroke-width="3.78666"/>
<line x1="343.866" y1="-47.7251" x2="73.5722" y2="402.119" stroke="#0054F9" stroke-opacity="0.12" stroke-width="3.78666"/>
<line x1="344.719" y1="-35.6159" x2="74.4247" y2="414.229" stroke="#0054F9" stroke-opacity="0.12" stroke-width="3.78666"/>
<line x1="345.57" y1="-23.5102" x2="75.2763" y2="426.334" stroke="#0054F9" stroke-opacity="0.12" stroke-width="3.78666"/>
<line x1="346.422" y1="-11.4047" x2="76.1279" y2="438.44" stroke="#0054F9" stroke-opacity="0.12" stroke-width="3.78666"/>
<line x1="347.274" y1="0.702675" x2="76.9804" y2="450.547" stroke="#0054F9" stroke-opacity="0.12" stroke-width="3.78666"/>
<line x1="348.127" y1="12.8101" x2="77.8329" y2="462.655" stroke="#0054F9" stroke-opacity="0.12" stroke-width="3.78666"/>
<line x1="348.977" y1="24.9173" x2="78.6835" y2="474.762" stroke="#0054F9" stroke-opacity="0.12" stroke-width="3.78666"/>
<line x1="349.83" y1="37.0264" x2="79.5361" y2="486.871" stroke="#0054F9" stroke-opacity="0.12" stroke-width="3.78666"/>
<line x1="350.682" y1="49.1304" x2="80.3886" y2="498.975" stroke="#0054F9" stroke-opacity="0.12" stroke-width="3.78666"/>
<line x1="351.534" y1="61.2393" x2="81.2402" y2="511.084" stroke="#0054F9" stroke-opacity="0.12" stroke-width="3.78666"/>
<line x1="352.386" y1="73.3467" x2="82.0917" y2="523.191" stroke="#0054F9" stroke-opacity="0.12" stroke-width="3.78666"/>
<line x1="353.238" y1="85.4505" x2="82.9443" y2="535.295" stroke="#0054F9" stroke-opacity="0.12" stroke-width="3.78666"/>
<line x1="354.09" y1="97.5613" x2="83.7958" y2="547.406" stroke="#0054F9" stroke-opacity="0.12" stroke-width="3.78666"/>
<line x1="354.941" y1="109.667" x2="84.6474" y2="559.512" stroke="#0054F9" stroke-opacity="0.12" stroke-width="3.78666"/>
<line x1="355.795" y1="121.774" x2="85.5009" y2="571.619" stroke="#0054F9" stroke-opacity="0.12" stroke-width="3.78666"/>
<line x1="356.646" y1="133.883" x2="86.3525" y2="583.728" stroke="#0054F9" stroke-opacity="0.12" stroke-width="3.78666"/>
<line x1="357.498" y1="145.991" x2="87.204" y2="595.835" stroke="#0054F9" stroke-opacity="0.12" stroke-width="3.78666"/>
<line x1="358.35" y1="158.095" x2="88.0566" y2="607.939" stroke="#0054F9" stroke-opacity="0.12" stroke-width="3.78666"/>
<line x1="359.201" y1="170.202" x2="88.9072" y2="620.046" stroke="#0054F9" stroke-opacity="0.12" stroke-width="3.78666"/>
<line x1="360.054" y1="182.311" x2="89.7597" y2="632.156" stroke="#0054F9" stroke-opacity="0.12" stroke-width="3.78666"/>
<line x1="360.907" y1="194.417" x2="90.6132" y2="644.261" stroke="#0054F9" stroke-opacity="0.12" stroke-width="3.78666"/>
<line x1="361.757" y1="206.524" x2="91.4628" y2="656.368" stroke="#0054F9" stroke-opacity="0.12" stroke-width="3.78666"/>
<line x1="362.61" y1="218.631" x2="92.3163" y2="668.476" stroke="#0054F9" stroke-opacity="0.12" stroke-width="3.78666"/>
</g>
<g clip-path="url(#clip4_2166_34320)">
<rect x="239.021" y="198.966" width="52.9036" height="117.386" rx="26.4518" fill="#3995F8" fill-opacity="0.04"/>
<line x1="401.124" y1="-71.9397" x2="130.83" y2="377.905" stroke="#0054F9" stroke-opacity="0.12" stroke-width="3.78666"/>
<line x1="401.975" y1="-59.8322" x2="131.682" y2="390.012" stroke="#0054F9" stroke-opacity="0.12" stroke-width="3.78666"/>
<line x1="402.827" y1="-47.7251" x2="132.533" y2="402.119" stroke="#0054F9" stroke-opacity="0.12" stroke-width="3.78666"/>
<line x1="403.68" y1="-35.6159" x2="133.386" y2="414.229" stroke="#0054F9" stroke-opacity="0.12" stroke-width="3.78666"/>
<line x1="404.531" y1="-23.5102" x2="134.237" y2="426.334" stroke="#0054F9" stroke-opacity="0.12" stroke-width="3.78666"/>
<line x1="405.383" y1="-11.4047" x2="135.089" y2="438.44" stroke="#0054F9" stroke-opacity="0.12" stroke-width="3.78666"/>
<line x1="406.235" y1="0.702675" x2="135.941" y2="450.547" stroke="#0054F9" stroke-opacity="0.12" stroke-width="3.78666"/>
<line x1="407.088" y1="12.8101" x2="136.794" y2="462.655" stroke="#0054F9" stroke-opacity="0.12" stroke-width="3.78666"/>
<line x1="407.939" y1="24.9173" x2="137.645" y2="474.762" stroke="#0054F9" stroke-opacity="0.12" stroke-width="3.78666"/>
<line x1="408.791" y1="37.0264" x2="138.497" y2="486.871" stroke="#0054F9" stroke-opacity="0.12" stroke-width="3.78666"/>
<line x1="409.643" y1="49.1304" x2="139.35" y2="498.975" stroke="#0054F9" stroke-opacity="0.12" stroke-width="3.78666"/>
<line x1="410.496" y1="61.2393" x2="140.202" y2="511.084" stroke="#0054F9" stroke-opacity="0.12" stroke-width="3.78666"/>
<line x1="411.347" y1="73.3467" x2="141.053" y2="523.191" stroke="#0054F9" stroke-opacity="0.12" stroke-width="3.78666"/>
<line x1="412.199" y1="85.4505" x2="141.905" y2="535.295" stroke="#0054F9" stroke-opacity="0.12" stroke-width="3.78666"/>
<line x1="413.052" y1="97.5613" x2="142.758" y2="547.406" stroke="#0054F9" stroke-opacity="0.12" stroke-width="3.78666"/>
<line x1="413.902" y1="109.667" x2="143.608" y2="559.512" stroke="#0054F9" stroke-opacity="0.12" stroke-width="3.78666"/>
<line x1="414.756" y1="121.774" x2="144.462" y2="571.619" stroke="#0054F9" stroke-opacity="0.12" stroke-width="3.78666"/>
<line x1="415.607" y1="133.883" x2="145.313" y2="583.728" stroke="#0054F9" stroke-opacity="0.12" stroke-width="3.78666"/>
<line x1="416.459" y1="145.991" x2="146.165" y2="595.835" stroke="#0054F9" stroke-opacity="0.12" stroke-width="3.78666"/>
<line x1="417.311" y1="158.095" x2="147.018" y2="607.939" stroke="#0054F9" stroke-opacity="0.12" stroke-width="3.78666"/>
<line x1="418.163" y1="170.202" x2="147.869" y2="620.046" stroke="#0054F9" stroke-opacity="0.12" stroke-width="3.78666"/>
<line x1="419.015" y1="182.311" x2="148.721" y2="632.156" stroke="#0054F9" stroke-opacity="0.12" stroke-width="3.78666"/>
<line x1="419.868" y1="194.417" x2="149.574" y2="644.261" stroke="#0054F9" stroke-opacity="0.12" stroke-width="3.78666"/>
<line x1="420.719" y1="206.524" x2="150.425" y2="656.368" stroke="#0054F9" stroke-opacity="0.12" stroke-width="3.78666"/>
<line x1="421.571" y1="218.631" x2="151.277" y2="668.476" stroke="#0054F9" stroke-opacity="0.12" stroke-width="3.78666"/>
</g>
<g clip-path="url(#clip5_2166_34320)">
<rect x="297.984" y="216.384" width="52.9036" height="99.9677" rx="26.4518" fill="#3995F8" fill-opacity="0.04"/>
<line x1="460.087" y1="-54.5239" x2="189.793" y2="395.321" stroke="#0054F9" stroke-opacity="0.12" stroke-width="3.78666"/>
<line x1="460.938" y1="-42.4165" x2="190.644" y2="407.428" stroke="#0054F9" stroke-opacity="0.12" stroke-width="3.78666"/>
<line x1="461.79" y1="-30.3093" x2="191.496" y2="419.535" stroke="#0054F9" stroke-opacity="0.12" stroke-width="3.78666"/>
<line x1="462.642" y1="-18.2002" x2="192.349" y2="431.644" stroke="#0054F9" stroke-opacity="0.12" stroke-width="3.78666"/>
<line x1="463.495" y1="-6.09444" x2="193.201" y2="443.75" stroke="#0054F9" stroke-opacity="0.12" stroke-width="3.78666"/>
<line x1="464.346" y1="6.00932" x2="194.052" y2="455.854" stroke="#0054F9" stroke-opacity="0.12" stroke-width="3.78666"/>
<line x1="465.198" y1="18.1184" x2="194.904" y2="467.963" stroke="#0054F9" stroke-opacity="0.12" stroke-width="3.78666"/>
<line x1="466.05" y1="30.2259" x2="195.756" y2="480.07" stroke="#0054F9" stroke-opacity="0.12" stroke-width="3.78666"/>
<line x1="466.902" y1="42.333" x2="196.608" y2="492.178" stroke="#0054F9" stroke-opacity="0.12" stroke-width="3.78666"/>
<line x1="467.754" y1="54.4422" x2="197.46" y2="504.287" stroke="#0054F9" stroke-opacity="0.12" stroke-width="3.78666"/>
<line x1="468.606" y1="66.5479" x2="198.312" y2="516.392" stroke="#0054F9" stroke-opacity="0.12" stroke-width="3.78666"/>
<line x1="469.458" y1="78.6553" x2="199.164" y2="528.5" stroke="#0054F9" stroke-opacity="0.12" stroke-width="3.78666"/>
<line x1="470.31" y1="90.7625" x2="200.017" y2="540.607" stroke="#0054F9" stroke-opacity="0.12" stroke-width="3.78666"/>
<line x1="471.162" y1="102.87" x2="200.868" y2="552.714" stroke="#0054F9" stroke-opacity="0.12" stroke-width="3.78666"/>
<line x1="472.015" y1="114.975" x2="201.721" y2="564.82" stroke="#0054F9" stroke-opacity="0.12" stroke-width="3.78666"/>
<line x1="472.866" y1="127.083" x2="202.572" y2="576.927" stroke="#0054F9" stroke-opacity="0.12" stroke-width="3.78666"/>
<line x1="473.718" y1="139.19" x2="203.424" y2="589.035" stroke="#0054F9" stroke-opacity="0.12" stroke-width="3.78666"/>
<line x1="474.57" y1="151.299" x2="204.276" y2="601.144" stroke="#0054F9" stroke-opacity="0.12" stroke-width="3.78666"/>
<line x1="475.422" y1="163.407" x2="205.128" y2="613.251" stroke="#0054F9" stroke-opacity="0.12" stroke-width="3.78666"/>
<line x1="476.274" y1="175.511" x2="205.98" y2="625.355" stroke="#0054F9" stroke-opacity="0.12" stroke-width="3.78666"/>
<line x1="477.126" y1="187.62" x2="206.832" y2="637.464" stroke="#0054F9" stroke-opacity="0.12" stroke-width="3.78666"/>
<line x1="477.978" y1="199.727" x2="207.685" y2="649.571" stroke="#0054F9" stroke-opacity="0.12" stroke-width="3.78666"/>
<line x1="478.83" y1="211.834" x2="208.536" y2="661.679" stroke="#0054F9" stroke-opacity="0.12" stroke-width="3.78666"/>
<rect x="298.123" y="216.384" width="117.249" height="100.243" rx="7.57331" fill="#0054F9"/>
</g>
</g>
</g>
<defs>
<filter id="filter0_d_2166_34320" x="-9.19092" y="-21.7017" width="431.403" height="425.952" filterUnits="userSpaceOnUse" color-interpolation-filters="sRGB">
<feFlood flood-opacity="0" result="BackgroundImageFix"/>
<feColorMatrix in="SourceAlpha" type="matrix" values="0 0 0 0 0 0 0 0 0 0 0 0 0 0 0 0 0 0 127 0" result="hardAlpha"/>
<feOffset/>
<feGaussianBlur stdDeviation="26.8508"/>
<feComposite in2="hardAlpha" operator="out"/>
<feColorMatrix type="matrix" values="0 0 0 0 0 0 0 0 0 0 0 0 0 0 0 0 0 0 0.07 0"/>
<feBlend mode="normal" in2="BackgroundImageFix" result="effect1_dropShadow_2166_34320"/>
<feBlend mode="normal" in="SourceGraphic" in2="effect1_dropShadow_2166_34320" result="shape"/>
</filter>
<clipPath id="clip0_2166_34320">
<rect width="414" height="220" fill="white"/>
</clipPath>
<clipPath id="clip1_2166_34320">
<rect x="62.1348" y="169.567" width="52.9036" height="146.785" rx="26.4518" fill="white"/>
</clipPath>
<clipPath id="clip2_2166_34320">
<rect x="121.097" y="198.966" width="52.9036" height="117.386" rx="26.4518" fill="white"/>
</clipPath>
<clipPath id="clip3_2166_34320">
<rect x="180.06" y="198.966" width="52.9036" height="117.386" rx="26.4518" fill="white"/>
</clipPath>
<clipPath id="clip4_2166_34320">
<rect x="239.021" y="198.966" width="52.9036" height="117.386" rx="26.4518" fill="white"/>
</clipPath>
<clipPath id="clip5_2166_34320">
<rect x="297.984" y="216.384" width="52.9036" height="99.9677" rx="26.4518" fill="white"/>
</clipPath>
</defs>
</svg>
