<svg width="414" height="220" viewBox="0 0 414 220" fill="none" xmlns="http://www.w3.org/2000/svg">
<g clip-path="url(#clip0_2166_34291)">
<g filter="url(#filter0_d_2166_34291)">
<rect x="77.5107" y="32" width="258" height="319.65" rx="16.125" fill="white"/>
<rect x="77.9139" y="32.4031" width="257.194" height="318.844" rx="15.7219" stroke="black" stroke-opacity="0.08" stroke-width="0.80625"/>
<path d="M99.2409 50.1726H101.016V57.8858C101.016 58.7066 100.823 59.4338 100.438 60.0675C100.052 60.6974 99.5101 61.1937 98.8115 61.5563C98.1129 61.9152 97.294 62.0946 96.3549 62.0946C95.4197 62.0946 94.6027 61.9152 93.9041 61.5563C93.2055 61.1937 92.6634 60.6974 92.2779 60.0675C91.8923 59.4338 91.6995 58.7066 91.6995 57.8858V50.1726H93.4689V57.7427C93.4689 58.2733 93.5854 58.7448 93.8182 59.157C94.0549 59.5693 94.3889 59.8938 94.8203 60.1305C95.2517 60.3634 95.7632 60.4798 96.3549 60.4798C96.9505 60.4798 97.4639 60.3634 97.8953 60.1305C98.3305 59.8938 98.6626 59.5693 98.8916 59.157C99.1245 58.7448 99.2409 58.2733 99.2409 57.7427V50.1726ZM104.76 56.6776V61.8999H103.048V53.1044H104.691V54.536H104.8C105.003 54.0703 105.319 53.6962 105.751 53.4137C106.186 53.1312 106.734 52.9899 107.394 52.9899C107.994 52.9899 108.518 53.1159 108.969 53.3679C109.419 53.616 109.769 53.9863 110.017 54.4787C110.265 54.9712 110.389 55.5801 110.389 56.3054V61.8999H108.677V56.5115C108.677 55.874 108.511 55.3758 108.179 55.017C107.847 54.6543 107.39 54.473 106.81 54.473C106.413 54.473 106.06 54.5589 105.751 54.7307C105.445 54.9025 105.203 55.1544 105.024 55.4865C104.848 55.8149 104.76 56.2119 104.76 56.6776ZM112.282 61.8999V53.1044H113.994V61.8999H112.282ZM113.147 51.7473C112.849 51.7473 112.593 51.6481 112.379 51.4496C112.169 51.2472 112.065 51.0067 112.065 50.7281C112.065 50.4456 112.169 50.2051 112.379 50.0066C112.593 49.8042 112.849 49.7031 113.147 49.7031C113.445 49.7031 113.698 49.8042 113.908 50.0066C114.122 50.2051 114.229 50.4456 114.229 50.7281C114.229 51.0067 114.122 51.2472 113.908 51.4496C113.698 51.6481 113.445 51.7473 113.147 51.7473ZM120.08 53.1044V54.4787H115.11V53.1044H120.08ZM116.473 61.8999V52.0852C116.473 51.5355 116.593 51.0793 116.834 50.7166C117.074 50.3501 117.393 50.0772 117.79 49.8978C118.187 49.7145 118.618 49.6229 119.084 49.6229C119.428 49.6229 119.721 49.6515 119.966 49.7088C120.21 49.7623 120.391 49.8119 120.51 49.8577L120.109 51.2434C120.029 51.2205 119.926 51.1938 119.8 51.1633C119.674 51.1289 119.521 51.1117 119.342 51.1117C118.926 51.1117 118.628 51.2148 118.448 51.4209C118.273 51.6271 118.185 51.9248 118.185 52.3142V61.8999H116.473ZM122.526 65.1982C122.27 65.1982 122.037 65.1772 121.827 65.1352C121.617 65.097 121.461 65.055 121.358 65.0092L121.77 63.6063C122.083 63.6903 122.362 63.7266 122.606 63.7151C122.85 63.7037 123.066 63.612 123.253 63.4403C123.444 63.2685 123.612 62.9879 123.757 62.5985L123.969 62.0144L120.751 53.1044H122.583L124.811 59.9301H124.902L127.13 53.1044H128.968L125.343 63.0738C125.175 63.5319 124.962 63.9193 124.702 64.2362C124.442 64.5569 124.133 64.7974 123.774 64.9577C123.415 65.118 122.999 65.1982 122.526 65.1982ZM135.121 65.1982C134.865 65.1982 134.632 65.1772 134.422 65.1352C134.212 65.097 134.055 65.055 133.952 65.0092L134.365 63.6063C134.678 63.6903 134.956 63.7266 135.201 63.7151C135.445 63.7037 135.661 63.612 135.848 63.4403C136.039 63.2685 136.207 62.9879 136.352 62.5985L136.564 62.0144L133.345 53.1044H135.178L137.405 59.9301H137.497L139.724 53.1044H141.562L137.938 63.0738C137.77 63.5319 137.556 63.9193 137.296 64.2362C137.037 64.5569 136.728 64.7974 136.369 64.9577C136.01 65.118 135.594 65.1982 135.121 65.1982ZM146.174 62.0774C145.35 62.0774 144.63 61.8884 144.015 61.5105C143.401 61.1326 142.924 60.6039 142.584 59.9244C142.244 59.2449 142.074 58.4508 142.074 57.5423C142.074 56.6299 142.244 55.832 142.584 55.1487C142.924 54.4654 143.401 53.9347 144.015 53.5568C144.63 53.1789 145.35 52.9899 146.174 52.9899C146.999 52.9899 147.718 53.1789 148.333 53.5568C148.947 53.9347 149.425 54.4654 149.764 55.1487C150.104 55.832 150.274 56.6299 150.274 57.5423C150.274 58.4508 150.104 59.2449 149.764 59.9244C149.425 60.6039 148.947 61.1326 148.333 61.5105C147.718 61.8884 146.999 62.0774 146.174 62.0774ZM146.18 60.6401C146.714 60.6401 147.157 60.4989 147.508 60.2164C147.859 59.9339 148.119 59.5579 148.287 59.0883C148.459 58.6188 148.545 58.1015 148.545 57.5365C148.545 56.9754 148.459 56.46 148.287 55.9905C148.119 55.5171 147.859 55.1373 147.508 54.8509C147.157 54.5646 146.714 54.4215 146.18 54.4215C145.642 54.4215 145.195 54.5646 144.84 54.8509C144.489 55.1373 144.227 55.5171 144.055 55.9905C143.887 56.46 143.803 56.9754 143.803 57.5365C143.803 58.1015 143.887 58.6188 144.055 59.0883C144.227 59.5579 144.489 59.9339 144.84 60.2164C145.195 60.4989 145.642 60.6401 146.18 60.6401ZM157.354 58.2523V53.1044H159.072V61.8999H157.388V60.3767H157.296C157.094 60.8463 156.77 61.2376 156.323 61.5506C155.88 61.8598 155.328 62.0144 154.668 62.0144C154.103 62.0144 153.603 61.8904 153.168 61.6422C152.736 61.3903 152.397 61.0181 152.149 60.5256C151.904 60.0332 151.782 59.4243 151.782 58.699V53.1044H153.494V58.4928C153.494 59.0922 153.66 59.5693 153.992 59.9244C154.324 60.2794 154.756 60.4569 155.286 60.4569C155.607 60.4569 155.926 60.3767 156.243 60.2164C156.563 60.0561 156.829 59.8137 157.039 59.4892C157.252 59.1647 157.357 58.7524 157.354 58.2523ZM160.969 61.8999V53.1044H162.624V54.5016H162.715C162.876 54.0283 163.158 53.6561 163.563 53.385C163.971 53.1102 164.433 52.9727 164.949 52.9727C165.055 52.9727 165.181 52.9766 165.327 52.9842C165.475 52.9918 165.592 53.0014 165.676 53.0128V54.6505C165.607 54.6314 165.485 54.6104 165.309 54.5875C165.134 54.5608 164.958 54.5475 164.783 54.5475C164.378 54.5475 164.017 54.6333 163.7 54.8051C163.387 54.9731 163.139 55.2079 162.956 55.5095C162.773 55.8072 162.681 56.147 162.681 56.5287V61.8999H160.969ZM173.911 62.0717C173.201 62.0717 172.568 61.8904 172.01 61.5277C171.457 61.1612 171.021 60.6401 170.705 59.9644C170.392 59.2849 170.235 58.4699 170.235 57.5194C170.235 56.5688 170.393 55.7557 170.71 55.08C171.031 54.4043 171.47 53.887 172.027 53.5282C172.585 53.1693 173.216 52.9899 173.923 52.9899C174.469 52.9899 174.908 53.0815 175.24 53.2648C175.576 53.4442 175.835 53.6542 176.019 53.8947C176.206 54.1352 176.351 54.347 176.454 54.5303H176.557V50.1726H178.269V61.8999H176.597V60.5313H176.454C176.351 60.7184 176.202 60.9322 176.007 61.1727C175.816 61.4132 175.553 61.6231 175.217 61.8026C174.881 61.982 174.446 62.0717 173.911 62.0717ZM174.289 60.6115C174.782 60.6115 175.198 60.4817 175.538 60.2221C175.881 59.9587 176.141 59.5941 176.316 59.1284C176.496 58.6627 176.585 58.1206 176.585 57.5022C176.585 56.8914 176.498 56.3569 176.322 55.8988C176.146 55.4407 175.889 55.0838 175.549 54.828C175.209 54.5723 174.789 54.4444 174.289 54.4444C173.774 54.4444 173.344 54.578 173.001 54.8452C172.657 55.1124 172.398 55.477 172.222 55.9389C172.05 56.4008 171.964 56.9219 171.964 57.5022C171.964 58.0901 172.052 58.6188 172.228 59.0883C172.403 59.5579 172.663 59.9301 173.007 60.2049C173.354 60.476 173.781 60.6115 174.289 60.6115ZM182.869 62.0946C182.312 62.0946 181.808 61.9915 181.357 61.7854C180.907 61.5754 180.55 61.2719 180.287 60.8749C180.027 60.4779 179.897 59.9912 179.897 59.4147C179.897 58.9185 179.993 58.51 180.183 58.1893C180.374 57.8687 180.632 57.6148 180.956 57.4277C181.281 57.2407 181.644 57.0994 182.044 57.004C182.445 56.9086 182.854 56.836 183.27 56.7864C183.797 56.7253 184.224 56.6757 184.553 56.6375C184.881 56.5955 185.119 56.5287 185.268 56.4371C185.417 56.3455 185.492 56.1966 185.492 55.9905V55.9504C185.492 55.4503 185.35 55.0628 185.068 54.788C184.789 54.5131 184.373 54.3757 183.82 54.3757C183.243 54.3757 182.789 54.5036 182.457 54.7593C182.128 55.0113 181.901 55.2919 181.775 55.6011L180.166 55.2346C180.357 54.7002 180.636 54.2688 181.002 53.9405C181.373 53.6084 181.798 53.3679 182.279 53.219C182.76 53.0663 183.266 52.9899 183.797 52.9899C184.148 52.9899 184.52 53.0319 184.913 53.1159C185.31 53.1961 185.681 53.3449 186.024 53.5625C186.372 53.7801 186.656 54.0913 186.877 54.4959C187.099 54.8968 187.21 55.4178 187.21 56.0592V61.8999H185.537V60.6974H185.469C185.358 60.9188 185.192 61.1364 184.971 61.3502C184.749 61.564 184.465 61.7415 184.117 61.8827C183.77 62.024 183.354 62.0946 182.869 62.0946ZM183.241 60.7203C183.715 60.7203 184.119 60.6268 184.455 60.4397C184.795 60.2527 185.053 60.0083 185.228 59.7068C185.408 59.4014 185.497 59.075 185.497 58.7276V57.5938C185.436 57.6549 185.318 57.7121 185.142 57.7656C184.971 57.8152 184.774 57.8591 184.553 57.8973C184.331 57.9316 184.115 57.9641 183.905 57.9946C183.696 58.0214 183.52 58.0443 183.379 58.0633C183.047 58.1053 182.743 58.176 182.468 58.2752C182.197 58.3745 181.98 58.5176 181.815 58.7047C181.655 58.8879 181.575 59.1322 181.575 59.4376C181.575 59.8614 181.731 60.182 182.044 60.3996C182.358 60.6134 182.756 60.7203 183.241 60.7203ZM193.193 53.1044V54.4787H188.388V53.1044H193.193ZM189.677 50.9972H191.389V59.3174C191.389 59.6495 191.438 59.8995 191.538 60.0675C191.637 60.2317 191.765 60.3443 191.921 60.4054C192.082 60.4626 192.255 60.4913 192.442 60.4913C192.58 60.4913 192.7 60.4817 192.803 60.4626C192.906 60.4435 192.986 60.4283 193.044 60.4168L193.353 61.8312C193.254 61.8694 193.112 61.9075 192.929 61.9457C192.746 61.9877 192.517 62.0106 192.242 62.0144C191.792 62.0221 191.372 61.9419 190.982 61.7739C190.593 61.606 190.278 61.3464 190.037 60.9952C189.797 60.644 189.677 60.203 189.677 59.6724V50.9972ZM197.243 62.0946C196.686 62.0946 196.182 61.9915 195.731 61.7854C195.281 61.5754 194.924 61.2719 194.66 60.8749C194.401 60.4779 194.271 59.9912 194.271 59.4147C194.271 58.9185 194.367 58.51 194.557 58.1893C194.748 57.8687 195.006 57.6148 195.33 57.4277C195.655 57.2407 196.018 57.0994 196.418 57.004C196.819 56.9086 197.228 56.836 197.644 56.7864C198.171 56.7253 198.598 56.6757 198.926 56.6375C199.255 56.5955 199.493 56.5287 199.642 56.4371C199.791 56.3455 199.866 56.1966 199.866 55.9905V55.9504C199.866 55.4503 199.724 55.0628 199.442 54.788C199.163 54.5131 198.747 54.3757 198.194 54.3757C197.617 54.3757 197.163 54.5036 196.831 54.7593C196.502 55.0113 196.275 55.2919 196.149 55.6011L194.54 55.2346C194.731 54.7002 195.01 54.2688 195.376 53.9405C195.747 53.6084 196.172 53.3679 196.653 53.219C197.134 53.0663 197.64 52.9899 198.171 52.9899C198.522 52.9899 198.894 53.0319 199.287 53.1159C199.684 53.1961 200.055 53.3449 200.398 53.5625C200.746 53.7801 201.03 54.0913 201.251 54.4959C201.473 54.8968 201.583 55.4178 201.583 56.0592V61.8999H199.911V60.6974H199.843C199.732 60.9188 199.566 61.1364 199.344 61.3502C199.123 61.564 198.839 61.7415 198.491 61.8827C198.144 62.024 197.728 62.0946 197.243 62.0946ZM197.615 60.7203C198.089 60.7203 198.493 60.6268 198.829 60.4397C199.169 60.2527 199.427 60.0083 199.602 59.7068C199.782 59.4014 199.871 59.075 199.871 58.7276V57.5938C199.81 57.6549 199.692 57.7121 199.516 57.7656C199.344 57.8152 199.148 57.8591 198.926 57.8973C198.705 57.9316 198.489 57.9641 198.279 57.9946C198.069 58.0214 197.894 58.0443 197.753 58.0633C197.42 58.1053 197.117 58.176 196.842 58.2752C196.571 58.3745 196.354 58.5176 196.189 58.7047C196.029 58.8879 195.949 59.1322 195.949 59.4376C195.949 59.8614 196.105 60.182 196.418 60.3996C196.731 60.6134 197.13 60.7203 197.615 60.7203ZM205.688 60.2966L205.602 60.9207C205.545 61.3788 205.448 61.856 205.31 62.3523C205.177 62.8524 205.037 63.3162 204.892 63.7437C204.751 64.1713 204.635 64.5111 204.543 64.763H203.329C203.379 64.5263 203.447 64.2057 203.535 63.801C203.623 63.4002 203.709 62.9516 203.793 62.4553C203.877 61.9591 203.94 61.4533 203.982 60.9379L204.039 60.2966H205.688ZM99.2409 73.1726H101.016V80.8858C101.016 81.7066 100.823 82.4338 100.438 83.0675C100.052 83.6974 99.5101 84.1937 98.8115 84.5563C98.1129 84.9152 97.294 85.0946 96.3549 85.0946C95.4197 85.0946 94.6027 84.9152 93.9041 84.5563C93.2055 84.1937 92.6634 83.6974 92.2779 83.0675C91.8923 82.4338 91.6995 81.7066 91.6995 80.8858V73.1726H93.4689V80.7427C93.4689 81.2733 93.5854 81.7448 93.8182 82.157C94.0549 82.5693 94.3889 82.8938 94.8203 83.1305C95.2517 83.3634 95.7632 83.4798 96.3549 83.4798C96.9505 83.4798 97.4639 83.3634 97.8953 83.1305C98.3305 82.8938 98.6626 82.5693 98.8916 82.157C99.1245 81.7448 99.2409 81.2733 99.2409 80.7427V73.1726ZM104.76 79.6776V84.8999H103.048V76.1044H104.691V77.536H104.8C105.003 77.0703 105.319 76.6962 105.751 76.4137C106.186 76.1312 106.734 75.9899 107.394 75.9899C107.994 75.9899 108.518 76.1159 108.969 76.3679C109.419 76.616 109.769 76.9863 110.017 77.4787C110.265 77.9712 110.389 78.5801 110.389 79.3054V84.8999H108.677V79.5115C108.677 78.874 108.511 78.3758 108.179 78.017C107.847 77.6543 107.39 77.473 106.81 77.473C106.413 77.473 106.06 77.5589 105.751 77.7307C105.445 77.9025 105.203 78.1544 105.024 78.4865C104.848 78.8149 104.76 79.2119 104.76 79.6776ZM113.994 73.1726V84.8999H112.282V73.1726H113.994ZM119.599 85.0774C118.775 85.0774 118.055 84.8884 117.441 84.5105C116.826 84.1326 116.349 83.6039 116.009 82.9244C115.669 82.2449 115.499 81.4508 115.499 80.5423C115.499 79.6299 115.669 78.832 116.009 78.1487C116.349 77.4654 116.826 76.9347 117.441 76.5568C118.055 76.1789 118.775 75.9899 119.599 75.9899C120.424 75.9899 121.143 76.1789 121.758 76.5568C122.373 76.9347 122.85 77.4654 123.19 78.1487C123.529 78.832 123.699 79.6299 123.699 80.5423C123.699 81.4508 123.529 82.2449 123.19 82.9244C122.85 83.6039 122.373 84.1326 121.758 84.5105C121.143 84.8884 120.424 85.0774 119.599 85.0774ZM119.605 83.6401C120.14 83.6401 120.582 83.4989 120.934 83.2164C121.285 82.9339 121.544 82.5579 121.712 82.0883C121.884 81.6188 121.97 81.1015 121.97 80.5365C121.97 79.9754 121.884 79.46 121.712 78.9905C121.544 78.5171 121.285 78.1373 120.934 77.8509C120.582 77.5646 120.14 77.4215 119.605 77.4215C119.067 77.4215 118.62 77.5646 118.265 77.8509C117.914 78.1373 117.652 78.5171 117.481 78.9905C117.313 79.46 117.229 79.9754 117.229 80.5365C117.229 81.1015 117.313 81.6188 117.481 82.0883C117.652 82.5579 117.914 82.9339 118.265 83.2164C118.62 83.4989 119.067 83.6401 119.605 83.6401ZM128.912 85.0774C128.061 85.0774 127.328 84.8846 126.713 84.4991C126.102 84.1097 125.633 83.5733 125.305 82.89C124.976 82.2067 124.812 81.4241 124.812 80.5423C124.812 79.649 124.98 78.8607 125.316 78.1773C125.652 77.4902 126.125 76.9538 126.736 76.5683C127.347 76.1827 128.067 75.9899 128.895 75.9899C129.563 75.9899 130.159 76.114 130.682 76.3621C131.205 76.6064 131.626 76.95 131.947 77.3928C132.272 77.8357 132.464 78.3529 132.525 78.9446H130.859C130.767 78.5324 130.557 78.1773 130.229 77.8796C129.905 77.5818 129.469 77.4329 128.924 77.4329C128.446 77.4329 128.028 77.5589 127.67 77.8109C127.315 78.059 127.038 78.414 126.839 78.8759C126.641 79.334 126.541 79.8761 126.541 80.5022C126.541 81.1435 126.639 81.697 126.834 82.1628C127.028 82.6285 127.303 82.9893 127.658 83.245C128.017 83.5008 128.439 83.6287 128.924 83.6287C129.248 83.6287 129.542 83.5695 129.805 83.4512C130.073 83.329 130.296 83.1553 130.475 82.9301C130.659 82.7049 130.787 82.4338 130.859 82.117H132.525C132.464 82.6858 132.279 83.1935 131.97 83.6401C131.661 84.0868 131.247 84.438 130.727 84.6938C130.212 84.9495 129.607 85.0774 128.912 85.0774ZM135.528 81.9165L135.516 79.8265H135.814L139.319 76.1044H141.369L137.372 80.3418H137.103L135.528 81.9165ZM133.953 84.8999V73.1726H135.665V84.8999H133.953ZM139.508 84.8999L136.358 80.7198L137.538 79.523L141.609 84.8999H139.508ZM147.473 88.1982C147.217 88.1982 146.984 88.1772 146.774 88.1352C146.564 88.097 146.407 88.055 146.304 88.0092L146.717 86.6063C147.03 86.6903 147.308 86.7266 147.553 86.7151C147.797 86.7037 148.013 86.612 148.2 86.4403C148.391 86.2685 148.559 85.9879 148.704 85.5985L148.916 85.0144L145.697 76.1044H147.53L149.757 82.9301H149.849L152.076 76.1044H153.914L150.29 86.0738C150.122 86.5319 149.908 86.9193 149.648 87.2362C149.389 87.5569 149.08 87.7974 148.721 87.9577C148.362 88.118 147.946 88.1982 147.473 88.1982ZM158.526 85.0774C157.702 85.0774 156.982 84.8884 156.367 84.5105C155.753 84.1326 155.276 83.6039 154.936 82.9244C154.596 82.2449 154.426 81.4508 154.426 80.5423C154.426 79.6299 154.596 78.832 154.936 78.1487C155.276 77.4654 155.753 76.9347 156.367 76.5568C156.982 76.1789 157.702 75.9899 158.526 75.9899C159.351 75.9899 160.07 76.1789 160.685 76.5568C161.299 76.9347 161.777 77.4654 162.116 78.1487C162.456 78.832 162.626 79.6299 162.626 80.5423C162.626 81.4508 162.456 82.2449 162.116 82.9244C161.777 83.6039 161.299 84.1326 160.685 84.5105C160.07 84.8884 159.351 85.0774 158.526 85.0774ZM158.532 83.6401C159.066 83.6401 159.509 83.4989 159.86 83.2164C160.212 82.9339 160.471 82.5579 160.639 82.0883C160.811 81.6188 160.897 81.1015 160.897 80.5365C160.897 79.9754 160.811 79.46 160.639 78.9905C160.471 78.5171 160.212 78.1373 159.86 77.8509C159.509 77.5646 159.066 77.4215 158.532 77.4215C157.994 77.4215 157.547 77.5646 157.192 77.8509C156.841 78.1373 156.579 78.5171 156.407 78.9905C156.239 79.46 156.155 79.9754 156.155 80.5365C156.155 81.1015 156.239 81.6188 156.407 82.0883C156.579 82.5579 156.841 82.9339 157.192 83.2164C157.547 83.4989 157.994 83.6401 158.532 83.6401ZM169.706 81.2523V76.1044H171.424V84.8999H169.74V83.3767H169.648C169.446 83.8463 169.122 84.2376 168.675 84.5506C168.232 84.8598 167.68 85.0144 167.02 85.0144C166.455 85.0144 165.955 84.8904 165.52 84.6422C165.088 84.3903 164.749 84.0181 164.501 83.5256C164.256 83.0332 164.134 82.4243 164.134 81.699V76.1044H165.846V81.4928C165.846 82.0922 166.012 82.5693 166.344 82.9244C166.676 83.2794 167.108 83.4569 167.638 83.4569C167.959 83.4569 168.278 83.3767 168.595 83.2164C168.915 83.0561 169.181 82.8137 169.391 82.4892C169.604 82.1647 169.709 81.7524 169.706 81.2523ZM173.321 84.8999V76.1044H174.976V77.5016H175.067C175.228 77.0283 175.51 76.6561 175.915 76.385C176.323 76.1102 176.785 75.9727 177.301 75.9727C177.407 75.9727 177.533 75.9766 177.679 75.9842C177.827 75.9918 177.944 76.0014 178.028 76.0128V77.6505C177.959 77.6314 177.837 77.6104 177.661 77.5875C177.486 77.5608 177.31 77.5475 177.135 77.5475C176.73 77.5475 176.369 77.6333 176.052 77.8051C175.739 77.9731 175.491 78.2079 175.308 78.5095C175.125 78.8072 175.033 79.147 175.033 79.5287V84.8999H173.321ZM182.971 88.1982V76.1044H184.643V77.5303H184.786C184.885 77.347 185.028 77.1352 185.215 76.8947C185.402 76.6542 185.662 76.4442 185.994 76.2648C186.326 76.0815 186.765 75.9899 187.311 75.9899C188.021 75.9899 188.655 76.1693 189.212 76.5282C189.77 76.887 190.207 77.4043 190.524 78.08C190.844 78.7557 191.005 79.5688 191.005 80.5194C191.005 81.4699 190.846 82.2849 190.529 82.9644C190.212 83.6401 189.777 84.1612 189.224 84.5277C188.67 84.8904 188.038 85.0717 187.328 85.0717C186.794 85.0717 186.357 84.982 186.017 84.8026C185.681 84.6231 185.418 84.4132 185.227 84.1727C185.036 83.9322 184.889 83.7184 184.786 83.5313H184.683V88.1982H182.971ZM184.648 80.5022C184.648 81.1206 184.738 81.6627 184.918 82.1284C185.097 82.5941 185.357 82.9587 185.696 83.2221C186.036 83.4817 186.452 83.6115 186.945 83.6115C187.456 83.6115 187.884 83.476 188.227 83.2049C188.571 82.9301 188.831 82.5579 189.006 82.0883C189.186 81.6188 189.275 81.0901 189.275 80.5022C189.275 79.9219 189.187 79.4008 189.012 78.9389C188.84 78.477 188.58 78.1124 188.233 77.8452C187.89 77.578 187.46 77.4444 186.945 77.4444C186.448 77.4444 186.028 77.5723 185.685 77.828C185.345 78.0838 185.087 78.4407 184.912 78.8988C184.736 79.3569 184.648 79.8914 184.648 80.5022ZM196.225 85.0774C195.4 85.0774 194.68 84.8884 194.066 84.5105C193.451 84.1326 192.974 83.6039 192.634 82.9244C192.294 82.2449 192.125 81.4508 192.125 80.5423C192.125 79.6299 192.294 78.832 192.634 78.1487C192.974 77.4654 193.451 76.9347 194.066 76.5568C194.68 76.1789 195.4 75.9899 196.225 75.9899C197.049 75.9899 197.769 76.1789 198.383 76.5568C198.998 76.9347 199.475 77.4654 199.815 78.1487C200.155 78.832 200.325 79.6299 200.325 80.5423C200.325 81.4508 200.155 82.2449 199.815 82.9244C199.475 83.6039 198.998 84.1326 198.383 84.5105C197.769 84.8884 197.049 85.0774 196.225 85.0774ZM196.23 83.6401C196.765 83.6401 197.208 83.4989 197.559 83.2164C197.91 82.9339 198.17 82.5579 198.338 82.0883C198.509 81.6188 198.595 81.1015 198.595 80.5365C198.595 79.9754 198.509 79.46 198.338 78.9905C198.17 78.5171 197.91 78.1373 197.559 77.8509C197.208 77.5646 196.765 77.4215 196.23 77.4215C195.692 77.4215 195.245 77.5646 194.89 77.8509C194.539 78.1373 194.278 78.5171 194.106 78.9905C193.938 79.46 193.854 79.9754 193.854 80.5365C193.854 81.1015 193.938 81.6188 194.106 82.0883C194.278 82.5579 194.539 82.9339 194.89 83.2164C195.245 83.4989 195.692 83.6401 196.23 83.6401ZM205.938 76.1044V77.4787H201.134V76.1044H205.938ZM202.422 73.9972H204.134V82.3174C204.134 82.6495 204.184 82.8995 204.283 83.0675C204.383 83.2317 204.51 83.3443 204.667 83.4054C204.827 83.4626 205.001 83.4913 205.188 83.4913C205.326 83.4913 205.446 83.4817 205.549 83.4626C205.652 83.4435 205.732 83.4283 205.789 83.4168L206.099 84.8312C205.999 84.8694 205.858 84.9075 205.675 84.9457C205.492 84.9877 205.263 85.0106 204.988 85.0144C204.537 85.0221 204.117 84.9419 203.728 84.7739C203.339 84.606 203.024 84.3464 202.783 83.9952C202.543 83.644 202.422 83.203 202.422 82.6724V73.9972ZM211.125 85.0774C210.259 85.0774 209.512 84.8923 208.886 84.522C208.264 84.1479 207.783 83.623 207.443 82.9473C207.107 82.2678 206.939 81.4718 206.939 80.5594C206.939 79.6585 207.107 78.8645 207.443 78.1773C207.783 77.4902 208.256 76.9538 208.863 76.5683C209.474 76.1827 210.188 75.9899 211.005 75.9899C211.501 75.9899 211.982 76.072 212.448 76.2362C212.914 76.4003 213.332 76.658 213.702 77.0092C214.072 77.3604 214.364 77.8166 214.578 78.3778C214.792 78.9351 214.899 79.6127 214.899 80.4106V81.0175H207.907V79.7349H213.221C213.221 79.2844 213.129 78.8855 212.946 78.5381C212.763 78.1869 212.505 77.9101 212.173 77.7078C211.845 77.5055 211.459 77.4043 211.017 77.4043C210.536 77.4043 210.116 77.5226 209.757 77.7593C209.402 77.9922 209.127 78.2976 208.932 78.6755C208.741 79.0496 208.646 79.4562 208.646 79.8952V80.8973C208.646 81.4852 208.749 81.9853 208.955 82.3975C209.165 82.8098 209.457 83.1248 209.831 83.3424C210.205 83.5562 210.642 83.663 211.142 83.663C211.467 83.663 211.763 83.6172 212.03 83.5256C212.297 83.4302 212.528 83.2889 212.723 83.1019C212.918 82.9148 213.066 82.6839 213.17 82.409L214.79 82.701C214.66 83.1782 214.427 83.5962 214.091 83.9551C213.759 84.3101 213.341 84.5869 212.837 84.7854C212.337 84.9801 211.767 85.0774 211.125 85.0774ZM218.108 79.6776V84.8999H216.395V76.1044H218.039V77.536H218.148C218.35 77.0703 218.667 76.6962 219.098 76.4137C219.533 76.1312 220.081 75.9899 220.742 75.9899C221.341 75.9899 221.866 76.1159 222.316 76.3679C222.767 76.616 223.116 76.9863 223.364 77.4787C223.612 77.9712 223.736 78.5801 223.736 79.3054V84.8999H222.024V79.5115C222.024 78.874 221.858 78.3758 221.526 78.017C221.194 77.6543 220.738 77.473 220.158 77.473C219.761 77.473 219.407 77.5589 219.098 77.7307C218.793 77.9025 218.55 78.1544 218.371 78.4865C218.195 78.8149 218.108 79.2119 218.108 79.6776ZM229.735 76.1044V77.4787H224.931V76.1044H229.735ZM226.219 73.9972H227.931V82.3174C227.931 82.6495 227.981 82.8995 228.08 83.0675C228.18 83.2317 228.307 83.3443 228.464 83.4054C228.624 83.4626 228.798 83.4913 228.985 83.4913C229.123 83.4913 229.243 83.4817 229.346 83.4626C229.449 83.4435 229.529 83.4283 229.586 83.4168L229.896 84.8312C229.796 84.8694 229.655 84.9075 229.472 84.9457C229.289 84.9877 229.06 85.0106 228.785 85.0144C228.334 85.0221 227.914 84.9419 227.525 84.7739C227.136 84.606 226.821 84.3464 226.58 83.9952C226.34 83.644 226.219 83.203 226.219 82.6724V73.9972ZM231.226 84.8999V76.1044H232.938V84.8999H231.226ZM232.091 74.7473C231.793 74.7473 231.537 74.6481 231.323 74.4496C231.113 74.2472 231.008 74.0067 231.008 73.7281C231.008 73.4456 231.113 73.2051 231.323 73.0066C231.537 72.8042 231.793 72.7031 232.091 72.7031C232.388 72.7031 232.642 72.8042 232.852 73.0066C233.066 73.2051 233.173 73.4456 233.173 73.7281C233.173 74.0067 233.066 74.2472 232.852 74.4496C232.642 74.6481 232.388 74.7473 232.091 74.7473ZM237.398 85.0946C236.841 85.0946 236.337 84.9915 235.886 84.7854C235.436 84.5754 235.079 84.2719 234.815 83.8749C234.556 83.4779 234.426 82.9912 234.426 82.4147C234.426 81.9185 234.522 81.51 234.712 81.1893C234.903 80.8687 235.161 80.6148 235.485 80.4277C235.81 80.2407 236.173 80.0994 236.573 80.004C236.974 79.9086 237.383 79.836 237.799 79.7864C238.326 79.7253 238.753 79.6757 239.082 79.6375C239.41 79.5955 239.648 79.5287 239.797 79.4371C239.946 79.3455 240.021 79.1966 240.021 78.9905V78.9504C240.021 78.4503 239.879 78.0628 239.597 77.788C239.318 77.5131 238.902 77.3757 238.349 77.3757C237.772 77.3757 237.318 77.5036 236.986 77.7593C236.657 78.0113 236.43 78.2919 236.304 78.6011L234.695 78.2346C234.886 77.7002 235.165 77.2688 235.531 76.9405C235.902 76.6084 236.327 76.3679 236.808 76.219C237.289 76.0663 237.795 75.9899 238.326 75.9899C238.677 75.9899 239.049 76.0319 239.442 76.1159C239.839 76.1961 240.21 76.3449 240.553 76.5625C240.901 76.7801 241.185 77.0913 241.406 77.4959C241.628 77.8968 241.738 78.4178 241.738 79.0592V84.8999H240.066V83.6974H239.998C239.887 83.9188 239.721 84.1364 239.5 84.3502C239.278 84.564 238.994 84.7415 238.646 84.8827C238.299 85.024 237.883 85.0946 237.398 85.0946ZM237.77 83.7203C238.244 83.7203 238.648 83.6268 238.984 83.4397C239.324 83.2527 239.582 83.0083 239.757 82.7068C239.937 82.4014 240.026 82.075 240.026 81.7276V80.5938C239.965 80.6549 239.847 80.7121 239.671 80.7656C239.5 80.8152 239.303 80.8591 239.082 80.8973C238.86 80.9316 238.644 80.9641 238.434 80.9946C238.224 81.0214 238.049 81.0443 237.908 81.0633C237.576 81.1053 237.272 81.176 236.997 81.2752C236.726 81.3745 236.509 81.5176 236.344 81.7047C236.184 81.8879 236.104 82.1322 236.104 82.4376C236.104 82.8614 236.26 83.182 236.573 83.3996C236.886 83.6134 237.285 83.7203 237.77 83.7203ZM245.328 73.1726V84.8999H243.616V73.1726H245.328Z" fill="#131313"/>
<rect x="83.9609" y="116.7" width="245.1" height="228.5" rx="19.35" fill="#F7F7F7"/>
<path d="M97.1087 132.563H98.0844L100.036 135.848H100.118L102.07 132.563H103.046L100.503 136.7V139.6H99.6511V136.7L97.1087 132.563ZM105.358 139.71C104.881 139.71 104.463 139.596 104.104 139.37C103.746 139.143 103.467 138.826 103.265 138.418C103.066 138.01 102.967 137.534 102.967 136.989C102.967 136.439 103.066 135.959 103.265 135.549C103.467 135.139 103.746 134.821 104.104 134.594C104.463 134.367 104.881 134.254 105.358 134.254C105.834 134.254 106.251 134.367 106.608 134.594C106.968 134.821 107.247 135.139 107.447 135.549C107.648 135.959 107.749 136.439 107.749 136.989C107.749 137.534 107.648 138.01 107.447 138.418C107.247 138.826 106.968 139.143 106.608 139.37C106.251 139.596 105.834 139.71 105.358 139.71ZM105.358 138.981C105.72 138.981 106.017 138.889 106.251 138.703C106.485 138.518 106.658 138.274 106.77 137.971C106.882 137.669 106.938 137.341 106.938 136.989C106.938 136.636 106.882 136.307 106.77 136.003C106.658 135.698 106.485 135.452 106.251 135.264C106.017 135.076 105.72 134.982 105.358 134.982C104.996 134.982 104.698 135.076 104.464 135.264C104.231 135.452 104.058 135.698 103.946 136.003C103.833 136.307 103.777 136.636 103.777 136.989C103.777 137.341 103.833 137.669 103.946 137.971C104.058 138.274 104.231 138.518 104.464 138.703C104.698 138.889 104.996 138.981 105.358 138.981ZM112.235 137.442V134.323H113.046V139.6H112.235V138.707H112.18C112.056 138.975 111.864 139.202 111.603 139.39C111.342 139.576 111.012 139.669 110.613 139.669C110.284 139.669 109.99 139.596 109.734 139.452C109.477 139.306 109.276 139.086 109.129 138.792C108.983 138.497 108.909 138.125 108.909 137.676V134.323H109.72V137.621C109.72 138.006 109.828 138.313 110.043 138.542C110.261 138.771 110.538 138.885 110.875 138.885C111.076 138.885 111.281 138.834 111.49 138.731C111.7 138.628 111.877 138.47 112.019 138.256C112.163 138.043 112.235 137.772 112.235 137.442ZM114.454 139.6V134.323H115.237V135.12H115.292C115.388 134.859 115.562 134.647 115.814 134.484C116.066 134.321 116.35 134.24 116.666 134.24C116.726 134.24 116.8 134.241 116.89 134.244C116.979 134.246 117.046 134.249 117.092 134.254V135.078C117.065 135.072 117.002 135.061 116.903 135.048C116.807 135.031 116.705 135.023 116.598 135.023C116.341 135.023 116.112 135.077 115.91 135.185C115.711 135.29 115.553 135.437 115.436 135.625C115.322 135.81 115.264 136.022 115.264 136.26V139.6H114.454ZM120.73 139.6V132.563H121.541V135.161H121.609C121.669 135.069 121.751 134.952 121.857 134.81C121.964 134.666 122.118 134.538 122.317 134.426C122.519 134.311 122.791 134.254 123.135 134.254C123.579 134.254 123.971 134.365 124.31 134.587C124.649 134.809 124.913 135.124 125.103 135.532C125.293 135.94 125.389 136.421 125.389 136.975C125.389 137.534 125.293 138.018 125.103 138.428C124.913 138.836 124.65 139.152 124.313 139.377C123.976 139.599 123.588 139.71 123.148 139.71C122.809 139.71 122.538 139.654 122.334 139.541C122.13 139.427 121.973 139.298 121.863 139.153C121.754 139.007 121.669 138.885 121.609 138.789H121.513V139.6H120.73ZM121.527 136.961C121.527 137.36 121.585 137.711 121.702 138.016C121.819 138.318 121.989 138.555 122.214 138.727C122.438 138.897 122.713 138.981 123.038 138.981C123.377 138.981 123.66 138.892 123.887 138.713C124.116 138.532 124.288 138.29 124.402 137.985C124.519 137.678 124.578 137.337 124.578 136.961C124.578 136.59 124.52 136.256 124.406 135.958C124.294 135.658 124.123 135.421 123.894 135.247C123.667 135.07 123.382 134.982 123.038 134.982C122.709 134.982 122.432 135.066 122.207 135.233C121.983 135.398 121.813 135.629 121.699 135.927C121.584 136.223 121.527 136.567 121.527 136.961ZM128.104 139.724C127.77 139.724 127.466 139.661 127.194 139.535C126.921 139.406 126.705 139.222 126.545 138.981C126.384 138.739 126.304 138.445 126.304 138.102C126.304 137.8 126.364 137.554 126.483 137.367C126.602 137.177 126.761 137.028 126.96 136.92C127.16 136.812 127.379 136.732 127.62 136.679C127.863 136.625 128.107 136.581 128.352 136.549C128.672 136.508 128.932 136.477 129.132 136.456C129.333 136.433 129.48 136.395 129.571 136.343C129.665 136.29 129.712 136.198 129.712 136.068V136.04C129.712 135.701 129.62 135.438 129.434 135.25C129.251 135.062 128.972 134.968 128.599 134.968C128.212 134.968 127.909 135.053 127.689 135.223C127.469 135.392 127.314 135.573 127.225 135.766L126.455 135.491C126.593 135.17 126.776 134.92 127.005 134.742C127.236 134.561 127.488 134.435 127.761 134.364C128.036 134.291 128.306 134.254 128.572 134.254C128.741 134.254 128.936 134.274 129.156 134.316C129.378 134.355 129.592 134.436 129.798 134.56C130.007 134.683 130.18 134.87 130.317 135.12C130.454 135.369 130.523 135.704 130.523 136.123V139.6H129.712V138.885H129.671C129.616 139 129.524 139.122 129.396 139.253C129.268 139.383 129.097 139.494 128.884 139.586C128.671 139.678 128.411 139.724 128.104 139.724ZM128.228 138.995C128.549 138.995 128.819 138.932 129.039 138.806C129.261 138.68 129.428 138.518 129.541 138.318C129.655 138.119 129.712 137.909 129.712 137.69V136.947C129.678 136.989 129.602 137.026 129.486 137.061C129.371 137.093 129.238 137.122 129.087 137.147C128.938 137.17 128.793 137.19 128.651 137.209C128.511 137.225 128.398 137.238 128.311 137.25C128.1 137.277 127.903 137.322 127.72 137.384C127.539 137.443 127.392 137.534 127.28 137.655C127.17 137.774 127.115 137.937 127.115 138.143C127.115 138.425 127.219 138.638 127.428 138.782C127.638 138.924 127.905 138.995 128.228 138.995ZM132.736 132.563V139.6H131.926V132.563H132.736ZM135.697 139.724C135.363 139.724 135.059 139.661 134.787 139.535C134.514 139.406 134.298 139.222 134.137 138.981C133.977 138.739 133.897 138.445 133.897 138.102C133.897 137.8 133.956 137.554 134.075 137.367C134.195 137.177 134.354 137.028 134.553 136.92C134.752 136.812 134.972 136.732 135.213 136.679C135.455 136.625 135.699 136.581 135.945 136.549C136.265 136.508 136.525 136.477 136.724 136.456C136.926 136.433 137.073 136.395 137.164 136.343C137.258 136.29 137.305 136.198 137.305 136.068V136.04C137.305 135.701 137.212 135.438 137.027 135.25C136.844 135.062 136.565 134.968 136.192 134.968C135.805 134.968 135.501 135.053 135.281 135.223C135.062 135.392 134.907 135.573 134.818 135.766L134.048 135.491C134.185 135.17 134.369 134.92 134.598 134.742C134.829 134.561 135.081 134.435 135.354 134.364C135.628 134.291 135.899 134.254 136.164 134.254C136.334 134.254 136.529 134.274 136.748 134.316C136.971 134.355 137.185 134.436 137.391 134.56C137.599 134.683 137.772 134.87 137.91 135.12C138.047 135.369 138.116 135.704 138.116 136.123V139.6H137.305V138.885H137.264C137.209 139 137.117 139.122 136.989 139.253C136.861 139.383 136.69 139.494 136.477 139.586C136.264 139.678 136.004 139.724 135.697 139.724ZM135.821 138.995C136.141 138.995 136.412 138.932 136.632 138.806C136.854 138.68 137.021 138.518 137.133 138.318C137.248 138.119 137.305 137.909 137.305 137.69V136.947C137.271 136.989 137.195 137.026 137.078 137.061C136.964 137.093 136.831 137.122 136.68 137.147C136.531 137.17 136.385 137.19 136.243 137.209C136.104 137.225 135.99 137.238 135.903 137.25C135.693 137.277 135.496 137.322 135.312 137.384C135.131 137.443 134.985 137.534 134.873 137.655C134.763 137.774 134.708 137.937 134.708 138.143C134.708 138.425 134.812 138.638 135.02 138.782C135.231 138.924 135.498 138.995 135.821 138.995ZM140.329 136.425V139.6H139.518V134.323H140.302V135.147H140.37C140.494 134.879 140.682 134.664 140.934 134.501C141.186 134.336 141.511 134.254 141.91 134.254C142.267 134.254 142.58 134.327 142.848 134.474C143.116 134.618 143.324 134.838 143.473 135.133C143.622 135.427 143.696 135.798 143.696 136.247V139.6H142.885V136.302C142.885 135.887 142.778 135.564 142.562 135.333C142.347 135.099 142.052 134.982 141.676 134.982C141.417 134.982 141.186 135.038 140.982 135.151C140.78 135.263 140.621 135.427 140.504 135.642C140.388 135.857 140.329 136.118 140.329 136.425ZM147.244 139.71C146.75 139.71 146.324 139.593 145.966 139.359C145.609 139.126 145.334 138.804 145.142 138.394C144.949 137.984 144.853 137.516 144.853 136.989C144.853 136.453 144.952 135.98 145.149 135.57C145.348 135.157 145.625 134.836 145.98 134.604C146.337 134.371 146.754 134.254 147.231 134.254C147.602 134.254 147.936 134.323 148.234 134.46C148.532 134.597 148.776 134.79 148.966 135.037C149.156 135.285 149.274 135.573 149.32 135.903H148.509C148.447 135.663 148.309 135.449 148.096 135.264C147.886 135.076 147.602 134.982 147.244 134.982C146.928 134.982 146.651 135.065 146.413 135.23C146.177 135.392 145.993 135.622 145.86 135.92C145.729 136.216 145.664 136.563 145.664 136.961C145.664 137.369 145.728 137.724 145.856 138.026C145.987 138.329 146.17 138.563 146.406 138.731C146.644 138.898 146.924 138.981 147.244 138.981C147.455 138.981 147.646 138.945 147.818 138.871C147.99 138.798 148.135 138.693 148.255 138.555C148.374 138.418 148.458 138.253 148.509 138.061H149.32C149.274 138.372 149.16 138.653 148.979 138.902C148.801 139.15 148.564 139.347 148.268 139.493C147.975 139.638 147.634 139.71 147.244 139.71ZM152.64 139.71C152.132 139.71 151.693 139.598 151.324 139.373C150.958 139.146 150.675 138.83 150.476 138.425C150.279 138.017 150.18 137.543 150.18 137.002C150.18 136.462 150.279 135.985 150.476 135.573C150.675 135.159 150.952 134.836 151.307 134.604C151.664 134.371 152.081 134.254 152.558 134.254C152.833 134.254 153.104 134.3 153.372 134.391C153.64 134.483 153.884 134.632 154.104 134.838C154.324 135.042 154.499 135.312 154.629 135.649C154.76 135.985 154.825 136.4 154.825 136.893V137.236H150.757V136.535H154.001C154.001 136.237 153.941 135.972 153.822 135.738C153.705 135.504 153.538 135.32 153.32 135.185C153.105 135.05 152.851 134.982 152.558 134.982C152.235 134.982 151.955 135.062 151.719 135.223C151.486 135.381 151.306 135.587 151.18 135.841C151.054 136.095 150.991 136.368 150.991 136.659V137.126C150.991 137.525 151.06 137.863 151.197 138.14C151.337 138.415 151.53 138.624 151.778 138.768C152.025 138.91 152.313 138.981 152.64 138.981C152.853 138.981 153.046 138.952 153.217 138.892C153.391 138.83 153.541 138.739 153.667 138.617C153.793 138.494 153.891 138.34 153.959 138.157L154.743 138.377C154.66 138.642 154.522 138.876 154.327 139.078C154.132 139.277 153.892 139.433 153.606 139.545C153.319 139.655 152.997 139.71 152.64 139.71Z" fill="#131313"/>
<path d="M102.647 165.584V147.993H103.774V165.584H102.647ZM105.897 153.621C105.833 153.021 105.563 152.553 105.086 152.219C104.615 151.885 104.001 151.717 103.245 151.717C102.714 151.717 102.258 151.798 101.877 151.958C101.497 152.118 101.206 152.336 101.005 152.611C100.803 152.886 100.7 153.199 100.696 153.552C100.696 153.845 100.762 154.1 100.895 154.315C101.032 154.53 101.218 154.713 101.451 154.865C101.685 155.011 101.944 155.135 102.228 155.236C102.512 155.336 102.798 155.421 103.087 155.49L104.406 155.82C104.938 155.943 105.448 156.111 105.939 156.321C106.433 156.532 106.875 156.798 107.265 157.118C107.659 157.439 107.97 157.826 108.199 158.28C108.428 158.733 108.543 159.265 108.543 159.874C108.543 160.698 108.332 161.425 107.911 162.052C107.489 162.675 106.88 163.163 106.083 163.516C105.29 163.864 104.331 164.038 103.204 164.038C102.109 164.038 101.158 163.868 100.352 163.529C99.5504 163.19 98.9228 162.696 98.4692 162.045C98.0203 161.395 97.7775 160.602 97.7409 159.668H100.249C100.286 160.158 100.437 160.566 100.702 160.891C100.968 161.216 101.314 161.459 101.74 161.619C102.171 161.78 102.652 161.86 103.183 161.86C103.737 161.86 104.223 161.777 104.64 161.612C105.061 161.443 105.391 161.209 105.629 160.911C105.868 160.609 105.989 160.256 105.993 159.853C105.989 159.487 105.881 159.184 105.671 158.946C105.46 158.703 105.164 158.502 104.784 158.342C104.408 158.177 103.969 158.03 103.465 157.902L101.864 157.489C100.705 157.192 99.7886 156.74 99.1152 156.136C98.4463 155.527 98.1119 154.718 98.1119 153.71C98.1119 152.881 98.3364 152.155 98.7853 151.532C99.2388 150.909 99.855 150.426 100.634 150.082C101.413 149.734 102.294 149.56 103.279 149.56C104.278 149.56 105.153 149.734 105.904 150.082C106.66 150.426 107.253 150.904 107.684 151.518C108.114 152.127 108.337 152.828 108.35 153.621H105.897ZM115.918 149.752V163.825H113.369V152.233H113.286L109.995 154.335V151.999L113.493 149.752H115.918ZM121.181 161.901L121.091 162.657C121.027 163.234 120.913 163.82 120.748 164.416C120.588 165.016 120.418 165.568 120.239 166.072C120.061 166.576 119.916 166.972 119.806 167.261H118.13C118.194 166.981 118.281 166.601 118.391 166.12C118.505 165.639 118.615 165.098 118.721 164.498C118.826 163.898 118.897 163.289 118.934 162.671L118.982 161.901H121.181ZM123.456 163.825V161.983L128.341 157.194C128.809 156.722 129.198 156.303 129.51 155.937C129.821 155.57 130.055 155.215 130.211 154.871C130.366 154.528 130.444 154.161 130.444 153.772C130.444 153.328 130.343 152.947 130.142 152.631C129.94 152.311 129.663 152.063 129.31 151.889C128.958 151.715 128.557 151.628 128.108 151.628C127.645 151.628 127.24 151.724 126.892 151.917C126.543 152.105 126.273 152.373 126.081 152.721C125.893 153.069 125.799 153.483 125.799 153.964H123.373C123.373 153.071 123.577 152.295 123.985 151.635C124.393 150.975 124.954 150.465 125.669 150.103C126.388 149.741 127.212 149.56 128.142 149.56C129.086 149.56 129.915 149.736 130.63 150.089C131.344 150.442 131.899 150.925 132.293 151.539C132.691 152.153 132.89 152.854 132.89 153.641C132.89 154.168 132.79 154.686 132.588 155.194C132.386 155.703 132.031 156.266 131.523 156.885C131.019 157.503 130.311 158.252 129.4 159.132L126.974 161.599V161.695H133.103V163.825H123.456ZM140.192 164.093C139.061 164.093 138.089 163.807 137.279 163.234C136.472 162.657 135.852 161.825 135.416 160.74C134.986 159.649 134.77 158.337 134.77 156.802C134.775 155.268 134.993 153.962 135.423 152.886C135.858 151.804 136.479 150.98 137.285 150.412C138.096 149.844 139.065 149.56 140.192 149.56C141.319 149.56 142.288 149.844 143.099 150.412C143.909 150.98 144.53 151.804 144.961 152.886C145.396 153.967 145.614 155.272 145.614 156.802C145.614 158.342 145.396 159.656 144.961 160.747C144.53 161.832 143.909 162.661 143.099 163.234C142.292 163.807 141.323 164.093 140.192 164.093ZM140.192 161.942C141.072 161.942 141.766 161.509 142.274 160.643C142.787 159.773 143.044 158.493 143.044 156.802C143.044 155.685 142.927 154.745 142.693 153.985C142.46 153.225 142.13 152.652 141.704 152.267C141.278 151.878 140.774 151.683 140.192 151.683C139.317 151.683 138.625 152.118 138.117 152.989C137.608 153.854 137.352 155.126 137.347 156.802C137.343 157.925 137.455 158.868 137.684 159.633C137.918 160.398 138.247 160.976 138.673 161.365C139.099 161.75 139.606 161.942 140.192 161.942ZM152.615 164.093C151.483 164.093 150.512 163.807 149.701 163.234C148.895 162.657 148.274 161.825 147.839 160.74C147.408 159.649 147.193 158.337 147.193 156.802C147.198 155.268 147.415 153.962 147.846 152.886C148.281 151.804 148.902 150.98 149.708 150.412C150.519 149.844 151.488 149.56 152.615 149.56C153.741 149.56 154.71 149.844 155.521 150.412C156.332 150.98 156.953 151.804 157.383 152.886C157.819 153.967 158.036 155.272 158.036 156.802C158.036 158.342 157.819 159.656 157.383 160.747C156.953 161.832 156.332 162.661 155.521 163.234C154.715 163.807 153.746 164.093 152.615 164.093ZM152.615 161.942C153.494 161.942 154.188 161.509 154.697 160.643C155.21 159.773 155.466 158.493 155.466 156.802C155.466 155.685 155.349 154.745 155.116 153.985C154.882 153.225 154.552 152.652 154.126 152.267C153.7 151.878 153.196 151.683 152.615 151.683C151.74 151.683 151.048 152.118 150.539 152.989C150.031 153.854 149.774 155.126 149.77 156.802C149.765 157.925 149.877 158.868 150.106 159.633C150.34 160.398 150.67 160.976 151.096 161.365C151.522 161.75 152.028 161.942 152.615 161.942Z" fill="#131313"/>
<rect x="96.8613" y="192.912" width="41.28" height="120.938" rx="9.675" fill="#0054F9" fill-opacity="0.12"/>
<rect x="141.366" y="207.425" width="41.28" height="106.425" rx="9.675" fill="#0054F9" fill-opacity="0.12"/>
<rect x="185.871" y="181.625" width="41.28" height="132.225" rx="9.675" fill="#0054F9"/>
<rect x="274.881" y="189.687" width="41.28" height="124.162" rx="9.675" fill="#0054F9" fill-opacity="0.12"/>
</g>
</g>
<defs>
<filter id="filter0_d_2166_34291" x="55.7336" y="10.2228" width="301.554" height="363.204" filterUnits="userSpaceOnUse" color-interpolation-filters="sRGB">
<feFlood flood-opacity="0" result="BackgroundImageFix"/>
<feColorMatrix in="SourceAlpha" type="matrix" values="0 0 0 0 0 0 0 0 0 0 0 0 0 0 0 0 0 0 127 0" result="hardAlpha"/>
<feOffset/>
<feGaussianBlur stdDeviation="10.8886"/>
<feComposite in2="hardAlpha" operator="out"/>
<feColorMatrix type="matrix" values="0 0 0 0 0 0 0 0 0 0 0 0 0 0 0 0 0 0 0.05 0"/>
<feBlend mode="normal" in2="BackgroundImageFix" result="effect1_dropShadow_2166_34291"/>
<feBlend mode="normal" in="SourceGraphic" in2="effect1_dropShadow_2166_34291" result="shape"/>
</filter>
<clipPath id="clip0_2166_34291">
<rect width="414" height="220" fill="white"/>
</clipPath>
</defs>
</svg>
