<svg width="414" height="220" viewBox="0 0 414 220" fill="none" xmlns="http://www.w3.org/2000/svg">
<g clip-path="url(#clip0_2166_34227)">
<g filter="url(#filter0_d_2166_34227)">
<rect x="44.0225" y="32" width="324.977" height="236.503" rx="20.1939" fill="white" shape-rendering="crispEdges"/>
<rect x="44.5225" y="32.5" width="323.977" height="235.503" rx="19.6939" stroke="black" stroke-opacity="0.08" shape-rendering="crispEdges"/>
<path d="M59.7791 64.7515V51.8562H68.2778V53.6737H61.8216V57.3778H67.9317V59.1953H61.8216V62.934H68.2778V64.7515H59.7791ZM68.5303 64.7515L71.8017 60.0607L68.5303 55.3873H70.8324L73.5153 59.2991H72.4075L75.0904 55.3873H77.3925L74.1038 60.0607L77.3752 64.7515H75.0731L72.4248 60.8223H73.498L70.8324 64.7515H68.5303ZM78.2088 68.2133V55.3873H80.0782V57.3259L79.8531 56.8758C80.1993 56.345 80.6609 55.9296 81.2379 55.6296C81.8148 55.3296 82.4726 55.1796 83.2111 55.1796C84.0996 55.1796 84.8958 55.393 85.5997 55.82C86.3152 56.2469 86.8748 56.8297 87.2787 57.5682C87.6941 58.3067 87.9018 59.1376 87.9018 60.0607C87.9018 60.9839 87.6941 61.8147 87.2787 62.5532C86.8748 63.2917 86.321 63.8802 85.6171 64.3187C84.9132 64.7457 84.1112 64.9592 83.2111 64.9592C82.4841 64.9592 81.8206 64.8092 81.2206 64.5091C80.632 64.2091 80.1762 63.7764 79.8531 63.211L80.1647 62.8475V68.2133H78.2088ZM83.0207 63.1417C83.5746 63.1417 84.065 63.009 84.492 62.7436C84.9189 62.4782 85.2536 62.1147 85.4959 61.6531C85.7498 61.18 85.8767 60.6492 85.8767 60.0607C85.8767 59.4722 85.7498 58.9472 85.4959 58.4856C85.2536 58.024 84.9189 57.6605 84.492 57.3951C84.065 57.1297 83.5746 56.997 83.0207 56.997C82.4783 56.997 81.9879 57.1297 81.5494 57.3951C81.1225 57.6605 80.7821 58.024 80.5282 58.4856C80.2859 58.9472 80.1647 59.4722 80.1647 60.0607C80.1647 60.6492 80.2859 61.18 80.5282 61.6531C80.7821 62.1147 81.1225 62.4782 81.5494 62.7436C81.9879 63.009 82.4783 63.1417 83.0207 63.1417ZM93.6817 64.9592C92.747 64.9592 91.9162 64.7457 91.1892 64.3187C90.4738 63.8802 89.9141 63.2917 89.5102 62.5532C89.1064 61.8032 88.9044 60.9666 88.9044 60.0434C88.9044 59.0972 89.1064 58.2606 89.5102 57.5336C89.9257 56.8066 90.4795 56.2354 91.1719 55.82C91.8643 55.393 92.6489 55.1796 93.5259 55.1796C94.2298 55.1796 94.8587 55.3007 95.4126 55.543C95.9665 55.7854 96.4339 56.12 96.8147 56.547C97.1955 56.9624 97.4839 57.4413 97.6801 57.9836C97.8878 58.526 97.9917 59.1029 97.9917 59.7145C97.9917 59.8645 97.9859 60.0203 97.9744 60.1819C97.9628 60.3434 97.9398 60.4934 97.9051 60.6319H90.4449V59.0741H96.7974L95.8627 59.7838C95.9781 59.2183 95.9377 58.7164 95.7415 58.2779C95.5569 57.8278 95.2684 57.4759 94.876 57.222C94.4952 56.9566 94.0452 56.8239 93.5259 56.8239C93.0067 56.8239 92.5451 56.9566 92.1412 57.222C91.7373 57.4759 91.4258 57.8451 91.2065 58.3298C90.9873 58.8029 90.9007 59.3799 90.9469 60.0607C90.8892 60.6954 90.9757 61.2493 91.2065 61.7224C91.4489 62.1955 91.7835 62.5648 92.2105 62.8302C92.6489 63.0956 93.1451 63.2283 93.699 63.2283C94.2645 63.2283 94.7433 63.1013 95.1357 62.8475C95.5396 62.5936 95.8569 62.2647 96.0877 61.8609L97.6801 62.6398C97.4955 63.0783 97.207 63.4764 96.8147 63.8341C96.4339 64.1803 95.9723 64.4572 95.4299 64.6649C94.8991 64.8611 94.3164 64.9592 93.6817 64.9592ZM99.3813 64.7515V55.3873H101.251V57.222L101.026 56.9797C101.256 56.3912 101.626 55.9469 102.133 55.6469C102.641 55.3353 103.23 55.1796 103.899 55.1796C104.591 55.1796 105.203 55.3296 105.734 55.6296C106.265 55.9296 106.68 56.345 106.98 56.8758C107.28 57.4067 107.43 58.0182 107.43 58.7106V64.7515H105.491V59.2299C105.491 58.7568 105.405 58.3587 105.232 58.0355C105.059 57.7009 104.811 57.447 104.487 57.274C104.176 57.0893 103.818 56.997 103.414 56.997C103.01 56.997 102.647 57.0893 102.324 57.274C102.012 57.447 101.77 57.7009 101.597 58.0355C101.424 58.3702 101.337 58.7683 101.337 59.2299V64.7515H99.3813ZM112.466 64.9592C111.508 64.9592 110.666 64.7226 109.939 64.2495C109.223 63.7764 108.721 63.1417 108.433 62.3455L109.939 61.6358C110.193 62.1666 110.539 62.5878 110.977 62.8994C111.427 63.211 111.923 63.3667 112.466 63.3667C112.927 63.3667 113.302 63.2629 113.591 63.0552C113.879 62.8475 114.024 62.5648 114.024 62.207C114.024 61.9762 113.96 61.7916 113.833 61.6531C113.706 61.5031 113.545 61.382 113.349 61.2897C113.164 61.1973 112.974 61.1281 112.777 61.0819L111.306 60.6665C110.498 60.4357 109.893 60.0896 109.489 59.628C109.096 59.1549 108.9 58.6067 108.9 57.9836C108.9 57.4182 109.044 56.9278 109.333 56.5124C109.621 56.0854 110.019 55.7565 110.527 55.5257C111.035 55.2949 111.606 55.1796 112.241 55.1796C113.095 55.1796 113.856 55.393 114.526 55.82C115.195 56.2354 115.668 56.8181 115.945 57.5682L114.439 58.2779C114.254 57.8278 113.96 57.4701 113.556 57.2047C113.164 56.9393 112.72 56.8066 112.224 56.8066C111.797 56.8066 111.456 56.9105 111.202 57.1182C110.948 57.3143 110.821 57.574 110.821 57.8971C110.821 58.1163 110.879 58.301 110.995 58.451C111.11 58.5894 111.26 58.7048 111.445 58.7971C111.629 58.8779 111.82 58.9472 112.016 59.0049L113.539 59.4549C114.312 59.6741 114.906 60.0203 115.322 60.4934C115.737 60.955 115.945 61.5089 115.945 62.1551C115.945 62.709 115.795 63.1994 115.495 63.6264C115.206 64.0418 114.803 64.3707 114.283 64.613C113.764 64.8438 113.158 64.9592 112.466 64.9592ZM121.739 64.9592C120.804 64.9592 119.973 64.7457 119.246 64.3187C118.531 63.8802 117.971 63.2917 117.567 62.5532C117.163 61.8032 116.961 60.9666 116.961 60.0434C116.961 59.0972 117.163 58.2606 117.567 57.5336C117.983 56.8066 118.536 56.2354 119.229 55.82C119.921 55.393 120.706 55.1796 121.583 55.1796C122.287 55.1796 122.916 55.3007 123.47 55.543C124.023 55.7854 124.491 56.12 124.872 56.547C125.252 56.9624 125.541 57.4413 125.737 57.9836C125.945 58.526 126.049 59.1029 126.049 59.7145C126.049 59.8645 126.043 60.0203 126.031 60.1819C126.02 60.3434 125.997 60.4934 125.962 60.6319H118.502V59.0741H124.854L123.92 59.7838C124.035 59.2183 123.995 58.7164 123.798 58.2779C123.614 57.8278 123.325 57.4759 122.933 57.222C122.552 56.9566 122.102 56.8239 121.583 56.8239C121.064 56.8239 120.602 56.9566 120.198 57.222C119.794 57.4759 119.483 57.8451 119.263 58.3298C119.044 58.8029 118.958 59.3799 119.004 60.0607C118.946 60.6954 119.033 61.2493 119.263 61.7224C119.506 62.1955 119.84 62.5648 120.267 62.8302C120.706 63.0956 121.202 63.2283 121.756 63.2283C122.321 63.2283 122.8 63.1013 123.193 62.8475C123.596 62.5936 123.914 62.2647 124.145 61.8609L125.737 62.6398C125.552 63.0783 125.264 63.4764 124.872 63.8341C124.491 64.1803 124.029 64.4572 123.487 64.6649C122.956 64.8611 122.373 64.9592 121.739 64.9592ZM130.9 64.9592C129.942 64.9592 129.1 64.7226 128.373 64.2495C127.657 63.7764 127.155 63.1417 126.867 62.3455L128.373 61.6358C128.627 62.1666 128.973 62.5878 129.411 62.8994C129.861 63.211 130.358 63.3667 130.9 63.3667C131.362 63.3667 131.737 63.2629 132.025 63.0552C132.314 62.8475 132.458 62.5648 132.458 62.207C132.458 61.9762 132.394 61.7916 132.267 61.6531C132.14 61.5031 131.979 61.382 131.783 61.2897C131.598 61.1973 131.408 61.1281 131.212 61.0819L129.74 60.6665C128.933 60.4357 128.327 60.0896 127.923 59.628C127.53 59.1549 127.334 58.6067 127.334 57.9836C127.334 57.4182 127.479 56.9278 127.767 56.5124C128.056 56.0854 128.454 55.7565 128.961 55.5257C129.469 55.2949 130.04 55.1796 130.675 55.1796C131.529 55.1796 132.29 55.393 132.96 55.82C133.629 56.2354 134.102 56.8181 134.379 57.5682L132.873 58.2779C132.689 57.8278 132.394 57.4701 131.99 57.2047C131.598 56.9393 131.154 56.8066 130.658 56.8066C130.231 56.8066 129.89 56.9105 129.636 57.1182C129.383 57.3143 129.256 57.574 129.256 57.8971C129.256 58.1163 129.313 58.301 129.429 58.451C129.544 58.5894 129.694 58.7048 129.879 58.7971C130.063 58.8779 130.254 58.9472 130.45 59.0049L131.973 59.4549C132.746 59.6741 133.341 60.0203 133.756 60.4934C134.171 60.955 134.379 61.5089 134.379 62.1551C134.379 62.709 134.229 63.1994 133.929 63.6264C133.641 64.0418 133.237 64.3707 132.717 64.613C132.198 64.8438 131.592 64.9592 130.9 64.9592Z" fill="black"/>
<rect x="289.284" y="46.4243" width="65.2909" height="21.6545" rx="10.8273" fill="#F3F4F7"/>
<path d="M303.281 54.7625V60.7515H302.494V56.2857L300.503 60.7515H299.949L297.95 56.2771V60.7515H297.162V54.7625H298.011L300.226 59.7129L302.442 54.7625H303.281ZM306.685 60.8294C306.241 60.8294 305.837 60.7284 305.474 60.5264C305.116 60.3245 304.833 60.0389 304.626 59.6696C304.424 59.2946 304.323 58.8619 304.323 58.3715C304.323 57.8868 304.426 57.4599 304.634 57.0906C304.848 56.7156 305.136 56.43 305.5 56.2338C305.863 56.0319 306.27 55.9309 306.72 55.9309C307.17 55.9309 307.577 56.0319 307.94 56.2338C308.304 56.43 308.589 56.7127 308.797 57.0819C309.01 57.4512 309.117 57.881 309.117 58.3715C309.117 58.8619 309.008 59.2946 308.788 59.6696C308.575 60.0389 308.284 60.3245 307.914 60.5264C307.545 60.7284 307.135 60.8294 306.685 60.8294ZM306.685 60.137C306.968 60.137 307.233 60.0706 307.482 59.9379C307.73 59.8052 307.929 59.6062 308.079 59.3408C308.234 59.0754 308.312 58.7523 308.312 58.3715C308.312 57.9907 308.237 57.6676 308.087 57.4022C307.937 57.1368 307.741 56.9406 307.499 56.8137C307.257 56.681 306.994 56.6146 306.711 56.6146C306.423 56.6146 306.157 56.681 305.915 56.8137C305.679 56.9406 305.488 57.1368 305.344 57.4022C305.2 57.6676 305.128 57.9907 305.128 58.3715C305.128 58.758 305.197 59.084 305.335 59.3494C305.479 59.6148 305.67 59.8139 305.906 59.9466C306.143 60.0735 306.403 60.137 306.685 60.137ZM312.464 55.9222C313.04 55.9222 313.508 56.0982 313.866 56.4502C314.223 56.7963 314.402 57.2983 314.402 57.9561V60.7515H313.623V58.0686C313.623 57.5954 313.505 57.2348 313.268 56.9867C313.032 56.7329 312.709 56.6059 312.299 56.6059C311.884 56.6059 311.552 56.7358 311.304 56.9954C311.061 57.255 310.94 57.6329 310.94 58.1291V60.7515H310.153V56.0088H310.94V56.6838C311.096 56.4415 311.307 56.254 311.572 56.1213C311.843 55.9886 312.14 55.9222 312.464 55.9222ZM316.649 56.6579V59.4533C316.649 59.6841 316.698 59.8485 316.796 59.9466C316.894 60.0389 317.065 60.0851 317.307 60.0851H317.887V60.7515H317.177C316.739 60.7515 316.41 60.6505 316.191 60.4486C315.971 60.2466 315.862 59.9149 315.862 59.4533V56.6579H315.247V56.0088H315.862V54.8145H316.649V56.0088H317.887V56.6579H316.649ZM321.195 55.9222C321.553 55.9222 321.876 56.0001 322.164 56.1559C322.453 56.3059 322.678 56.5338 322.839 56.8396C323.007 57.1454 323.09 57.5176 323.09 57.9561V60.7515H322.312V58.0686C322.312 57.5954 322.193 57.2348 321.957 56.9867C321.72 56.7329 321.397 56.6059 320.987 56.6059C320.572 56.6059 320.24 56.7358 319.992 56.9954C319.75 57.255 319.629 57.6329 319.629 58.1291V60.7515H318.841V54.3471H319.629V56.6838C319.784 56.4415 319.998 56.254 320.269 56.1213C320.546 55.9886 320.855 55.9222 321.195 55.9222ZM325.164 54.3471V60.7515H324.377V54.3471H325.164ZM330.592 56.0088L327.736 62.9843H326.922L327.857 60.6995L325.944 56.0088H326.818L328.307 59.8514L329.778 56.0088H330.592Z" fill="#787878"/>
<path d="M337.784 55.785L340.919 58.9198C341.289 59.2901 341.895 59.2901 342.266 58.9198L345.4 55.785" stroke="#787878" stroke-width="0.786775" stroke-miterlimit="10" stroke-linecap="round" stroke-linejoin="round"/>
<path d="M71.653 120.838C69.5567 120.838 67.6979 120.418 66.0768 119.58C64.4836 118.741 63.2258 117.609 62.3035 116.184C61.4091 114.73 60.9618 113.109 60.9618 111.32C60.9618 109.308 61.5209 107.547 62.6389 106.038C63.7569 104.528 65.2942 103.452 67.2507 102.809L67.1669 103.858C65.6855 103.271 64.5255 102.334 63.687 101.049C62.8765 99.7349 62.4712 98.3234 62.4712 96.814C62.4712 95.2208 62.8625 93.8093 63.6451 92.5795C64.4557 91.3497 65.5457 90.3854 66.9153 89.6866C68.3129 88.9599 69.8921 88.5965 71.653 88.5965C73.4138 88.5965 74.9791 88.9459 76.3487 89.6447C77.7182 90.3435 78.7943 91.3217 79.577 92.5795C80.3875 93.8093 80.7928 95.2208 80.7928 96.814C80.7928 98.4072 80.3596 99.8327 79.4931 101.09C78.6546 102.348 77.5366 103.285 76.139 103.9L76.0133 102.809C77.9977 103.452 79.549 104.542 80.667 106.08C81.7851 107.589 82.3441 109.336 82.3441 111.32C82.3441 113.109 81.8829 114.73 80.9605 116.184C80.0661 117.609 78.8083 118.741 77.1872 119.58C75.594 120.418 73.7493 120.838 71.653 120.838ZM71.653 117.274C72.9666 117.274 74.1126 117.022 75.0909 116.519C76.0692 116.016 76.8238 115.317 77.3549 114.423C77.9139 113.501 78.1934 112.452 78.1934 111.278C78.1934 110.077 77.9139 109.028 77.3549 108.134C76.8238 107.212 76.0692 106.513 75.0909 106.038C74.1126 105.535 72.9666 105.283 71.653 105.283C70.3393 105.283 69.1793 105.535 68.1731 106.038C67.1948 106.513 66.4402 107.212 65.9091 108.134C65.378 109.028 65.1125 110.077 65.1125 111.278C65.1125 112.452 65.378 113.501 65.9091 114.423C66.4402 115.317 67.1948 116.016 68.1731 116.519C69.1793 117.022 70.3393 117.274 71.653 117.274ZM71.653 101.719C72.6033 101.719 73.4418 101.51 74.1685 101.09C74.9232 100.671 75.5241 100.112 75.9713 99.4134C76.4185 98.6867 76.6421 97.8482 76.6421 96.8979C76.6421 95.9476 76.4185 95.123 75.9713 94.4242C75.5241 93.7255 74.9232 93.1804 74.1685 92.7891C73.4418 92.3699 72.6033 92.1602 71.653 92.1602C70.6747 92.1602 69.8082 92.3699 69.0535 92.7891C68.2989 93.1804 67.6979 93.7255 67.2507 94.4242C66.8035 95.123 66.5799 95.9476 66.5799 96.8979C66.5799 97.8482 66.8035 98.6867 67.2507 99.4134C67.6979 100.112 68.2989 100.671 69.0535 101.09C69.8082 101.51 70.6747 101.719 71.653 101.719ZM97.3915 120.838C95.7704 120.838 94.2471 120.558 92.8216 119.999C91.3961 119.412 90.1523 118.588 89.0902 117.525C88.056 116.435 87.3014 115.164 86.8262 113.71L90.1803 112.285C90.7672 113.822 91.7176 115.024 93.0312 115.89C94.3729 116.729 95.8263 117.148 97.3915 117.148C98.6773 117.148 99.8093 116.869 100.788 116.31C101.794 115.723 102.576 114.926 103.135 113.92C103.694 112.886 103.974 111.74 103.974 110.482C103.974 109.168 103.68 108.008 103.093 107.002C102.534 105.996 101.766 105.213 100.788 104.654C99.8093 104.067 98.6912 103.774 97.4335 103.774C96.1477 103.774 94.9738 104.067 93.9117 104.654C92.8496 105.241 92.0809 105.982 91.6058 106.876L88.2936 106.164L90.6834 89.0997H106.867V92.6634H92.2347L93.8278 91.0702L91.9831 104.319L90.5576 103.48C91.48 102.306 92.5561 101.468 93.7859 100.965C95.0437 100.434 96.3993 100.168 97.8527 100.168C99.8931 100.168 101.682 100.629 103.219 101.552C104.757 102.474 105.958 103.704 106.825 105.241C107.691 106.778 108.125 108.525 108.125 110.482C108.125 112.438 107.649 114.199 106.699 115.765C105.777 117.33 104.505 118.574 102.884 119.496C101.291 120.39 99.4599 120.838 97.3915 120.838ZM116.644 120.334L142.135 89.0997H146.789L121.298 120.334H116.644ZM121.34 104.948C119.803 104.948 118.419 104.584 117.189 103.858C115.96 103.103 114.967 102.111 114.213 100.881C113.486 99.651 113.123 98.2814 113.123 96.7721C113.123 95.2628 113.486 93.8932 114.213 92.6634C114.967 91.4056 115.96 90.4133 117.189 89.6866C118.419 88.9599 119.803 88.5965 121.34 88.5965C122.849 88.5965 124.219 88.9599 125.449 89.6866C126.679 90.4133 127.657 91.4056 128.384 92.6634C129.11 93.8932 129.474 95.2628 129.474 96.7721C129.474 98.2814 129.11 99.651 128.384 100.881C127.657 102.111 126.679 103.103 125.449 103.858C124.219 104.584 122.849 104.948 121.34 104.948ZM121.298 101.51C122.248 101.51 123.059 101.286 123.73 100.839C124.401 100.392 124.932 99.8047 125.323 99.078C125.714 98.3513 125.91 97.5827 125.91 96.7721C125.91 95.9336 125.714 95.1649 125.323 94.4662C124.932 93.7395 124.401 93.1525 123.73 92.7053C123.059 92.2301 122.248 91.9925 121.298 91.9925C120.404 91.9925 119.607 92.2301 118.908 92.7053C118.21 93.1525 117.665 93.7395 117.273 94.4662C116.882 95.1929 116.686 95.9615 116.686 96.7721C116.686 97.5547 116.882 98.3234 117.273 99.078C117.665 99.8047 118.21 100.392 118.908 100.839C119.607 101.286 120.404 101.51 121.298 101.51ZM141.842 120.838C140.305 120.838 138.921 120.474 137.691 119.748C136.461 118.993 135.469 118.001 134.714 116.771C133.988 115.541 133.624 114.171 133.624 112.662C133.624 111.153 133.988 109.783 134.714 108.553C135.469 107.296 136.461 106.303 137.691 105.577C138.921 104.85 140.305 104.486 141.842 104.486C143.351 104.486 144.721 104.85 145.951 105.577C147.18 106.303 148.159 107.296 148.885 108.553C149.612 109.783 149.975 111.153 149.975 112.662C149.975 114.171 149.612 115.541 148.885 116.771C148.159 118.001 147.18 118.993 145.951 119.748C144.721 120.474 143.351 120.838 141.842 120.838ZM141.842 117.4C142.764 117.4 143.561 117.176 144.232 116.729C144.93 116.282 145.461 115.695 145.825 114.968C146.216 114.241 146.412 113.473 146.412 112.662C146.412 111.824 146.216 111.055 145.825 110.356C145.461 109.629 144.93 109.042 144.232 108.595C143.561 108.12 142.764 107.882 141.842 107.882C140.947 107.882 140.137 108.12 139.41 108.595C138.711 109.042 138.166 109.629 137.775 110.356C137.384 111.083 137.188 111.851 137.188 112.662C137.188 113.445 137.384 114.213 137.775 114.968C138.166 115.695 138.711 116.282 139.41 116.729C140.137 117.176 140.947 117.4 141.842 117.4Z" fill="#0054F9"/>
<rect opacity="0.12" x="58.4463" y="195.381" width="34.8387" height="58.6963" rx="17.4194" fill="#0054F9"/>
<rect x="58.4463" y="212.151" width="34.8387" height="41.9259" rx="17.4194" fill="#0054F9"/>
<rect opacity="0.12" x="110.704" y="172.323" width="34.8387" height="81.7556" rx="17.4194" fill="#0054F9"/>
<rect x="110.704" y="195.381" width="34.8387" height="58.6963" rx="17.4194" fill="#0054F9"/>
<rect opacity="0.12" x="162.962" y="192.239" width="34.8387" height="61.8407" rx="17.4194" fill="#0054F9"/>
<rect x="162.962" y="214.248" width="34.8387" height="39.8296" rx="17.4194" fill="#0054F9"/>
<rect opacity="0.12" x="215.221" y="201.668" width="34.8387" height="52.4074" rx="17.4194" fill="#0054F9"/>
<rect x="215.221" y="214.246" width="34.8387" height="39.8296" rx="17.4194" fill="#0054F9"/>
<rect opacity="0.12" x="267.478" y="163.938" width="34.8387" height="90.1407" rx="17.4194" fill="#0054F9"/>
<rect x="267.478" y="189.092" width="34.8387" height="64.9852" rx="17.4194" fill="#0054F9"/>
<rect opacity="0.12" x="319.736" y="150.311" width="34.8387" height="103.767" rx="17.4194" fill="#0054F9"/>
<rect x="319.736" y="174.416" width="34.8387" height="79.6593" rx="17.4194" fill="#0054F9"/>
</g>
</g>
<defs>
<filter id="filter0_d_2166_34227" x="0.069725" y="-11.9527" width="412.883" height="324.409" filterUnits="userSpaceOnUse" color-interpolation-filters="sRGB">
<feFlood flood-opacity="0" result="BackgroundImageFix"/>
<feColorMatrix in="SourceAlpha" type="matrix" values="0 0 0 0 0 0 0 0 0 0 0 0 0 0 0 0 0 0 127 0" result="hardAlpha"/>
<feOffset/>
<feGaussianBlur stdDeviation="21.9764"/>
<feComposite in2="hardAlpha" operator="out"/>
<feColorMatrix type="matrix" values="0 0 0 0 0 0 0 0 0 0 0 0 0 0 0 0 0 0 0.07 0"/>
<feBlend mode="normal" in2="BackgroundImageFix" result="effect1_dropShadow_2166_34227"/>
<feBlend mode="normal" in="SourceGraphic" in2="effect1_dropShadow_2166_34227" result="shape"/>
</filter>
<clipPath id="clip0_2166_34227">
<rect width="414" height="220" fill="white"/>
</clipPath>
</defs>
</svg>
