<svg width="84" height="32" viewBox="0 0 84 32" fill="none" xmlns="http://www.w3.org/2000/svg">
<path d="M10 6C15.5228 6 20 10.4772 20 16C20 16.6409 19.9396 17.2676 19.8244 17.875H11.875V25.8244C11.2676 25.9396 10.6409 26 10 26C4.47715 26 0 21.5228 0 16C0 10.4772 4.47715 6 10 6ZM6.97917 8.08333C4.27527 8.08333 2.08333 10.2753 2.08333 12.9792C2.08333 15.6831 4.27527 17.875 6.97917 17.875H11.875V12.9792C11.875 10.2753 9.68306 8.08333 6.97917 8.08333Z" fill="#131313"/>
<path d="M37.992 25.252C36.616 25.252 35.404 24.86 34.356 24.076C33.316 23.292 32.5 22.204 31.908 20.812C31.324 19.412 31.032 17.8 31.032 15.976C31.032 14.12 31.332 12.48 31.932 11.056C32.532 9.624 33.36 8.504 34.416 7.696C35.472 6.88 36.684 6.472 38.052 6.472C38.812 6.472 39.548 6.6 40.26 6.856C40.972 7.104 41.616 7.464 42.192 7.936H42.264L43.188 6.724H43.56V12.232H42.936C42.832 11.792 42.712 11.396 42.576 11.044C42.448 10.692 42.312 10.368 42.168 10.072C41.712 9.176 41.18 8.536 40.572 8.152C39.972 7.768 39.252 7.576 38.412 7.576C36.86 7.576 35.664 8.284 34.824 9.7C33.992 11.116 33.576 13.148 33.576 15.796C33.576 18.444 33.996 20.492 34.836 21.94C35.684 23.388 36.876 24.112 38.412 24.112C39.172 24.112 39.856 23.924 40.464 23.548C41.08 23.164 41.596 22.604 42.012 21.868C42.244 21.452 42.444 20.98 42.612 20.452C42.788 19.924 42.92 19.348 43.008 18.724H43.56V25H43.08L42.216 23.44C41.536 24.072 40.856 24.532 40.176 24.82C39.504 25.108 38.776 25.252 37.992 25.252ZM46.5765 25.252C45.8965 25.252 45.3405 24.984 44.9085 24.448C44.4845 23.912 44.2725 23.216 44.2725 22.36C44.2725 21.304 44.6725 20.456 45.4725 19.816C46.2725 19.176 47.6245 18.612 49.5285 18.124V15.88C49.5285 14.864 49.4165 14.152 49.1925 13.744C48.9765 13.336 48.5965 13.132 48.0525 13.132C47.5245 13.132 47.1045 13.292 46.7925 13.612C46.4805 13.932 46.3245 14.364 46.3245 14.908C46.3245 15.06 46.3325 15.212 46.3485 15.364C46.3645 15.508 46.3725 15.648 46.3725 15.784C46.3725 16.192 46.2725 16.528 46.0725 16.792C45.8805 17.056 45.6325 17.188 45.3285 17.188C45.0565 17.188 44.8325 17.076 44.6565 16.852C44.4885 16.628 44.4045 16.336 44.4045 15.976C44.4045 15.456 44.5845 14.924 44.9445 14.38C45.3125 13.828 45.7925 13.356 46.3845 12.964C47.1845 12.436 48.0445 12.172 48.9645 12.172C49.5245 12.172 49.9965 12.28 50.3805 12.496C50.7725 12.712 51.0525 13.02 51.2205 13.42C51.3245 13.692 51.3925 14.036 51.4245 14.452C51.4645 14.868 51.4845 15.564 51.4845 16.54V21.904C51.4845 22.68 51.5325 23.208 51.6285 23.488C51.7325 23.768 51.9205 23.908 52.1925 23.908C52.5125 23.908 52.8165 23.684 53.1045 23.236L53.4525 23.644C53.1405 24.212 52.8205 24.624 52.4925 24.88C52.1725 25.128 51.7965 25.252 51.3645 25.252C50.8525 25.252 50.4525 25.076 50.1645 24.724C49.8765 24.372 49.6845 23.836 49.5885 23.116H49.5285C49.1605 23.772 48.7165 24.292 48.1965 24.676C47.6845 25.06 47.1445 25.252 46.5765 25.252ZM47.5365 23.728C47.9365 23.728 48.3085 23.6 48.6525 23.344C49.0045 23.08 49.2965 22.716 49.5285 22.252V18.868C48.6725 19.076 47.9965 19.304 47.5005 19.552C47.0125 19.8 46.6685 20.104 46.4685 20.464C46.2685 20.816 46.1685 21.26 46.1685 21.796C46.1685 23.084 46.6245 23.728 47.5365 23.728ZM56.0655 25.252C55.3535 25.252 54.8095 25 54.4335 24.496C54.0655 23.992 53.8815 23.268 53.8815 22.324V13.3H52.6335L52.5735 12.868L55.4535 9.292L55.8255 9.34V12.412H58.5735L58.4175 13.3H55.8255V22.084C55.8255 23.396 56.2055 24.052 56.9655 24.052C57.2215 24.052 57.4735 23.968 57.7215 23.8C57.9775 23.632 58.1935 23.4 58.3695 23.104L58.7055 23.476C58.4175 24.02 58.0375 24.452 57.5655 24.772C57.0935 25.092 56.5935 25.252 56.0655 25.252ZM60.6184 25.252C59.9384 25.252 59.3824 24.984 58.9504 24.448C58.5264 23.912 58.3144 23.216 58.3144 22.36C58.3144 21.304 58.7144 20.456 59.5144 19.816C60.3144 19.176 61.6664 18.612 63.5704 18.124V15.88C63.5704 14.864 63.4584 14.152 63.2344 13.744C63.0184 13.336 62.6384 13.132 62.0944 13.132C61.5664 13.132 61.1464 13.292 60.8344 13.612C60.5224 13.932 60.3664 14.364 60.3664 14.908C60.3664 15.06 60.3744 15.212 60.3904 15.364C60.4064 15.508 60.4144 15.648 60.4144 15.784C60.4144 16.192 60.3144 16.528 60.1144 16.792C59.9224 17.056 59.6744 17.188 59.3704 17.188C59.0984 17.188 58.8744 17.076 58.6984 16.852C58.5304 16.628 58.4464 16.336 58.4464 15.976C58.4464 15.456 58.6264 14.924 58.9864 14.38C59.3544 13.828 59.8344 13.356 60.4264 12.964C61.2264 12.436 62.0864 12.172 63.0064 12.172C63.5664 12.172 64.0384 12.28 64.4224 12.496C64.8144 12.712 65.0944 13.02 65.2624 13.42C65.3664 13.692 65.4344 14.036 65.4664 14.452C65.5064 14.868 65.5264 15.564 65.5264 16.54V21.904C65.5264 22.68 65.5744 23.208 65.6704 23.488C65.7744 23.768 65.9624 23.908 66.2344 23.908C66.5544 23.908 66.8584 23.684 67.1464 23.236L67.4944 23.644C67.1824 24.212 66.8624 24.624 66.5344 24.88C66.2144 25.128 65.8384 25.252 65.4064 25.252C64.8944 25.252 64.4944 25.076 64.2064 24.724C63.9184 24.372 63.7264 23.836 63.6304 23.116H63.5704C63.2024 23.772 62.7584 24.292 62.2384 24.676C61.7264 25.06 61.1864 25.252 60.6184 25.252ZM61.5784 23.728C61.9784 23.728 62.3504 23.6 62.6944 23.344C63.0464 23.08 63.3384 22.716 63.5704 22.252V18.868C62.7144 19.076 62.0384 19.304 61.5424 19.552C61.0544 19.8 60.7104 20.104 60.5104 20.464C60.3104 20.816 60.2104 21.26 60.2104 21.796C60.2104 23.084 60.6664 23.728 61.5784 23.728ZM66.5194 25V24.472L67.9834 24.1V7.42L66.5434 6.784V6.412L69.7354 5.284H69.9394V24.1L71.3794 24.472V25H66.5194ZM70.9307 25V24.472L72.3947 24.1V14.32L70.9547 13.684V13.312L74.1467 12.172H74.3627V24.1L75.8027 24.472V25H70.9307ZM73.3547 9.652C72.9627 9.652 72.6507 9.496 72.4187 9.184C72.1947 8.872 72.0827 8.508 72.0827 8.092C72.0827 7.636 72.1947 7.252 72.4187 6.94C72.6507 6.628 72.9627 6.472 73.3547 6.472C73.7547 6.472 74.0707 6.628 74.3027 6.94C74.5347 7.252 74.6507 7.636 74.6507 8.092C74.6507 8.508 74.5347 8.872 74.3027 9.184C74.0707 9.496 73.7547 9.652 73.3547 9.652ZM78.6146 25.252C78.2066 25.252 77.7546 25.2 77.2586 25.096C76.7626 25 76.3306 24.876 75.9626 24.724L75.8306 20.872H76.3346C76.4226 22.056 76.6666 22.952 77.0666 23.56C77.4746 24.16 78.0346 24.46 78.7466 24.46C79.3066 24.46 79.7506 24.268 80.0786 23.884C80.4146 23.492 80.5826 22.98 80.5826 22.348C80.5826 21.82 80.4586 21.368 80.2106 20.992C79.9626 20.608 79.5306 20.22 78.9146 19.828L78.1226 19.336C77.2986 18.824 76.7106 18.288 76.3586 17.728C76.0066 17.16 75.8306 16.476 75.8306 15.676C75.8306 14.556 76.1426 13.692 76.7666 13.084C77.3906 12.476 78.2826 12.172 79.4426 12.172C79.8906 12.172 80.3226 12.212 80.7386 12.292C81.1626 12.364 81.4946 12.464 81.7346 12.592V15.88H81.2906C81.1066 13.928 80.3786 12.952 79.1066 12.952C78.6186 12.952 78.2226 13.12 77.9186 13.456C77.6226 13.784 77.4746 14.232 77.4746 14.8C77.4746 15.296 77.6026 15.72 77.8586 16.072C78.1226 16.424 78.5666 16.788 79.1906 17.164L80.0546 17.692C80.8146 18.156 81.3586 18.668 81.6866 19.228C82.0226 19.788 82.1906 20.496 82.1906 21.352C82.1906 22.544 81.8706 23.492 81.2306 24.196C80.5906 24.9 79.7186 25.252 78.6146 25.252Z" fill="#1D1D1D"/>
</svg>
