<svg width="349" height="328" viewBox="0 0 349 328" fill="none" xmlns="http://www.w3.org/2000/svg">
<rect width="349" height="328" fill="white" fill-opacity="0.6"/>
<path d="M28.6366 43.2727C27.4396 43.2727 26.3259 43.053 25.2956 42.6136C24.2804 42.1742 23.394 41.5682 22.6364 40.7954C21.894 40.0075 21.3107 39.0833 20.8864 38.0226C20.4622 36.962 20.25 35.7953 20.25 34.5226C20.25 33.265 20.4546 32.1058 20.8637 31.0452C21.2879 29.9694 21.8788 29.0452 22.6364 28.2724C23.394 27.4845 24.2804 26.8785 25.2956 26.4542C26.3108 26.0148 27.4244 25.7951 28.6366 25.7951C29.8336 25.7951 30.9018 25.9996 31.8412 26.4087C32.7957 26.8178 33.5988 27.3557 34.2503 28.0224C34.9018 28.6739 35.3716 29.3861 35.6594 30.1588L33.2503 31.2952C32.8867 30.3861 32.3033 29.6512 31.5003 29.0906C30.7124 28.5149 29.7578 28.227 28.6366 28.227C27.5153 28.227 26.5229 28.4921 25.6592 29.0224C24.7956 29.5528 24.1213 30.2876 23.6365 31.227C23.1668 32.1664 22.9319 33.265 22.9319 34.5226C22.9319 35.7802 23.1668 36.8862 23.6365 37.8408C24.1213 38.7802 24.7956 39.5151 25.6592 40.0454C26.5229 40.5606 27.5153 40.8181 28.6366 40.8181C29.7578 40.8181 30.7124 40.5378 31.5003 39.9772C32.3033 39.4166 32.8867 38.6817 33.2503 37.7726L35.6594 38.909C35.3716 39.6666 34.9018 40.3787 34.2503 41.0454C33.5988 41.7121 32.7957 42.25 31.8412 42.6591C30.9018 43.0682 29.8336 43.2727 28.6366 43.2727ZM40.9454 43.2727C40.1121 43.2727 39.3772 43.1288 38.7408 42.8409C38.1196 42.5379 37.6347 42.1288 37.2862 41.6136C36.9378 41.0833 36.7635 40.4621 36.7635 39.7499C36.7635 39.0833 36.9074 38.4848 37.1953 37.9544C37.4984 37.4241 37.9605 36.9771 38.5817 36.6135C39.2029 36.2499 39.9833 35.9923 40.9227 35.8408L45.1955 35.1362V37.159L41.4227 37.8181C40.7409 37.9393 40.2409 38.159 39.9227 38.4772C39.6045 38.7802 39.4454 39.1742 39.4454 39.659C39.4454 40.1287 39.6196 40.5151 39.9681 40.8181C40.3318 41.106 40.7939 41.25 41.3545 41.25C42.0515 41.25 42.6576 41.0984 43.1727 40.7954C43.703 40.4924 44.1121 40.0908 44.4 39.5908C44.6879 39.0757 44.8319 38.5075 44.8319 37.8863V34.7271C44.8319 34.121 44.6046 33.6286 44.15 33.2498C43.7106 32.8559 43.1197 32.6589 42.3773 32.6589C41.6954 32.6589 41.0969 32.8407 40.5818 33.2043C40.0818 33.5528 39.7105 34.0074 39.4681 34.568L37.3317 33.4998C37.559 32.8937 37.9302 32.3634 38.4454 31.9089C38.9605 31.4392 39.559 31.0755 40.2409 30.8179C40.9378 30.5603 41.6727 30.4316 42.4454 30.4316C43.4152 30.4316 44.2712 30.6134 45.0137 30.977C45.7713 31.3407 46.3546 31.8483 46.7637 32.4998C47.188 33.1362 47.4001 33.8786 47.4001 34.7271V43H44.9455V40.7727L45.4682 40.8409C45.1803 41.3409 44.8091 41.7727 44.3546 42.1363C43.9152 42.5 43.4076 42.7803 42.8318 42.9773C42.2712 43.1742 41.6424 43.2727 40.9454 43.2727ZM49.7212 43V30.7043H52.1758V33.1816L51.9485 32.818C52.2212 32.0149 52.6606 31.4392 53.2667 31.0907C53.8728 30.727 54.6 30.5452 55.4486 30.5452H56.1986V32.8862H55.1304C54.2819 32.8862 53.5925 33.1513 53.0621 33.6816C52.547 34.1968 52.2894 34.9392 52.2894 35.9089V43H49.7212ZM62.9556 43.2727C61.7738 43.2727 60.7132 42.9924 59.7737 42.4318C58.8495 41.856 58.1146 41.0833 57.5692 40.1136C57.0388 39.1439 56.7737 38.0529 56.7737 36.8408C56.7737 35.6286 57.0464 34.5377 57.5919 33.568C58.1373 32.5983 58.8722 31.8331 59.7965 31.2725C60.7207 30.7119 61.7662 30.4316 62.9329 30.4316C63.9178 30.4316 64.789 30.6285 65.5466 31.0225C66.3042 31.4164 66.9027 31.9619 67.3421 32.6589L66.9557 33.2498V25.7951H69.5012V43H67.0694V40.4999L67.3648 40.9772C66.9406 41.7197 66.3345 42.2879 65.5466 42.6818C64.7587 43.0758 63.895 43.2727 62.9556 43.2727ZM63.2056 40.8863C63.9178 40.8863 64.5541 40.7121 65.1148 40.3636C65.6905 40.0151 66.1375 39.5378 66.4557 38.9317C66.789 38.3105 66.9557 37.6135 66.9557 36.8408C66.9557 36.068 66.789 35.3786 66.4557 34.7726C66.1375 34.1665 65.6905 33.6892 65.1148 33.3407C64.5541 32.9922 63.9178 32.818 63.2056 32.818C62.4935 32.818 61.8495 32.9922 61.2738 33.3407C60.698 33.6892 60.251 34.1665 59.9328 34.7726C59.6147 35.3786 59.4556 36.068 59.4556 36.8408C59.4556 37.6135 59.6147 38.3105 59.9328 38.9317C60.251 39.5378 60.6904 40.0151 61.251 40.3636C61.8268 40.7121 62.4783 40.8863 63.2056 40.8863ZM79.4952 43.2727C78.571 43.2727 77.7603 43.0682 77.0633 42.6591C76.3664 42.2348 75.8209 41.6515 75.4269 40.909C75.0482 40.1515 74.8588 39.2802 74.8588 38.2954V30.7043H77.427V38.0681C77.427 38.6287 77.5406 39.1211 77.7679 39.5454C77.9952 39.9696 78.3134 40.303 78.7225 40.5454C79.1316 40.7727 79.6013 40.8863 80.1316 40.8863C80.6771 40.8863 81.1543 40.7651 81.5634 40.5227C81.9725 40.2802 82.2907 39.9393 82.518 39.4999C82.7604 39.0605 82.8816 38.5454 82.8816 37.9544V30.7043H85.4272V43H82.9953V40.5909L83.268 40.909C82.9801 41.6666 82.5028 42.25 81.8362 42.6591C81.1695 43.0682 80.3892 43.2727 79.4952 43.2727ZM92.2895 43.2727C91.0319 43.2727 89.9258 42.9621 88.9713 42.3409C88.0318 41.7197 87.3727 40.8863 86.9939 39.8408L88.9713 38.909C89.3046 39.606 89.7592 40.159 90.3349 40.5681C90.9258 40.9772 91.5774 41.1818 92.2895 41.1818C92.8956 41.1818 93.388 41.0454 93.7668 40.7727C94.1456 40.4999 94.335 40.1287 94.335 39.659C94.335 39.356 94.2517 39.1136 94.085 38.9317C93.9183 38.7348 93.7062 38.5757 93.4486 38.4545C93.2062 38.3332 92.9562 38.2423 92.6986 38.1817L90.7667 37.6363C89.7061 37.3332 88.9106 36.8787 88.3803 36.2726C87.8652 35.6514 87.6076 34.9317 87.6076 34.1135C87.6076 33.371 87.797 32.7271 88.1758 32.1816C88.5546 31.621 89.0773 31.1891 89.744 30.8861C90.4107 30.5831 91.1607 30.4316 91.994 30.4316C93.1153 30.4316 94.1153 30.7119 94.9941 31.2725C95.8729 31.818 96.4941 32.5831 96.8578 33.568L94.8805 34.4998C94.638 33.9089 94.2517 33.4392 93.7214 33.0907C93.2062 32.7422 92.6228 32.568 91.9713 32.568C91.4107 32.568 90.9637 32.7043 90.6304 32.9771C90.297 33.2346 90.1304 33.5756 90.1304 33.9998C90.1304 34.2877 90.2061 34.5301 90.3576 34.7271C90.5092 34.9089 90.7061 35.0604 90.9486 35.1817C91.191 35.2877 91.441 35.3786 91.6986 35.4544L93.6986 36.0453C94.7138 36.3332 95.4941 36.7878 96.0396 37.409C96.585 38.015 96.8578 38.7423 96.8578 39.5908C96.8578 40.3181 96.6608 40.9621 96.2669 41.5227C95.8881 42.0682 95.3578 42.5 94.6759 42.8182C93.9941 43.1212 93.1986 43.2727 92.2895 43.2727ZM104.465 43.2727C103.238 43.2727 102.147 42.9924 101.192 42.4318C100.253 41.856 99.5181 41.0833 98.9878 40.1136C98.4575 39.1287 98.1923 38.0302 98.1923 36.8181C98.1923 35.5756 98.4575 34.4771 98.9878 33.5225C99.5333 32.568 100.261 31.818 101.17 31.2725C102.079 30.7119 103.109 30.4316 104.261 30.4316C105.185 30.4316 106.011 30.5907 106.738 30.9088C107.465 31.227 108.079 31.6664 108.579 32.227C109.079 32.7725 109.458 33.4013 109.715 34.1135C109.988 34.8256 110.124 35.5832 110.124 36.3862C110.124 36.5832 110.117 36.7878 110.102 36.9999C110.087 37.212 110.056 37.409 110.011 37.5908H100.215V35.5453H108.556L107.329 36.4771C107.48 35.7347 107.427 35.0756 107.17 34.4998C106.927 33.9089 106.549 33.4468 106.033 33.1134C105.533 32.7649 104.942 32.5907 104.261 32.5907C103.579 32.5907 102.973 32.7649 102.442 33.1134C101.912 33.4468 101.503 33.9316 101.215 34.568C100.927 35.1892 100.814 35.9468 100.874 36.8408C100.798 37.6741 100.912 38.4014 101.215 39.0226C101.533 39.6439 101.973 40.1287 102.533 40.4772C103.109 40.8257 103.761 41 104.488 41C105.23 41 105.859 40.8333 106.374 40.4999C106.905 40.1666 107.321 39.7348 107.624 39.2045L109.715 40.2272C109.473 40.803 109.094 41.3257 108.579 41.7954C108.079 42.25 107.473 42.6136 106.761 42.8864C106.064 43.1439 105.299 43.2727 104.465 43.2727ZM111.949 43V30.7043H114.404V33.1816L114.176 32.818C114.449 32.0149 114.888 31.4392 115.495 31.0907C116.101 30.727 116.828 30.5452 117.676 30.5452H118.426V32.8862H117.358C116.51 32.8862 115.82 33.1513 115.29 33.6816C114.775 34.1968 114.517 34.9392 114.517 35.9089V43H111.949Z" fill="#131313"/>
<rect x="244" y="19" width="86" height="29" rx="14.5" fill="#F3F4F7"/>
<path d="M262.909 29.1362V37H261.875V31.1362L259.261 37H258.534L255.909 31.1249V37H254.875V29.1362H255.989L258.898 35.6363L261.807 29.1362H262.909ZM267.379 37.1023C266.796 37.1023 266.265 36.9697 265.788 36.7045C265.318 36.4394 264.947 36.0644 264.674 35.5795C264.409 35.0871 264.277 34.5189 264.277 33.8749C264.277 33.2386 264.413 32.6779 264.686 32.1931C264.966 31.7006 265.345 31.3256 265.822 31.0681C266.299 30.8029 266.834 30.6703 267.424 30.6703C268.015 30.6703 268.549 30.8029 269.027 31.0681C269.504 31.3256 269.879 31.6969 270.152 32.1817C270.432 32.6666 270.572 33.231 270.572 33.8749C270.572 34.5189 270.428 35.0871 270.14 35.5795C269.86 36.0644 269.478 36.4394 268.993 36.7045C268.508 36.9697 267.97 37.1023 267.379 37.1023ZM267.379 36.1932C267.75 36.1932 268.099 36.106 268.424 35.9318C268.75 35.7576 269.012 35.4962 269.209 35.1477C269.413 34.7992 269.515 34.3749 269.515 33.8749C269.515 33.3749 269.417 32.9507 269.22 32.6022C269.023 32.2537 268.765 31.9961 268.447 31.8294C268.129 31.6552 267.784 31.5681 267.413 31.5681C267.034 31.5681 266.686 31.6552 266.368 31.8294C266.057 31.9961 265.807 32.2537 265.618 32.6022C265.428 32.9507 265.334 33.3749 265.334 33.8749C265.334 34.3825 265.424 34.8106 265.606 35.1591C265.796 35.5075 266.046 35.7689 266.356 35.9432C266.667 36.1098 267.008 36.1932 267.379 36.1932ZM274.966 30.659C275.724 30.659 276.337 30.89 276.807 31.3522C277.277 31.8067 277.512 32.4658 277.512 33.3295V37H276.489V33.4772C276.489 32.856 276.334 32.3825 276.023 32.0567C275.712 31.7234 275.288 31.5567 274.75 31.5567C274.205 31.5567 273.769 31.7272 273.443 32.0681C273.125 32.409 272.966 32.9052 272.966 33.5567V37H271.932V30.7726H272.966V31.659C273.171 31.3408 273.447 31.0946 273.796 30.9203C274.152 30.7461 274.542 30.659 274.966 30.659ZM280.462 31.6249V35.2954C280.462 35.5985 280.527 35.8144 280.655 35.9432C280.784 36.0644 281.008 36.125 281.326 36.125H282.087V37H281.155C280.58 37 280.148 36.8674 279.86 36.6023C279.572 36.3371 279.428 35.9015 279.428 35.2954V31.6249H278.621V30.7726H279.428V29.2044H280.462V30.7726H282.087V31.6249H280.462ZM286.431 30.659C286.901 30.659 287.325 30.7612 287.704 30.9658C288.083 31.1628 288.378 31.462 288.59 31.8635C288.81 32.2651 288.92 32.7537 288.92 33.3295V37H287.897V33.4772C287.897 32.856 287.742 32.3825 287.431 32.0567C287.121 31.7234 286.696 31.5567 286.158 31.5567C285.613 31.5567 285.177 31.7272 284.852 32.0681C284.533 32.409 284.374 32.9052 284.374 33.5567V37H283.34V28.5907H284.374V31.659C284.579 31.3408 284.859 31.0946 285.215 30.9203C285.579 30.7461 285.984 30.659 286.431 30.659ZM291.643 28.5907V37H290.609V28.5907H291.643ZM298.769 30.7726L295.019 39.9319H293.951L295.178 36.9318L292.667 30.7726H293.815L295.769 35.8182L297.701 30.7726H298.769Z" fill="#787878"/>
<path d="M307.55 31.5937L311.625 35.6687C312.106 36.15 312.894 36.15 313.375 35.6687L317.45 31.5937" stroke="#787878" stroke-width="1.03308" stroke-miterlimit="10" stroke-linecap="round" stroke-linejoin="round"/>
<path d="M279.067 151.561C284.471 146.744 284.979 138.418 279.743 133.418C274.507 128.419 266.208 129.306 261.639 134.921L242.942 157.9C239.814 161.745 240.425 167.372 244.011 170.796C247.596 174.219 253.249 174.573 256.95 171.274L279.067 151.561Z" fill="#0054F9"/>
<path d="M253.01 128.408C257.165 122.48 255.748 114.259 249.504 110.593C243.261 106.927 235.386 109.693 232.228 116.206L219.304 142.858C217.141 147.318 219.028 152.655 223.303 155.165C227.579 157.676 233.162 156.724 236.007 152.665L253.01 128.408Z" fill="#0054F9"/>
<path d="M221.731 111.606C224.386 104.872 221.088 97.2092 214.16 95.1021C207.232 92.995 200.221 97.5226 198.672 104.592L192.335 133.524C191.274 138.366 194.355 143.114 199.1 144.557C203.844 146 209.05 143.772 210.868 139.161L221.731 111.606Z" fill="#0054F9"/>
<path d="M184.017 99.8424C184.426 93.4867 179.598 87.9609 173.226 88.0002C166.853 88.0395 162.094 93.6243 162.581 99.9745L165.047 132.146C165.381 136.495 169.181 139.721 173.544 139.694C177.908 139.667 181.668 136.395 181.948 132.042L184.017 99.8424Z" fill="#0054F9"/>
<path d="M31.6276 251.999C24.3859 251.999 18.461 246.123 19.039 238.909C19.617 231.695 26.4021 226.836 33.5514 227.987L62.809 232.7C67.7048 233.489 70.9962 238.095 70.6003 243.035C70.2045 247.975 66.2217 251.999 61.2627 251.999H31.6276Z" fill="#0054F9"/>
<path d="M35.9536 216.137C28.9195 214.417 24.5617 207.302 26.8387 200.432C29.1157 193.562 36.8618 190.453 43.5324 193.27L70.831 204.797C75.399 206.726 77.5008 211.981 75.9415 216.686C74.3822 221.391 69.5566 224.353 64.7397 223.175L35.9536 216.137Z" fill="#0054F9"/>
<path d="M49.3302 181.102C42.9376 177.702 40.4698 169.733 44.3715 163.636C48.2732 157.539 56.5471 156.436 62.3168 160.809L85.9285 178.707C89.8796 181.702 90.6197 187.314 87.9478 191.489C85.276 195.664 79.8684 197.346 75.4908 195.017L49.3302 181.102Z" fill="#0054F9"/>
<path d="M69.9325 151.561C64.528 146.744 64.0197 138.418 69.2557 133.418C74.4917 128.419 82.7916 129.306 87.3602 134.921L106.057 157.9C109.185 161.745 108.574 167.372 104.988 170.796C101.403 174.219 95.7504 174.573 92.0495 171.274L69.9325 151.561Z" fill="#0054F9"/>
<path d="M95.9893 128.408C91.8345 122.48 93.2508 114.259 99.4947 110.593C105.739 106.927 113.614 109.693 116.772 116.206L129.695 142.858C131.858 147.318 129.972 152.655 125.696 155.165C121.42 157.676 115.837 156.724 112.992 152.665L95.9893 128.408Z" fill="#0054F9"/>
<path d="M127.268 111.606C124.613 104.872 127.911 97.2092 134.839 95.1021C141.767 92.995 148.778 97.5226 150.327 104.592L156.665 133.524C157.725 138.366 154.644 143.114 149.899 144.557C145.155 146 139.949 143.772 138.131 139.161L127.268 111.606Z" fill="#0054F9"/>
<path d="M317.372 252C324.614 252 330.539 246.124 329.961 238.91C329.383 231.696 322.598 226.837 315.449 227.988L286.191 232.701C281.295 233.49 278.004 238.096 278.4 243.036C278.796 247.976 282.778 252 287.737 252H317.372Z" fill="#0054F9" fill-opacity="0.1"/>
<path d="M313.046 216.138C320.081 214.418 324.438 207.303 322.161 200.433C319.884 193.563 312.138 190.454 305.468 193.271L278.169 204.798C273.601 206.727 271.499 211.983 273.059 216.687C274.618 221.392 279.443 224.354 284.26 223.176L313.046 216.138Z" fill="#0054F9" fill-opacity="0.1"/>
<path d="M299.67 181.104C306.062 177.703 308.53 169.734 304.629 163.637C300.727 157.54 292.453 156.437 286.683 160.81L263.072 178.708C259.12 181.703 258.38 187.315 261.052 191.49C263.724 195.665 269.132 197.347 273.509 195.019L299.67 181.104Z" fill="#0054F9" fill-opacity="0.1"/>
<path d="M143.639 220.434C141.458 220.434 139.53 220.059 137.856 219.308C136.192 218.557 134.889 217.523 133.945 216.204C133.002 214.885 132.535 213.384 132.545 211.7C132.535 210.381 132.804 209.169 133.352 208.063C133.91 206.947 134.666 206.019 135.619 205.278C136.573 204.527 137.638 204.051 138.815 203.848V203.665C137.263 203.29 136.02 202.458 135.087 201.169C134.153 199.881 133.692 198.4 133.702 196.726C133.692 195.133 134.113 193.713 134.965 192.465C135.827 191.207 137.009 190.218 138.51 189.498C140.012 188.778 141.721 188.418 143.639 188.418C145.536 188.418 147.23 188.783 148.721 189.513C150.223 190.233 151.404 191.223 152.267 192.481C153.129 193.728 153.565 195.143 153.575 196.726C153.565 198.4 153.088 199.881 152.145 201.169C151.202 202.458 149.974 203.29 148.462 203.665V203.848C149.629 204.051 150.679 204.527 151.612 205.278C152.556 206.019 153.307 206.947 153.864 208.063C154.433 209.169 154.722 210.381 154.732 211.7C154.722 213.384 154.245 214.885 153.301 216.204C152.358 217.523 151.049 218.557 149.375 219.308C147.712 220.059 145.799 220.434 143.639 220.434ZM143.639 216.584C144.927 216.584 146.043 216.371 146.986 215.945C147.93 215.509 148.66 214.905 149.178 214.134C149.695 213.353 149.959 212.44 149.969 211.395C149.959 210.31 149.675 209.351 149.117 208.519C148.569 207.687 147.823 207.033 146.88 206.556C145.936 206.079 144.856 205.841 143.639 205.841C142.411 205.841 141.321 206.079 140.367 206.556C139.413 207.033 138.663 207.687 138.115 208.519C137.567 209.351 137.298 210.31 137.308 211.395C137.298 212.44 137.547 213.353 138.054 214.134C138.571 214.905 139.307 215.509 140.26 215.945C141.214 216.371 142.34 216.584 143.639 216.584ZM143.639 202.082C144.673 202.082 145.591 201.875 146.393 201.459C147.194 201.043 147.823 200.464 148.28 199.724C148.746 198.983 148.985 198.116 148.995 197.122C148.985 196.148 148.752 195.296 148.295 194.565C147.849 193.835 147.225 193.272 146.423 192.876C145.622 192.47 144.694 192.267 143.639 192.267C142.563 192.267 141.62 192.47 140.808 192.876C140.007 193.272 139.383 193.835 138.937 194.565C138.49 195.296 138.272 196.148 138.282 197.122C138.272 198.116 138.495 198.983 138.952 199.724C139.408 200.464 140.037 201.043 140.839 201.459C141.65 201.875 142.584 202.082 143.639 202.082ZM171.033 220.526C168.629 220.515 166.575 219.881 164.87 218.623C163.166 217.365 161.862 215.534 160.959 213.13C160.057 210.726 159.605 207.829 159.605 204.441C159.605 201.063 160.057 198.177 160.959 195.783C161.872 193.388 163.181 191.562 164.885 190.304C166.6 189.047 168.649 188.418 171.033 188.418C173.417 188.418 175.461 189.052 177.166 190.32C178.87 191.578 180.174 193.404 181.076 195.798C181.989 198.182 182.446 201.063 182.446 204.441C182.446 207.84 181.995 210.741 181.092 213.145C180.189 215.539 178.885 217.371 177.181 218.639C175.477 219.897 173.427 220.526 171.033 220.526ZM171.033 216.463C173.143 216.463 174.792 215.433 175.979 213.374C177.176 211.314 177.774 208.337 177.774 204.441C177.774 201.854 177.5 199.668 176.953 197.883C176.415 196.087 175.639 194.728 174.624 193.804C173.62 192.871 172.423 192.404 171.033 192.404C168.933 192.404 167.285 193.439 166.088 195.509C164.891 197.578 164.287 200.556 164.277 204.441C164.277 207.038 164.546 209.234 165.083 211.03C165.631 212.816 166.407 214.17 167.411 215.093C168.416 216.006 169.623 216.463 171.033 216.463ZM204.111 214.165V212.521C204.111 211.345 204.355 210.269 204.842 209.295C205.339 208.311 206.059 207.525 207.002 206.937C207.956 206.338 209.108 206.039 210.457 206.039C211.836 206.039 212.993 206.333 213.926 206.922C214.86 207.51 215.565 208.296 216.041 209.28C216.528 210.264 216.772 211.345 216.772 212.521V214.165C216.772 215.342 216.528 216.422 216.041 217.406C215.554 218.38 214.839 219.166 213.896 219.765C212.962 220.353 211.816 220.647 210.457 220.647C209.087 220.647 207.931 220.353 206.987 219.765C206.044 219.166 205.329 218.38 204.842 217.406C204.355 216.422 204.111 215.342 204.111 214.165ZM207.657 212.521V214.165C207.657 215.037 207.865 215.829 208.281 216.539C208.697 217.249 209.422 217.604 210.457 217.604C211.481 217.604 212.197 217.249 212.602 216.539C213.008 215.829 213.211 215.037 213.211 214.165V212.521C213.211 211.649 213.013 210.858 212.618 210.148C212.232 209.437 211.512 209.082 210.457 209.082C209.442 209.082 208.722 209.437 208.296 210.148C207.87 210.858 207.657 211.649 207.657 212.521ZM188.438 196.33V194.687C188.438 193.51 188.681 192.43 189.168 191.446C189.665 190.462 190.385 189.675 191.329 189.087C192.283 188.499 193.434 188.205 194.783 188.205C196.163 188.205 197.319 188.499 198.253 189.087C199.186 189.675 199.891 190.462 200.368 191.446C200.845 192.43 201.083 193.51 201.083 194.687V196.33C201.083 197.507 200.84 198.588 200.353 199.572C199.876 200.546 199.166 201.332 198.222 201.93C197.289 202.519 196.143 202.813 194.783 202.813C193.403 202.813 192.242 202.519 191.298 201.93C190.365 201.332 189.655 200.546 189.168 199.572C188.681 198.588 188.438 197.507 188.438 196.33ZM191.998 194.687V196.33C191.998 197.203 192.201 197.994 192.607 198.704C193.023 199.414 193.748 199.769 194.783 199.769C195.798 199.769 196.508 199.414 196.914 198.704C197.329 197.994 197.537 197.203 197.537 196.33V194.687C197.537 193.815 197.34 193.023 196.944 192.313C196.548 191.603 195.828 191.248 194.783 191.248C193.769 191.248 193.048 191.603 192.622 192.313C192.206 193.023 191.998 193.815 191.998 194.687ZM189.883 220.008L211.309 188.844H214.946L193.52 220.008H189.883Z" fill="#131313"/>
<path d="M100.237 247.843V237.417H103.76C104.575 237.417 105.243 237.556 105.766 237.834C106.289 238.109 106.676 238.488 106.927 238.97C107.178 239.452 107.303 240 107.303 240.614C107.303 241.228 107.178 241.773 106.927 242.248C106.676 242.723 106.29 243.097 105.771 243.368C105.252 243.636 104.588 243.77 103.781 243.77H100.93V242.63H103.74C104.296 242.63 104.744 242.549 105.084 242.386C105.427 242.223 105.674 241.992 105.827 241.693C105.983 241.391 106.061 241.032 106.061 240.614C106.061 240.197 105.983 239.832 105.827 239.52C105.671 239.207 105.422 238.966 105.079 238.797C104.736 238.624 104.283 238.537 103.719 238.537H101.5V247.843H100.237ZM105.145 243.16L107.711 247.843H106.245L103.719 243.16H105.145ZM112.439 248.006C111.685 248.006 111.036 247.84 110.489 247.507C109.946 247.171 109.527 246.703 109.232 246.102C108.94 245.498 108.794 244.795 108.794 243.994C108.794 243.193 108.94 242.488 109.232 241.877C109.527 241.262 109.938 240.784 110.464 240.441C110.993 240.095 111.611 239.922 112.317 239.922C112.724 239.922 113.126 239.99 113.523 240.125C113.92 240.261 114.282 240.482 114.608 240.787C114.933 241.089 115.193 241.49 115.387 241.989C115.58 242.488 115.677 243.102 115.677 243.832V244.341H109.649V243.302H114.455C114.455 242.861 114.367 242.467 114.19 242.121C114.017 241.775 113.769 241.502 113.447 241.301C113.128 241.101 112.751 241.001 112.317 241.001C111.838 241.001 111.424 241.12 111.075 241.357C110.728 241.592 110.462 241.897 110.275 242.274C110.089 242.65 109.995 243.054 109.995 243.485V244.178C109.995 244.768 110.097 245.269 110.301 245.68C110.508 246.087 110.795 246.397 111.161 246.611C111.528 246.822 111.954 246.927 112.439 246.927C112.755 246.927 113.04 246.883 113.294 246.794C113.552 246.703 113.774 246.567 113.961 246.387C114.148 246.204 114.292 245.976 114.394 245.705L115.555 246.031C115.432 246.424 115.227 246.771 114.939 247.069C114.65 247.365 114.294 247.595 113.869 247.762C113.445 247.925 112.968 248.006 112.439 248.006ZM123.043 241.775L121.964 242.08C121.896 241.9 121.796 241.726 121.664 241.556C121.535 241.383 121.358 241.24 121.134 241.128C120.91 241.016 120.623 240.96 120.274 240.96C119.795 240.96 119.396 241.071 119.077 241.291C118.762 241.508 118.604 241.785 118.604 242.121C118.604 242.42 118.713 242.656 118.93 242.829C119.147 243.002 119.486 243.146 119.948 243.261L121.109 243.546C121.808 243.716 122.329 243.976 122.672 244.325C123.014 244.672 123.186 245.118 123.186 245.664C123.186 246.112 123.057 246.513 122.799 246.866C122.544 247.219 122.188 247.497 121.73 247.701C121.272 247.904 120.739 248.006 120.131 248.006C119.334 248.006 118.674 247.833 118.151 247.487C117.628 247.141 117.297 246.635 117.158 245.97L118.299 245.685C118.407 246.105 118.612 246.421 118.915 246.632C119.22 246.842 119.619 246.947 120.111 246.947C120.671 246.947 121.115 246.828 121.445 246.591C121.777 246.35 121.944 246.061 121.944 245.725C121.944 245.454 121.849 245.226 121.659 245.043C121.468 244.856 121.177 244.717 120.783 244.626L119.48 244.32C118.763 244.151 118.237 243.888 117.901 243.531C117.569 243.171 117.403 242.722 117.403 242.182C117.403 241.741 117.526 241.351 117.774 241.011C118.025 240.672 118.366 240.405 118.797 240.212C119.232 240.018 119.724 239.922 120.274 239.922C121.048 239.922 121.655 240.091 122.096 240.431C122.541 240.77 122.857 241.218 123.043 241.775ZM124.994 250.775V240.024H126.155V241.266H126.298C126.386 241.13 126.508 240.957 126.664 240.746C126.824 240.533 127.051 240.343 127.346 240.176C127.645 240.007 128.049 239.922 128.558 239.922C129.216 239.922 129.797 240.086 130.299 240.416C130.801 240.745 131.193 241.211 131.475 241.816C131.757 242.42 131.898 243.132 131.898 243.954C131.898 244.782 131.757 245.5 131.475 246.107C131.193 246.711 130.803 247.18 130.304 247.512C129.805 247.841 129.23 248.006 128.578 248.006C128.076 248.006 127.674 247.923 127.372 247.757C127.07 247.587 126.837 247.395 126.674 247.181C126.511 246.964 126.386 246.784 126.298 246.642H126.196V250.775H124.994ZM126.175 243.933C126.175 244.524 126.262 245.045 126.435 245.496C126.608 245.944 126.861 246.296 127.194 246.55C127.526 246.801 127.933 246.927 128.415 246.927C128.918 246.927 129.337 246.794 129.673 246.53C130.012 246.262 130.267 245.902 130.436 245.45C130.61 244.996 130.696 244.49 130.696 243.933C130.696 243.384 130.611 242.888 130.442 242.447C130.275 242.002 130.022 241.651 129.683 241.393C129.347 241.132 128.924 241.001 128.415 241.001C127.927 241.001 127.516 241.125 127.183 241.373C126.851 241.617 126.6 241.96 126.43 242.401C126.26 242.839 126.175 243.35 126.175 243.933ZM136.907 248.006C136.201 248.006 135.582 247.838 135.049 247.502C134.519 247.166 134.105 246.696 133.807 246.092C133.511 245.488 133.364 244.782 133.364 243.974C133.364 243.16 133.511 242.448 133.807 241.841C134.105 241.233 134.519 240.762 135.049 240.426C135.582 240.09 136.201 239.922 136.907 239.922C137.613 239.922 138.231 240.09 138.76 240.426C139.293 240.762 139.707 241.233 140.002 241.841C140.301 242.448 140.45 243.16 140.45 243.974C140.45 244.782 140.301 245.488 140.002 246.092C139.707 246.696 139.293 247.166 138.76 247.502C138.231 247.838 137.613 248.006 136.907 248.006ZM136.907 246.927C137.443 246.927 137.884 246.789 138.231 246.514C138.577 246.24 138.833 245.878 138.999 245.43C139.166 244.982 139.249 244.497 139.249 243.974C139.249 243.451 139.166 242.964 138.999 242.513C138.833 242.062 138.577 241.697 138.231 241.418C137.884 241.14 137.443 241.001 136.907 241.001C136.371 241.001 135.93 241.14 135.583 241.418C135.237 241.697 134.981 242.062 134.815 242.513C134.648 242.964 134.565 243.451 134.565 243.974C134.565 244.497 134.648 244.982 134.815 245.43C134.981 245.878 135.237 246.24 135.583 246.514C135.93 246.789 136.371 246.927 136.907 246.927ZM143.486 243.139V247.843H142.284V240.024H143.445V241.245H143.547C143.73 240.848 144.008 240.529 144.382 240.288C144.755 240.044 145.237 239.922 145.828 239.922C146.357 239.922 146.82 240.03 147.217 240.248C147.614 240.461 147.923 240.787 148.144 241.225C148.364 241.659 148.475 242.209 148.475 242.874V247.843H147.273V242.956C147.273 242.342 147.114 241.863 146.795 241.52C146.476 241.174 146.038 241.001 145.481 241.001C145.098 241.001 144.755 241.084 144.453 241.25C144.154 241.417 143.918 241.659 143.745 241.978C143.572 242.297 143.486 242.684 143.486 243.139ZM156.209 241.775L155.13 242.08C155.062 241.9 154.962 241.726 154.829 241.556C154.701 241.383 154.524 241.24 154.3 241.128C154.076 241.016 153.789 240.96 153.44 240.96C152.961 240.96 152.562 241.071 152.243 241.291C151.928 241.508 151.77 241.785 151.77 242.121C151.77 242.42 151.878 242.656 152.096 242.829C152.313 243.002 152.652 243.146 153.114 243.261L154.275 243.546C154.974 243.716 155.495 243.976 155.837 244.325C156.18 244.672 156.352 245.118 156.352 245.664C156.352 246.112 156.223 246.513 155.965 246.866C155.71 247.219 155.354 247.497 154.896 247.701C154.437 247.904 153.905 248.006 153.297 248.006C152.5 248.006 151.839 247.833 151.317 247.487C150.794 247.141 150.463 246.635 150.324 245.97L151.464 245.685C151.573 246.105 151.778 246.421 152.08 246.632C152.386 246.842 152.785 246.947 153.277 246.947C153.837 246.947 154.281 246.828 154.611 246.591C154.943 246.35 155.109 246.061 155.109 245.725C155.109 245.454 155.014 245.226 154.824 245.043C154.634 244.856 154.342 244.717 153.949 244.626L152.646 244.32C151.929 244.151 151.403 243.888 151.067 243.531C150.735 243.171 150.568 242.722 150.568 242.182C150.568 241.741 150.692 241.351 150.94 241.011C151.191 240.672 151.532 240.405 151.963 240.212C152.398 240.018 152.89 239.922 153.44 239.922C154.213 239.922 154.821 240.091 155.262 240.431C155.707 240.77 156.022 241.218 156.209 241.775ZM161.439 248.006C160.685 248.006 160.035 247.84 159.489 247.507C158.946 247.171 158.527 246.703 158.231 246.102C157.94 245.498 157.794 244.795 157.794 243.994C157.794 243.193 157.94 242.488 158.231 241.877C158.527 241.262 158.937 240.784 159.463 240.441C159.993 240.095 160.611 239.922 161.317 239.922C161.724 239.922 162.126 239.99 162.523 240.125C162.92 240.261 163.282 240.482 163.607 240.787C163.933 241.089 164.193 241.49 164.386 241.989C164.58 242.488 164.677 243.102 164.677 243.832V244.341H158.649V243.302H163.455C163.455 242.861 163.367 242.467 163.19 242.121C163.017 241.775 162.769 241.502 162.447 241.301C162.128 241.101 161.751 241.001 161.317 241.001C160.838 241.001 160.424 241.12 160.074 241.357C159.728 241.592 159.462 241.897 159.275 242.274C159.088 242.65 158.995 243.054 158.995 243.485V244.178C158.995 244.768 159.097 245.269 159.301 245.68C159.508 246.087 159.794 246.397 160.161 246.611C160.527 246.822 160.953 246.927 161.439 246.927C161.754 246.927 162.039 246.883 162.294 246.794C162.552 246.703 162.774 246.567 162.961 246.387C163.148 246.204 163.292 245.976 163.394 245.705L164.554 246.031C164.432 246.424 164.227 246.771 163.938 247.069C163.65 247.365 163.294 247.595 162.869 247.762C162.445 247.925 161.968 248.006 161.439 248.006ZM172.043 241.775L170.964 242.08C170.896 241.9 170.796 241.726 170.663 241.556C170.534 241.383 170.358 241.24 170.134 241.128C169.91 241.016 169.623 240.96 169.274 240.96C168.795 240.96 168.396 241.071 168.077 241.291C167.762 241.508 167.604 241.785 167.604 242.121C167.604 242.42 167.712 242.656 167.93 242.829C168.147 243.002 168.486 243.146 168.948 243.261L170.109 243.546C170.808 243.716 171.329 243.976 171.671 244.325C172.014 244.672 172.186 245.118 172.186 245.664C172.186 246.112 172.057 246.513 171.799 246.866C171.544 247.219 171.188 247.497 170.73 247.701C170.271 247.904 169.739 248.006 169.131 248.006C168.334 248.006 167.673 247.833 167.151 247.487C166.628 247.141 166.297 246.635 166.158 245.97L167.298 245.685C167.407 246.105 167.612 246.421 167.914 246.632C168.22 246.842 168.619 246.947 169.111 246.947C169.671 246.947 170.115 246.828 170.445 246.591C170.777 246.35 170.943 246.061 170.943 245.725C170.943 245.454 170.848 245.226 170.658 245.043C170.468 244.856 170.176 244.717 169.783 244.626L168.479 244.32C167.763 244.151 167.237 243.888 166.901 243.531C166.569 243.171 166.402 242.722 166.402 242.182C166.402 241.741 166.526 241.351 166.774 241.011C167.025 240.672 167.366 240.405 167.797 240.212C168.232 240.018 168.724 239.922 169.274 239.922C170.047 239.922 170.655 240.091 171.096 240.431C171.541 240.77 171.856 241.218 172.043 241.775ZM181.427 240.024V241.042H177.375V240.024H181.427ZM178.556 238.15H179.757V245.603C179.757 245.943 179.806 246.197 179.905 246.367C180.007 246.533 180.135 246.645 180.292 246.703C180.451 246.757 180.619 246.784 180.796 246.784C180.928 246.784 181.037 246.777 181.121 246.764C181.206 246.747 181.274 246.733 181.325 246.723L181.569 247.802C181.488 247.833 181.374 247.864 181.228 247.894C181.082 247.928 180.897 247.945 180.673 247.945C180.334 247.945 180.001 247.872 179.676 247.726C179.353 247.58 179.085 247.358 178.871 247.059C178.661 246.76 178.556 246.384 178.556 245.929V238.15ZM184.604 243.139V247.843H183.402V237.417H184.604V241.245H184.705C184.889 240.841 185.164 240.521 185.53 240.283C185.9 240.042 186.392 239.922 187.006 239.922C187.539 239.922 188.006 240.029 188.406 240.242C188.807 240.453 189.118 240.777 189.338 241.215C189.562 241.649 189.674 242.202 189.674 242.874V247.843H188.473V242.956C188.473 242.335 188.311 241.855 187.989 241.515C187.67 241.172 187.227 241.001 186.66 241.001C186.267 241.001 185.914 241.084 185.601 241.25C185.293 241.417 185.048 241.659 184.868 241.978C184.692 242.297 184.604 242.684 184.604 243.139ZM191.872 247.843V240.024H193.074V247.843H191.872ZM192.483 238.72C192.249 238.72 192.047 238.64 191.877 238.481C191.711 238.321 191.628 238.13 191.628 237.906C191.628 237.682 191.711 237.49 191.877 237.33C192.047 237.171 192.249 237.091 192.483 237.091C192.717 237.091 192.917 237.171 193.084 237.33C193.253 237.49 193.338 237.682 193.338 237.906C193.338 238.13 193.253 238.321 193.084 238.481C192.917 238.64 192.717 238.72 192.483 238.72ZM200.813 241.775L199.734 242.08C199.666 241.9 199.566 241.726 199.433 241.556C199.304 241.383 199.128 241.24 198.904 241.128C198.68 241.016 198.393 240.96 198.044 240.96C197.565 240.96 197.166 241.071 196.847 241.291C196.532 241.508 196.374 241.785 196.374 242.121C196.374 242.42 196.482 242.656 196.7 242.829C196.917 243.002 197.256 243.146 197.718 243.261L198.878 243.546C199.578 243.716 200.099 243.976 200.441 244.325C200.784 244.672 200.956 245.118 200.956 245.664C200.956 246.112 200.827 246.513 200.569 246.866C200.314 247.219 199.958 247.497 199.5 247.701C199.041 247.904 198.509 248.006 197.901 248.006C197.103 248.006 196.443 247.833 195.921 247.487C195.398 247.141 195.067 246.635 194.928 245.97L196.068 245.685C196.177 246.105 196.382 246.421 196.684 246.632C196.99 246.842 197.389 246.947 197.881 246.947C198.441 246.947 198.885 246.828 199.214 246.591C199.547 246.35 199.713 246.061 199.713 245.725C199.713 245.454 199.618 245.226 199.428 245.043C199.238 244.856 198.946 244.717 198.553 244.626L197.249 244.32C196.533 244.151 196.007 243.888 195.671 243.531C195.339 243.171 195.172 242.722 195.172 242.182C195.172 241.741 195.296 241.351 195.544 241.011C195.795 240.672 196.136 240.405 196.567 240.212C197.002 240.018 197.494 239.922 198.044 239.922C198.817 239.922 199.425 240.091 199.866 240.431C200.311 240.77 200.626 241.218 200.813 241.775ZM206.796 247.843V240.024H207.957V241.245H208.059C208.222 240.828 208.485 240.504 208.848 240.273C209.211 240.039 209.647 239.922 210.156 239.922C210.672 239.922 211.101 240.039 211.444 240.273C211.79 240.504 212.06 240.828 212.254 241.245H212.335C212.535 240.841 212.836 240.521 213.236 240.283C213.637 240.042 214.117 239.922 214.677 239.922C215.376 239.922 215.948 240.141 216.392 240.578C216.837 241.013 217.059 241.69 217.059 242.61V247.843H215.858V242.61C215.858 242.033 215.7 241.62 215.384 241.373C215.069 241.125 214.697 241.001 214.27 241.001C213.72 241.001 213.294 241.167 212.992 241.5C212.69 241.829 212.539 242.247 212.539 242.752V247.843H211.317V242.488C211.317 242.043 211.173 241.685 210.884 241.413C210.596 241.138 210.224 241.001 209.769 241.001C209.457 241.001 209.165 241.084 208.894 241.25C208.625 241.417 208.408 241.648 208.242 241.943C208.079 242.235 207.998 242.572 207.998 242.956V247.843H206.796ZM222.433 248.006C221.727 248.006 221.107 247.838 220.575 247.502C220.045 247.166 219.631 246.696 219.332 246.092C219.037 245.488 218.889 244.782 218.889 243.974C218.889 243.16 219.037 242.448 219.332 241.841C219.631 241.233 220.045 240.762 220.575 240.426C221.107 240.09 221.727 239.922 222.433 239.922C223.139 239.922 223.756 240.09 224.286 240.426C224.819 240.762 225.233 241.233 225.528 241.841C225.827 242.448 225.976 243.16 225.976 243.974C225.976 244.782 225.827 245.488 225.528 246.092C225.233 246.696 224.819 247.166 224.286 247.502C223.756 247.838 223.139 248.006 222.433 248.006ZM222.433 246.927C222.969 246.927 223.41 246.789 223.756 246.514C224.103 246.24 224.359 245.878 224.525 245.43C224.691 244.982 224.775 244.497 224.775 243.974C224.775 243.451 224.691 242.964 224.525 242.513C224.359 242.062 224.103 241.697 223.756 241.418C223.41 241.14 222.969 241.001 222.433 241.001C221.897 241.001 221.455 241.14 221.109 241.418C220.763 241.697 220.507 242.062 220.34 242.513C220.174 242.964 220.091 243.451 220.091 243.974C220.091 244.497 220.174 244.982 220.34 245.43C220.507 245.878 220.763 246.24 221.109 246.514C221.455 246.789 221.897 246.927 222.433 246.927ZM229.011 243.139V247.843H227.81V240.024H228.971V241.245H229.073C229.256 240.848 229.534 240.529 229.907 240.288C230.281 240.044 230.763 239.922 231.353 239.922C231.883 239.922 232.346 240.03 232.743 240.248C233.14 240.461 233.449 240.787 233.67 241.225C233.89 241.659 234.001 242.209 234.001 242.874V247.843H232.799V242.956C232.799 242.342 232.64 241.863 232.321 241.52C232.002 241.174 231.564 241.001 231.007 241.001C230.624 241.001 230.281 241.084 229.979 241.25C229.68 241.417 229.444 241.659 229.271 241.978C229.098 242.297 229.011 242.684 229.011 243.139ZM239.597 240.024V241.042H235.544V240.024H239.597ZM236.725 238.15H237.927V245.603C237.927 245.943 237.976 246.197 238.075 246.367C238.176 246.533 238.305 246.645 238.461 246.703C238.621 246.757 238.789 246.784 238.965 246.784C239.098 246.784 239.206 246.777 239.291 246.764C239.376 246.747 239.444 246.733 239.495 246.723L239.739 247.802C239.658 247.833 239.544 247.864 239.398 247.894C239.252 247.928 239.067 247.945 238.843 247.945C238.504 247.945 238.171 247.872 237.845 247.726C237.523 247.58 237.255 247.358 237.041 247.059C236.831 246.76 236.725 246.384 236.725 245.929V238.15ZM242.773 243.139V247.843H241.572V237.417H242.773V241.245H242.875C243.059 240.841 243.333 240.521 243.7 240.283C244.07 240.042 244.562 239.922 245.176 239.922C245.709 239.922 246.176 240.029 246.576 240.242C246.977 240.453 247.287 240.777 247.508 241.215C247.732 241.649 247.844 242.202 247.844 242.874V247.843H246.643V242.956C246.643 242.335 246.481 241.855 246.159 241.515C245.84 241.172 245.397 241.001 244.83 241.001C244.436 241.001 244.083 241.084 243.771 241.25C243.462 241.417 243.218 241.659 243.038 241.978C242.862 242.297 242.773 242.684 242.773 243.139Z" fill="#ABABAB"/>
<circle cx="101" cy="300.5" r="5" fill="#0054F9"/>
<path d="M115.909 296.079V304H114.875V296.079H115.909ZM120.706 297.659C121.463 297.659 122.077 297.89 122.547 298.352C123.016 298.807 123.251 299.466 123.251 300.329V304H122.229V300.477C122.229 299.856 122.073 299.382 121.763 299.057C121.452 298.723 121.028 298.557 120.49 298.557C119.944 298.557 119.509 298.727 119.183 299.068C118.865 299.409 118.706 299.905 118.706 300.557V304H117.672V297.773H118.706V298.659C118.91 298.341 119.187 298.095 119.535 297.92C119.891 297.746 120.281 297.659 120.706 297.659ZM124.554 300.875C124.554 300.231 124.683 299.67 124.94 299.193C125.198 298.708 125.554 298.333 126.009 298.068C126.471 297.803 126.997 297.67 127.588 297.67C128.353 297.67 128.982 297.856 129.475 298.227C129.975 298.598 130.304 299.114 130.463 299.773H129.35C129.244 299.394 129.035 299.095 128.725 298.875C128.422 298.655 128.043 298.545 127.588 298.545C126.997 298.545 126.52 298.75 126.156 299.159C125.793 299.561 125.611 300.132 125.611 300.875C125.611 301.625 125.793 302.205 126.156 302.614C126.52 303.023 126.997 303.227 127.588 303.227C128.043 303.227 128.422 303.121 128.725 302.909C129.028 302.697 129.236 302.394 129.35 302H130.463C130.297 302.636 129.963 303.148 129.463 303.534C128.963 303.913 128.338 304.102 127.588 304.102C126.997 304.102 126.471 303.97 126.009 303.705C125.554 303.439 125.198 303.064 124.94 302.58C124.683 302.095 124.554 301.526 124.554 300.875ZM134.559 304.102C133.976 304.102 133.445 303.97 132.968 303.705C132.498 303.439 132.127 303.064 131.855 302.58C131.589 302.087 131.457 301.519 131.457 300.875C131.457 300.239 131.593 299.678 131.866 299.193C132.146 298.701 132.525 298.326 133.002 298.068C133.48 297.803 134.014 297.67 134.605 297.67C135.195 297.67 135.73 297.803 136.207 298.068C136.684 298.326 137.059 298.697 137.332 299.182C137.612 299.667 137.752 300.231 137.752 300.875C137.752 301.519 137.608 302.087 137.321 302.58C137.04 303.064 136.658 303.439 136.173 303.705C135.688 303.97 135.15 304.102 134.559 304.102ZM134.559 303.193C134.93 303.193 135.279 303.106 135.605 302.932C135.93 302.758 136.192 302.496 136.389 302.148C136.593 301.799 136.696 301.375 136.696 300.875C136.696 300.375 136.597 299.951 136.4 299.602C136.203 299.254 135.945 298.996 135.627 298.829C135.309 298.655 134.964 298.568 134.593 298.568C134.214 298.568 133.866 298.655 133.548 298.829C133.237 298.996 132.987 299.254 132.798 299.602C132.608 299.951 132.514 300.375 132.514 300.875C132.514 301.383 132.605 301.811 132.786 302.159C132.976 302.508 133.226 302.769 133.536 302.943C133.847 303.11 134.188 303.193 134.559 303.193ZM146.601 297.659C147.086 297.659 147.517 297.761 147.896 297.966C148.275 298.163 148.574 298.462 148.794 298.864C149.014 299.265 149.124 299.754 149.124 300.329V304H148.101V300.477C148.101 299.856 147.946 299.382 147.635 299.057C147.332 298.723 146.919 298.557 146.396 298.557C145.858 298.557 145.43 298.731 145.112 299.079C144.794 299.42 144.635 299.917 144.635 300.568V304H143.612V300.477C143.612 299.856 143.457 299.382 143.146 299.057C142.843 298.723 142.43 298.557 141.908 298.557C141.37 298.557 140.942 298.731 140.623 299.079C140.305 299.42 140.146 299.917 140.146 300.568V304H139.112V297.773H140.146V298.67C140.351 298.345 140.623 298.095 140.964 297.92C141.313 297.746 141.695 297.659 142.112 297.659C142.635 297.659 143.097 297.776 143.498 298.011C143.9 298.246 144.199 298.591 144.396 299.045C144.57 298.606 144.858 298.265 145.26 298.023C145.661 297.78 146.108 297.659 146.601 297.659ZM156.502 300.648C156.502 300.845 156.49 301.053 156.468 301.273H151.49C151.528 301.886 151.737 302.367 152.115 302.716C152.502 303.057 152.968 303.227 153.513 303.227C153.96 303.227 154.331 303.125 154.627 302.92C154.93 302.708 155.142 302.428 155.263 302.08H156.377C156.21 302.678 155.877 303.167 155.377 303.545C154.877 303.917 154.256 304.102 153.513 304.102C152.922 304.102 152.392 303.97 151.922 303.705C151.46 303.439 151.096 303.064 150.831 302.58C150.566 302.087 150.434 301.519 150.434 300.875C150.434 300.231 150.562 299.667 150.82 299.182C151.077 298.697 151.437 298.326 151.899 298.068C152.369 297.803 152.907 297.67 153.513 297.67C154.104 297.67 154.627 297.799 155.081 298.057C155.536 298.314 155.884 298.67 156.127 299.125C156.377 299.572 156.502 300.079 156.502 300.648ZM155.434 300.432C155.434 300.038 155.347 299.701 155.172 299.42C154.998 299.132 154.759 298.917 154.456 298.773C154.161 298.621 153.831 298.545 153.468 298.545C152.945 298.545 152.498 298.712 152.127 299.045C151.763 299.379 151.555 299.841 151.502 300.432H155.434Z" fill="#131313"/>
<circle cx="172" cy="300.5" r="5" fill="#0054F9" fill-opacity="0.1"/>
<path d="M190.352 296.079V296.92H186.909V299.591H189.705V300.432H186.909V304H185.875V296.079H190.352ZM192.635 298.784C192.817 298.428 193.075 298.151 193.408 297.954C193.749 297.757 194.162 297.659 194.647 297.659V298.727H194.374C193.215 298.727 192.635 299.356 192.635 300.614V304H191.601V297.773H192.635V298.784ZM201.523 300.648C201.523 300.845 201.511 301.053 201.488 301.273H196.511C196.549 301.886 196.757 302.367 197.136 302.716C197.522 303.057 197.988 303.227 198.534 303.227C198.981 303.227 199.352 303.125 199.647 302.92C199.951 302.708 200.163 302.428 200.284 302.08H201.398C201.231 302.678 200.898 303.167 200.398 303.545C199.898 303.917 199.276 304.102 198.534 304.102C197.943 304.102 197.413 303.97 196.943 303.705C196.481 303.439 196.117 303.064 195.852 302.58C195.587 302.087 195.454 301.519 195.454 300.875C195.454 300.231 195.583 299.667 195.841 299.182C196.098 298.697 196.458 298.326 196.92 298.068C197.39 297.803 197.928 297.67 198.534 297.67C199.125 297.67 199.647 297.799 200.102 298.057C200.557 298.314 200.905 298.67 201.148 299.125C201.398 299.572 201.523 300.079 201.523 300.648ZM200.454 300.432C200.454 300.038 200.367 299.701 200.193 299.42C200.019 299.132 199.78 298.917 199.477 298.773C199.182 298.621 198.852 298.545 198.488 298.545C197.966 298.545 197.519 298.712 197.147 299.045C196.784 299.379 196.575 299.841 196.522 300.432H200.454ZM208.569 300.648C208.569 300.845 208.558 301.053 208.535 301.273H203.558C203.596 301.886 203.804 302.367 204.183 302.716C204.569 303.057 205.035 303.227 205.581 303.227C206.028 303.227 206.399 303.125 206.694 302.92C206.997 302.708 207.21 302.428 207.331 302.08H208.444C208.278 302.678 207.944 303.167 207.444 303.545C206.944 303.917 206.323 304.102 205.581 304.102C204.99 304.102 204.46 303.97 203.99 303.705C203.528 303.439 203.164 303.064 202.899 302.58C202.634 302.087 202.501 301.519 202.501 300.875C202.501 300.231 202.63 299.667 202.888 299.182C203.145 298.697 203.505 298.326 203.967 298.068C204.437 297.803 204.975 297.67 205.581 297.67C206.172 297.67 206.694 297.799 207.149 298.057C207.604 298.314 207.952 298.67 208.194 299.125C208.444 299.572 208.569 300.079 208.569 300.648ZM207.501 300.432C207.501 300.038 207.414 299.701 207.24 299.42C207.066 299.132 206.827 298.917 206.524 298.773C206.229 298.621 205.899 298.545 205.535 298.545C205.013 298.545 204.566 298.712 204.194 299.045C203.831 299.379 203.622 299.841 203.569 300.432H207.501ZM216.93 299.92C217.218 299.966 217.479 300.083 217.714 300.273C217.957 300.462 218.146 300.697 218.282 300.977C218.426 301.258 218.498 301.557 218.498 301.875C218.498 302.276 218.396 302.64 218.191 302.966C217.987 303.284 217.688 303.538 217.294 303.727C216.907 303.909 216.449 304 215.919 304H212.964V296.079H215.805C216.343 296.079 216.801 296.17 217.18 296.352C217.559 296.526 217.843 296.765 218.032 297.068C218.222 297.371 218.316 297.712 218.316 298.091C218.316 298.56 218.188 298.951 217.93 299.261C217.68 299.564 217.347 299.784 216.93 299.92ZM213.998 299.5H215.737C216.222 299.5 216.597 299.386 216.862 299.159C217.127 298.932 217.26 298.617 217.26 298.216C217.26 297.814 217.127 297.5 216.862 297.273C216.597 297.045 216.214 296.932 215.714 296.932H213.998V299.5ZM215.828 303.148C216.343 303.148 216.744 303.026 217.032 302.784C217.32 302.542 217.464 302.205 217.464 301.773C217.464 301.333 217.313 300.989 217.01 300.739C216.707 300.481 216.301 300.352 215.794 300.352H213.998V303.148H215.828ZM225.456 297.773V304H224.422V303.08C224.225 303.398 223.949 303.648 223.593 303.83C223.244 304.004 222.858 304.091 222.433 304.091C221.949 304.091 221.513 303.992 221.127 303.795C220.74 303.591 220.433 303.288 220.206 302.886C219.986 302.485 219.877 301.996 219.877 301.42V297.773H220.899V301.284C220.899 301.898 221.055 302.371 221.365 302.705C221.676 303.03 222.1 303.193 222.638 303.193C223.191 303.193 223.627 303.023 223.945 302.682C224.263 302.341 224.422 301.845 224.422 301.193V297.773H225.456ZM226.816 300.864C226.816 300.227 226.945 299.67 227.202 299.193C227.46 298.708 227.812 298.333 228.259 298.068C228.714 297.803 229.221 297.67 229.782 297.67C230.267 297.67 230.717 297.784 231.134 298.011C231.551 298.231 231.869 298.523 232.089 298.886V295.591H233.134V304H232.089V302.83C231.884 303.201 231.581 303.508 231.18 303.75C230.778 303.985 230.308 304.102 229.77 304.102C229.217 304.102 228.714 303.966 228.259 303.693C227.812 303.42 227.46 303.038 227.202 302.545C226.945 302.053 226.816 301.492 226.816 300.864ZM232.089 300.875C232.089 300.405 231.994 299.996 231.805 299.648C231.615 299.299 231.358 299.034 231.032 298.852C230.714 298.663 230.361 298.568 229.975 298.568C229.589 298.568 229.236 298.659 228.918 298.841C228.6 299.023 228.346 299.288 228.157 299.636C227.967 299.985 227.873 300.394 227.873 300.864C227.873 301.341 227.967 301.758 228.157 302.114C228.346 302.462 228.6 302.731 228.918 302.92C229.236 303.102 229.589 303.193 229.975 303.193C230.361 303.193 230.714 303.102 231.032 302.92C231.358 302.731 231.615 302.462 231.805 302.114C231.994 301.758 232.089 301.345 232.089 300.875ZM237.45 297.67C237.988 297.67 238.458 297.788 238.859 298.023C239.268 298.257 239.571 298.553 239.768 298.909V297.773H240.814V304.136C240.814 304.705 240.692 305.208 240.45 305.648C240.208 306.095 239.859 306.443 239.405 306.693C238.958 306.943 238.435 307.068 237.836 307.068C237.018 307.068 236.336 306.875 235.791 306.489C235.245 306.102 234.923 305.576 234.825 304.909H235.848C235.961 305.288 236.196 305.591 236.552 305.818C236.908 306.053 237.336 306.17 237.836 306.17C238.405 306.17 238.867 305.992 239.223 305.636C239.586 305.28 239.768 304.78 239.768 304.136V302.83C239.564 303.193 239.261 303.496 238.859 303.739C238.458 303.981 237.988 304.102 237.45 304.102C236.897 304.102 236.393 303.966 235.939 303.693C235.492 303.42 235.139 303.038 234.882 302.545C234.624 302.053 234.495 301.492 234.495 300.864C234.495 300.227 234.624 299.67 234.882 299.193C235.139 298.708 235.492 298.333 235.939 298.068C236.393 297.803 236.897 297.67 237.45 297.67ZM239.768 300.875C239.768 300.405 239.673 299.996 239.484 299.648C239.295 299.299 239.037 299.034 238.711 298.852C238.393 298.663 238.041 298.568 237.654 298.568C237.268 298.568 236.916 298.659 236.598 298.841C236.279 299.023 236.026 299.288 235.836 299.636C235.647 299.985 235.552 300.394 235.552 300.864C235.552 301.341 235.647 301.758 235.836 302.114C236.026 302.462 236.279 302.731 236.598 302.92C236.916 303.102 237.268 303.193 237.654 303.193C238.041 303.193 238.393 303.102 238.711 302.92C239.037 302.731 239.295 302.462 239.484 302.114C239.673 301.758 239.768 301.345 239.768 300.875ZM248.243 300.648C248.243 300.845 248.232 301.053 248.209 301.273H243.232C243.27 301.886 243.478 302.367 243.857 302.716C244.243 303.057 244.709 303.227 245.254 303.227C245.701 303.227 246.073 303.125 246.368 302.92C246.671 302.708 246.883 302.428 247.004 302.08H248.118C247.951 302.678 247.618 303.167 247.118 303.545C246.618 303.917 245.997 304.102 245.254 304.102C244.664 304.102 244.133 303.97 243.663 303.705C243.201 303.439 242.838 303.064 242.573 302.58C242.307 302.087 242.175 301.519 242.175 300.875C242.175 300.231 242.304 299.667 242.561 299.182C242.819 298.697 243.179 298.326 243.641 298.068C244.11 297.803 244.648 297.67 245.254 297.67C245.845 297.67 246.368 297.799 246.823 298.057C247.277 298.314 247.626 298.67 247.868 299.125C248.118 299.572 248.243 300.079 248.243 300.648ZM247.175 300.432C247.175 300.038 247.088 299.701 246.914 299.42C246.739 299.132 246.501 298.917 246.198 298.773C245.902 298.621 245.573 298.545 245.209 298.545C244.686 298.545 244.239 298.712 243.868 299.045C243.504 299.379 243.296 299.841 243.243 300.432H247.175ZM250.87 298.625V302.295C250.87 302.598 250.934 302.814 251.063 302.943C251.191 303.064 251.415 303.125 251.733 303.125H252.495V304H251.563C250.987 304 250.555 303.867 250.267 303.602C249.979 303.337 249.835 302.901 249.835 302.295V298.625H249.029V297.773H249.835V296.204H250.87V297.773H252.495V298.625H250.87Z" fill="#131313"/>
</svg>
