<svg width="350" height="257" viewBox="0 0 350 257" fill="none" xmlns="http://www.w3.org/2000/svg">
<rect width="350" height="257" fill="white" fill-opacity="0.6"/>
<path d="M17.4337 36V22.1287H26.5757V24.0837H19.6308V28.0682H26.2034V30.0232H19.6308V34.045H26.5757V36H17.4337ZM26.8473 36L30.3664 30.9542L26.8473 25.927H29.3237L32.2097 30.1349H31.018L33.904 25.927H36.3804L32.8427 30.9542L36.3618 36H33.8854L31.0366 31.7734H32.191L29.3237 36H26.8473ZM37.2584 39.7239V25.927H39.2693V28.0123L39.0272 27.5282C39.3996 26.9572 39.8961 26.5104 40.5168 26.1877C41.1374 25.8649 41.8449 25.7036 42.6394 25.7036C43.5951 25.7036 44.4516 25.9332 45.2088 26.3925C45.9784 26.8517 46.5804 27.4786 47.0149 28.273C47.4617 29.0674 47.6852 29.9612 47.6852 30.9542C47.6852 31.9472 47.4617 32.8409 47.0149 33.6354C46.5804 34.4298 45.9846 35.0628 45.2274 35.5345C44.4702 35.9938 43.6076 36.2234 42.6394 36.2234C41.8573 36.2234 41.1436 36.0621 40.4981 35.7393C39.8651 35.4166 39.3748 34.9511 39.0272 34.3429L39.3624 33.9519V39.7239H37.2584ZM42.4345 34.2684C43.0304 34.2684 43.5579 34.1257 44.0172 33.8402C44.4765 33.5547 44.8364 33.1637 45.0971 32.6672C45.3702 32.1582 45.5067 31.5872 45.5067 30.9542C45.5067 30.3211 45.3702 29.7563 45.0971 29.2598C44.8364 28.7633 44.4765 28.3723 44.0172 28.0868C43.5579 27.8013 43.0304 27.6586 42.4345 27.6586C41.8511 27.6586 41.3236 27.8013 40.8519 28.0868C40.3926 28.3723 40.0265 28.7633 39.7534 29.2598C39.4927 29.7563 39.3624 30.3211 39.3624 30.9542C39.3624 31.5872 39.4927 32.1582 39.7534 32.6672C40.0265 33.1637 40.3926 33.5547 40.8519 33.8402C41.3236 34.1257 41.8511 34.2684 42.4345 34.2684ZM53.9025 36.2234C52.8971 36.2234 52.0034 35.9938 51.2214 35.5345C50.4518 35.0628 49.8498 34.4298 49.4153 33.6354C48.9809 32.8285 48.7636 31.9286 48.7636 30.9356C48.7636 29.9177 48.9809 29.0178 49.4153 28.2358C49.8622 27.4538 50.458 26.8393 51.2028 26.3925C51.9475 25.9332 52.7916 25.7036 53.735 25.7036C54.4922 25.7036 55.1687 25.8339 55.7645 26.0946C56.3603 26.3552 56.863 26.7152 57.2726 27.1745C57.6823 27.6213 57.9926 28.1365 58.2036 28.7199C58.427 29.3033 58.5387 29.9239 58.5387 30.5818C58.5387 30.7432 58.5325 30.9107 58.5201 31.0845C58.5077 31.2583 58.4829 31.4197 58.4456 31.5686H50.4207V29.8929H57.254L56.2486 30.6563C56.3727 30.048 56.3293 29.5081 56.1182 29.0364C55.9196 28.5523 55.6093 28.1737 55.1873 27.9006C54.7777 27.6151 54.2936 27.4724 53.735 27.4724C53.1764 27.4724 52.6799 27.6151 52.2454 27.9006C51.811 28.1737 51.4758 28.5709 51.24 29.0923C51.0041 29.6012 50.9111 30.2218 50.9607 30.9542C50.8986 31.6369 50.9917 32.2327 51.24 32.7416C51.5007 33.2506 51.8606 33.6478 52.3199 33.9333C52.7916 34.2188 53.3254 34.3615 53.9212 34.3615C54.5294 34.3615 55.0445 34.225 55.4666 33.9519C55.901 33.6788 56.2424 33.325 56.4906 32.8906L58.2036 33.7285C58.005 34.2001 57.6947 34.6284 57.2726 35.0132C56.863 35.3856 56.3665 35.6835 55.7831 35.9069C55.2121 36.1179 54.5853 36.2234 53.9025 36.2234ZM60.0335 36V25.927H62.0444V27.9006L61.8023 27.64C62.0506 27.0069 62.4478 26.529 62.994 26.2063C63.5401 25.8711 64.1732 25.7036 64.8931 25.7036C65.6379 25.7036 66.2958 25.8649 66.8668 26.1877C67.4378 26.5104 67.8846 26.9572 68.2074 27.5282C68.5301 28.0992 68.6915 28.7571 68.6915 29.5019V36H66.6061V30.0605C66.6061 29.5515 66.513 29.1233 66.3268 28.7757C66.1406 28.4158 65.8738 28.1427 65.5262 27.9565C65.1911 27.7579 64.8063 27.6586 64.3718 27.6586C63.9374 27.6586 63.5464 27.7579 63.1988 27.9565C62.8636 28.1427 62.603 28.4158 62.4168 28.7757C62.2306 29.1357 62.1375 29.5639 62.1375 30.0605V36H60.0335ZM74.1085 36.2234C73.0782 36.2234 72.1721 35.969 71.3901 35.46C70.6205 34.9511 70.0805 34.2684 69.7702 33.4119L71.3901 32.6485C71.6632 33.2195 72.0356 33.6726 72.5073 34.0077C72.9914 34.3429 73.5251 34.5105 74.1085 34.5105C74.605 34.5105 75.0084 34.3987 75.3188 34.1753C75.6291 33.9519 75.7842 33.6478 75.7842 33.263C75.7842 33.0147 75.716 32.8161 75.5794 32.6672C75.4429 32.5058 75.2691 32.3755 75.0581 32.2761C74.8595 32.1768 74.6547 32.1024 74.4437 32.0527L72.861 31.6059C71.9921 31.3576 71.3405 30.9852 70.906 30.4887C70.484 29.9798 70.2729 29.3902 70.2729 28.7199C70.2729 28.1116 70.4281 27.5841 70.7384 27.1372C71.0487 26.678 71.477 26.3242 72.0232 26.0759C72.5693 25.8277 73.1838 25.7036 73.8665 25.7036C74.785 25.7036 75.6043 25.9332 76.3242 26.3925C77.0442 26.8393 77.5531 27.4662 77.851 28.273L76.2311 29.0364C76.0325 28.5523 75.716 28.1675 75.2815 27.882C74.8595 27.5965 74.3816 27.4538 73.8478 27.4538C73.3886 27.4538 73.0224 27.5655 72.7493 27.7889C72.4762 27.9999 72.3397 28.2792 72.3397 28.6268C72.3397 28.8626 72.4017 29.0612 72.5259 29.2226C72.65 29.3715 72.8114 29.4957 73.01 29.595C73.2086 29.6819 73.4134 29.7563 73.6244 29.8184L75.2629 30.3025C76.0946 30.5384 76.7338 30.9107 77.1807 31.4197C77.6276 31.9162 77.851 32.512 77.851 33.2071C77.851 33.8029 77.6896 34.3305 77.3669 34.7897C77.0566 35.2366 76.6221 35.5904 76.0635 35.851C75.505 36.0993 74.8533 36.2234 74.1085 36.2234ZM84.0832 36.2234C83.0778 36.2234 82.184 35.9938 81.402 35.5345C80.6324 35.0628 80.0304 34.4298 79.596 33.6354C79.1615 32.8285 78.9443 31.9286 78.9443 30.9356C78.9443 29.9177 79.1615 29.0178 79.596 28.2358C80.0428 27.4538 80.6386 26.8393 81.3834 26.3925C82.1282 25.9332 82.9722 25.7036 83.9156 25.7036C84.6728 25.7036 85.3493 25.8339 85.9451 26.0946C86.5409 26.3552 87.0437 26.7152 87.4533 27.1745C87.8629 27.6213 88.1732 28.1365 88.3842 28.7199C88.6077 29.3033 88.7194 29.9239 88.7194 30.5818C88.7194 30.7432 88.7132 30.9107 88.7008 31.0845C88.6884 31.2583 88.6635 31.4197 88.6263 31.5686H80.6014V29.8929H87.4347L86.4292 30.6563C86.5534 30.048 86.5099 29.5081 86.2989 29.0364C86.1003 28.5523 85.79 28.1737 85.3679 27.9006C84.9583 27.6151 84.4742 27.4724 83.9156 27.4724C83.357 27.4724 82.8605 27.6151 82.4261 27.9006C81.9916 28.1737 81.6565 28.5709 81.4206 29.0923C81.1848 29.6012 81.0917 30.2218 81.1414 30.9542C81.0793 31.6369 81.1724 32.2327 81.4206 32.7416C81.6813 33.2506 82.0413 33.6478 82.5006 33.9333C82.9722 34.2188 83.506 34.3615 84.1018 34.3615C84.71 34.3615 85.2252 34.225 85.6472 33.9519C86.0817 33.6788 86.423 33.325 86.6713 32.8906L88.3842 33.7285C88.1856 34.2001 87.8753 34.6284 87.4533 35.0132C87.0437 35.3856 86.5471 35.6835 85.9637 35.9069C85.3928 36.1179 84.7659 36.2234 84.0832 36.2234ZM93.938 36.2234C92.9078 36.2234 92.0016 35.969 91.2196 35.46C90.45 34.9511 89.9101 34.2684 89.5997 33.4119L91.2196 32.6485C91.4927 33.2195 91.8651 33.6726 92.3368 34.0077C92.8209 34.3429 93.3546 34.5105 93.938 34.5105C94.4345 34.5105 94.838 34.3987 95.1483 34.1753C95.4586 33.9519 95.6138 33.6478 95.6138 33.263C95.6138 33.0147 95.5455 32.8161 95.4089 32.6672C95.2724 32.5058 95.0986 32.3755 94.8876 32.2761C94.689 32.1768 94.4842 32.1024 94.2732 32.0527L92.6905 31.6059C91.8216 31.3576 91.17 30.9852 90.7355 30.4887C90.3135 29.9798 90.1025 29.3902 90.1025 28.7199C90.1025 28.1116 90.2576 27.5841 90.5679 27.1372C90.8783 26.678 91.3065 26.3242 91.8527 26.0759C92.3988 25.8277 93.0133 25.7036 93.696 25.7036C94.6145 25.7036 95.4338 25.9332 96.1537 26.3925C96.8737 26.8393 97.3826 27.4662 97.6805 28.273L96.0606 29.0364C95.862 28.5523 95.5455 28.1675 95.111 27.882C94.689 27.5965 94.2111 27.4538 93.6774 27.4538C93.2181 27.4538 92.8519 27.5655 92.5788 27.7889C92.3057 27.9999 92.1692 28.2792 92.1692 28.6268C92.1692 28.8626 92.2313 29.0612 92.3554 29.2226C92.4795 29.3715 92.6409 29.4957 92.8395 29.595C93.0381 29.6819 93.2429 29.7563 93.4539 29.8184L95.0924 30.3025C95.9241 30.5384 96.5633 30.9107 97.0102 31.4197C97.4571 31.9162 97.6805 32.512 97.6805 33.2071C97.6805 33.8029 97.5191 34.3305 97.1964 34.7897C96.8861 35.2366 96.4516 35.5904 95.893 35.851C95.3345 36.0993 94.6828 36.2234 93.938 36.2234Z" fill="black"/>
<rect x="264" y="16" width="70" height="24" rx="12" fill="#F3F4F7"/>
<path d="M279.299 24.5577V31H278.452V26.1962L276.31 31H275.715L273.564 26.1869V31H272.717V24.5577H273.629L276.012 29.8828L278.396 24.5577H279.299ZM282.96 31.0838C282.483 31.0838 282.048 30.9752 281.657 30.7579C281.272 30.5407 280.968 30.2335 280.745 29.8363C280.528 29.4329 280.419 28.9674 280.419 28.4399C280.419 27.9185 280.531 27.4592 280.754 27.062C280.984 26.6586 281.294 26.3514 281.685 26.1404C282.076 25.9231 282.514 25.8145 282.998 25.8145C283.482 25.8145 283.919 25.9231 284.31 26.1404C284.701 26.3514 285.009 26.6555 285.232 27.0527C285.462 27.4499 285.576 27.9123 285.576 28.4399C285.576 28.9674 285.459 29.4329 285.223 29.8363C284.993 30.2335 284.68 30.5407 284.282 30.7579C283.885 30.9752 283.445 31.0838 282.96 31.0838ZM282.96 30.339C283.265 30.339 283.55 30.2676 283.817 30.1249C284.084 29.9821 284.298 29.768 284.459 29.4825C284.627 29.197 284.711 28.8495 284.711 28.4399C284.711 28.0302 284.63 27.6827 284.469 27.3972C284.307 27.1117 284.096 26.9007 283.836 26.7641C283.575 26.6214 283.293 26.55 282.988 26.55C282.678 26.55 282.393 26.6214 282.132 26.7641C281.877 26.9007 281.673 27.1117 281.517 27.3972C281.362 27.6827 281.285 28.0302 281.285 28.4399C281.285 28.8557 281.359 29.2063 281.508 29.4918C281.663 29.7773 281.868 29.9915 282.123 30.1342C282.377 30.2707 282.656 30.339 282.96 30.339ZM289.176 25.8052C289.797 25.8052 290.299 25.9945 290.684 26.3731C291.069 26.7455 291.261 27.2855 291.261 27.993V31H290.424V28.114C290.424 27.6051 290.296 27.2172 290.042 26.9503C289.787 26.6772 289.44 26.5407 288.999 26.5407C288.552 26.5407 288.195 26.6803 287.929 26.9596C287.668 27.2389 287.538 27.6454 287.538 28.1792V31H286.69V25.8983H287.538V26.6245C287.705 26.3638 287.932 26.1621 288.217 26.0193C288.509 25.8766 288.828 25.8052 289.176 25.8052ZM293.679 26.5965V29.6036C293.679 29.8518 293.731 30.0287 293.837 30.1342C293.942 30.2335 294.125 30.2832 294.386 30.2832H295.01V31H294.247C293.775 31 293.421 30.8914 293.185 30.6742C292.949 30.4569 292.831 30.1001 292.831 29.6036V26.5965H292.17V25.8983H292.831V24.6136H293.679V25.8983H295.01V26.5965H293.679ZM298.569 25.8052C298.953 25.8052 299.301 25.889 299.611 26.0566C299.922 26.218 300.164 26.4631 300.337 26.792C300.517 27.121 300.607 27.5213 300.607 27.993V31H299.77V28.114C299.77 27.6051 299.642 27.2172 299.388 26.9503C299.133 26.6772 298.786 26.5407 298.345 26.5407C297.898 26.5407 297.541 26.6803 297.275 26.9596C297.014 27.2389 296.884 27.6454 296.884 28.1792V31H296.036V24.1109H296.884V26.6245C297.051 26.3638 297.281 26.1621 297.572 26.0193C297.87 25.8766 298.202 25.8052 298.569 25.8052ZM302.838 24.1109V31H301.991V24.1109H302.838ZM308.676 25.8983L305.604 33.4019H304.729L305.735 30.9441L303.677 25.8983H304.617L306.219 30.0318L307.801 25.8983H308.676Z" fill="#787878"/>
<path d="M316.04 26.3479L319.3 29.8796C319.685 30.2967 320.315 30.2967 320.7 29.8796L323.96 26.3479" stroke="#787878" stroke-width="0.84633" stroke-miterlimit="10" stroke-linecap="round" stroke-linejoin="round"/>
<path d="M30.2063 96.5412C27.9514 96.5412 25.9519 96.0902 24.2081 95.1882C22.4943 94.2862 21.1413 93.0685 20.1492 91.5352C19.187 89.9717 18.706 88.2279 18.706 86.3036C18.706 84.1388 19.3073 82.2447 20.5099 80.6211C21.7126 78.9975 23.3662 77.8399 25.4709 77.1484L25.3807 78.2759C23.7872 77.6445 22.5394 76.6373 21.6374 75.2542C20.7655 73.8411 20.3295 72.3228 20.3295 70.6992C20.3295 68.9854 20.7505 67.4671 21.5923 66.1441C22.4643 64.8212 23.6368 63.7839 25.1101 63.0323C26.6134 62.2506 28.3122 61.8597 30.2063 61.8597C32.1005 61.8597 33.7842 62.2355 35.2575 62.9872C36.7307 63.7388 37.8883 64.7912 38.7301 66.1441C39.6021 67.4671 40.038 68.9854 40.038 70.6992C40.038 72.413 39.572 73.9464 38.6399 75.2993C37.7379 76.6523 36.5353 77.6595 35.032 78.321L34.8967 77.1484C37.0314 77.8399 38.7001 79.0125 39.9027 80.6662C41.1054 82.2898 41.7067 84.1689 41.7067 86.3036C41.7067 88.2279 41.2106 89.9717 40.2184 91.5352C39.2563 93.0685 37.9033 94.2862 36.1595 95.1882C34.4457 96.0902 32.4613 96.5412 30.2063 96.5412ZM30.2063 92.7077C31.6195 92.7077 32.8522 92.4371 33.9045 91.8959C34.9568 91.3548 35.7686 90.6031 36.3399 89.641C36.9412 88.6488 37.2419 87.5213 37.2419 86.2585C37.2419 84.9657 36.9412 83.8382 36.3399 82.8761C35.7686 81.8839 34.9568 81.1322 33.9045 80.6211C32.8522 80.0799 31.6195 79.8093 30.2063 79.8093C28.7932 79.8093 27.5455 80.0799 26.4631 80.6211C25.4108 81.1322 24.599 81.8839 24.0277 82.8761C23.4564 83.8382 23.1708 84.9657 23.1708 86.2585C23.1708 87.5213 23.4564 88.6488 24.0277 89.641C24.599 90.6031 25.4108 91.3548 26.4631 91.8959C27.5455 92.4371 28.7932 92.7077 30.2063 92.7077ZM30.2063 75.9758C31.2286 75.9758 32.1306 75.7503 32.9123 75.2993C33.7241 74.8483 34.3705 74.247 34.8516 73.4954C35.3326 72.7136 35.5732 71.8117 35.5732 70.7894C35.5732 69.7671 35.3326 68.8802 34.8516 68.1285C34.3705 67.3769 33.7241 66.7906 32.9123 66.3696C32.1306 65.9187 31.2286 65.6932 30.2063 65.6932C29.154 65.6932 28.222 65.9187 27.4102 66.3696C26.5984 66.7906 25.9519 67.3769 25.4709 68.1285C24.9898 68.8802 24.7493 69.7671 24.7493 70.7894C24.7493 71.8117 24.9898 72.7136 25.4709 73.4954C25.9519 74.247 26.5984 74.8483 27.4102 75.2993C28.222 75.7503 29.154 75.9758 30.2063 75.9758ZM57.8932 96.5412C56.1493 96.5412 54.5107 96.2405 52.9773 95.6392C51.444 95.0078 50.106 94.1209 48.9635 92.9783C47.851 91.8057 47.0392 90.4377 46.5281 88.8743L50.1361 87.3409C50.7675 88.9945 51.7897 90.2874 53.2028 91.2195C54.646 92.1214 56.2095 92.5724 57.8932 92.5724C59.2762 92.5724 60.4939 92.2718 61.5462 91.6705C62.6286 91.0391 63.4705 90.1822 64.0718 89.0998C64.6731 87.9873 64.9738 86.7546 64.9738 85.4016C64.9738 83.9885 64.6581 82.7408 64.0267 81.6584C63.4254 80.576 62.5986 79.7341 61.5462 79.1328C60.4939 78.5014 59.2913 78.1857 57.9383 78.1857C56.5552 78.1857 55.2924 78.5014 54.1499 79.1328C53.0074 79.7642 52.1806 80.5609 51.6695 81.5231L48.1066 80.7564L50.6773 62.4009H68.0857V66.2343H52.3459L54.0597 64.5206L52.0753 78.772L50.542 77.87C51.5342 76.6072 52.6917 75.7052 54.0146 75.164C55.3676 74.5928 56.8258 74.3072 58.3893 74.3072C60.5841 74.3072 62.5084 74.8032 64.162 75.7954C65.8157 76.7876 67.1085 78.1105 68.0406 79.7642C68.9726 81.4178 69.4386 83.297 69.4386 85.4016C69.4386 87.5063 68.9275 89.4004 67.9053 91.0842C66.9131 92.7679 65.5451 94.1058 63.8012 95.098C62.0874 96.0601 60.1181 96.5412 57.8932 96.5412ZM78.6033 96L106.024 62.4009H111.03L83.6094 96H78.6033ZM83.6545 79.4485C82.0008 79.4485 80.5126 79.0576 79.1896 78.2759C77.8667 77.4641 76.7994 76.3968 75.9876 75.0738C75.2059 73.7509 74.815 72.2777 74.815 70.6541C74.815 69.0305 75.2059 67.5573 75.9876 66.2343C76.7994 64.8814 77.8667 63.814 79.1896 63.0323C80.5126 62.2506 82.0008 61.8597 83.6545 61.8597C85.2781 61.8597 86.7513 62.2506 88.0742 63.0323C89.3972 63.814 90.4495 64.8814 91.2312 66.2343C92.0129 67.5573 92.4038 69.0305 92.4038 70.6541C92.4038 72.2777 92.0129 73.7509 91.2312 75.0738C90.4495 76.3968 89.3972 77.4641 88.0742 78.2759C86.7513 79.0576 85.2781 79.4485 83.6545 79.4485ZM83.6094 75.7503C84.6316 75.7503 85.5036 75.5098 86.2252 75.0287C86.9467 74.5477 87.518 73.9163 87.9389 73.1346C88.3599 72.3528 88.5703 71.526 88.5703 70.6541C88.5703 69.7521 88.3599 68.9253 87.9389 68.1736C87.518 67.3919 86.9467 66.7605 86.2252 66.2794C85.5036 65.7683 84.6316 65.5128 83.6094 65.5128C82.6473 65.5128 81.7904 65.7683 81.0387 66.2794C80.2871 66.7605 79.7008 67.3919 79.2798 68.1736C78.8589 68.9554 78.6484 69.7822 78.6484 70.6541C78.6484 71.496 78.8589 72.3228 79.2798 73.1346C79.7008 73.9163 80.2871 74.5477 81.0387 75.0287C81.7904 75.5098 82.6473 75.7503 83.6094 75.7503ZM105.708 96.5412C104.054 96.5412 102.566 96.1503 101.243 95.3686C99.9204 94.5568 98.853 93.4895 98.0412 92.1665C97.2595 90.8436 96.8686 89.3704 96.8686 87.7468C96.8686 86.1232 97.2595 84.65 98.0412 83.327C98.853 81.9741 99.9204 80.9067 101.243 80.125C102.566 79.3433 104.054 78.9524 105.708 78.9524C107.332 78.9524 108.805 79.3433 110.128 80.125C111.451 80.9067 112.503 81.9741 113.285 83.327C114.067 84.65 114.457 86.1232 114.457 87.7468C114.457 89.3704 114.067 90.8436 113.285 92.1665C112.503 93.4895 111.451 94.5568 110.128 95.3686C108.805 96.1503 107.332 96.5412 105.708 96.5412ZM105.708 92.843C106.7 92.843 107.557 92.6025 108.279 92.1214C109.03 91.6404 109.602 91.009 109.993 90.2273C110.414 89.4455 110.624 88.6187 110.624 87.7468C110.624 86.8448 110.414 86.018 109.993 85.2663C109.602 84.4846 109.03 83.8532 108.279 83.3721C107.557 82.861 106.7 82.6055 105.708 82.6055C104.746 82.6055 103.874 82.861 103.092 83.3721C102.341 83.8532 101.754 84.4846 101.333 85.2663C100.913 86.0481 100.702 86.8749 100.702 87.7468C100.702 88.5887 100.913 89.4155 101.333 90.2273C101.754 91.009 102.341 91.6404 103.092 92.1214C103.874 92.6025 104.746 92.843 105.708 92.843Z" fill="#0054F9"/>
<rect opacity="0.12" x="16" y="177.646" width="37.4118" height="63.3524" rx="18.7059" fill="#0054F9"/>
<rect x="16" y="195.745" width="37.4118" height="45.2517" rx="18.7059" fill="#0054F9"/>
<rect opacity="0.12" x="72.1182" y="152.758" width="37.4118" height="88.2408" rx="18.7059" fill="#0054F9"/>
<rect x="72.1182" y="177.646" width="37.4118" height="63.3524" rx="18.7059" fill="#0054F9"/>
<rect opacity="0.12" x="128.234" y="174.254" width="37.4118" height="66.7462" rx="18.7059" fill="#0054F9"/>
<rect x="128.234" y="198.01" width="37.4118" height="42.9891" rx="18.7059" fill="#0054F9"/>
<rect opacity="0.12" x="184.353" y="184.432" width="37.4118" height="56.5646" rx="18.7059" fill="#0054F9"/>
<rect x="184.353" y="198.007" width="37.4118" height="42.9891" rx="18.7059" fill="#0054F9"/>
<rect opacity="0.12" x="240.47" y="143.708" width="37.4118" height="97.2911" rx="18.7059" fill="#0054F9"/>
<rect x="240.47" y="170.858" width="37.4118" height="70.1401" rx="18.7059" fill="#0054F9"/>
<rect opacity="0.12" x="296.588" y="129" width="37.4118" height="111.998" rx="18.7059" fill="#0054F9"/>
<rect x="296.588" y="155.017" width="37.4118" height="85.9782" rx="18.7059" fill="#0054F9"/>
</svg>
