<svg width="324" height="318" viewBox="0 0 324 318" fill="none" xmlns="http://www.w3.org/2000/svg">
<rect width="324" height="317.346" fill="white" fill-opacity="0.6"/>
<path d="M22.42 39.5V25.9651H18.2326V23.7445H29.0183V25.9651H24.8943V39.5H22.42ZM28.7572 39.5V28.0588H31.0412V30.3639L30.8297 30.0256C31.0835 29.2783 31.4924 28.7426 32.0563 28.4183C32.6203 28.0799 33.297 27.9107 34.0866 27.9107H34.7845V30.089H33.7905C33.001 30.089 32.3595 30.3357 31.866 30.8292C31.3866 31.3086 31.147 31.9994 31.147 32.9017V39.5H28.7572ZM39.2109 39.7538C38.4355 39.7538 37.7517 39.6198 37.1595 39.352C36.5815 39.07 36.1303 38.6893 35.806 38.21C35.4818 37.7165 35.3196 37.1384 35.3196 36.4758C35.3196 35.8554 35.4536 35.2985 35.7214 34.8051C36.0034 34.3116 36.4334 33.8957 37.0115 33.5573C37.5895 33.219 38.3156 32.9793 39.1898 32.8383L43.1656 32.1827V34.0649L39.655 34.6782C39.0206 34.791 38.5553 34.9954 38.2592 35.2915C37.9632 35.5735 37.8151 35.94 37.8151 36.3912C37.8151 36.8283 37.9773 37.1878 38.3015 37.4698C38.6399 37.7376 39.0699 37.8716 39.5916 37.8716C40.2401 37.8716 40.8041 37.7306 41.2834 37.4486C41.7769 37.1666 42.1576 36.793 42.4254 36.3278C42.6933 35.8484 42.8273 35.3197 42.8273 34.7416V31.802C42.8273 31.2381 42.6158 30.7799 42.1928 30.4274C41.7839 30.0608 41.2341 29.8775 40.5432 29.8775C39.9088 29.8775 39.3519 30.0467 38.8725 30.3851C38.4073 30.7094 38.0619 31.1323 37.8363 31.654L35.8483 30.66C36.0598 30.0961 36.4052 29.6026 36.8846 29.1796C37.364 28.7426 37.9209 28.4042 38.5553 28.1645C39.2039 27.9248 39.8877 27.805 40.6067 27.805C41.509 27.805 42.3056 27.9742 42.9965 28.3126C43.7014 28.6509 44.2442 29.1232 44.6249 29.7295C45.0196 30.3216 45.217 31.0125 45.217 31.802V39.5H42.933V37.4275L43.4194 37.4909C43.1515 37.9562 42.8061 38.358 42.3832 38.6964C41.9743 39.0347 41.502 39.2956 40.9662 39.4789C40.4446 39.6621 39.8595 39.7538 39.2109 39.7538ZM47.3768 39.5V28.0588H49.6608V30.3005L49.3859 30.0044C49.6679 29.2854 50.119 28.7426 50.7394 28.376C51.3597 27.9953 52.0788 27.805 52.8965 27.805C53.7424 27.805 54.4897 27.9883 55.1382 28.3549C55.7868 28.7214 56.2943 29.229 56.6609 29.8775C57.0275 30.5261 57.2107 31.2733 57.2107 32.1192V39.5H54.8421V32.7537C54.8421 32.1756 54.7364 31.6892 54.5249 31.2945C54.3134 30.8856 54.0103 30.5754 53.6155 30.3639C53.2349 30.1384 52.7978 30.0256 52.3043 30.0256C51.8109 30.0256 51.3668 30.1384 50.972 30.3639C50.5913 30.5754 50.2953 30.8856 50.0838 31.2945C49.8723 31.7033 49.7665 32.1897 49.7665 32.7537V39.5H47.3768ZM63.3636 39.7538C62.1934 39.7538 61.1642 39.4648 60.2759 38.8867C59.4018 38.3086 58.7885 37.5332 58.436 36.5604L60.2759 35.6933C60.5861 36.3419 61.0091 36.8565 61.5448 37.2371C62.0947 37.6178 62.7009 37.8081 63.3636 37.8081C63.9275 37.8081 64.3857 37.6812 64.7382 37.4275C65.0907 37.1737 65.2669 36.8283 65.2669 36.3912C65.2669 36.1092 65.1894 35.8836 65.0343 35.7145C64.8792 35.5312 64.6818 35.3831 64.4421 35.2703C64.2166 35.1576 63.9839 35.073 63.7442 35.0166L61.9466 34.509C60.9597 34.227 60.2195 33.8041 59.7261 33.2401C59.2467 32.6621 59.007 31.9924 59.007 31.231C59.007 30.5402 59.1833 29.941 59.5357 29.4334C59.8882 28.9118 60.3746 28.5099 60.995 28.228C61.6153 27.946 62.3132 27.805 63.0886 27.805C64.132 27.805 65.0625 28.0658 65.8802 28.5875C66.698 29.095 67.276 29.807 67.6144 30.7235L65.7745 31.5905C65.5489 31.0407 65.1894 30.6036 64.6959 30.2793C64.2166 29.9551 63.6737 29.7929 63.0675 29.7929C62.5458 29.7929 62.1299 29.9198 61.8197 30.1736C61.5096 30.4133 61.3545 30.7305 61.3545 31.1253C61.3545 31.3932 61.425 31.6187 61.566 31.802C61.707 31.9712 61.8902 32.1122 62.1158 32.225C62.3414 32.3237 62.574 32.4083 62.8137 32.4788L64.6748 33.0286C65.6194 33.2965 66.3455 33.7195 66.853 34.2975C67.3606 34.8615 67.6144 35.5382 67.6144 36.3278C67.6144 37.0045 67.4311 37.6037 67.0645 38.1254C66.7121 38.6329 66.2186 39.0347 65.5841 39.3308C64.9497 39.6128 64.2095 39.7538 63.3636 39.7538ZM72.7475 39.7538C71.972 39.7538 71.2882 39.6198 70.6961 39.352C70.118 39.07 69.6669 38.6893 69.3426 38.21C69.0183 37.7165 68.8562 37.1384 68.8562 36.4758C68.8562 35.8554 68.9901 35.2985 69.258 34.8051C69.54 34.3116 69.97 33.8957 70.548 33.5573C71.1261 33.219 71.8522 32.9793 72.7263 32.8383L76.7022 32.1827V34.0649L73.1916 34.6782C72.5571 34.791 72.0919 34.9954 71.7958 35.2915C71.4997 35.5735 71.3517 35.94 71.3517 36.3912C71.3517 36.8283 71.5138 37.1878 71.8381 37.4698C72.1765 37.7376 72.6065 37.8716 73.1281 37.8716C73.7767 37.8716 74.3406 37.7306 74.82 37.4486C75.3135 37.1666 75.6941 36.793 75.962 36.3278C76.2299 35.8484 76.3638 35.3197 76.3638 34.7416V31.802C76.3638 31.2381 76.1523 30.7799 75.7294 30.4274C75.3205 30.0608 74.7707 29.8775 74.0798 29.8775C73.4454 29.8775 72.8885 30.0467 72.4091 30.3851C71.9438 30.7094 71.5984 31.1323 71.3728 31.654L69.3849 30.66C69.5964 30.0961 69.9418 29.6026 70.4212 29.1796C70.9005 28.7426 71.4574 28.4042 72.0919 28.1645C72.7404 27.9248 73.4242 27.805 74.1433 27.805C75.0456 27.805 75.8422 27.9742 76.533 28.3126C77.238 28.6509 77.7808 29.1232 78.1614 29.7295C78.5562 30.3216 78.7536 31.0125 78.7536 31.802V39.5H76.4696V37.4275L76.956 37.4909C76.6881 37.9562 76.3427 38.358 75.9197 38.6964C75.5108 39.0347 75.0385 39.2956 74.5028 39.4789C73.9811 39.6621 73.396 39.7538 72.7475 39.7538ZM86.3485 39.7538C85.2065 39.7538 84.1913 39.493 83.3031 38.9713C82.429 38.4355 81.7311 37.7165 81.2094 36.8142C80.7019 35.9118 80.4481 34.8897 80.4481 33.7477C80.4481 32.6198 80.7019 31.6046 81.2094 30.7023C81.717 29.8 82.4149 29.095 83.3031 28.5875C84.1913 28.0658 85.2065 27.805 86.3485 27.805C87.1239 27.805 87.85 27.946 88.5267 28.228C89.2035 28.4958 89.7886 28.8695 90.282 29.3488C90.7896 29.8282 91.1632 30.3851 91.4029 31.0195L89.3092 31.9924C89.0695 31.4002 88.6818 30.9279 88.1461 30.5754C87.6244 30.2089 87.0252 30.0256 86.3485 30.0256C85.6999 30.0256 85.1148 30.1877 84.5932 30.512C84.0856 30.8222 83.6838 31.2663 83.3877 31.8443C83.0916 32.4083 82.9436 33.0498 82.9436 33.7688C82.9436 34.4879 83.0916 35.1364 83.3877 35.7145C83.6838 36.2784 84.0856 36.7225 84.5932 37.0468C85.1148 37.3711 85.6999 37.5332 86.3485 37.5332C87.0393 37.5332 87.6385 37.357 88.1461 37.0045C88.6677 36.6379 89.0554 36.1515 89.3092 35.5453L91.4029 36.5392C91.1773 37.1455 90.8107 37.6953 90.3032 38.1888C89.8097 38.6682 89.2246 39.0488 88.5479 39.3308C87.8711 39.6128 87.138 39.7538 86.3485 39.7538ZM98.0529 39.6269C96.8545 39.6269 95.924 39.2885 95.2613 38.6118C94.5987 37.935 94.2673 36.9834 94.2673 35.7568V30.2159H92.2583V28.0588H92.5755C93.1112 28.0588 93.5271 27.9037 93.8232 27.5935C94.1193 27.2833 94.2673 26.8604 94.2673 26.3246V25.4364H96.6571V28.0588H99.2583V30.2159H96.6571V35.651C96.6571 36.0458 96.7205 36.3842 96.8474 36.6661C96.9743 36.934 97.1788 37.1455 97.4607 37.3006C97.7427 37.4416 98.1093 37.5121 98.5604 37.5121C98.6732 37.5121 98.8001 37.505 98.9411 37.4909C99.0821 37.4768 99.216 37.4627 99.3429 37.4486V39.5C99.1455 39.5282 98.927 39.5564 98.6873 39.5846C98.4477 39.6128 98.2362 39.6269 98.0529 39.6269ZM101.041 39.5V28.0588H103.43V39.5H101.041ZM101.041 26.4938V23.7445H103.43V26.4938H101.041ZM111.11 39.7538C110.01 39.7538 109.002 39.493 108.085 38.9713C107.183 38.4496 106.464 37.7376 105.928 36.8353C105.393 35.933 105.125 34.9108 105.125 33.7688C105.125 32.6127 105.393 31.5905 105.928 30.7023C106.464 29.8 107.183 29.095 108.085 28.5875C108.988 28.0658 109.996 27.805 111.11 27.805C112.238 27.805 113.246 28.0658 114.134 28.5875C115.036 29.095 115.748 29.8 116.27 30.7023C116.806 31.5905 117.073 32.6127 117.073 33.7688C117.073 34.9249 116.806 35.9541 116.27 36.8565C115.734 37.7588 115.015 38.4708 114.113 38.9924C113.21 39.5 112.209 39.7538 111.11 39.7538ZM111.11 37.5332C111.786 37.5332 112.386 37.3711 112.907 37.0468C113.429 36.7225 113.838 36.2784 114.134 35.7145C114.444 35.1364 114.599 34.4879 114.599 33.7688C114.599 33.0498 114.444 32.4083 114.134 31.8443C113.838 31.2804 113.429 30.8363 112.907 30.512C112.386 30.1877 111.786 30.0256 111.11 30.0256C110.447 30.0256 109.848 30.1877 109.312 30.512C108.79 30.8363 108.374 31.2804 108.064 31.8443C107.768 32.4083 107.62 33.0498 107.62 33.7688C107.62 34.4879 107.768 35.1364 108.064 35.7145C108.374 36.2784 108.79 36.7225 109.312 37.0468C109.848 37.3711 110.447 37.5332 111.11 37.5332ZM118.772 39.5V28.0588H121.056V30.3005L120.781 30.0044C121.063 29.2854 121.514 28.7426 122.135 28.376C122.755 27.9953 123.474 27.805 124.292 27.805C125.138 27.805 125.885 27.9883 126.534 28.3549C127.182 28.7214 127.69 29.229 128.056 29.8775C128.423 30.5261 128.606 31.2733 128.606 32.1192V39.5H126.237V32.7537C126.237 32.1756 126.132 31.6892 125.92 31.2945C125.709 30.8856 125.406 30.5754 125.011 30.3639C124.63 30.1384 124.193 30.0256 123.7 30.0256C123.206 30.0256 122.762 30.1384 122.367 30.3639C121.987 30.5754 121.691 30.8856 121.479 31.2945C121.268 31.7033 121.162 32.1897 121.162 32.7537V39.5H118.772ZM134.759 39.7538C133.589 39.7538 132.559 39.4648 131.671 38.8867C130.797 38.3086 130.184 37.5332 129.831 36.5604L131.671 35.6933C131.981 36.3419 132.404 36.8565 132.94 37.2371C133.49 37.6178 134.096 37.8081 134.759 37.8081C135.323 37.8081 135.781 37.6812 136.134 37.4275C136.486 37.1737 136.662 36.8283 136.662 36.3912C136.662 36.1092 136.585 35.8836 136.43 35.7145C136.275 35.5312 136.077 35.3831 135.837 35.2703C135.612 35.1576 135.379 35.073 135.14 35.0166L133.342 34.509C132.355 34.227 131.615 33.8041 131.121 33.2401C130.642 32.6621 130.402 31.9924 130.402 31.231C130.402 30.5402 130.579 29.941 130.931 29.4334C131.284 28.9118 131.77 28.5099 132.39 28.228C133.011 27.946 133.709 27.805 134.484 27.805C135.527 27.805 136.458 28.0658 137.276 28.5875C138.093 29.095 138.671 29.807 139.01 30.7235L137.17 31.5905C136.944 31.0407 136.585 30.6036 136.091 30.2793C135.612 29.9551 135.069 29.7929 134.463 29.7929C133.941 29.7929 133.525 29.9198 133.215 30.1736C132.905 30.4133 132.75 30.7305 132.75 31.1253C132.75 31.3932 132.82 31.6187 132.961 31.802C133.102 31.9712 133.286 32.1122 133.511 32.225C133.737 32.3237 133.969 32.4083 134.209 32.4788L136.07 33.0286C137.015 33.2965 137.741 33.7195 138.248 34.2975C138.756 34.8615 139.01 35.5382 139.01 36.3278C139.01 37.0045 138.826 37.6037 138.46 38.1254C138.107 38.6329 137.614 39.0347 136.979 39.3308C136.345 39.6128 135.605 39.7538 134.759 39.7538Z" fill="#131313"/>
<rect x="226.713" y="18" width="79.2871" height="26" rx="13" fill="#F3F4F7"/>
<path d="M244.003 27.6827V35H243.041V29.5437L240.609 35H239.932L237.489 29.5332V35H236.527V27.6827H237.563L240.27 33.7311L242.977 27.6827H244.003ZM248.162 35.0952C247.619 35.0952 247.126 34.9718 246.682 34.7251C246.245 34.4783 245.899 34.1294 245.645 33.6782C245.399 33.22 245.275 32.6913 245.275 32.0921C245.275 31.5 245.402 30.9783 245.656 30.5271C245.917 30.0689 246.269 29.72 246.713 29.4803C247.158 29.2336 247.655 29.1102 248.204 29.1102C248.754 29.1102 249.251 29.2336 249.695 29.4803C250.139 29.72 250.488 30.0654 250.742 30.5166C251.003 30.9677 251.133 31.4929 251.133 32.0921C251.133 32.6913 251 33.22 250.732 33.6782C250.471 34.1294 250.115 34.4783 249.664 34.7251C249.212 34.9718 248.712 35.0952 248.162 35.0952ZM248.162 34.2492C248.508 34.2492 248.832 34.1682 249.135 34.006C249.438 33.8439 249.681 33.6007 249.865 33.2764C250.055 32.9521 250.15 32.5574 250.15 32.0921C250.15 31.6268 250.058 31.2321 249.875 30.9078C249.692 30.5835 249.452 30.3439 249.156 30.1888C248.86 30.0266 248.539 29.9456 248.194 29.9456C247.841 29.9456 247.517 30.0266 247.221 30.1888C246.932 30.3439 246.699 30.5835 246.523 30.9078C246.347 31.2321 246.259 31.6268 246.259 32.0921C246.259 32.5644 246.343 32.9627 246.513 33.287C246.689 33.6113 246.921 33.8545 247.21 34.0166C247.499 34.1717 247.817 34.2492 248.162 34.2492ZM255.222 29.0996C255.927 29.0996 256.498 29.3146 256.935 29.7447C257.372 30.1676 257.591 30.7809 257.591 31.5846V35H256.639V31.722C256.639 31.144 256.494 30.7034 256.205 30.4002C255.916 30.0901 255.522 29.935 255.021 29.935C254.513 29.935 254.108 30.0936 253.805 30.4108C253.509 30.728 253.361 31.1898 253.361 31.796V35H252.399V29.2054H253.361V30.0302C253.551 29.7341 253.809 29.505 254.133 29.3428C254.464 29.1807 254.827 29.0996 255.222 29.0996ZM260.336 29.9984V33.4139C260.336 33.6959 260.396 33.8968 260.516 34.0166C260.636 34.1294 260.844 34.1858 261.14 34.1858H261.848V35H260.981C260.445 35 260.044 34.8766 259.776 34.6299C259.508 34.3832 259.374 33.9778 259.374 33.4139V29.9984H258.623V29.2054H259.374V27.7461H260.336V29.2054H261.848V29.9984H260.336ZM265.89 29.0996C266.327 29.0996 266.722 29.1948 267.075 29.3851C267.427 29.5684 267.702 29.8469 267.899 30.2205C268.104 30.5941 268.206 31.0488 268.206 31.5846V35H267.254V31.722C267.254 31.144 267.11 30.7034 266.821 30.4002C266.532 30.0901 266.137 29.935 265.636 29.935C265.129 29.935 264.724 30.0936 264.42 30.4108C264.124 30.728 263.976 31.1898 263.976 31.796V35H263.014V27.1751H263.976V30.0302C264.167 29.7341 264.428 29.505 264.759 29.3428C265.097 29.1807 265.474 29.0996 265.89 29.0996ZM270.74 27.1751V35H269.778V27.1751H270.74ZM277.371 29.2054L273.882 37.7281H272.888L274.03 34.9366L271.693 29.2054H272.761L274.579 33.9003L276.377 29.2054H277.371Z" fill="#787878"/>
<path d="M285.38 29.2209L289.183 33.0242C289.633 33.4734 290.368 33.4734 290.817 33.0242L294.62 29.2209" stroke="#787878" stroke-width="0.961286" stroke-miterlimit="10" stroke-linecap="round" stroke-linejoin="round"/>
<path d="M27.4983 86.3618C25.9907 86.3618 24.6539 86.0603 23.4879 85.4572C22.3421 84.8542 21.4375 84.04 20.7741 83.0148C20.1308 81.9695 19.8092 80.8035 19.8092 79.517C19.8092 78.0696 20.2113 76.8032 21.0153 75.7177C21.8194 74.6321 22.9251 73.8582 24.3322 73.3958L24.2719 74.1497C23.2065 73.7275 22.3723 73.0541 21.7692 72.1294C21.1862 71.1846 20.8947 70.1694 20.8947 69.0839C20.8947 67.9381 21.1762 66.9229 21.739 66.0384C22.322 65.1539 23.106 64.4604 24.091 63.9578C25.0961 63.4351 26.2319 63.1738 27.4983 63.1738C28.7648 63.1738 29.8905 63.4251 30.8755 63.9277C31.8606 64.4302 32.6345 65.1338 33.1974 66.0384C33.7803 66.9229 34.0718 67.9381 34.0718 69.0839C34.0718 70.2297 33.7602 71.2549 33.137 72.1596C32.534 73.0642 31.7299 73.7376 30.7248 74.1798L30.6343 73.3958C32.0616 73.8582 33.1773 74.6422 33.9813 75.7478C34.7854 76.8333 35.1875 78.0897 35.1875 79.517C35.1875 80.8035 34.8558 81.9695 34.1924 83.0148C33.5491 84.04 32.6445 84.8542 31.4786 85.4572C30.3328 86.0603 29.006 86.3618 27.4983 86.3618ZM27.4983 83.7988C28.4432 83.7988 29.2674 83.6179 29.9709 83.256C30.6745 82.8942 31.2173 82.3916 31.5992 81.7484C32.0013 81.085 32.2023 80.3311 32.2023 79.4868C32.2023 78.6224 32.0013 77.8686 31.5992 77.2253C31.2173 76.562 30.6745 76.0594 29.9709 75.7177C29.2674 75.3558 28.4432 75.1749 27.4983 75.1749C26.5535 75.1749 25.7193 75.3558 24.9956 75.7177C24.292 76.0594 23.7493 76.562 23.3673 77.2253C22.9854 77.8686 22.7944 78.6224 22.7944 79.4868C22.7944 80.3311 22.9854 81.085 23.3673 81.7484C23.7493 82.3916 24.292 82.8942 24.9956 83.256C25.7193 83.6179 26.5535 83.7988 27.4983 83.7988ZM27.4983 72.6119C28.1818 72.6119 28.7849 72.4611 29.3076 72.1596C29.8503 71.858 30.2825 71.456 30.6042 70.9534C30.9258 70.4308 31.0866 69.8277 31.0866 69.1442C31.0866 68.4607 30.9258 67.8677 30.6042 67.3651C30.2825 66.8626 29.8503 66.4706 29.3076 66.1892C28.7849 65.8876 28.1818 65.7369 27.4983 65.7369C26.7948 65.7369 26.1716 65.8876 25.6288 66.1892C25.0861 66.4706 24.6539 66.8626 24.3322 67.3651C24.0106 67.8677 23.8498 68.4607 23.8498 69.1442C23.8498 69.8277 24.0106 70.4308 24.3322 70.9534C24.6539 71.456 25.0861 71.858 25.6288 72.1596C26.1716 72.4611 26.7948 72.6119 27.4983 72.6119ZM46.0098 86.3618C44.8438 86.3618 43.7482 86.1608 42.723 85.7588C41.6978 85.3366 40.8033 84.7436 40.0394 83.9797C39.2956 83.1957 38.7528 82.2811 38.4111 81.2357L40.8234 80.2105C41.2455 81.3162 41.929 82.1806 42.8738 82.8037C43.8387 83.4068 44.884 83.7083 46.0098 83.7083C46.9345 83.7083 47.7486 83.5073 48.4522 83.1053C49.1759 82.6831 49.7387 82.1102 50.1408 81.3865C50.5428 80.6427 50.7439 79.8185 50.7439 78.9139C50.7439 77.9691 50.5328 77.1349 50.1106 76.4112C49.7086 75.6875 49.1558 75.1246 48.4522 74.7226C47.7486 74.3004 46.9445 74.0894 46.0399 74.0894C45.1152 74.0894 44.2709 74.3004 43.507 74.7226C42.7431 75.1447 42.1903 75.6775 41.8486 76.3207L39.4665 75.8081L41.1852 63.5357H52.8244V66.0987H42.3009L43.4467 64.9529L42.12 74.4814L41.0947 73.8783C41.7581 73.034 42.5321 72.4309 43.4166 72.0691C44.3212 71.6871 45.2961 71.4962 46.3414 71.4962C47.8089 71.4962 49.0955 71.8279 50.2011 72.4912C51.3067 73.1546 52.1711 74.0391 52.7943 75.1447C53.4175 76.2504 53.729 77.5068 53.729 78.9139C53.729 80.3211 53.3873 81.5875 52.7038 82.7133C52.0405 83.839 51.1258 84.7336 49.9599 85.3969C48.814 86.0402 47.4973 86.3618 46.0098 86.3618ZM59.8566 86L78.1899 63.5357H81.5369L63.2036 86H59.8566ZM63.2338 74.9337C62.1281 74.9337 61.1331 74.6723 60.2486 74.1497C59.3641 73.6069 58.6504 72.8933 58.1077 72.0088C57.585 71.1243 57.3237 70.1393 57.3237 69.0537C57.3237 67.9682 57.585 66.9832 58.1077 66.0987C58.6504 65.1941 59.3641 64.4805 60.2486 63.9578C61.1331 63.4351 62.1281 63.1738 63.2338 63.1738C64.3193 63.1738 65.3043 63.4351 66.1888 63.9578C67.0733 64.4805 67.7769 65.1941 68.2995 66.0987C68.8222 66.9832 69.0835 67.9682 69.0835 69.0537C69.0835 70.1393 68.8222 71.1243 68.2995 72.0088C67.7769 72.8933 67.0733 73.6069 66.1888 74.1497C65.3043 74.6723 64.3193 74.9337 63.2338 74.9337ZM63.2036 72.4611C63.8871 72.4611 64.47 72.3003 64.9525 71.9786C65.435 71.657 65.8169 71.2348 66.0983 70.7122C66.3798 70.1895 66.5205 69.6367 66.5205 69.0537C66.5205 68.4507 66.3798 67.8979 66.0983 67.3953C65.8169 66.8726 65.435 66.4505 64.9525 66.1289C64.47 65.7871 63.8871 65.6162 63.2036 65.6162C62.5603 65.6162 61.9874 65.7871 61.4849 66.1289C60.9823 66.4505 60.5903 66.8726 60.3089 67.3953C60.0274 67.918 59.8867 68.4708 59.8867 69.0537C59.8867 69.6166 60.0274 70.1694 60.3089 70.7122C60.5903 71.2348 60.9823 71.657 61.4849 71.9786C61.9874 72.3003 62.5603 72.4611 63.2036 72.4611ZM77.9788 86.3618C76.8732 86.3618 75.8781 86.1005 74.9936 85.5779C74.1091 85.0351 73.3955 84.3215 72.8527 83.437C72.3301 82.5525 72.0687 81.5674 72.0687 80.4819C72.0687 79.3964 72.3301 78.4114 72.8527 77.5269C73.3955 76.6223 74.1091 75.9086 74.9936 75.386C75.8781 74.8633 76.8732 74.602 77.9788 74.602C79.0643 74.602 80.0493 74.8633 80.9338 75.386C81.8184 75.9086 82.5219 76.6223 83.0446 77.5269C83.5673 78.4114 83.8286 79.3964 83.8286 80.4819C83.8286 81.5674 83.5673 82.5525 83.0446 83.437C82.5219 84.3215 81.8184 85.0351 80.9338 85.5779C80.0493 86.1005 79.0643 86.3618 77.9788 86.3618ZM77.9788 83.8893C78.6422 83.8893 79.2151 83.7284 79.6976 83.4068C80.2001 83.0852 80.5821 82.663 80.8434 82.1404C81.1248 81.6177 81.2655 81.0649 81.2655 80.4819C81.2655 79.8788 81.1248 79.326 80.8434 78.8235C80.5821 78.3008 80.2001 77.8787 79.6976 77.557C79.2151 77.2153 78.6422 77.0444 77.9788 77.0444C77.3355 77.0444 76.7526 77.2153 76.2299 77.557C75.7273 77.8787 75.3354 78.3008 75.0539 78.8235C74.7725 79.3461 74.6318 79.8989 74.6318 80.4819C74.6318 81.0448 74.7725 81.5976 75.0539 82.1404C75.3354 82.663 75.7273 83.0852 76.2299 83.4068C76.7526 83.7284 77.3355 83.8893 77.9788 83.8893Z" fill="#131313"/>
<rect x="96" y="64" width="45" height="20" rx="4.54399" fill="white" fill-opacity="0.03"/>
<rect x="96.3787" y="64.3787" width="44.2427" height="19.2427" rx="4.16532" stroke="white" stroke-opacity="0.2" stroke-width="0.757331"/>
<path d="M106.5 71.3739V76.6239" stroke="#17B26A" stroke-width="1.136" stroke-linecap="round" stroke-linejoin="round"/>
<path d="M108.75 73.6239L106.5 71.3739" stroke="#17B26A" stroke-width="1.136" stroke-linecap="round" stroke-linejoin="round"/>
<path d="M104.25 73.6239L106.5 71.3739" stroke="#17B26A" stroke-width="1.136" stroke-linecap="round" stroke-linejoin="round"/>
<path d="M118.02 69.289V77H116.853V70.4562H116.808L114.963 71.661V70.5465L116.887 69.289H118.02ZM120.106 77V76.1566L122.715 73.4532C122.994 73.1596 123.224 72.9023 123.404 72.6814C123.588 72.458 123.724 72.2459 123.815 72.0451C123.905 71.8443 123.95 71.6309 123.95 71.405C123.95 71.149 123.89 70.9281 123.77 70.7423C123.649 70.5541 123.485 70.4097 123.276 70.3093C123.068 70.2064 122.833 70.155 122.572 70.155C122.296 70.155 122.055 70.2115 121.849 70.3244C121.644 70.4374 121.485 70.5968 121.375 70.8026C121.264 71.0084 121.209 71.2494 121.209 71.5255H120.099C120.099 71.0561 120.206 70.6457 120.422 70.2943C120.638 69.9429 120.934 69.6705 121.311 69.4772C121.687 69.2815 122.115 69.1836 122.595 69.1836C123.079 69.1836 123.506 69.2802 123.875 69.4735C124.246 69.6643 124.536 69.9253 124.745 70.2566C124.953 70.5855 125.057 70.957 125.057 71.3711C125.057 71.6573 125.003 71.9371 124.895 72.2107C124.79 72.4843 124.605 72.7893 124.342 73.1257C124.078 73.4595 123.712 73.8649 123.242 74.3418L121.71 75.9458V76.0022H125.181V77H120.106ZM130.633 75.5542V75.1476C130.633 74.8564 130.694 74.5903 130.814 74.3493C130.937 74.1059 131.115 73.9113 131.349 73.7657C131.585 73.6176 131.87 73.5436 132.203 73.5436C132.545 73.5436 132.831 73.6164 133.062 73.762C133.293 73.9076 133.467 74.1021 133.585 74.3456C133.706 74.5891 133.766 74.8564 133.766 75.1476V75.5542C133.766 75.8454 133.706 76.1127 133.585 76.3562C133.465 76.5971 133.288 76.7917 133.054 76.9398C132.823 77.0853 132.54 77.1581 132.203 77.1581C131.865 77.1581 131.578 77.0853 131.345 76.9398C131.112 76.7917 130.935 76.5971 130.814 76.3562C130.694 76.1127 130.633 75.8454 130.633 75.5542ZM131.511 75.1476V75.5542C131.511 75.7701 131.562 75.9658 131.665 76.1415C131.768 76.3173 131.947 76.4051 132.203 76.4051C132.457 76.4051 132.634 76.3173 132.734 76.1415C132.835 75.9658 132.885 75.7701 132.885 75.5542V75.1476C132.885 74.9317 132.836 74.7359 132.738 74.5602C132.643 74.3845 132.465 74.2966 132.203 74.2966C131.952 74.2966 131.774 74.3845 131.669 74.5602C131.563 74.7359 131.511 74.9317 131.511 75.1476ZM126.755 71.1414V70.7348C126.755 70.4436 126.816 70.1763 126.936 69.9328C127.059 69.6894 127.237 69.4948 127.471 69.3492C127.707 69.2036 127.992 69.1309 128.325 69.1309C128.667 69.1309 128.953 69.2036 129.184 69.3492C129.415 69.4948 129.589 69.6894 129.707 69.9328C129.825 70.1763 129.884 70.4436 129.884 70.7348V71.1414C129.884 71.4326 129.824 71.6999 129.703 71.9434C129.585 72.1844 129.41 72.3789 129.176 72.527C128.945 72.6726 128.662 72.7454 128.325 72.7454C127.984 72.7454 127.697 72.6726 127.463 72.527C127.232 72.3789 127.057 72.1844 126.936 71.9434C126.816 71.6999 126.755 71.4326 126.755 71.1414ZM127.636 70.7348V71.1414C127.636 71.3573 127.687 71.5531 127.787 71.7288C127.89 71.9045 128.069 71.9924 128.325 71.9924C128.576 71.9924 128.752 71.9045 128.853 71.7288C128.955 71.5531 129.007 71.3573 129.007 71.1414V70.7348C129.007 70.5189 128.958 70.3232 128.86 70.1474C128.762 69.9717 128.584 69.8839 128.325 69.8839C128.074 69.8839 127.896 69.9717 127.791 70.1474C127.688 70.3232 127.636 70.5189 127.636 70.7348ZM127.113 77L132.414 69.289H133.314L128.013 77H127.113Z" fill="#131313"/>
<g clip-path="url(#clip0_2366_54020)">
<rect x="18" y="135.989" width="52.7531" height="146.785" rx="26.3765" fill="#3995F8" fill-opacity="0.04"/>
<line x1="180.103" y1="-134.916" x2="-90.1905" y2="314.929" stroke="#0054F9" stroke-opacity="0.12" stroke-width="3.78666"/>
<line x1="180.955" y1="-122.808" x2="-89.3389" y2="327.036" stroke="#0054F9" stroke-opacity="0.12" stroke-width="3.78666"/>
<line x1="181.806" y1="-110.701" x2="-88.4874" y2="339.144" stroke="#0054F9" stroke-opacity="0.12" stroke-width="3.78666"/>
<line x1="182.659" y1="-98.5935" x2="-87.6348" y2="351.251" stroke="#0054F9" stroke-opacity="0.12" stroke-width="3.78666"/>
<line x1="183.511" y1="-86.4862" x2="-86.7833" y2="363.358" stroke="#0054F9" stroke-opacity="0.12" stroke-width="3.78666"/>
<line x1="184.362" y1="-74.3789" x2="-85.9317" y2="375.466" stroke="#0054F9" stroke-opacity="0.12" stroke-width="3.78666"/>
<line x1="185.215" y1="-62.2733" x2="-85.0792" y2="387.571" stroke="#0054F9" stroke-opacity="0.12" stroke-width="3.78666"/>
<line x1="186.065" y1="-50.1641" x2="-84.2286" y2="399.68" stroke="#0054F9" stroke-opacity="0.12" stroke-width="3.78666"/>
<line x1="186.918" y1="-38.0586" x2="-83.376" y2="411.786" stroke="#0054F9" stroke-opacity="0.12" stroke-width="3.78666"/>
<line x1="187.77" y1="-25.9494" x2="-82.5235" y2="423.895" stroke="#0054F9" stroke-opacity="0.12" stroke-width="3.78666"/>
<line x1="188.622" y1="-13.8455" x2="-81.6719" y2="435.999" stroke="#0054F9" stroke-opacity="0.12" stroke-width="3.78666"/>
<line x1="189.473" y1="-1.73824" x2="-80.8204" y2="448.106" stroke="#0054F9" stroke-opacity="0.12" stroke-width="3.78666"/>
<line x1="190.326" y1="10.3691" x2="-79.9678" y2="460.214" stroke="#0054F9" stroke-opacity="0.12" stroke-width="3.78666"/>
<line x1="191.178" y1="22.4782" x2="-79.1163" y2="472.323" stroke="#0054F9" stroke-opacity="0.12" stroke-width="3.78666"/>
<line x1="192.03" y1="34.5873" x2="-78.2637" y2="484.432" stroke="#0054F9" stroke-opacity="0.12" stroke-width="3.78666"/>
<line x1="192.883" y1="46.6912" x2="-77.4112" y2="496.536" stroke="#0054F9" stroke-opacity="0.12" stroke-width="3.78666"/>
<line x1="193.734" y1="58.7985" x2="-76.5596" y2="508.643" stroke="#0054F9" stroke-opacity="0.12" stroke-width="3.78666"/>
<line x1="194.586" y1="70.9058" x2="-75.7081" y2="520.75" stroke="#0054F9" stroke-opacity="0.12" stroke-width="3.78666"/>
<line x1="195.438" y1="83.0114" x2="-74.8555" y2="532.856" stroke="#0054F9" stroke-opacity="0.12" stroke-width="3.78666"/>
<line x1="196.29" y1="95.117" x2="-74.004" y2="544.961" stroke="#0054F9" stroke-opacity="0.12" stroke-width="3.78666"/>
<line x1="197.142" y1="107.228" x2="-73.1514" y2="557.072" stroke="#0054F9" stroke-opacity="0.12" stroke-width="3.78666"/>
<line x1="197.994" y1="119.335" x2="-72.2999" y2="569.18" stroke="#0054F9" stroke-opacity="0.12" stroke-width="3.78666"/>
<line x1="198.846" y1="131.443" x2="-71.4483" y2="581.287" stroke="#0054F9" stroke-opacity="0.12" stroke-width="3.78666"/>
<line x1="199.698" y1="143.55" x2="-70.5958" y2="593.394" stroke="#0054F9" stroke-opacity="0.12" stroke-width="3.78666"/>
<line x1="200.551" y1="155.654" x2="-69.7432" y2="605.498" stroke="#0054F9" stroke-opacity="0.12" stroke-width="3.78666"/>
<line x1="201.402" y1="167.763" x2="-68.8917" y2="617.607" stroke="#0054F9" stroke-opacity="0.12" stroke-width="3.78666"/>
<line x1="202.255" y1="179.868" x2="-68.0391" y2="629.713" stroke="#0054F9" stroke-opacity="0.12" stroke-width="3.78666"/>
<line x1="203.106" y1="191.976" x2="-67.1876" y2="641.82" stroke="#0054F9" stroke-opacity="0.12" stroke-width="3.78666"/>
<line x1="203.959" y1="204.083" x2="-66.335" y2="653.928" stroke="#0054F9" stroke-opacity="0.12" stroke-width="3.78666"/>
<line x1="204.81" y1="216.19" x2="-65.4835" y2="666.035" stroke="#0054F9" stroke-opacity="0.12" stroke-width="3.78666"/>
<line x1="205.662" y1="228.3" x2="-64.6319" y2="678.144" stroke="#0054F9" stroke-opacity="0.12" stroke-width="3.78666"/>
<line x1="206.515" y1="240.405" x2="-63.7794" y2="690.25" stroke="#0054F9" stroke-opacity="0.12" stroke-width="3.78666"/>
<line x1="207.366" y1="252.516" x2="-62.9278" y2="702.361" stroke="#0054F9" stroke-opacity="0.12" stroke-width="3.78666"/>
<line x1="208.218" y1="264.616" x2="-62.0762" y2="714.461" stroke="#0054F9" stroke-opacity="0.12" stroke-width="3.78666"/>
<line x1="209.071" y1="276.727" x2="-61.2227" y2="726.572" stroke="#0054F9" stroke-opacity="0.12" stroke-width="3.78666"/>
</g>
<path d="M39.4734 294.993C39.4734 293.951 39.6431 293.139 39.9824 292.557C40.3216 291.97 40.9154 291.676 41.7636 291.676C42.6057 291.676 43.1965 291.97 43.5357 292.557C43.875 293.139 44.0447 293.951 44.0447 294.993C44.0447 296.053 43.875 296.877 43.5357 297.465C43.1965 298.053 42.6057 298.346 41.7636 298.346C40.9154 298.346 40.3216 298.053 39.9824 297.465C39.6431 296.877 39.4734 296.053 39.4734 294.993ZM43.2268 294.993C43.2268 294.466 43.1904 294.021 43.1177 293.657C43.0511 293.287 42.9087 292.991 42.6906 292.766C42.4785 292.542 42.1695 292.43 41.7636 292.43C41.3516 292.43 41.0366 292.542 40.8184 292.766C40.6064 292.991 40.464 293.287 40.3913 293.657C40.3247 294.021 40.2913 294.466 40.2913 294.993C40.2913 295.538 40.3247 295.996 40.3913 296.365C40.464 296.735 40.6064 297.032 40.8184 297.256C41.0366 297.48 41.3516 297.592 41.7636 297.592C42.1695 297.592 42.4785 297.48 42.6906 297.256C42.9087 297.032 43.0511 296.735 43.1177 296.365C43.1904 295.996 43.2268 295.538 43.2268 294.993ZM45.0801 297.683C45.8495 297.065 46.4523 296.559 46.8886 296.165C47.3248 295.765 47.6913 295.35 47.9882 294.92C48.2911 294.484 48.4426 294.057 48.4426 293.639C48.4426 293.245 48.3457 292.936 48.1518 292.712C47.964 292.482 47.658 292.367 47.2339 292.367C46.8219 292.367 46.5008 292.497 46.2706 292.757C46.0464 293.012 45.9252 293.354 45.9071 293.784H45.1073C45.1316 293.106 45.3376 292.582 45.7253 292.212C46.1131 291.842 46.6129 291.658 47.2248 291.658C47.8489 291.658 48.3426 291.83 48.7062 292.176C49.0757 292.521 49.2605 292.997 49.2605 293.603C49.2605 294.105 49.1091 294.596 48.8061 295.075C48.5093 295.547 48.17 295.965 47.7883 296.329C47.4066 296.686 46.9189 297.104 46.3251 297.583H49.4514V298.274H45.0801V297.683Z" fill="#0054F9"/>
<g clip-path="url(#clip1_2366_54020)">
<rect x="76.8115" y="165.387" width="52.7531" height="117.386" rx="26.3765" fill="#3995F8" fill-opacity="0.04"/>
<line x1="238.914" y1="-105.519" x2="-31.3799" y2="344.326" stroke="#0054F9" stroke-opacity="0.12" stroke-width="3.78666"/>
<line x1="239.765" y1="-93.4112" x2="-30.5284" y2="356.433" stroke="#0054F9" stroke-opacity="0.12" stroke-width="3.78666"/>
<line x1="240.617" y1="-81.3038" x2="-29.6768" y2="368.541" stroke="#0054F9" stroke-opacity="0.12" stroke-width="3.78666"/>
<line x1="241.47" y1="-69.1948" x2="-28.8243" y2="380.65" stroke="#0054F9" stroke-opacity="0.12" stroke-width="3.78666"/>
<line x1="242.321" y1="-57.0892" x2="-27.9727" y2="392.755" stroke="#0054F9" stroke-opacity="0.12" stroke-width="3.78666"/>
<line x1="243.173" y1="-44.9836" x2="-27.1212" y2="404.861" stroke="#0054F9" stroke-opacity="0.12" stroke-width="3.78666"/>
<line x1="244.025" y1="-32.8762" x2="-26.2686" y2="416.968" stroke="#0054F9" stroke-opacity="0.12" stroke-width="3.78666"/>
<line x1="244.878" y1="-20.7689" x2="-25.4161" y2="429.076" stroke="#0054F9" stroke-opacity="0.12" stroke-width="3.78666"/>
<line x1="245.728" y1="-8.66146" x2="-24.5655" y2="441.183" stroke="#0054F9" stroke-opacity="0.12" stroke-width="3.78666"/>
<line x1="246.581" y1="3.44755" x2="-23.713" y2="453.292" stroke="#0054F9" stroke-opacity="0.12" stroke-width="3.78666"/>
<line x1="247.433" y1="15.5514" x2="-22.8604" y2="465.396" stroke="#0054F9" stroke-opacity="0.12" stroke-width="3.78666"/>
<line x1="248.285" y1="27.6606" x2="-22.0089" y2="477.505" stroke="#0054F9" stroke-opacity="0.12" stroke-width="3.78666"/>
<line x1="249.137" y1="39.7679" x2="-21.1573" y2="489.612" stroke="#0054F9" stroke-opacity="0.12" stroke-width="3.78666"/>
<line x1="249.989" y1="51.8717" x2="-20.3048" y2="501.716" stroke="#0054F9" stroke-opacity="0.12" stroke-width="3.78666"/>
<line x1="250.841" y1="63.9826" x2="-19.4532" y2="513.827" stroke="#0054F9" stroke-opacity="0.12" stroke-width="3.78666"/>
<line x1="251.692" y1="76.0882" x2="-18.6016" y2="525.933" stroke="#0054F9" stroke-opacity="0.12" stroke-width="3.78666"/>
<line x1="252.546" y1="88.1955" x2="-17.7481" y2="538.04" stroke="#0054F9" stroke-opacity="0.12" stroke-width="3.78666"/>
<line x1="253.397" y1="100.305" x2="-16.8965" y2="550.149" stroke="#0054F9" stroke-opacity="0.12" stroke-width="3.78666"/>
<line x1="254.249" y1="112.412" x2="-16.045" y2="562.256" stroke="#0054F9" stroke-opacity="0.12" stroke-width="3.78666"/>
<line x1="255.101" y1="124.516" x2="-15.1924" y2="574.36" stroke="#0054F9" stroke-opacity="0.12" stroke-width="3.78666"/>
<line x1="255.952" y1="136.623" x2="-14.3419" y2="586.468" stroke="#0054F9" stroke-opacity="0.12" stroke-width="3.78666"/>
<line x1="256.805" y1="148.732" x2="-13.4893" y2="598.577" stroke="#0054F9" stroke-opacity="0.12" stroke-width="3.78666"/>
<line x1="257.658" y1="160.838" x2="-12.6358" y2="610.682" stroke="#0054F9" stroke-opacity="0.12" stroke-width="3.78666"/>
<line x1="258.509" y1="172.945" x2="-11.7852" y2="622.79" stroke="#0054F9" stroke-opacity="0.12" stroke-width="3.78666"/>
<line x1="259.361" y1="185.053" x2="-10.9327" y2="634.897" stroke="#0054F9" stroke-opacity="0.12" stroke-width="3.78666"/>
<line x1="260.213" y1="197.16" x2="-10.0811" y2="647.004" stroke="#0054F9" stroke-opacity="0.12" stroke-width="3.78666"/>
<line x1="261.065" y1="209.265" x2="-9.22858" y2="659.11" stroke="#0054F9" stroke-opacity="0.12" stroke-width="3.78666"/>
<line x1="261.917" y1="221.373" x2="-8.37702" y2="671.217" stroke="#0054F9" stroke-opacity="0.12" stroke-width="3.78666"/>
<line x1="262.769" y1="233.482" x2="-7.52448" y2="683.326" stroke="#0054F9" stroke-opacity="0.12" stroke-width="3.78666"/>
<line x1="263.621" y1="245.589" x2="-6.67292" y2="695.434" stroke="#0054F9" stroke-opacity="0.12" stroke-width="3.78666"/>
<line x1="264.473" y1="257.697" x2="-5.82135" y2="707.541" stroke="#0054F9" stroke-opacity="0.12" stroke-width="3.78666"/>
<line x1="265.325" y1="269.802" x2="-4.96881" y2="719.647" stroke="#0054F9" stroke-opacity="0.12" stroke-width="3.78666"/>
<line x1="266.178" y1="281.91" x2="-4.11627" y2="731.754" stroke="#0054F9" stroke-opacity="0.12" stroke-width="3.78666"/>
</g>
<path d="M97.7519 294.993C97.7519 293.951 97.9216 293.139 98.2609 292.557C98.6001 291.97 99.1939 291.676 100.042 291.676C100.884 291.676 101.475 291.97 101.814 292.557C102.154 293.139 102.323 293.951 102.323 294.993C102.323 296.053 102.154 296.877 101.814 297.465C101.475 298.053 100.884 298.346 100.042 298.346C99.1939 298.346 98.6001 298.053 98.2609 297.465C97.9216 296.877 97.7519 296.053 97.7519 294.993ZM101.505 294.993C101.505 294.466 101.469 294.021 101.396 293.657C101.33 293.287 101.187 292.991 100.969 292.766C100.757 292.542 100.448 292.43 100.042 292.43C99.6301 292.43 99.3151 292.542 99.097 292.766C98.8849 292.991 98.7425 293.287 98.6698 293.657C98.6032 294.021 98.5698 294.466 98.5698 294.993C98.5698 295.538 98.6032 295.996 98.6698 296.365C98.7425 296.735 98.8849 297.032 99.097 297.256C99.3151 297.48 99.6301 297.592 100.042 297.592C100.448 297.592 100.757 297.48 100.969 297.256C101.187 297.032 101.33 296.735 101.396 296.365C101.469 295.996 101.505 295.538 101.505 294.993ZM103.44 293.43C103.483 292.872 103.698 292.436 104.086 292.121C104.473 291.806 104.976 291.649 105.594 291.649C106.006 291.649 106.361 291.724 106.658 291.876C106.96 292.021 107.188 292.221 107.339 292.476C107.497 292.73 107.575 293.018 107.575 293.339C107.575 293.715 107.466 294.039 107.248 294.311C107.036 294.584 106.757 294.76 106.412 294.838V294.884C106.806 294.981 107.118 295.172 107.348 295.456C107.578 295.741 107.694 296.114 107.694 296.574C107.694 296.92 107.615 297.232 107.457 297.51C107.3 297.783 107.063 297.998 106.748 298.156C106.433 298.313 106.055 298.392 105.612 298.392C104.97 298.392 104.443 298.225 104.031 297.892C103.619 297.553 103.389 297.074 103.34 296.456H104.14C104.183 296.82 104.331 297.117 104.585 297.347C104.84 297.577 105.179 297.692 105.603 297.692C106.027 297.692 106.349 297.583 106.567 297.365C106.791 297.141 106.903 296.853 106.903 296.502C106.903 296.047 106.751 295.72 106.448 295.52C106.146 295.32 105.688 295.22 105.076 295.22H104.867V294.529H105.085C105.643 294.523 106.064 294.433 106.349 294.257C106.633 294.075 106.776 293.796 106.776 293.421C106.776 293.1 106.67 292.842 106.458 292.648C106.252 292.454 105.955 292.357 105.567 292.357C105.191 292.357 104.888 292.454 104.658 292.648C104.428 292.842 104.292 293.103 104.249 293.43H103.44Z" fill="#0054F9"/>
<g clip-path="url(#clip2_2366_54020)">
<rect x="135.623" y="165.387" width="52.7531" height="117.386" rx="26.3765" fill="#3995F8" fill-opacity="0.04"/>
<line x1="297.726" y1="-105.519" x2="27.4326" y2="344.326" stroke="#0054F9" stroke-opacity="0.12" stroke-width="3.78666"/>
<line x1="298.577" y1="-93.4112" x2="28.2831" y2="356.433" stroke="#0054F9" stroke-opacity="0.12" stroke-width="3.78666"/>
<line x1="299.43" y1="-81.3039" x2="29.1357" y2="368.541" stroke="#0054F9" stroke-opacity="0.12" stroke-width="3.78666"/>
<line x1="300.282" y1="-69.1948" x2="29.9882" y2="380.65" stroke="#0054F9" stroke-opacity="0.12" stroke-width="3.78666"/>
<line x1="301.133" y1="-57.0892" x2="30.8388" y2="392.755" stroke="#0054F9" stroke-opacity="0.12" stroke-width="3.78666"/>
<line x1="301.985" y1="-44.9836" x2="31.6913" y2="404.861" stroke="#0054F9" stroke-opacity="0.12" stroke-width="3.78666"/>
<line x1="302.838" y1="-32.8762" x2="32.5439" y2="416.968" stroke="#0054F9" stroke-opacity="0.12" stroke-width="3.78666"/>
<line x1="303.689" y1="-20.7689" x2="33.3954" y2="429.076" stroke="#0054F9" stroke-opacity="0.12" stroke-width="3.78666"/>
<line x1="304.541" y1="-8.66158" x2="34.247" y2="441.183" stroke="#0054F9" stroke-opacity="0.12" stroke-width="3.78666"/>
<line x1="305.393" y1="3.44755" x2="35.0995" y2="453.292" stroke="#0054F9" stroke-opacity="0.12" stroke-width="3.78666"/>
<line x1="306.245" y1="15.5514" x2="35.9511" y2="465.396" stroke="#0054F9" stroke-opacity="0.12" stroke-width="3.78666"/>
<line x1="307.098" y1="27.6604" x2="36.8036" y2="477.505" stroke="#0054F9" stroke-opacity="0.12" stroke-width="3.78666"/>
<line x1="307.949" y1="39.7679" x2="37.6552" y2="489.612" stroke="#0054F9" stroke-opacity="0.12" stroke-width="3.78666"/>
<line x1="308.801" y1="51.8717" x2="38.5068" y2="501.716" stroke="#0054F9" stroke-opacity="0.12" stroke-width="3.78666"/>
<line x1="309.653" y1="63.9826" x2="39.3593" y2="513.827" stroke="#0054F9" stroke-opacity="0.12" stroke-width="3.78666"/>
<line x1="310.505" y1="76.0882" x2="40.2109" y2="525.933" stroke="#0054F9" stroke-opacity="0.12" stroke-width="3.78666"/>
<line x1="311.357" y1="88.1955" x2="41.0634" y2="538.04" stroke="#0054F9" stroke-opacity="0.12" stroke-width="3.78666"/>
<line x1="312.21" y1="100.305" x2="41.916" y2="550.149" stroke="#0054F9" stroke-opacity="0.12" stroke-width="3.78666"/>
<line x1="313.061" y1="112.412" x2="42.7675" y2="562.256" stroke="#0054F9" stroke-opacity="0.12" stroke-width="3.78666"/>
<line x1="313.914" y1="124.516" x2="43.6201" y2="574.36" stroke="#0054F9" stroke-opacity="0.12" stroke-width="3.78666"/>
<line x1="314.765" y1="136.623" x2="44.4706" y2="586.468" stroke="#0054F9" stroke-opacity="0.12" stroke-width="3.78666"/>
<line x1="315.617" y1="148.732" x2="45.3232" y2="598.577" stroke="#0054F9" stroke-opacity="0.12" stroke-width="3.78666"/>
<line x1="316.47" y1="160.838" x2="46.1757" y2="610.682" stroke="#0054F9" stroke-opacity="0.12" stroke-width="3.78666"/>
<line x1="317.32" y1="172.945" x2="47.0263" y2="622.79" stroke="#0054F9" stroke-opacity="0.12" stroke-width="3.78666"/>
<line x1="318.174" y1="185.053" x2="47.8798" y2="634.897" stroke="#0054F9" stroke-opacity="0.12" stroke-width="3.78666"/>
<line x1="319.025" y1="197.16" x2="48.7314" y2="647.004" stroke="#0054F9" stroke-opacity="0.12" stroke-width="3.78666"/>
<line x1="319.878" y1="209.265" x2="49.5839" y2="659.11" stroke="#0054F9" stroke-opacity="0.12" stroke-width="3.78666"/>
<line x1="320.729" y1="221.373" x2="50.4355" y2="671.217" stroke="#0054F9" stroke-opacity="0.12" stroke-width="3.78666"/>
<line x1="321.582" y1="233.482" x2="51.288" y2="683.326" stroke="#0054F9" stroke-opacity="0.12" stroke-width="3.78666"/>
<line x1="322.432" y1="245.589" x2="52.1386" y2="695.434" stroke="#0054F9" stroke-opacity="0.12" stroke-width="3.78666"/>
<line x1="323.285" y1="257.697" x2="52.9911" y2="707.541" stroke="#0054F9" stroke-opacity="0.12" stroke-width="3.78666"/>
<line x1="324.138" y1="269.802" x2="53.8437" y2="719.647" stroke="#0054F9" stroke-opacity="0.12" stroke-width="3.78666"/>
<line x1="324.989" y1="281.909" x2="54.6952" y2="731.754" stroke="#0054F9" stroke-opacity="0.12" stroke-width="3.78666"/>
</g>
<path d="M156.563 294.993C156.563 293.951 156.733 293.139 157.072 292.557C157.412 291.97 158.005 291.676 158.854 291.676C159.696 291.676 160.286 291.97 160.626 292.557C160.965 293.139 161.135 293.951 161.135 294.993C161.135 296.053 160.965 296.877 160.626 297.465C160.286 298.053 159.696 298.346 158.854 298.346C158.005 298.346 157.412 298.053 157.072 297.465C156.733 296.877 156.563 296.053 156.563 294.993ZM160.317 294.993C160.317 294.466 160.28 294.021 160.208 293.657C160.141 293.287 159.999 292.991 159.781 292.766C159.569 292.542 159.26 292.43 158.854 292.43C158.442 292.43 158.127 292.542 157.908 292.766C157.696 292.991 157.554 293.287 157.481 293.657C157.415 294.021 157.381 294.466 157.381 294.993C157.381 295.538 157.415 295.996 157.481 296.365C157.554 296.735 157.696 297.032 157.908 297.256C158.127 297.48 158.442 297.592 158.854 297.592C159.26 297.592 159.569 297.48 159.781 297.256C159.999 297.032 160.141 296.735 160.208 296.365C160.28 295.996 160.317 295.538 160.317 294.993ZM162.07 296.883V296.256L165.26 291.839H166.251V296.165H167.159V296.883H166.251V298.346H165.433V296.883H162.07ZM165.469 292.703L163.024 296.165H165.469V292.703Z" fill="#0054F9"/>
<g clip-path="url(#clip3_2366_54020)">
<rect x="194.436" y="165.387" width="52.7531" height="117.386" rx="26.3765" fill="#3995F8" fill-opacity="0.04"/>
<line x1="356.538" y1="-105.519" x2="86.2441" y2="344.326" stroke="#0054F9" stroke-opacity="0.12" stroke-width="3.78666"/>
<line x1="357.39" y1="-93.4112" x2="87.0956" y2="356.433" stroke="#0054F9" stroke-opacity="0.12" stroke-width="3.78666"/>
<line x1="358.241" y1="-81.3038" x2="87.9472" y2="368.541" stroke="#0054F9" stroke-opacity="0.12" stroke-width="3.78666"/>
<line x1="359.094" y1="-69.1948" x2="88.7997" y2="380.65" stroke="#0054F9" stroke-opacity="0.12" stroke-width="3.78666"/>
<line x1="359.945" y1="-57.0892" x2="89.6513" y2="392.755" stroke="#0054F9" stroke-opacity="0.12" stroke-width="3.78666"/>
<line x1="360.797" y1="-44.9836" x2="90.5029" y2="404.861" stroke="#0054F9" stroke-opacity="0.12" stroke-width="3.78666"/>
<line x1="361.649" y1="-32.8762" x2="91.3554" y2="416.968" stroke="#0054F9" stroke-opacity="0.12" stroke-width="3.78666"/>
<line x1="362.502" y1="-20.7689" x2="92.2079" y2="429.076" stroke="#0054F9" stroke-opacity="0.12" stroke-width="3.78666"/>
<line x1="363.352" y1="-8.66146" x2="93.0585" y2="441.183" stroke="#0054F9" stroke-opacity="0.12" stroke-width="3.78666"/>
<line x1="364.205" y1="3.44755" x2="93.9111" y2="453.292" stroke="#0054F9" stroke-opacity="0.12" stroke-width="3.78666"/>
<line x1="365.057" y1="15.5514" x2="94.7636" y2="465.396" stroke="#0054F9" stroke-opacity="0.12" stroke-width="3.78666"/>
<line x1="365.909" y1="27.6606" x2="95.6152" y2="477.505" stroke="#0054F9" stroke-opacity="0.12" stroke-width="3.78666"/>
<line x1="366.761" y1="39.7679" x2="96.4667" y2="489.612" stroke="#0054F9" stroke-opacity="0.12" stroke-width="3.78666"/>
<line x1="367.613" y1="51.8717" x2="97.3193" y2="501.716" stroke="#0054F9" stroke-opacity="0.12" stroke-width="3.78666"/>
<line x1="368.465" y1="63.9826" x2="98.1708" y2="513.827" stroke="#0054F9" stroke-opacity="0.12" stroke-width="3.78666"/>
<line x1="369.316" y1="76.0882" x2="99.0224" y2="525.933" stroke="#0054F9" stroke-opacity="0.12" stroke-width="3.78666"/>
<line x1="370.17" y1="88.1955" x2="99.8759" y2="538.04" stroke="#0054F9" stroke-opacity="0.12" stroke-width="3.78666"/>
<line x1="371.021" y1="100.305" x2="100.727" y2="550.149" stroke="#0054F9" stroke-opacity="0.12" stroke-width="3.78666"/>
<line x1="371.873" y1="112.412" x2="101.579" y2="562.256" stroke="#0054F9" stroke-opacity="0.12" stroke-width="3.78666"/>
<line x1="372.725" y1="124.516" x2="102.432" y2="574.36" stroke="#0054F9" stroke-opacity="0.12" stroke-width="3.78666"/>
<line x1="373.577" y1="136.623" x2="103.283" y2="586.468" stroke="#0054F9" stroke-opacity="0.12" stroke-width="3.78666"/>
<line x1="374.429" y1="148.732" x2="104.135" y2="598.577" stroke="#0054F9" stroke-opacity="0.12" stroke-width="3.78666"/>
<line x1="375.282" y1="160.838" x2="104.988" y2="610.682" stroke="#0054F9" stroke-opacity="0.12" stroke-width="3.78666"/>
<line x1="376.133" y1="172.945" x2="105.839" y2="622.79" stroke="#0054F9" stroke-opacity="0.12" stroke-width="3.78666"/>
<line x1="376.985" y1="185.053" x2="106.691" y2="634.897" stroke="#0054F9" stroke-opacity="0.12" stroke-width="3.78666"/>
<line x1="377.837" y1="197.16" x2="107.543" y2="647.004" stroke="#0054F9" stroke-opacity="0.12" stroke-width="3.78666"/>
<line x1="378.689" y1="209.265" x2="108.395" y2="659.11" stroke="#0054F9" stroke-opacity="0.12" stroke-width="3.78666"/>
<line x1="379.541" y1="221.373" x2="109.247" y2="671.217" stroke="#0054F9" stroke-opacity="0.12" stroke-width="3.78666"/>
<line x1="380.393" y1="233.482" x2="110.1" y2="683.326" stroke="#0054F9" stroke-opacity="0.12" stroke-width="3.78666"/>
<line x1="381.245" y1="245.589" x2="110.951" y2="695.434" stroke="#0054F9" stroke-opacity="0.12" stroke-width="3.78666"/>
<line x1="382.097" y1="257.697" x2="111.803" y2="707.541" stroke="#0054F9" stroke-opacity="0.12" stroke-width="3.78666"/>
<line x1="382.949" y1="269.802" x2="112.655" y2="719.647" stroke="#0054F9" stroke-opacity="0.12" stroke-width="3.78666"/>
<line x1="383.802" y1="281.91" x2="113.508" y2="731.754" stroke="#0054F9" stroke-opacity="0.12" stroke-width="3.78666"/>
</g>
<path d="M215.376 294.993C215.376 293.951 215.546 293.139 215.885 292.557C216.224 291.97 216.818 291.676 217.666 291.676C218.508 291.676 219.099 291.97 219.438 292.557C219.778 293.139 219.947 293.951 219.947 294.993C219.947 296.053 219.778 296.877 219.438 297.465C219.099 298.053 218.508 298.346 217.666 298.346C216.818 298.346 216.224 298.053 215.885 297.465C215.546 296.877 215.376 296.053 215.376 294.993ZM219.129 294.993C219.129 294.466 219.093 294.021 219.02 293.657C218.954 293.287 218.811 292.991 218.593 292.766C218.381 292.542 218.072 292.43 217.666 292.43C217.254 292.43 216.939 292.542 216.721 292.766C216.509 292.991 216.367 293.287 216.294 293.657C216.227 294.021 216.194 294.466 216.194 294.993C216.194 295.538 216.227 295.996 216.294 296.365C216.367 296.735 216.509 297.032 216.721 297.256C216.939 297.48 217.254 297.592 217.666 297.592C218.072 297.592 218.381 297.48 218.593 297.256C218.811 297.032 218.954 296.735 219.02 296.365C219.093 295.996 219.129 295.538 219.129 294.993ZM225.272 292.494H222.082V294.566C222.222 294.372 222.428 294.214 222.7 294.093C222.973 293.966 223.267 293.902 223.582 293.902C224.085 293.902 224.494 294.008 224.809 294.22C225.124 294.426 225.348 294.696 225.481 295.029C225.62 295.356 225.69 295.705 225.69 296.074C225.69 296.511 225.608 296.901 225.445 297.247C225.281 297.592 225.03 297.865 224.69 298.065C224.357 298.265 223.942 298.365 223.445 298.365C222.809 298.365 222.294 298.201 221.9 297.874C221.507 297.547 221.267 297.11 221.183 296.565H221.991C222.07 296.911 222.237 297.18 222.491 297.374C222.746 297.568 223.067 297.665 223.455 297.665C223.933 297.665 224.294 297.522 224.536 297.238C224.778 296.947 224.9 296.565 224.9 296.093C224.9 295.62 224.778 295.257 224.536 295.002C224.294 294.742 223.936 294.611 223.464 294.611C223.143 294.611 222.861 294.69 222.618 294.848C222.382 294.999 222.209 295.208 222.1 295.475H221.319V291.767H225.272V292.494Z" fill="#0054F9"/>
<g clip-path="url(#clip4_2366_54020)">
<rect x="253.247" y="182.805" width="52.7531" height="99.9677" rx="26.3765" fill="#3995F8" fill-opacity="0.04"/>
<line x1="415.35" y1="-88.103" x2="145.057" y2="361.742" stroke="#0054F9" stroke-opacity="0.12" stroke-width="3.78666"/>
<line x1="416.202" y1="-75.9957" x2="145.908" y2="373.849" stroke="#0054F9" stroke-opacity="0.12" stroke-width="3.78666"/>
<line x1="417.054" y1="-63.8883" x2="146.76" y2="385.956" stroke="#0054F9" stroke-opacity="0.12" stroke-width="3.78666"/>
<line x1="417.906" y1="-51.7793" x2="147.612" y2="398.065" stroke="#0054F9" stroke-opacity="0.12" stroke-width="3.78666"/>
<line x1="418.758" y1="-39.6737" x2="148.464" y2="410.171" stroke="#0054F9" stroke-opacity="0.12" stroke-width="3.78666"/>
<line x1="419.609" y1="-27.5698" x2="149.315" y2="422.275" stroke="#0054F9" stroke-opacity="0.12" stroke-width="3.78666"/>
<line x1="420.462" y1="-15.4607" x2="150.168" y2="434.384" stroke="#0054F9" stroke-opacity="0.12" stroke-width="3.78666"/>
<line x1="421.313" y1="-3.35336" x2="151.019" y2="446.491" stroke="#0054F9" stroke-opacity="0.12" stroke-width="3.78666"/>
<line x1="422.165" y1="8.75407" x2="151.871" y2="458.599" stroke="#0054F9" stroke-opacity="0.12" stroke-width="3.78666"/>
<line x1="423.017" y1="20.8631" x2="152.724" y2="470.708" stroke="#0054F9" stroke-opacity="0.12" stroke-width="3.78666"/>
<line x1="423.87" y1="32.9687" x2="153.576" y2="482.813" stroke="#0054F9" stroke-opacity="0.12" stroke-width="3.78666"/>
<line x1="424.722" y1="45.0761" x2="154.428" y2="494.921" stroke="#0054F9" stroke-opacity="0.12" stroke-width="3.78666"/>
<line x1="425.573" y1="57.1834" x2="155.279" y2="507.028" stroke="#0054F9" stroke-opacity="0.12" stroke-width="3.78666"/>
<line x1="426.426" y1="69.2908" x2="156.132" y2="519.135" stroke="#0054F9" stroke-opacity="0.12" stroke-width="3.78666"/>
<line x1="427.277" y1="81.3963" x2="156.983" y2="531.241" stroke="#0054F9" stroke-opacity="0.12" stroke-width="3.78666"/>
<line x1="428.129" y1="93.5037" x2="157.835" y2="543.348" stroke="#0054F9" stroke-opacity="0.12" stroke-width="3.78666"/>
<line x1="428.981" y1="105.611" x2="158.687" y2="555.456" stroke="#0054F9" stroke-opacity="0.12" stroke-width="3.78666"/>
<line x1="429.833" y1="117.72" x2="159.539" y2="567.565" stroke="#0054F9" stroke-opacity="0.12" stroke-width="3.78666"/>
<line x1="430.685" y1="129.827" x2="160.392" y2="579.672" stroke="#0054F9" stroke-opacity="0.12" stroke-width="3.78666"/>
<line x1="431.538" y1="141.931" x2="161.244" y2="591.776" stroke="#0054F9" stroke-opacity="0.12" stroke-width="3.78666"/>
<line x1="432.39" y1="154.04" x2="162.096" y2="603.885" stroke="#0054F9" stroke-opacity="0.12" stroke-width="3.78666"/>
<line x1="433.241" y1="166.148" x2="162.947" y2="615.992" stroke="#0054F9" stroke-opacity="0.12" stroke-width="3.78666"/>
<line x1="434.094" y1="178.255" x2="163.8" y2="628.1" stroke="#0054F9" stroke-opacity="0.12" stroke-width="3.78666"/>
<line x1="434.945" y1="190.361" x2="164.651" y2="640.206" stroke="#0054F9" stroke-opacity="0.12" stroke-width="3.78666"/>
<line x1="435.798" y1="202.468" x2="165.504" y2="652.313" stroke="#0054F9" stroke-opacity="0.12" stroke-width="3.78666"/>
<line x1="436.649" y1="214.575" x2="166.355" y2="664.42" stroke="#0054F9" stroke-opacity="0.12" stroke-width="3.78666"/>
<line x1="437.502" y1="226.681" x2="167.208" y2="676.525" stroke="#0054F9" stroke-opacity="0.12" stroke-width="3.78666"/>
<line x1="438.353" y1="238.789" x2="168.06" y2="688.633" stroke="#0054F9" stroke-opacity="0.12" stroke-width="3.78666"/>
<line x1="439.205" y1="250.899" x2="168.911" y2="700.744" stroke="#0054F9" stroke-opacity="0.12" stroke-width="3.78666"/>
<line x1="440.057" y1="263.005" x2="169.764" y2="712.849" stroke="#0054F9" stroke-opacity="0.12" stroke-width="3.78666"/>
<line x1="440.909" y1="275.112" x2="170.615" y2="724.957" stroke="#0054F9" stroke-opacity="0.12" stroke-width="3.78666"/>
<rect x="253.386" y="182.805" width="117.249" height="100.243" rx="7.57331" fill="#0054F9"/>
</g>
<path d="M274.45 294.993C274.45 293.951 274.619 293.139 274.959 292.557C275.298 291.97 275.892 291.676 276.74 291.676C277.582 291.676 278.173 291.97 278.512 292.557C278.851 293.139 279.021 293.951 279.021 294.993C279.021 296.053 278.851 296.877 278.512 297.465C278.173 298.053 277.582 298.346 276.74 298.346C275.892 298.346 275.298 298.053 274.959 297.465C274.619 296.877 274.45 296.053 274.45 294.993ZM278.203 294.993C278.203 294.466 278.167 294.021 278.094 293.657C278.027 293.287 277.885 292.991 277.667 292.766C277.455 292.542 277.146 292.43 276.74 292.43C276.328 292.43 276.013 292.542 275.795 292.766C275.583 292.991 275.44 293.287 275.368 293.657C275.301 294.021 275.268 294.466 275.268 294.993C275.268 295.538 275.301 295.996 275.368 296.365C275.44 296.735 275.583 297.032 275.795 297.256C276.013 297.48 276.328 297.592 276.74 297.592C277.146 297.592 277.455 297.48 277.667 297.256C277.885 297.032 278.027 296.735 278.094 296.365C278.167 295.996 278.203 295.538 278.203 294.993ZM283.819 293.339C283.686 292.666 283.271 292.33 282.574 292.33C282.035 292.33 281.632 292.539 281.365 292.957C281.099 293.369 280.968 294.051 280.974 295.002C281.114 294.687 281.344 294.442 281.665 294.266C281.992 294.084 282.356 293.993 282.756 293.993C283.38 293.993 283.876 294.187 284.246 294.575C284.622 294.963 284.809 295.499 284.809 296.183C284.809 296.595 284.728 296.965 284.564 297.292C284.407 297.619 284.164 297.88 283.837 298.074C283.516 298.268 283.125 298.365 282.665 298.365C282.041 298.365 281.553 298.225 281.202 297.947C280.85 297.668 280.605 297.283 280.465 296.792C280.326 296.302 280.256 295.696 280.256 294.975C280.256 292.751 281.032 291.64 282.583 291.64C283.177 291.64 283.643 291.8 283.982 292.121C284.322 292.442 284.522 292.848 284.582 293.339H283.819ZM282.583 294.693C282.322 294.693 282.077 294.748 281.847 294.857C281.617 294.96 281.429 295.12 281.283 295.338C281.144 295.55 281.074 295.811 281.074 296.12C281.074 296.58 281.208 296.956 281.474 297.247C281.741 297.532 282.122 297.674 282.619 297.674C283.043 297.674 283.38 297.544 283.628 297.283C283.882 297.017 284.01 296.659 284.01 296.211C284.01 295.738 283.889 295.369 283.646 295.102C283.404 294.829 283.049 294.693 282.583 294.693Z" fill="#0054F9"/>
<defs>
<clipPath id="clip0_2366_54020">
<rect x="18" y="135.989" width="52.7531" height="146.785" rx="26.3765" fill="white"/>
</clipPath>
<clipPath id="clip1_2366_54020">
<rect x="76.8115" y="165.387" width="52.7531" height="117.386" rx="26.3765" fill="white"/>
</clipPath>
<clipPath id="clip2_2366_54020">
<rect x="135.623" y="165.387" width="52.7531" height="117.386" rx="26.3765" fill="white"/>
</clipPath>
<clipPath id="clip3_2366_54020">
<rect x="194.436" y="165.387" width="52.7531" height="117.386" rx="26.3765" fill="white"/>
</clipPath>
<clipPath id="clip4_2366_54020">
<rect x="253.247" y="182.805" width="52.7531" height="99.9677" rx="26.3765" fill="white"/>
</clipPath>
</defs>
</svg>
