<svg width="223" height="164" viewBox="0 0 223 164" fill="none" xmlns="http://www.w3.org/2000/svg">
<rect width="223" height="164" fill="white" fill-opacity="0.6"/>
<path d="M10.9146 22.5V13.6513H16.7464V14.8984H12.3161V17.4402H16.5089V18.6873H12.3161V21.2529H16.7464V22.5H10.9146ZM16.9197 22.5L19.1645 19.2812L16.9197 16.0743H18.4994L20.3404 18.7586H19.5802L21.4212 16.0743H23.001L20.7442 19.2812L22.9891 22.5H21.4094L19.5921 19.8038H20.3285L18.4994 22.5H16.9197ZM23.5611 24.8755V16.0743H24.8438V17.4045L24.6894 17.0957C24.927 16.7315 25.2437 16.4464 25.6396 16.2406C26.0355 16.0347 26.4869 15.9317 26.9937 15.9317C27.6034 15.9317 28.1497 16.0782 28.6327 16.3712C29.1237 16.6642 29.5077 17.0641 29.7849 17.5708C30.0699 18.0776 30.2125 18.6477 30.2125 19.2812C30.2125 19.9147 30.0699 20.4848 29.7849 20.9916C29.5077 21.4983 29.1276 21.9022 28.6446 22.2031C28.1616 22.496 27.6113 22.6425 26.9937 22.6425C26.4948 22.6425 26.0395 22.5396 25.6277 22.3337C25.2239 22.1278 24.9111 21.8309 24.6894 21.4429L24.9032 21.1935V24.8755H23.5611ZM26.863 21.3954C27.2431 21.3954 27.5796 21.3043 27.8726 21.1222C28.1656 20.9401 28.3952 20.6907 28.5615 20.3739C28.7357 20.0493 28.8228 19.685 28.8228 19.2812C28.8228 18.8774 28.7357 18.5171 28.5615 18.2003C28.3952 17.8836 28.1656 17.6342 27.8726 17.4521C27.5796 17.2699 27.2431 17.1789 26.863 17.1789C26.4908 17.1789 26.1543 17.2699 25.8534 17.4521C25.5604 17.6342 25.3268 17.8836 25.1526 18.2003C24.9864 18.5171 24.9032 18.8774 24.9032 19.2812C24.9032 19.685 24.9864 20.0493 25.1526 20.3739C25.3268 20.6907 25.5604 20.9401 25.8534 21.1222C26.1543 21.3043 26.4908 21.3954 26.863 21.3954ZM34.1786 22.6425C33.5372 22.6425 32.9671 22.496 32.4683 22.2031C31.9773 21.9022 31.5933 21.4983 31.3161 20.9916C31.039 20.4769 30.9004 19.9028 30.9004 19.2693C30.9004 18.62 31.039 18.0459 31.3161 17.5471C31.6012 17.0482 31.9813 16.6563 32.4564 16.3712C32.9315 16.0782 33.4699 15.9317 34.0717 15.9317C34.5547 15.9317 34.9863 16.0149 35.3664 16.1812C35.7464 16.3475 36.0671 16.5771 36.3284 16.8701C36.5898 17.1551 36.7877 17.4837 36.9223 17.8559C37.0649 18.2281 37.1361 18.624 37.1361 19.0436C37.1361 19.1466 37.1322 19.2535 37.1242 19.3643C37.1163 19.4752 37.1005 19.5781 37.0767 19.6732H31.9575V18.6042H36.3166L35.6752 19.0912C35.7544 18.7032 35.7267 18.3587 35.592 18.0578C35.4653 17.749 35.2674 17.5075 34.9982 17.3333C34.7369 17.1512 34.428 17.0601 34.0717 17.0601C33.7154 17.0601 33.3987 17.1512 33.1215 17.3333C32.8444 17.5075 32.6306 17.7609 32.4801 18.0934C32.3297 18.4181 32.2703 18.814 32.302 19.2812C32.2624 19.7167 32.3218 20.0968 32.4801 20.4214C32.6464 20.7461 32.876 20.9995 33.169 21.1816C33.4699 21.3637 33.8104 21.4548 34.1905 21.4548C34.5785 21.4548 34.9071 21.3677 35.1763 21.1935C35.4535 21.0193 35.6712 20.7936 35.8296 20.5165L36.9223 21.0509C36.7956 21.3518 36.5977 21.625 36.3284 21.8705C36.0671 22.108 35.7504 22.2981 35.3782 22.4406C35.014 22.5752 34.6141 22.6425 34.1786 22.6425ZM38.0897 22.5V16.0743H39.3724V17.3333L39.218 17.167C39.3764 16.7632 39.6298 16.4583 39.9782 16.2524C40.3266 16.0386 40.7304 15.9317 41.1897 15.9317C41.6648 15.9317 42.0845 16.0347 42.4487 16.2406C42.8129 16.4464 43.098 16.7315 43.3039 17.0957C43.5098 17.46 43.6127 17.8796 43.6127 18.3547V22.5H42.2824V18.7111C42.2824 18.3864 42.223 18.1132 42.1043 17.8915C41.9855 17.6619 41.8152 17.4877 41.5935 17.3689C41.3797 17.2422 41.1343 17.1789 40.8571 17.1789C40.58 17.1789 40.3305 17.2422 40.1088 17.3689C39.895 17.4877 39.7288 17.6619 39.61 17.8915C39.4912 18.1212 39.4318 18.3943 39.4318 18.7111V22.5H38.0897ZM47.0683 22.6425C46.4111 22.6425 45.8331 22.4802 45.3342 22.1556C44.8433 21.8309 44.4988 21.3954 44.3009 20.849L45.3342 20.362C45.5084 20.7263 45.7459 21.0153 46.0468 21.2291C46.3557 21.4429 46.6961 21.5498 47.0683 21.5498C47.385 21.5498 47.6424 21.4785 47.8403 21.336C48.0383 21.1935 48.1373 20.9995 48.1373 20.754C48.1373 20.5956 48.0937 20.4689 48.0066 20.3739C47.9195 20.271 47.8087 20.1878 47.6741 20.1245C47.5474 20.0612 47.4167 20.0136 47.2821 19.982L46.2725 19.6969C45.7182 19.5385 45.3025 19.301 45.0254 18.9843C44.7562 18.6596 44.6215 18.2835 44.6215 17.8559C44.6215 17.4679 44.7205 17.1314 44.9185 16.8463C45.1164 16.5533 45.3896 16.3277 45.738 16.1693C46.0864 16.0109 46.4784 15.9317 46.9139 15.9317C47.4999 15.9317 48.0225 16.0782 48.4817 16.3712C48.941 16.6563 49.2656 17.0561 49.4557 17.5708L48.4223 18.0578C48.2957 17.749 48.0937 17.5035 47.8166 17.3214C47.5474 17.1393 47.2425 17.0482 46.902 17.0482C46.609 17.0482 46.3755 17.1195 46.2013 17.262C46.027 17.3966 45.9399 17.5748 45.9399 17.7965C45.9399 17.947 45.9795 18.0736 46.0587 18.1766C46.1379 18.2716 46.2408 18.3508 46.3675 18.4141C46.4942 18.4696 46.6249 18.5171 46.7595 18.5567L47.8047 18.8655C48.3352 19.0159 48.743 19.2535 49.0281 19.5781C49.3132 19.8949 49.4557 20.2749 49.4557 20.7184C49.4557 21.0985 49.3528 21.435 49.1469 21.728C48.9489 22.013 48.6718 22.2387 48.3154 22.405C47.9591 22.5633 47.5434 22.6425 47.0683 22.6425ZM53.4313 22.6425C52.7899 22.6425 52.2198 22.496 51.721 22.2031C51.23 21.9022 50.846 21.4983 50.5688 20.9916C50.2917 20.4769 50.1531 19.9028 50.1531 19.2693C50.1531 18.62 50.2917 18.0459 50.5688 17.5471C50.8539 17.0482 51.234 16.6563 51.7091 16.3712C52.1842 16.0782 52.7226 15.9317 53.3244 15.9317C53.8074 15.9317 54.239 16.0149 54.6191 16.1812C54.9991 16.3475 55.3198 16.5771 55.5811 16.8701C55.8424 17.1551 56.0404 17.4837 56.175 17.8559C56.3175 18.2281 56.3888 18.624 56.3888 19.0436C56.3888 19.1466 56.3849 19.2535 56.3769 19.3643C56.369 19.4752 56.3532 19.5781 56.3294 19.6732H51.2102V18.6042H55.5693L54.9279 19.0912C55.0071 18.7032 54.9794 18.3587 54.8447 18.0578C54.718 17.749 54.5201 17.5075 54.2509 17.3333C53.9896 17.1512 53.6807 17.0601 53.3244 17.0601C52.9681 17.0601 52.6514 17.1512 52.3742 17.3333C52.0971 17.5075 51.8833 17.7609 51.7328 18.0934C51.5824 18.4181 51.523 18.814 51.5547 19.2812C51.5151 19.7167 51.5745 20.0968 51.7328 20.4214C51.8991 20.7461 52.1287 20.9995 52.4217 21.1816C52.7226 21.3637 53.0631 21.4548 53.4432 21.4548C53.8312 21.4548 54.1598 21.3677 54.429 21.1935C54.7062 21.0193 54.9239 20.7936 55.0823 20.5165L56.175 21.0509C56.0483 21.3518 55.8504 21.625 55.5811 21.8705C55.3198 22.108 55.0031 22.2981 54.6309 22.4406C54.2667 22.5752 53.8668 22.6425 53.4313 22.6425ZM59.7179 22.6425C59.0606 22.6425 58.4826 22.4802 57.9837 22.1556C57.4928 21.8309 57.1484 21.3954 56.9504 20.849L57.9837 20.362C58.1579 20.7263 58.3955 21.0153 58.6964 21.2291C59.0052 21.4429 59.3457 21.5498 59.7179 21.5498C60.0346 21.5498 60.2919 21.4785 60.4899 21.336C60.6879 21.1935 60.7868 20.9995 60.7868 20.754C60.7868 20.5956 60.7433 20.4689 60.6562 20.3739C60.5691 20.271 60.4582 20.1878 60.3236 20.1245C60.1969 20.0612 60.0663 20.0136 59.9317 19.982L58.9221 19.6969C58.3678 19.5385 57.9521 19.301 57.6749 18.9843C57.4057 18.6596 57.2711 18.2835 57.2711 17.8559C57.2711 17.4679 57.3701 17.1314 57.568 16.8463C57.766 16.5533 58.0392 16.3277 58.3876 16.1693C58.736 16.0109 59.1279 15.9317 59.5635 15.9317C60.1494 15.9317 60.672 16.0782 61.1313 16.3712C61.5905 16.6563 61.9152 17.0561 62.1052 17.5708L61.0719 18.0578C60.9452 17.749 60.7433 17.5035 60.4661 17.3214C60.1969 17.1393 59.8921 17.0482 59.5516 17.0482C59.2586 17.0482 59.025 17.1195 58.8508 17.262C58.6766 17.3966 58.5895 17.5748 58.5895 17.7965C58.5895 17.947 58.6291 18.0736 58.7083 18.1766C58.7875 18.2716 58.8904 18.3508 59.0171 18.4141C59.1438 18.4696 59.2744 18.5171 59.409 18.5567L60.4543 18.8655C60.9848 19.0159 61.3926 19.2535 61.6776 19.5781C61.9627 19.8949 62.1052 20.2749 62.1052 20.7184C62.1052 21.0985 62.0023 21.435 61.7964 21.728C61.5985 22.013 61.3213 22.2387 60.965 22.405C60.6087 22.5633 60.193 22.6425 59.7179 22.6425Z" fill="black"/>
<rect x="168" y="10" width="45" height="15" rx="7.5" fill="#F3F4F7"/>
<path d="M177.656 15.8904V20H177.116V16.9356L175.75 20H175.37L173.998 16.9297V20H173.457V15.8904H174.039L175.56 19.2873L177.08 15.8904H177.656ZM179.992 20.0534C179.687 20.0534 179.41 19.9842 179.16 19.8456C178.915 19.707 178.721 19.511 178.578 19.2577C178.44 19.0003 178.371 18.7034 178.371 18.3668C178.371 18.0343 178.442 17.7413 178.584 17.4879C178.731 17.2306 178.929 17.0346 179.178 16.9C179.428 16.7614 179.707 16.6921 180.016 16.6921C180.324 16.6921 180.604 16.7614 180.853 16.9C181.102 17.0346 181.298 17.2286 181.441 17.482C181.587 17.7354 181.661 18.0303 181.661 18.3668C181.661 18.7034 181.585 19.0003 181.435 19.2577C181.288 19.511 181.089 19.707 180.835 19.8456C180.582 19.9842 180.301 20.0534 179.992 20.0534ZM179.992 19.5783C180.186 19.5783 180.368 19.5328 180.538 19.4418C180.708 19.3507 180.845 19.2141 180.948 19.032C181.055 18.8499 181.108 18.6281 181.108 18.3668C181.108 18.1055 181.057 17.8838 180.954 17.7017C180.851 17.5196 180.716 17.385 180.55 17.2979C180.384 17.2068 180.204 17.1613 180.01 17.1613C179.812 17.1613 179.63 17.2068 179.463 17.2979C179.301 17.385 179.17 17.5196 179.071 17.7017C178.972 17.8838 178.923 18.1055 178.923 18.3668C178.923 18.6321 178.97 18.8558 179.065 19.0379C179.164 19.22 179.295 19.3566 179.457 19.4477C179.62 19.5348 179.798 19.5783 179.992 19.5783ZM183.957 16.6862C184.353 16.6862 184.673 16.8069 184.919 17.0484C185.164 17.286 185.287 17.6304 185.287 18.0818V20H184.753V18.159C184.753 17.8343 184.671 17.5869 184.509 17.4166C184.347 17.2424 184.125 17.1553 183.844 17.1553C183.559 17.1553 183.331 17.2444 183.161 17.4226C182.995 17.6007 182.912 17.8601 182.912 18.2006V20H182.371V16.7456H182.912V17.2088C183.019 17.0425 183.163 16.9138 183.345 16.8228C183.531 16.7317 183.735 16.6862 183.957 16.6862ZM186.829 17.191V19.1092C186.829 19.2676 186.863 19.3804 186.93 19.4477C186.997 19.511 187.114 19.5427 187.28 19.5427H187.678V20H187.191C186.89 20 186.665 19.9307 186.514 19.7921C186.364 19.6536 186.289 19.4259 186.289 19.1092V17.191H185.867V16.7456H186.289V15.926H186.829V16.7456H187.678V17.191H186.829ZM189.949 16.6862C190.194 16.6862 190.416 16.7396 190.614 16.8465C190.812 16.9495 190.966 17.1058 191.077 17.3157C191.192 17.5255 191.249 17.7809 191.249 18.0818V20H190.715V18.159C190.715 17.8343 190.633 17.5869 190.471 17.4166C190.309 17.2424 190.087 17.1553 189.806 17.1553C189.521 17.1553 189.293 17.2444 189.123 17.4226C188.957 17.6007 188.874 17.8601 188.874 18.2006V20H188.333V15.6053H188.874V17.2088C188.98 17.0425 189.127 16.9138 189.313 16.8228C189.503 16.7317 189.715 16.6862 189.949 16.6862ZM192.672 15.6053V20H192.132V15.6053H192.672ZM196.396 16.7456L194.437 21.5322H193.878L194.52 19.9644L193.207 16.7456H193.807L194.829 19.3824L195.838 16.7456H196.396Z" fill="#787878"/>
<path d="M201.36 16.4838L203.533 18.6571C203.79 18.9138 204.21 18.9138 204.466 18.6571L206.64 16.4838" stroke="#787878" stroke-width="0.539887" stroke-miterlimit="10" stroke-linecap="round" stroke-linejoin="round"/>
<path d="M19.0624 61.3452C17.624 61.3452 16.3485 61.0575 15.2361 60.4821C14.1428 59.9068 13.2797 59.13 12.6468 58.1518C12.0331 57.1545 11.7262 56.042 11.7262 54.8145C11.7262 53.4336 12.1098 52.2253 12.877 51.1896C13.6442 50.1538 14.699 49.4154 16.0416 48.9743L15.9841 49.6935C14.9676 49.2908 14.1716 48.6482 13.5962 47.766C13.04 46.8645 12.7619 45.8959 12.7619 44.8602C12.7619 43.767 13.0304 42.7984 13.5674 41.9545C14.1236 41.1106 14.8717 40.4489 15.8115 39.9694C16.7705 39.4707 17.8541 39.2214 19.0624 39.2214C20.2708 39.2214 21.3448 39.4611 22.2846 39.9406C23.2244 40.4201 23.9629 41.0914 24.4999 41.9545C25.0561 42.7984 25.3342 43.767 25.3342 44.8602C25.3342 45.9535 25.0369 46.9316 24.4424 47.7947C23.867 48.6578 23.0998 49.3003 22.1408 49.7223L22.0545 48.9743C23.4162 49.4154 24.4807 50.1634 25.2479 51.2183C26.0151 52.254 26.3987 53.4528 26.3987 54.8145C26.3987 56.042 26.0822 57.1545 25.4493 58.1518C24.8355 59.13 23.9725 59.9068 22.86 60.4821C21.7668 61.0575 20.5009 61.3452 19.0624 61.3452ZM19.0624 58.8998C19.9639 58.8998 20.7503 58.7272 21.4215 58.382C22.0928 58.0367 22.6107 57.5572 22.9751 56.9435C23.3587 56.3105 23.5505 55.5913 23.5505 54.7858C23.5505 53.961 23.3587 53.2418 22.9751 52.628C22.6107 51.9951 22.0928 51.5156 21.4215 51.1896C20.7503 50.8443 19.9639 50.6717 19.0624 50.6717C18.161 50.6717 17.365 50.8443 16.6746 51.1896C16.0033 51.5156 15.4854 51.9951 15.121 52.628C14.7566 53.2418 14.5744 53.961 14.5744 54.7858C14.5744 55.5913 14.7566 56.3105 15.121 56.9435C15.4854 57.5572 16.0033 58.0367 16.6746 58.382C17.365 58.7272 18.161 58.8998 19.0624 58.8998ZM19.0624 48.2263C19.7146 48.2263 20.2899 48.0824 20.7886 47.7947C21.3065 47.507 21.7188 47.1234 22.0257 46.6439C22.3326 46.1453 22.486 45.5699 22.486 44.9178C22.486 44.2657 22.3326 43.6999 22.0257 43.2204C21.7188 42.7409 21.3065 42.3669 20.7886 42.0983C20.2899 41.8106 19.7146 41.6668 19.0624 41.6668C18.3911 41.6668 17.7966 41.8106 17.2787 42.0983C16.7609 42.3669 16.3485 42.7409 16.0416 43.2204C15.7347 43.6999 15.5813 44.2657 15.5813 44.9178C15.5813 45.5699 15.7347 46.1453 16.0416 46.6439C16.3485 47.1234 16.7609 47.507 17.2787 47.7947C17.7966 48.0824 18.3911 48.2263 19.0624 48.2263ZM36.7243 61.3452C35.6119 61.3452 34.5666 61.1534 33.5884 60.7698C32.6102 60.3671 31.7567 59.8013 31.0279 59.0724C30.3183 58.3244 29.8004 57.4517 29.4744 56.4544L31.7759 55.4762C32.1787 56.5311 32.8308 57.3558 33.7323 57.9504C34.6529 58.5258 35.6502 58.8135 36.7243 58.8135C37.6066 58.8135 38.3834 58.6217 39.0546 58.2381C39.7451 57.8353 40.2821 57.2887 40.6657 56.5982C41.0493 55.8886 41.2411 55.1022 41.2411 54.2391C41.2411 53.3377 41.0397 52.5417 40.637 51.8513C40.2534 51.1608 39.7259 50.6237 39.0546 50.2402C38.3834 49.8374 37.6162 49.636 36.7531 49.636C35.8708 49.636 35.0653 49.8374 34.3364 50.2402C33.6076 50.6429 33.0801 51.1512 32.7541 51.7649L30.4813 51.2759L32.1212 39.5666H43.2262V42.012H33.1856L34.2789 40.9188L33.013 50.01L32.0349 49.4346C32.6678 48.6291 33.4062 48.0537 34.2501 47.7084C35.1132 47.344 36.0434 47.1618 37.0408 47.1618C38.4409 47.1618 39.6684 47.4783 40.7233 48.1112C41.7782 48.7441 42.6029 49.588 43.1975 50.6429C43.792 51.6978 44.0893 52.8966 44.0893 54.2391C44.0893 55.5817 43.7633 56.79 43.1112 57.8641C42.4782 58.9382 41.6056 59.7917 40.4931 60.4246C39.3999 61.0384 38.1436 61.3452 36.7243 61.3452ZM49.9356 61L67.4276 39.5666H70.621L53.1291 61H49.9356ZM53.1578 50.4415C52.103 50.4415 51.1536 50.1922 50.3096 49.6935C49.4657 49.1757 48.7849 48.4948 48.267 47.6509C47.7683 46.807 47.519 45.8672 47.519 44.8315C47.519 43.7958 47.7683 42.8559 48.267 42.012C48.7849 41.1489 49.4657 40.4681 50.3096 39.9694C51.1536 39.4707 52.103 39.2214 53.1578 39.2214C54.1935 39.2214 55.1334 39.4707 55.9773 39.9694C56.8212 40.4681 57.4925 41.1489 57.9911 42.012C58.4898 42.8559 58.7391 43.7958 58.7391 44.8315C58.7391 45.8672 58.4898 46.807 57.9911 47.6509C57.4925 48.4948 56.8212 49.1757 55.9773 49.6935C55.1334 50.1922 54.1935 50.4415 53.1578 50.4415ZM53.1291 48.0824C53.7812 48.0824 54.3374 47.929 54.7977 47.6221C55.258 47.3152 55.6224 46.9125 55.891 46.4138C56.1595 45.9151 56.2937 45.3877 56.2937 44.8315C56.2937 44.2561 56.1595 43.7286 55.891 43.2491C55.6224 42.7505 55.258 42.3477 54.7977 42.0408C54.3374 41.7147 53.7812 41.5517 53.1291 41.5517C52.5153 41.5517 51.9687 41.7147 51.4892 42.0408C51.0097 42.3477 50.6357 42.7505 50.3672 43.2491C50.0987 43.7478 49.9644 44.2752 49.9644 44.8315C49.9644 45.3685 50.0987 45.8959 50.3672 46.4138C50.6357 46.9125 51.0097 47.3152 51.4892 47.6221C51.9687 47.929 52.5153 48.0824 53.1291 48.0824ZM67.2262 61.3452C66.1713 61.3452 65.2219 61.0959 64.378 60.5972C63.5341 60.0794 62.8532 59.3985 62.3354 58.5546C61.8367 57.7107 61.5873 56.7709 61.5873 55.7352C61.5873 54.6994 61.8367 53.7596 62.3354 52.9157C62.8532 52.0526 63.5341 51.3718 64.378 50.8731C65.2219 50.3744 66.1713 50.1251 67.2262 50.1251C68.2619 50.1251 69.2017 50.3744 70.0456 50.8731C70.8895 51.3718 71.5608 52.0526 72.0595 52.9157C72.5582 53.7596 72.8075 54.6994 72.8075 55.7352C72.8075 56.7709 72.5582 57.7107 72.0595 58.5546C71.5608 59.3985 70.8895 60.0794 70.0456 60.5972C69.2017 61.0959 68.2619 61.3452 67.2262 61.3452ZM67.2262 58.9861C67.8591 58.9861 68.4058 58.8327 68.8661 58.5258C69.3456 58.2189 69.71 57.8162 69.9593 57.3175C70.2278 56.8188 70.3621 56.2914 70.3621 55.7352C70.3621 55.1598 70.2278 54.6323 69.9593 54.1528C69.71 53.6542 69.3456 53.2514 68.8661 52.9445C68.4058 52.6184 67.8591 52.4554 67.2262 52.4554C66.6124 52.4554 66.0562 52.6184 65.5576 52.9445C65.0781 53.2514 64.7041 53.6542 64.4355 54.1528C64.167 54.6515 64.0328 55.1789 64.0328 55.7352C64.0328 56.2722 64.167 56.7996 64.4355 57.3175C64.7041 57.8162 65.0781 58.2189 65.5576 58.5258C66.0562 58.8327 66.6124 58.9861 67.2262 58.9861Z" fill="#0054F9"/>
<rect opacity="0.12" x="10" y="113.837" width="23.8824" height="40.1598" rx="11.9412" fill="#0054F9"/>
<rect x="10" y="125.312" width="23.8824" height="28.6856" rx="11.9412" fill="#0054F9"/>
<rect opacity="0.12" x="45.8242" y="98.0605" width="23.8824" height="55.9368" rx="11.9412" fill="#0054F9"/>
<rect x="45.8242" y="113.837" width="23.8824" height="40.1598" rx="11.9412" fill="#0054F9"/>
<rect opacity="0.12" x="81.6475" y="111.688" width="23.8824" height="42.3112" rx="11.9412" fill="#0054F9"/>
<rect x="81.6484" y="126.749" width="23.8824" height="27.2513" rx="11.9412" fill="#0054F9"/>
<rect opacity="0.12" x="117.47" y="118.14" width="23.8824" height="35.857" rx="11.9412" fill="#0054F9"/>
<rect x="117.47" y="126.744" width="23.8824" height="27.2513" rx="11.9412" fill="#0054F9"/>
<rect opacity="0.12" x="153.293" y="92.3242" width="23.8824" height="61.674" rx="11.9412" fill="#0054F9"/>
<rect x="153.294" y="109.534" width="23.8824" height="44.4626" rx="11.9412" fill="#0054F9"/>
<rect opacity="0.12" x="189.116" y="83" width="23.8824" height="70.9968" rx="11.9412" fill="#0054F9"/>
<rect x="189.117" y="99.4922" width="23.8824" height="54.5026" rx="11.9412" fill="#0054F9"/>
</svg>
