<svg width="219" height="129" viewBox="0 0 219 129" fill="none" xmlns="http://www.w3.org/2000/svg">
<rect width="219" height="129" fill="white" fill-opacity="0.6"/>
<path d="M11 24.5C11 17.0442 17.0442 11 24.5 11C31.9558 11 38 17.0442 38 24.5C38 31.9558 31.9558 38 24.5 38C17.0442 38 11 31.9558 11 24.5Z" fill="#0054F9"/>
<path d="M28.3916 21.2144H29.1688C29.0602 21.0601 28.9459 20.9173 28.8259 20.7744L28.3916 21.2144Z" fill="white"/>
<path d="M28.2262 20.1681C28.0833 20.0481 27.9404 19.9338 27.7861 19.8252V20.6024L28.2262 20.1681Z" fill="white"/>
<path d="M28.8313 20.7742L30.5171 19.0884C30.6828 18.9227 30.6828 18.6484 30.5171 18.4827C30.3514 18.317 30.0771 18.317 29.9114 18.4827L28.2256 20.1685C28.4427 20.3571 28.6427 20.5628 28.8313 20.7742Z" fill="white"/>
<path d="M27.786 19.3573C27.786 19.123 27.5917 18.9287 27.3574 18.9287C27.1289 18.9287 26.946 19.1116 26.9346 19.3344C27.2317 19.4773 27.5175 19.6373 27.786 19.8259V19.3573Z" fill="white"/>
<path d="M30.0718 21.6425C30.0718 21.4082 29.8775 21.2139 29.6433 21.2139H29.1689C29.3575 21.4825 29.5232 21.7682 29.6604 22.0653C29.889 22.0539 30.0718 21.871 30.0718 21.6425Z" fill="white"/>
<path d="M24.9287 26.0711H25.1001C25.323 26.0711 25.5002 25.8711 25.5002 25.6253C25.5002 25.3168 25.4144 25.271 25.2202 25.2025L24.9287 25.0996V26.0711Z" fill="white"/>
<path d="M29.6657 22.0653C29.6599 22.0653 29.6542 22.071 29.6428 22.071H27.357C27.2998 22.071 27.2484 22.0596 27.1913 22.0367C27.0884 21.991 27.0027 21.911 26.957 21.8024C26.9398 21.751 26.9284 21.6996 26.9284 21.6424V19.3566C26.9284 19.3509 26.9341 19.3452 26.9341 19.3338C26.1912 18.9852 25.3683 18.7852 24.4997 18.7852C21.3453 18.7852 18.7852 21.3453 18.7852 24.4997C18.7852 27.6541 21.3453 30.2143 24.4997 30.2143C27.6541 30.2143 30.2143 27.6541 30.2143 24.4997C30.2143 23.6311 30.0142 22.8082 29.6657 22.0653ZM25.4998 24.3968C25.8655 24.5226 26.3569 24.7911 26.3569 25.6312C26.3569 26.3455 25.7912 26.9341 25.0997 26.9341H24.9283V27.077C24.9283 27.3113 24.734 27.5056 24.4997 27.5056C24.2654 27.5056 24.0711 27.3113 24.0711 27.077V26.9341H24.0254C23.2654 26.9341 22.6425 26.2941 22.6425 25.5055C22.6425 25.2655 22.8368 25.0712 23.0711 25.0712C23.3054 25.0712 23.4997 25.2655 23.4997 25.4998C23.4997 25.8141 23.734 26.0712 24.0254 26.0712H24.0711V24.8026L23.4997 24.6026C23.1339 24.4768 22.6425 24.2083 22.6425 23.3682C22.6425 22.6539 23.2082 22.0653 23.8997 22.0653H24.0711V21.9282C24.0711 21.6939 24.2654 21.4996 24.4997 21.4996C24.734 21.4996 24.9283 21.6939 24.9283 21.9282V22.071H24.974C25.734 22.071 26.3569 22.7111 26.3569 23.4997C26.3569 23.734 26.1626 23.9282 25.9283 23.9282C25.694 23.9282 25.4998 23.734 25.4998 23.4997C25.4998 23.1854 25.2655 22.9282 24.974 22.9282H24.9283V24.1968L25.4998 24.3968Z" fill="white"/>
<path d="M23.5 23.3744C23.5 23.683 23.5857 23.7287 23.78 23.7973L24.0715 23.9002V22.9287H23.9C23.6829 22.9287 23.5 23.1287 23.5 23.3744Z" fill="white"/>
<path d="M50.9091 19.9905V28H49.8558V19.9905H50.9091ZM55.3083 22.13C56.4823 22.13 57.1955 22.5908 57.3272 23.6771C57.3601 23.9733 57.3711 24.2147 57.3711 24.6865V28H56.3397V24.6426C56.3397 23.6771 56.1312 23.0407 54.9902 23.0407C54.1453 23.0187 53.509 23.6112 53.509 24.8949V28H52.4776V22.2836H53.4321L53.4651 23.304C53.6516 22.4482 54.3867 22.13 55.3083 22.13ZM61.1172 22.13C62.7081 22.13 63.4213 22.9529 63.5091 24.1489H62.4887C62.4338 23.4466 61.9291 23.0297 61.0953 23.0297C60.1078 23.0297 59.4934 23.6441 59.4934 25.1254C59.4934 26.5736 60.031 27.2649 61.0733 27.2649C61.8194 27.2649 62.39 26.8041 62.4887 26.1348H63.5091C63.3555 27.3417 62.5107 28.1536 61.0185 28.1536C59.241 28.1536 58.4181 27.0235 58.4181 25.1473C58.4181 23.2053 59.2849 22.13 61.1172 22.13ZM65.4079 25.1363C65.4079 26.6724 66.0333 27.2649 67.0866 27.2649C68.1399 27.2649 68.7653 26.6724 68.7653 25.1363C68.7653 23.6112 68.1399 23.0297 67.0866 23.0297C66.0333 23.0297 65.4079 23.6112 65.4079 25.1363ZM64.3327 25.1363C64.3327 23.0955 65.3531 22.13 67.0866 22.13C68.8202 22.13 69.8516 23.0955 69.8516 25.1363C69.8516 27.1881 68.8202 28.1536 67.0866 28.1536C65.3531 28.1536 64.3327 27.1881 64.3327 25.1363ZM73.6944 22.13C74.5612 22.13 75.0878 22.536 75.3182 23.1833C75.5157 22.3604 76.3496 22.13 77.0957 22.13C78.2368 22.13 78.8731 22.7115 78.9938 23.6551C79.0377 23.9514 79.0487 24.1927 79.0487 24.5219V28H78.0173V24.6865C78.0173 23.7648 77.8528 23.0297 76.8324 23.0297C75.9656 23.0297 75.4718 23.6112 75.4718 24.8401V28H74.4515V24.7084C74.4515 23.8087 74.2979 23.0297 73.2555 23.0297C72.4107 23.0297 71.9169 23.6003 71.9169 24.8291V28H70.8856V22.2836H71.8401L71.8731 23.1175C72.0486 22.3933 72.8166 22.13 73.6944 22.13ZM82.7493 22.13C84.5048 22.13 85.2619 23.3369 85.2619 25.0376C85.2619 25.1583 85.2619 25.3228 85.2509 25.4874H81.1584C81.2462 26.7821 81.7948 27.2649 82.7493 27.2649C83.5064 27.2649 84.0001 26.9357 84.1647 26.3103H85.1851C84.9657 27.4843 84.0879 28.1536 82.7164 28.1536C80.9828 28.1536 80.0941 27.1222 80.0941 25.1583C80.0941 23.2053 80.9828 22.13 82.7493 22.13ZM81.1694 24.6645H84.2086C84.1318 23.4686 83.5393 23.0297 82.7054 23.0297C81.8167 23.0297 81.2571 23.4466 81.1694 24.6645Z" fill="#060B13"/>
<rect x="11.3429" y="49.3429" width="196.314" height="68.3143" rx="5.14309" fill="white" fill-opacity="0.6"/>
<rect x="11.3429" y="49.3429" width="196.314" height="68.3143" rx="5.14309" stroke="#E0E7F5" stroke-width="0.685746"/>
<path d="M23.4318 65.4929L23.4318 71.5H22.6419L22.6419 65.4929H23.4318ZM26.7313 67.0975C27.6118 67.0975 28.1466 67.4431 28.2454 68.2578C28.2701 68.48 28.2783 68.661 28.2783 69.0149L28.2783 71.5H27.5048L27.5048 68.9819C27.5048 68.2578 27.3484 67.7805 26.4926 67.7805C25.859 67.7641 25.3817 68.2084 25.3817 69.1712V71.5H24.6082L24.6082 67.2127H25.3241L25.3488 67.978C25.4887 67.3362 26.04 67.0975 26.7313 67.0975ZM31.0879 67.0975C32.2811 67.0975 32.816 67.7147 32.8818 68.6116H32.1165C32.0754 68.085 31.6969 67.7723 31.0715 67.7723C30.3308 67.7723 29.87 68.2331 29.87 69.344C29.87 70.4302 30.2732 70.9487 31.055 70.9487C31.6146 70.9487 32.0425 70.603 32.1165 70.1011H32.8818C32.7666 71.0063 32.133 71.6152 31.0139 71.6152C29.6808 71.6152 29.0636 70.7676 29.0636 69.3605C29.0636 67.9039 29.7137 67.0975 31.0879 67.0975ZM34.3059 69.3522C34.3059 70.5043 34.775 70.9487 35.565 70.9487C36.355 70.9487 36.824 70.5043 36.824 69.3522C36.824 68.2084 36.355 67.7723 35.565 67.7723C34.775 67.7723 34.3059 68.2084 34.3059 69.3522ZM33.4995 69.3522C33.4995 67.8217 34.2648 67.0975 35.565 67.0975C36.8651 67.0975 37.6387 67.8217 37.6387 69.3522C37.6387 70.8911 36.8651 71.6152 35.565 71.6152C34.2648 71.6152 33.4995 70.8911 33.4995 69.3522ZM40.5208 67.0975C41.1709 67.0975 41.5659 67.402 41.7387 67.8875C41.8868 67.2703 42.5122 67.0975 43.0718 67.0975C43.9276 67.0975 44.4049 67.5336 44.4954 68.2413C44.5283 68.4635 44.5365 68.6446 44.5365 68.8914V71.5H43.763V69.0149C43.763 68.3236 43.6396 67.7723 42.8743 67.7723C42.2242 67.7723 41.8539 68.2084 41.8539 69.1301V71.5H41.0886V69.0313C41.0886 68.3565 40.9734 67.7723 40.1916 67.7723C39.558 67.7723 39.1877 68.2002 39.1877 69.1218V71.5H38.4142V67.2127H39.1301L39.1548 67.8381C39.2865 67.295 39.8625 67.0975 40.5208 67.0975ZM47.312 67.0975C48.6286 67.0975 49.1964 68.0027 49.1964 69.2782C49.1964 69.3687 49.1964 69.4921 49.1882 69.6156H46.1188C46.1846 70.5866 46.5961 70.9487 47.312 70.9487C47.8798 70.9487 48.2501 70.7018 48.3735 70.2327H49.1388C48.9742 71.1132 48.3159 71.6152 47.2873 71.6152C45.9871 71.6152 45.3206 70.8417 45.3206 69.3687C45.3206 67.9039 45.9871 67.0975 47.312 67.0975ZM46.127 68.9984H48.4064C48.3488 68.1014 47.9045 67.7723 47.2791 67.7723C46.6125 67.7723 46.1929 68.085 46.127 68.9984Z" fill="#909090"/>
<path d="M164.864 63.2883H165.818V64.188C167.135 64.3306 167.947 65.0987 167.991 66.4153H166.981C166.926 65.6253 166.488 65.2084 165.818 65.0767V67.4686C167.409 67.8087 168.21 68.478 168.21 69.6849C168.21 71.0125 167.091 71.6818 165.818 71.7915V72.6912H164.864V71.7806C163.547 71.6379 162.614 70.9138 162.505 69.5203H163.514C163.591 70.2994 164.063 70.7602 164.864 70.9028V68.3025C163.426 67.9843 162.702 67.4028 162.702 66.2507C162.702 65.0877 163.613 64.3416 164.864 64.199V63.2883ZM163.745 66.1849C163.745 66.8322 164.129 67.1614 164.864 67.3589V65.0657C164.172 65.1864 163.745 65.5704 163.745 66.1849ZM165.818 70.9248C166.597 70.837 167.168 70.4639 167.168 69.7727C167.168 69.0705 166.707 68.6536 165.818 68.4341V70.9248ZM172.032 63.8369C173.623 63.8369 174.567 64.8134 174.567 66.1081C174.567 67.3479 173.886 68.1818 172.076 69.7069L170.485 71.0564H174.622V72H169.147V70.9577L171.143 69.257C172.943 67.7319 173.491 67.1065 173.491 66.2068C173.491 65.351 172.91 64.8024 171.966 64.8024C170.858 64.8024 170.375 65.3839 170.299 66.3495H169.223C169.333 64.7695 170.156 63.8369 172.032 63.8369ZM176.772 70.5517V70.8589L176.168 73.7336H175.236L175.784 70.5517H176.772ZM180.469 72.1536C178.9 72.1536 178.153 71.3088 178.011 69.8934H179.086C179.218 70.7602 179.679 71.1881 180.512 71.1881C181.708 71.1881 182.268 70.3432 182.29 67.8746C182.081 68.6865 181.215 69.1692 180.304 69.1692C178.735 69.1692 177.879 68.1379 177.879 66.525C177.879 64.7914 179.075 63.8369 180.578 63.8369C182.301 63.8369 183.332 64.8353 183.332 67.4576C183.332 70.6066 182.63 72.1536 180.469 72.1536ZM178.932 66.5031C178.932 67.6332 179.569 68.2037 180.534 68.2037C181.653 68.2037 182.224 67.4796 182.224 66.6457C182.224 65.6692 181.796 64.8024 180.611 64.8024C179.602 64.8024 178.932 65.3949 178.932 66.5031ZM186.876 72.1536C185.307 72.1536 184.561 71.3088 184.418 69.8934H185.493C185.625 70.7602 186.086 71.1881 186.92 71.1881C188.116 71.1881 188.675 70.3432 188.697 67.8746C188.489 68.6865 187.622 69.1692 186.711 69.1692C185.142 69.1692 184.287 68.1379 184.287 66.525C184.287 64.7914 185.483 63.8369 186.986 63.8369C188.708 63.8369 189.74 64.8353 189.74 67.4576C189.74 70.6066 189.037 72.1536 186.876 72.1536ZM185.34 66.5031C185.34 67.6332 185.976 68.2037 186.942 68.2037C188.061 68.2037 188.631 67.4796 188.631 66.6457C188.631 65.6692 188.204 64.8024 187.019 64.8024C186.009 64.8024 185.34 65.3949 185.34 66.5031ZM193.283 72.1536C191.714 72.1536 190.968 71.3088 190.826 69.8934H191.901C192.033 70.7602 192.493 71.1881 193.327 71.1881C194.523 71.1881 195.083 70.3432 195.105 67.8746C194.896 68.6865 194.029 69.1692 193.119 69.1692C191.55 69.1692 190.694 68.1379 190.694 66.525C190.694 64.7914 191.89 63.8369 193.393 63.8369C195.116 63.8369 196.147 64.8353 196.147 67.4576C196.147 70.6066 195.445 72.1536 193.283 72.1536ZM191.747 66.5031C191.747 67.6332 192.384 68.2037 193.349 68.2037C194.468 68.2037 195.039 67.4796 195.039 66.6457C195.039 65.6692 194.611 64.8024 193.426 64.8024C192.417 64.8024 191.747 65.3949 191.747 66.5031Z" fill="#060B13"/>
<rect x="22" y="85" width="130" height="22" rx="5.48597" fill="#0054F9"/>
<path d="M30.1052 93.8981C31.079 93.8981 31.559 94.4055 31.6482 95.2833H30.9761C30.8938 94.7689 30.6058 94.5015 30.0778 94.5015C29.3441 94.5015 28.96 95.0295 28.9395 96.5519C29.0698 96.017 29.5772 95.7633 30.1807 95.7633C31.1407 95.7633 31.7373 96.401 31.7373 97.3885C31.7373 98.4857 30.9761 99.096 30.0092 99.096C28.9258 99.096 28.2812 98.424 28.2812 96.8262C28.2812 94.8581 28.768 93.8981 30.1052 93.8981ZM28.9738 97.3336C28.9738 97.9508 29.3166 98.4925 30.0367 98.4925C30.6607 98.4925 31.0859 98.0674 31.0859 97.4091C31.0859 96.7645 30.6676 96.3667 30.0298 96.3667C29.3303 96.3667 28.9738 96.8193 28.9738 97.3336ZM34.007 94.5015C33.2116 94.5015 32.9647 95.1461 32.9647 96.497C32.9647 97.8411 33.2116 98.4925 34.007 98.4925C34.7956 98.4925 35.0494 97.8411 35.0494 96.497C35.0494 95.1461 34.7956 94.5015 34.007 94.5015ZM32.2858 96.497C32.2858 94.8032 32.7315 93.8981 34.007 93.8981C35.2825 93.8981 35.7282 94.8032 35.7282 96.497C35.7282 98.184 35.2825 99.096 34.007 99.096C32.7315 99.096 32.2858 98.184 32.2858 96.497ZM40.5284 93.9941L37.3122 99H36.7705L39.9866 93.9941H40.5284ZM36.3865 95.0638C36.3865 94.3438 36.7636 93.8981 37.4288 93.8981C38.1077 93.8981 38.4986 94.3438 38.4986 95.0638C38.4986 95.7701 38.1077 96.2296 37.4288 96.2296C36.7636 96.2296 36.3865 95.7701 36.3865 95.0638ZM36.839 95.0638C36.839 95.5644 37.0448 95.825 37.4288 95.825C37.8128 95.825 38.0185 95.5644 38.0185 95.0638C38.0185 94.5564 37.8128 94.2958 37.4288 94.2958C37.0448 94.2958 36.839 94.5564 36.839 95.0638ZM38.91 97.9302C38.91 97.2102 39.294 96.7645 39.9523 96.7645C40.6312 96.7645 41.0221 97.2102 41.0221 97.9302C41.0221 98.6434 40.6312 99.096 39.9523 99.096C39.294 99.096 38.91 98.6434 38.91 97.9302ZM39.3626 97.9302C39.3626 98.4308 39.5683 98.6983 39.9523 98.6983C40.3364 98.6983 40.5421 98.4308 40.5421 97.9302C40.5421 97.4228 40.3364 97.1691 39.9523 97.1691C39.5683 97.1691 39.3626 97.4228 39.3626 97.9302Z" fill="white"/>
<rect x="155" y="85" width="42" height="22" rx="5.48597" fill="white" fill-opacity="0.6"/>
</svg>
