<svg width="36" height="36" viewBox="0 0 36 36" fill="none" xmlns="http://www.w3.org/2000/svg">
<rect width="36" height="36" rx="18" fill="#1D1D1D"/>
<path d="M18 8C23.5228 8 28 12.4772 28 18C28 18.6409 27.9396 19.2676 27.8244 19.875H19.875V27.8244C19.2676 27.9396 18.6409 28 18 28C12.4772 28 8 23.5228 8 18C8 12.4772 12.4772 8 18 8ZM14.9792 10.0833C12.2753 10.0833 10.0833 12.2753 10.0833 14.9792C10.0833 17.6831 12.2753 19.875 14.9792 19.875H19.875V14.9792C19.875 12.2753 17.6831 10.0833 14.9792 10.0833Z" fill="white"/>
</svg>
