<svg width="40" height="40" viewBox="0 0 40 40" fill="none" xmlns="http://www.w3.org/2000/svg">
<path fill-rule="evenodd" clip-rule="evenodd" d="M15.3553 21.2502C15.2153 22.5402 14.842 23.5702 14.192 24.4835C13.3203 25.7018 11.8587 26.8402 9.44199 28.0502C9.28696 28.1183 9.14739 28.2173 9.03176 28.341C8.91612 28.4647 8.82684 28.6107 8.76933 28.77C8.71182 28.9293 8.68728 29.0986 8.69719 29.2677C8.70711 29.4367 8.75128 29.602 8.82701 29.7535C8.90275 29.905 9.00848 30.0395 9.13778 30.1488C9.26709 30.2582 9.41727 30.3402 9.57921 30.3897C9.74115 30.4393 9.91147 30.4554 10.0798 30.4372C10.2482 30.4189 10.4111 30.3666 10.5587 30.2835C13.142 28.9935 15.0137 27.6318 16.2253 25.9335C17.4603 24.2068 17.917 22.2618 17.917 20.0002V12.5002C17.917 11.7266 17.6097 10.9847 17.0627 10.4378C16.5157 9.89079 15.7739 9.5835 15.0003 9.5835H8.33366C7.56011 9.5835 6.81825 9.89079 6.27126 10.4378C5.72428 10.9847 5.41699 11.7266 5.41699 12.5002V18.3335C5.41699 19.9435 6.72366 21.2502 8.33366 21.2502H15.3553ZM32.022 21.2502C31.882 22.5402 31.5087 23.5702 30.8587 24.4835C29.987 25.7018 28.5253 26.8402 26.1087 28.0502C25.9536 28.1183 25.8141 28.2173 25.6984 28.341C25.5828 28.4647 25.4935 28.6107 25.436 28.77C25.3785 28.9293 25.3539 29.0986 25.3639 29.2677C25.3738 29.4367 25.4179 29.602 25.4937 29.7535C25.5694 29.905 25.6751 30.0395 25.8045 30.1488C25.9338 30.2582 26.0839 30.3402 26.2459 30.3897C26.4078 30.4393 26.5781 30.4554 26.7465 30.4372C26.9149 30.4189 27.0778 30.3666 27.2253 30.2835C29.8087 28.9935 31.6803 27.6318 32.892 25.9335C34.127 24.2068 34.5837 22.2618 34.5837 20.0002V12.5002C34.5837 11.7266 34.2764 10.9847 33.7294 10.4378C33.1824 9.89079 32.4405 9.5835 31.667 9.5835H25.0003C24.2268 9.5835 23.4849 9.89079 22.9379 10.4378C22.3909 10.9847 22.0837 11.7266 22.0837 12.5002V18.3335C22.0837 19.9435 23.3903 21.2502 25.0003 21.2502H32.022Z" fill="black"/>
</svg>
